<?xml version="1.0" encoding="utf-8" standalone="no"?>
<!DOCTYPE svg PUBLIC "-//W3C//DTD SVG 1.1//EN"
  "http://www.w3.org/Graphics/SVG/1.1/DTD/svg11.dtd">
<svg xmlns:xlink="http://www.w3.org/1999/xlink" width="864pt" height="360pt" viewBox="0 0 864 360" xmlns="http://www.w3.org/2000/svg" version="1.1">
 <metadata>
  <rdf:RDF xmlns:dc="http://purl.org/dc/elements/1.1/" xmlns:cc="http://creativecommons.org/ns#" xmlns:rdf="http://www.w3.org/1999/02/22-rdf-syntax-ns#">
   <cc:Work>
    <dc:type rdf:resource="http://purl.org/dc/dcmitype/StillImage"/>
    <dc:date>2025-05-08T17:19:51.078921</dc:date>
    <dc:format>image/svg+xml</dc:format>
    <dc:creator>
     <cc:Agent>
      <dc:title>Matplotlib v3.10.0, https://matplotlib.org/</dc:title>
     </cc:Agent>
    </dc:creator>
   </cc:Work>
  </rdf:RDF>
 </metadata>
 <defs>
  <style type="text/css">*{stroke-linejoin: round; stroke-linecap: butt}</style>
 </defs>
 <g id="figure_1">
  <g id="patch_1">
   <path d="M 0 360 
L 864 360 
L 864 0 
L 0 0 
z
" style="fill: #ffffff"/>
  </g>
  <g id="axes_1">
   <g id="patch_2">
    <path d="M 196.11 293.29675 
L 826.74 293.29675 
L 826.74 17.28 
L 196.11 17.28 
z
" style="fill: #ffffff"/>
   </g>
   <g id="PathCollection_1">
    <defs>
     <path id="mb07053a527" d="M -2.738613 2.738613 
L 2.738613 -2.738613 
M -2.738613 -2.738613 
L 2.738613 2.738613 
" style="stroke: #006400; stroke-width: 1.5"/>
    </defs>
    <g clip-path="url(#pba8db6a1d1)">
     <use xlink:href="#mb07053a527" x="-1" y="287.163041" style="fill: #006400; stroke: #006400; stroke-width: 1.5"/>
     <use xlink:href="#mb07053a527" x="253.773205" y="287.16303" style="fill: #006400; stroke: #006400; stroke-width: 1.5"/>
     <use xlink:href="#mb07053a527" x="265.998326" y="287.163003" style="fill: #006400; stroke: #006400; stroke-width: 1.5"/>
     <use xlink:href="#mb07053a527" x="289.872443" y="287.151571" style="fill: #006400; stroke: #006400; stroke-width: 1.5"/>
     <use xlink:href="#mb07053a527" x="301.67811" y="287.148287" style="fill: #006400; stroke: #006400; stroke-width: 1.5"/>
     <use xlink:href="#mb07053a527" x="313.384068" y="287.126531" style="fill: #006400; stroke: #006400; stroke-width: 1.5"/>
     <use xlink:href="#mb07053a527" x="336.620261" y="286.911989" style="fill: #006400; stroke: #006400; stroke-width: 1.5"/>
     <use xlink:href="#mb07053a527" x="348.238818" y="285.675364" style="fill: #006400; stroke: #006400; stroke-width: 1.5"/>
     <use xlink:href="#mb07053a527" x="359.445215" y="286.821574" style="fill: #006400; stroke: #006400; stroke-width: 1.5"/>
     <use xlink:href="#mb07053a527" x="382.835998" y="276.656371" style="fill: #006400; stroke: #006400; stroke-width: 1.5"/>
     <use xlink:href="#mb07053a527" x="393.339464" y="280.924452" style="fill: #006400; stroke: #006400; stroke-width: 1.5"/>
     <use xlink:href="#mb07053a527" x="413.897798" y="160.190482" style="fill: #006400; stroke: #006400; stroke-width: 1.5"/>
     <use xlink:href="#mb07053a527" x="416.947388" y="260.224224" style="fill: #006400; stroke: #006400; stroke-width: 1.5"/>
     <use xlink:href="#mb07053a527" x="448.658907" y="67.603027" style="fill: #006400; stroke: #006400; stroke-width: 1.5"/>
     <use xlink:href="#mb07053a527" x="450.408684" y="255.490542" style="fill: #006400; stroke: #006400; stroke-width: 1.5"/>
     <use xlink:href="#mb07053a527" x="472.339098" y="265.290227" style="fill: #006400; stroke: #006400; stroke-width: 1.5"/>
     <use xlink:href="#mb07053a527" x="483.590014" y="230.994187" style="fill: #006400; stroke: #006400; stroke-width: 1.5"/>
     <use xlink:href="#mb07053a527" x="506.051964" y="251.315918" style="fill: #006400; stroke: #006400; stroke-width: 1.5"/>
     <use xlink:href="#mb07053a527" x="528.052156" y="285.313896" style="fill: #006400; stroke: #006400; stroke-width: 1.5"/>
     <use xlink:href="#mb07053a527" x="533.405353" y="61.660416" style="fill: #006400; stroke: #006400; stroke-width: 1.5"/>
     <use xlink:href="#mb07053a527" x="548.539416" y="209.117995" style="fill: #006400; stroke: #006400; stroke-width: 1.5"/>
     <use xlink:href="#mb07053a527" x="567.053997" y="134.523631" style="fill: #006400; stroke: #006400; stroke-width: 1.5"/>
     <use xlink:href="#mb07053a527" x="585.293555" y="216.519974" style="fill: #006400; stroke: #006400; stroke-width: 1.5"/>
     <use xlink:href="#mb07053a527" x="600.544336" y="203.158546" style="fill: #006400; stroke: #006400; stroke-width: 1.5"/>
     <use xlink:href="#mb07053a527" x="617.782011" y="254.297626" style="fill: #006400; stroke: #006400; stroke-width: 1.5"/>
     <use xlink:href="#mb07053a527" x="626.213193" y="280.384997" style="fill: #006400; stroke: #006400; stroke-width: 1.5"/>
     <use xlink:href="#mb07053a527" x="649.591533" y="270.630872" style="fill: #006400; stroke: #006400; stroke-width: 1.5"/>
     <use xlink:href="#mb07053a527" x="659.119705" y="283.971246" style="fill: #006400; stroke: #006400; stroke-width: 1.5"/>
     <use xlink:href="#mb07053a527" x="670.069896" y="284.596892" style="fill: #006400; stroke: #006400; stroke-width: 1.5"/>
     <use xlink:href="#mb07053a527" x="691.82162" y="286.454923" style="fill: #006400; stroke: #006400; stroke-width: 1.5"/>
     <use xlink:href="#mb07053a527" x="702.829011" y="286.077981" style="fill: #006400; stroke: #006400; stroke-width: 1.5"/>
     <use xlink:href="#mb07053a527" x="723.932073" y="287.137002" style="fill: #006400; stroke: #006400; stroke-width: 1.5"/>
     <use xlink:href="#mb07053a527" x="728.724588" y="285.248822" style="fill: #006400; stroke: #006400; stroke-width: 1.5"/>
     <use xlink:href="#mb07053a527" x="755.385784" y="287.147747" style="fill: #006400; stroke: #006400; stroke-width: 1.5"/>
     <use xlink:href="#mb07053a527" x="760.645306" y="286.574183" style="fill: #006400; stroke: #006400; stroke-width: 1.5"/>
     <use xlink:href="#mb07053a527" x="778.79044" y="287.030715" style="fill: #006400; stroke: #006400; stroke-width: 1.5"/>
     <use xlink:href="#mb07053a527" x="792.430115" y="287.010691" style="fill: #006400; stroke: #006400; stroke-width: 1.5"/>
     <use xlink:href="#mb07053a527" x="809.856944" y="287.142956" style="fill: #006400; stroke: #006400; stroke-width: 1.5"/>
     <use xlink:href="#mb07053a527" x="823.609519" y="287.129465" style="fill: #006400; stroke: #006400; stroke-width: 1.5"/>
     <use xlink:href="#mb07053a527" x="837.803773" y="287.143272" style="fill: #006400; stroke: #006400; stroke-width: 1.5"/>
     <use xlink:href="#mb07053a527" x="853.951821" y="287.156299" style="fill: #006400; stroke: #006400; stroke-width: 1.5"/>
     <use xlink:href="#mb07053a527" x="868.638069" y="287.158676" style="fill: #006400; stroke: #006400; stroke-width: 1.5"/>
     <use xlink:href="#mb07053a527" x="883.650574" y="287.161559" style="fill: #006400; stroke: #006400; stroke-width: 1.5"/>
     <use xlink:href="#mb07053a527" x="891.751817" y="287.162721" style="fill: #006400; stroke: #006400; stroke-width: 1.5"/>
     <use xlink:href="#mb07053a527" x="902.178824" y="287.162845" style="fill: #006400; stroke: #006400; stroke-width: 1.5"/>
    </g>
   </g>
   <g id="PathCollection_2">
    <defs>
     <path id="m4aa3d60c34" d="M -2.738613 2.738613 
L 2.738613 -2.738613 
M -2.738613 -2.738613 
L 2.738613 2.738613 
" style="stroke: #4169e1; stroke-width: 1.5"/>
    </defs>
    <g clip-path="url(#pba8db6a1d1)">
     <use xlink:href="#m4aa3d60c34" x="241.282334" y="287.163038" style="fill: #4169e1; stroke: #4169e1; stroke-width: 1.5"/>
     <use xlink:href="#m4aa3d60c34" x="242.27907" y="287.162679" style="fill: #4169e1; stroke: #4169e1; stroke-width: 1.5"/>
     <use xlink:href="#m4aa3d60c34" x="258.672859" y="287.155964" style="fill: #4169e1; stroke: #4169e1; stroke-width: 1.5"/>
     <use xlink:href="#m4aa3d60c34" x="275.496091" y="287.097923" style="fill: #4169e1; stroke: #4169e1; stroke-width: 1.5"/>
     <use xlink:href="#m4aa3d60c34" x="278.053005" y="287.162943" style="fill: #4169e1; stroke: #4169e1; stroke-width: 1.5"/>
     <use xlink:href="#m4aa3d60c34" x="292.698688" y="286.791592" style="fill: #4169e1; stroke: #4169e1; stroke-width: 1.5"/>
     <use xlink:href="#m4aa3d60c34" x="309.97144" y="285.561521" style="fill: #4169e1; stroke: #4169e1; stroke-width: 1.5"/>
     <use xlink:href="#m4aa3d60c34" x="325.023555" y="287.093484" style="fill: #4169e1; stroke: #4169e1; stroke-width: 1.5"/>
     <use xlink:href="#m4aa3d60c34" x="327.333195" y="281.929138" style="fill: #4169e1; stroke: #4169e1; stroke-width: 1.5"/>
     <use xlink:href="#m4aa3d60c34" x="344.649613" y="274.223435" style="fill: #4169e1; stroke: #4169e1; stroke-width: 1.5"/>
     <use xlink:href="#m4aa3d60c34" x="362.300333" y="255.966472" style="fill: #4169e1; stroke: #4169e1; stroke-width: 1.5"/>
     <use xlink:href="#m4aa3d60c34" x="371.076691" y="286.524485" style="fill: #4169e1; stroke: #4169e1; stroke-width: 1.5"/>
     <use xlink:href="#m4aa3d60c34" x="379.238646" y="235.764393" style="fill: #4169e1; stroke: #4169e1; stroke-width: 1.5"/>
     <use xlink:href="#m4aa3d60c34" x="397.392438" y="190.464417" style="fill: #4169e1; stroke: #4169e1; stroke-width: 1.5"/>
     <use xlink:href="#m4aa3d60c34" x="405.037071" y="287.144424" style="fill: #4169e1; stroke: #4169e1; stroke-width: 1.5"/>
     <use xlink:href="#m4aa3d60c34" x="427.154152" y="265.661784" style="fill: #4169e1; stroke: #4169e1; stroke-width: 1.5"/>
     <use xlink:href="#m4aa3d60c34" x="432.147787" y="99.025698" style="fill: #4169e1; stroke: #4169e1; stroke-width: 1.5"/>
     <use xlink:href="#m4aa3d60c34" x="438.684488" y="283.336273" style="fill: #4169e1; stroke: #4169e1; stroke-width: 1.5"/>
     <use xlink:href="#m4aa3d60c34" x="461.042231" y="254.726404" style="fill: #4169e1; stroke: #4169e1; stroke-width: 1.5"/>
     <use xlink:href="#m4aa3d60c34" x="466.272199" y="33.883731" style="fill: #4169e1; stroke: #4169e1; stroke-width: 1.5"/>
     <use xlink:href="#m4aa3d60c34" x="483.106066" y="45.135828" style="fill: #4169e1; stroke: #4169e1; stroke-width: 1.5"/>
     <use xlink:href="#m4aa3d60c34" x="494.790515" y="267.642324" style="fill: #4169e1; stroke: #4169e1; stroke-width: 1.5"/>
     <use xlink:href="#m4aa3d60c34" x="499.874006" y="22.244794" style="fill: #4169e1; stroke: #4169e1; stroke-width: 1.5"/>
     <use xlink:href="#m4aa3d60c34" x="515.864976" y="188.12114" style="fill: #4169e1; stroke: #4169e1; stroke-width: 1.5"/>
     <use xlink:href="#m4aa3d60c34" x="517.943601" y="110.289009" style="fill: #4169e1; stroke: #4169e1; stroke-width: 1.5"/>
     <use xlink:href="#m4aa3d60c34" x="539.507295" y="262.135106" style="fill: #4169e1; stroke: #4169e1; stroke-width: 1.5"/>
     <use xlink:href="#m4aa3d60c34" x="551.965987" y="158.62668" style="fill: #4169e1; stroke: #4169e1; stroke-width: 1.5"/>
     <use xlink:href="#m4aa3d60c34" x="560.807624" y="285.397651" style="fill: #4169e1; stroke: #4169e1; stroke-width: 1.5"/>
     <use xlink:href="#m4aa3d60c34" x="572.413057" y="279.940529" style="fill: #4169e1; stroke: #4169e1; stroke-width: 1.5"/>
     <use xlink:href="#m4aa3d60c34" x="581.491947" y="232.22303" style="fill: #4169e1; stroke: #4169e1; stroke-width: 1.5"/>
     <use xlink:href="#m4aa3d60c34" x="593.425239" y="280.237776" style="fill: #4169e1; stroke: #4169e1; stroke-width: 1.5"/>
     <use xlink:href="#m4aa3d60c34" x="604.849289" y="287.091737" style="fill: #4169e1; stroke: #4169e1; stroke-width: 1.5"/>
     <use xlink:href="#m4aa3d60c34" x="614.735454" y="257.558489" style="fill: #4169e1; stroke: #4169e1; stroke-width: 1.5"/>
     <use xlink:href="#m4aa3d60c34" x="633.398625" y="250.361731" style="fill: #4169e1; stroke: #4169e1; stroke-width: 1.5"/>
     <use xlink:href="#m4aa3d60c34" x="637.297282" y="285.186094" style="fill: #4169e1; stroke: #4169e1; stroke-width: 1.5"/>
     <use xlink:href="#m4aa3d60c34" x="648.057671" y="277.031048" style="fill: #4169e1; stroke: #4169e1; stroke-width: 1.5"/>
     <use xlink:href="#m4aa3d60c34" x="665.414688" y="273.482963" style="fill: #4169e1; stroke: #4169e1; stroke-width: 1.5"/>
     <use xlink:href="#m4aa3d60c34" x="680.655481" y="286.612098" style="fill: #4169e1; stroke: #4169e1; stroke-width: 1.5"/>
     <use xlink:href="#m4aa3d60c34" x="681.596074" y="277.506695" style="fill: #4169e1; stroke: #4169e1; stroke-width: 1.5"/>
     <use xlink:href="#m4aa3d60c34" x="697.026227" y="281.952722" style="fill: #4169e1; stroke: #4169e1; stroke-width: 1.5"/>
     <use xlink:href="#m4aa3d60c34" x="711.899891" y="286.030926" style="fill: #4169e1; stroke: #4169e1; stroke-width: 1.5"/>
     <use xlink:href="#m4aa3d60c34" x="714.471873" y="284.696831" style="fill: #4169e1; stroke: #4169e1; stroke-width: 1.5"/>
     <use xlink:href="#m4aa3d60c34" x="735.141061" y="286.918017" style="fill: #4169e1; stroke: #4169e1; stroke-width: 1.5"/>
     <use xlink:href="#m4aa3d60c34" x="743.069205" y="286.612344" style="fill: #4169e1; stroke: #4169e1; stroke-width: 1.5"/>
     <use xlink:href="#m4aa3d60c34" x="746.966464" y="286.535321" style="fill: #4169e1; stroke: #4169e1; stroke-width: 1.5"/>
     <use xlink:href="#m4aa3d60c34" x="766.796812" y="287.139284" style="fill: #4169e1; stroke: #4169e1; stroke-width: 1.5"/>
     <use xlink:href="#m4aa3d60c34" x="774.497656" y="286.948108" style="fill: #4169e1; stroke: #4169e1; stroke-width: 1.5"/>
     <use xlink:href="#m4aa3d60c34" x="786.654192" y="287.136842" style="fill: #4169e1; stroke: #4169e1; stroke-width: 1.5"/>
     <use xlink:href="#m4aa3d60c34" x="797.987431" y="287.163044" style="fill: #4169e1; stroke: #4169e1; stroke-width: 1.5"/>
     <use xlink:href="#m4aa3d60c34" x="806.187871" y="287.093606" style="fill: #4169e1; stroke: #4169e1; stroke-width: 1.5"/>
     <use xlink:href="#m4aa3d60c34" x="818.093142" y="287.149534" style="fill: #4169e1; stroke: #4169e1; stroke-width: 1.5"/>
     <use xlink:href="#m4aa3d60c34" x="829.099954" y="287.161178" style="fill: #4169e1; stroke: #4169e1; stroke-width: 1.5"/>
     <use xlink:href="#m4aa3d60c34" x="840.33744" y="287.161939" style="fill: #4169e1; stroke: #4169e1; stroke-width: 1.5"/>
     <use xlink:href="#m4aa3d60c34" x="849.675468" y="287.158936" style="fill: #4169e1; stroke: #4169e1; stroke-width: 1.5"/>
     <use xlink:href="#m4aa3d60c34" x="860.380565" y="287.161833" style="fill: #4169e1; stroke: #4169e1; stroke-width: 1.5"/>
     <use xlink:href="#m4aa3d60c34" x="870.970582" y="287.162814" style="fill: #4169e1; stroke: #4169e1; stroke-width: 1.5"/>
     <use xlink:href="#m4aa3d60c34" x="881.256327" y="287.162216" style="fill: #4169e1; stroke: #4169e1; stroke-width: 1.5"/>
     <use xlink:href="#m4aa3d60c34" x="898.369887" y="287.162258" style="fill: #4169e1; stroke: #4169e1; stroke-width: 1.5"/>
    </g>
   </g>
   <g id="matplotlib.axis_1">
    <g id="xtick_1">
     <g id="line2d_1">
      <defs>
       <path id="m50411c7fda" d="M 0 0 
L 0 3.5 
" style="stroke: #000000; stroke-width: 1.2"/>
      </defs>
      <g>
       <use xlink:href="#m50411c7fda" x="230.198108" y="293.29675" style="stroke: #000000; stroke-width: 1.2"/>
      </g>
     </g>
     <g id="text_1">
      <!-- 10000 -->
      <g transform="translate(210.198108 311.22425) scale(0.16 -0.16)">
       <defs>
        <path id="STIXGeneral-Regular-31" d="M 2522 0 
L 755 0 
L 755 96 
Q 1107 115 1235 227 
Q 1363 339 1363 608 
L 1363 3482 
Q 1363 3795 1171 3795 
Q 1082 3795 883 3718 
L 710 3654 
L 710 3744 
L 1856 4326 
L 1914 4307 
L 1914 486 
Q 1914 275 2042 185 
Q 2170 96 2522 96 
L 2522 0 
z
" transform="scale(0.015625)"/>
        <path id="STIXGeneral-Regular-30" d="M 3046 2112 
Q 3046 1683 2963 1302 
Q 2880 922 2717 602 
Q 2554 282 2266 96 
Q 1978 -90 1600 -90 
Q 1210 -90 915 108 
Q 621 307 461 640 
Q 301 973 227 1350 
Q 154 1728 154 2150 
Q 154 2746 301 3222 
Q 448 3699 790 4012 
Q 1133 4326 1626 4326 
Q 2253 4326 2649 3712 
Q 3046 3098 3046 2112 
z
M 2432 2080 
Q 2432 3091 2217 3625 
Q 2003 4160 1587 4160 
Q 1190 4160 979 3622 
Q 768 3085 768 2106 
Q 768 1120 979 598 
Q 1190 77 1600 77 
Q 2003 77 2217 598 
Q 2432 1120 2432 2080 
z
" transform="scale(0.015625)"/>
       </defs>
       <use xlink:href="#STIXGeneral-Regular-31"/>
       <use xlink:href="#STIXGeneral-Regular-30" transform="translate(49.999985 0)"/>
       <use xlink:href="#STIXGeneral-Regular-30" transform="translate(99.999969 0)"/>
       <use xlink:href="#STIXGeneral-Regular-30" transform="translate(149.999954 0)"/>
       <use xlink:href="#STIXGeneral-Regular-30" transform="translate(199.999939 0)"/>
      </g>
     </g>
    </g>
    <g id="xtick_2">
     <g id="line2d_2">
      <g>
       <use xlink:href="#m50411c7fda" x="315.418378" y="293.29675" style="stroke: #000000; stroke-width: 1.2"/>
      </g>
     </g>
     <g id="text_2">
      <!-- 10250 -->
      <g transform="translate(295.418378 311.22425) scale(0.16 -0.16)">
       <defs>
        <path id="STIXGeneral-Regular-32" d="M 3034 877 
L 2688 0 
L 186 0 
L 186 77 
L 1325 1286 
Q 1773 1754 1965 2144 
Q 2157 2534 2157 2950 
Q 2157 3379 1920 3616 
Q 1683 3853 1267 3853 
Q 922 3853 720 3673 
Q 518 3494 326 3021 
L 192 3053 
Q 301 3648 630 3987 
Q 960 4326 1523 4326 
Q 2054 4326 2380 4006 
Q 2707 3686 2707 3200 
Q 2707 2477 1888 1613 
L 832 486 
L 2330 486 
Q 2541 486 2665 569 
Q 2790 653 2944 915 
L 3034 877 
z
" transform="scale(0.015625)"/>
        <path id="STIXGeneral-Regular-35" d="M 2803 4358 
L 2573 3814 
Q 2534 3731 2400 3731 
L 1158 3731 
L 902 3187 
Q 1606 3053 1920 2896 
Q 2234 2739 2502 2368 
Q 2726 2061 2726 1555 
Q 2726 1094 2576 780 
Q 2426 467 2099 224 
Q 1664 -90 1011 -90 
Q 646 -90 422 19 
Q 198 128 198 307 
Q 198 550 486 550 
Q 717 550 960 352 
Q 1210 147 1414 147 
Q 1747 147 2012 480 
Q 2278 813 2278 1229 
Q 2278 1843 1850 2189 
Q 1293 2637 486 2637 
Q 410 2637 410 2688 
L 416 2720 
L 1114 4237 
L 2438 4237 
Q 2547 4237 2608 4269 
Q 2669 4301 2746 4403 
L 2803 4358 
z
" transform="scale(0.015625)"/>
       </defs>
       <use xlink:href="#STIXGeneral-Regular-31"/>
       <use xlink:href="#STIXGeneral-Regular-30" transform="translate(49.999985 0)"/>
       <use xlink:href="#STIXGeneral-Regular-32" transform="translate(99.999969 0)"/>
       <use xlink:href="#STIXGeneral-Regular-35" transform="translate(149.999954 0)"/>
       <use xlink:href="#STIXGeneral-Regular-30" transform="translate(199.999939 0)"/>
      </g>
     </g>
    </g>
    <g id="xtick_3">
     <g id="line2d_3">
      <g>
       <use xlink:href="#m50411c7fda" x="400.638649" y="293.29675" style="stroke: #000000; stroke-width: 1.2"/>
      </g>
     </g>
     <g id="text_3">
      <!-- 10500 -->
      <g transform="translate(380.638649 311.22425) scale(0.16 -0.16)">
       <use xlink:href="#STIXGeneral-Regular-31"/>
       <use xlink:href="#STIXGeneral-Regular-30" transform="translate(49.999985 0)"/>
       <use xlink:href="#STIXGeneral-Regular-35" transform="translate(99.999969 0)"/>
       <use xlink:href="#STIXGeneral-Regular-30" transform="translate(149.999954 0)"/>
       <use xlink:href="#STIXGeneral-Regular-30" transform="translate(199.999939 0)"/>
      </g>
     </g>
    </g>
    <g id="xtick_4">
     <g id="line2d_4">
      <g>
       <use xlink:href="#m50411c7fda" x="485.858919" y="293.29675" style="stroke: #000000; stroke-width: 1.2"/>
      </g>
     </g>
     <g id="text_4">
      <!-- 10750 -->
      <g transform="translate(465.858919 311.22425) scale(0.16 -0.16)">
       <defs>
        <path id="STIXGeneral-Regular-37" d="M 2874 4134 
L 1517 -51 
L 1101 -51 
L 2368 3763 
L 992 3763 
Q 717 3763 582 3667 
Q 448 3571 243 3238 
L 128 3296 
L 512 4237 
L 2874 4237 
L 2874 4134 
z
" transform="scale(0.015625)"/>
       </defs>
       <use xlink:href="#STIXGeneral-Regular-31"/>
       <use xlink:href="#STIXGeneral-Regular-30" transform="translate(49.999985 0)"/>
       <use xlink:href="#STIXGeneral-Regular-37" transform="translate(99.999969 0)"/>
       <use xlink:href="#STIXGeneral-Regular-35" transform="translate(149.999954 0)"/>
       <use xlink:href="#STIXGeneral-Regular-30" transform="translate(199.999939 0)"/>
      </g>
     </g>
    </g>
    <g id="xtick_5">
     <g id="line2d_5">
      <g>
       <use xlink:href="#m50411c7fda" x="571.079189" y="293.29675" style="stroke: #000000; stroke-width: 1.2"/>
      </g>
     </g>
     <g id="text_5">
      <!-- 11000 -->
      <g transform="translate(551.079189 311.22425) scale(0.16 -0.16)">
       <use xlink:href="#STIXGeneral-Regular-31"/>
       <use xlink:href="#STIXGeneral-Regular-31" transform="translate(49.999985 0)"/>
       <use xlink:href="#STIXGeneral-Regular-30" transform="translate(99.999969 0)"/>
       <use xlink:href="#STIXGeneral-Regular-30" transform="translate(149.999954 0)"/>
       <use xlink:href="#STIXGeneral-Regular-30" transform="translate(199.999939 0)"/>
      </g>
     </g>
    </g>
    <g id="xtick_6">
     <g id="line2d_6">
      <g>
       <use xlink:href="#m50411c7fda" x="656.299459" y="293.29675" style="stroke: #000000; stroke-width: 1.2"/>
      </g>
     </g>
     <g id="text_6">
      <!-- 11250 -->
      <g transform="translate(636.299459 311.22425) scale(0.16 -0.16)">
       <use xlink:href="#STIXGeneral-Regular-31"/>
       <use xlink:href="#STIXGeneral-Regular-31" transform="translate(49.999985 0)"/>
       <use xlink:href="#STIXGeneral-Regular-32" transform="translate(99.999969 0)"/>
       <use xlink:href="#STIXGeneral-Regular-35" transform="translate(149.999954 0)"/>
       <use xlink:href="#STIXGeneral-Regular-30" transform="translate(199.999939 0)"/>
      </g>
     </g>
    </g>
    <g id="xtick_7">
     <g id="line2d_7">
      <g>
       <use xlink:href="#m50411c7fda" x="741.51973" y="293.29675" style="stroke: #000000; stroke-width: 1.2"/>
      </g>
     </g>
     <g id="text_7">
      <!-- 11500 -->
      <g transform="translate(721.51973 311.22425) scale(0.16 -0.16)">
       <use xlink:href="#STIXGeneral-Regular-31"/>
       <use xlink:href="#STIXGeneral-Regular-31" transform="translate(49.999985 0)"/>
       <use xlink:href="#STIXGeneral-Regular-35" transform="translate(99.999969 0)"/>
       <use xlink:href="#STIXGeneral-Regular-30" transform="translate(149.999954 0)"/>
       <use xlink:href="#STIXGeneral-Regular-30" transform="translate(199.999939 0)"/>
      </g>
     </g>
    </g>
    <g id="xtick_8">
     <g id="line2d_8">
      <g>
       <use xlink:href="#m50411c7fda" x="826.74" y="293.29675" style="stroke: #000000; stroke-width: 1.2"/>
      </g>
     </g>
     <g id="text_8">
      <!-- 11750 -->
      <g transform="translate(806.74 311.22425) scale(0.16 -0.16)">
       <use xlink:href="#STIXGeneral-Regular-31"/>
       <use xlink:href="#STIXGeneral-Regular-31" transform="translate(49.999985 0)"/>
       <use xlink:href="#STIXGeneral-Regular-37" transform="translate(99.999969 0)"/>
       <use xlink:href="#STIXGeneral-Regular-35" transform="translate(149.999954 0)"/>
       <use xlink:href="#STIXGeneral-Regular-30" transform="translate(199.999939 0)"/>
      </g>
     </g>
    </g>
    <g id="text_9">
     <!-- Transition energy [cm$^{-1}$] -->
     <g transform="translate(410.325 335.29675) scale(0.2 -0.2)">
      <defs>
       <path id="STIXGeneral-Regular-54" d="M 3795 3149 
L 3642 3149 
Q 3539 3674 3353 3821 
Q 3168 3968 2656 3968 
L 2278 3968 
L 2278 710 
Q 2278 346 2387 243 
Q 2496 141 2893 122 
L 2893 0 
L 1024 0 
L 1024 122 
Q 1427 147 1526 256 
Q 1626 365 1626 787 
L 1626 3968 
L 1242 3968 
Q 723 3968 540 3817 
Q 358 3667 262 3149 
L 109 3149 
L 154 4237 
L 3750 4237 
L 3795 3149 
z
" transform="scale(0.015625)"/>
       <path id="STIXGeneral-Regular-72" d="M 1024 2931 
L 1024 2342 
Q 1267 2688 1430 2816 
Q 1594 2944 1792 2944 
Q 1958 2944 2051 2854 
Q 2144 2765 2144 2605 
Q 2144 2470 2077 2393 
Q 2010 2317 1894 2317 
Q 1773 2317 1638 2445 
Q 1536 2541 1472 2541 
Q 1338 2541 1181 2355 
Q 1024 2170 1024 2016 
L 1024 576 
Q 1024 301 1133 205 
Q 1242 109 1568 96 
L 1568 0 
L 32 0 
L 32 96 
Q 339 154 412 224 
Q 486 294 486 538 
L 486 2138 
Q 486 2349 438 2435 
Q 390 2522 269 2522 
Q 166 2522 45 2496 
L 45 2598 
Q 448 2726 992 2944 
L 1024 2931 
z
" transform="scale(0.015625)"/>
       <path id="STIXGeneral-Regular-61" d="M 2829 422 
L 2829 243 
Q 2586 -64 2253 -64 
Q 1888 -64 1843 403 
L 1837 403 
Q 1427 -64 909 -64 
Q 608 -64 422 112 
Q 237 288 237 602 
Q 237 1050 685 1350 
Q 992 1555 1837 1869 
L 1837 2214 
Q 1837 2502 1699 2646 
Q 1562 2790 1338 2790 
Q 1146 2790 1018 2697 
Q 890 2605 890 2477 
Q 890 2419 909 2348 
Q 928 2278 928 2208 
Q 928 2112 841 2029 
Q 755 1946 634 1946 
Q 525 1946 441 2029 
Q 358 2112 358 2240 
Q 358 2547 685 2752 
Q 986 2944 1421 2944 
Q 1939 2944 2176 2656 
Q 2291 2522 2323 2384 
Q 2355 2246 2355 1946 
L 2355 723 
Q 2355 301 2554 301 
Q 2682 301 2829 422 
z
M 1837 813 
L 1837 1715 
Q 1248 1510 1018 1293 
Q 800 1094 800 800 
Q 800 557 921 432 
Q 1043 307 1242 307 
Q 1453 307 1613 410 
Q 1747 506 1792 589 
Q 1837 672 1837 813 
z
" transform="scale(0.015625)"/>
       <path id="STIXGeneral-Regular-6e" d="M 3104 0 
L 1773 0 
L 1779 96 
Q 2016 115 2096 233 
Q 2176 352 2176 672 
L 2176 1946 
Q 2176 2592 1709 2592 
Q 1549 2592 1408 2515 
Q 1267 2438 1050 2227 
L 1050 461 
Q 1050 269 1136 192 
Q 1222 115 1466 96 
L 1466 0 
L 115 0 
L 115 96 
Q 358 115 435 214 
Q 512 314 512 602 
L 512 2157 
Q 512 2394 467 2483 
Q 422 2573 288 2573 
Q 160 2573 102 2547 
L 102 2656 
Q 550 2784 979 2944 
L 1030 2925 
L 1030 2426 
L 1037 2426 
Q 1491 2944 1958 2944 
Q 2323 2944 2518 2688 
Q 2714 2432 2714 1958 
L 2714 544 
Q 2714 288 2790 205 
Q 2867 122 3104 96 
L 3104 0 
z
" transform="scale(0.015625)"/>
       <path id="STIXGeneral-Regular-73" d="M 998 1926 
L 1664 1523 
Q 1984 1331 2105 1164 
Q 2227 998 2227 736 
Q 2227 416 1961 176 
Q 1696 -64 1331 -64 
Q 1030 -64 864 -6 
Q 691 51 570 51 
Q 461 51 416 -26 
L 333 -26 
L 333 979 
L 435 979 
Q 538 512 730 294 
Q 922 77 1248 77 
Q 1485 77 1632 211 
Q 1779 346 1779 550 
Q 1779 845 1440 1030 
L 1094 1222 
Q 326 1651 326 2150 
Q 326 2522 566 2730 
Q 806 2938 1210 2938 
Q 1491 2938 1638 2867 
Q 1754 2816 1818 2816 
Q 1862 2816 1920 2880 
L 1990 2880 
L 2022 2010 
L 1926 2010 
Q 1818 2445 1654 2621 
Q 1491 2797 1203 2797 
Q 986 2797 854 2688 
Q 723 2579 723 2362 
Q 723 2253 796 2128 
Q 870 2003 998 1926 
z
" transform="scale(0.015625)"/>
       <path id="STIXGeneral-Regular-69" d="M 1152 4045 
Q 1152 3904 1056 3811 
Q 960 3718 819 3718 
Q 685 3718 592 3811 
Q 499 3904 499 4045 
Q 499 4179 595 4275 
Q 691 4371 826 4371 
Q 966 4371 1059 4275 
Q 1152 4179 1152 4045 
z
M 1619 0 
L 102 0 
L 102 96 
Q 435 115 521 211 
Q 608 307 608 666 
L 608 2118 
Q 608 2342 563 2432 
Q 518 2522 397 2522 
Q 243 2522 128 2490 
L 128 2592 
L 1120 2944 
L 1146 2918 
L 1146 672 
Q 1146 314 1226 218 
Q 1306 122 1619 96 
L 1619 0 
z
" transform="scale(0.015625)"/>
       <path id="STIXGeneral-Regular-74" d="M 1702 493 
L 1786 422 
Q 1478 -64 1011 -64 
Q 448 -64 448 749 
L 448 2675 
L 109 2675 
Q 83 2694 83 2720 
Q 83 2771 192 2842 
Q 435 2982 813 3526 
Q 826 3546 874 3606 
Q 922 3667 941 3706 
Q 986 3706 986 3622 
L 986 2880 
L 1632 2880 
L 1632 2675 
L 986 2675 
L 986 845 
Q 986 538 1062 403 
Q 1139 269 1318 269 
Q 1510 269 1702 493 
z
" transform="scale(0.015625)"/>
       <path id="STIXGeneral-Regular-6f" d="M 3008 1478 
Q 3008 806 2608 371 
Q 2208 -64 1568 -64 
Q 979 -64 582 368 
Q 186 800 186 1459 
Q 186 2125 582 2534 
Q 979 2944 1626 2944 
Q 2221 2944 2614 2537 
Q 3008 2131 3008 1478 
z
M 2432 1306 
Q 2432 2035 2112 2445 
Q 1856 2765 1504 2765 
Q 1171 2765 966 2493 
Q 762 2221 762 1747 
Q 762 928 1101 435 
Q 1318 115 1677 115 
Q 2029 115 2230 432 
Q 2432 749 2432 1306 
z
" transform="scale(0.015625)"/>
       <path id="STIXGeneral-Regular-20" transform="scale(0.015625)"/>
       <path id="STIXGeneral-Regular-65" d="M 2611 1050 
L 2714 1005 
Q 2330 -64 1376 -64 
Q 813 -64 486 329 
Q 160 723 160 1389 
Q 160 2074 525 2509 
Q 890 2944 1485 2944 
Q 2061 2944 2374 2502 
Q 2560 2246 2592 1773 
L 621 1773 
Q 646 1370 700 1158 
Q 755 947 915 730 
Q 1184 378 1626 378 
Q 1939 378 2153 531 
Q 2368 685 2611 1050 
z
M 634 1978 
L 1939 1978 
Q 1882 2381 1750 2547 
Q 1619 2714 1312 2714 
Q 1043 2714 864 2525 
Q 685 2336 634 1978 
z
" transform="scale(0.015625)"/>
       <path id="STIXGeneral-Regular-67" d="M 3008 2483 
L 2477 2483 
Q 2598 2208 2598 1946 
Q 2598 1453 2265 1203 
Q 1933 954 1600 954 
Q 1530 954 1357 973 
L 1235 986 
Q 1107 947 979 812 
Q 851 678 851 582 
Q 851 435 1350 410 
L 2176 371 
Q 2528 358 2739 172 
Q 2950 -13 2950 -314 
Q 2950 -685 2566 -986 
Q 2035 -1395 1286 -1395 
Q 826 -1395 502 -1212 
Q 179 -1030 179 -774 
Q 179 -595 320 -419 
Q 461 -243 806 6 
Q 602 102 534 172 
Q 467 243 467 346 
Q 467 531 762 787 
Q 909 915 1037 1043 
Q 717 1203 579 1401 
Q 442 1600 442 1901 
Q 442 2336 752 2640 
Q 1062 2944 1510 2944 
Q 1766 2944 2022 2848 
L 2163 2797 
Q 2349 2733 2515 2733 
L 3008 2733 
L 3008 2483 
z
M 973 2163 
L 973 2144 
Q 973 1683 1155 1398 
Q 1338 1114 1632 1114 
Q 1850 1114 1978 1270 
Q 2106 1427 2106 1690 
Q 2106 2112 1914 2464 
Q 1754 2765 1446 2765 
Q 1222 2765 1097 2605 
Q 973 2445 973 2163 
z
M 2771 -410 
Q 2771 -230 2595 -163 
Q 2419 -96 1978 -96 
Q 1344 -96 941 -13 
Q 749 -243 688 -348 
Q 627 -454 627 -563 
Q 627 -774 880 -902 
Q 1133 -1030 1555 -1030 
Q 2099 -1030 2435 -860 
Q 2771 -691 2771 -410 
z
" transform="scale(0.015625)"/>
       <path id="STIXGeneral-Regular-79" d="M 3040 2880 
L 3040 2784 
Q 2925 2771 2854 2700 
Q 2784 2630 2720 2458 
L 1760 -160 
Q 1510 -838 1257 -1116 
Q 1005 -1395 640 -1395 
Q 435 -1395 313 -1289 
Q 192 -1184 192 -1024 
Q 192 -902 272 -816 
Q 352 -730 467 -730 
Q 653 -730 800 -813 
Q 883 -858 966 -858 
Q 1101 -858 1286 -576 
Q 1376 -448 1459 -211 
Q 1542 26 1542 115 
Q 1542 198 1274 762 
L 429 2566 
Q 346 2752 90 2790 
L 90 2880 
L 1402 2880 
L 1402 2784 
Q 1197 2778 1117 2739 
Q 1037 2701 1037 2611 
Q 1037 2541 1120 2349 
L 1837 749 
L 2458 2515 
Q 2483 2573 2483 2630 
Q 2483 2784 2189 2784 
L 2189 2880 
L 3040 2880 
z
" transform="scale(0.015625)"/>
       <path id="STIXGeneral-Regular-5b" d="M 1914 -998 
L 563 -998 
L 563 4237 
L 1914 4237 
L 1914 4077 
L 1382 4077 
Q 1216 4077 1133 4006 
Q 1050 3936 1050 3770 
L 1050 -493 
Q 1050 -838 1382 -838 
L 1914 -838 
L 1914 -998 
z
" transform="scale(0.015625)"/>
       <path id="STIXGeneral-Regular-63" d="M 2547 998 
L 2637 941 
Q 2362 403 2112 205 
Q 1786 -64 1376 -64 
Q 845 -64 502 336 
Q 160 736 160 1357 
Q 160 2170 698 2618 
Q 1094 2944 1562 2944 
Q 1965 2944 2256 2749 
Q 2547 2554 2547 2285 
Q 2547 2176 2457 2096 
Q 2368 2016 2246 2016 
Q 2022 2016 1939 2310 
L 1901 2451 
Q 1850 2630 1773 2694 
Q 1696 2758 1523 2758 
Q 1133 2758 893 2451 
Q 653 2144 653 1645 
Q 653 1094 928 745 
Q 1203 397 1645 397 
Q 1920 397 2118 528 
Q 2317 659 2547 998 
z
" transform="scale(0.015625)"/>
       <path id="STIXGeneral-Regular-6d" d="M 4960 0 
L 3565 0 
L 3565 96 
Q 3834 122 3907 208 
Q 3981 294 3981 576 
L 3981 1894 
Q 3981 2278 3869 2444 
Q 3757 2611 3488 2611 
Q 3264 2611 3107 2521 
Q 2950 2432 2803 2221 
L 2803 608 
Q 2803 301 2896 201 
Q 2989 102 3264 96 
L 3264 0 
L 1830 0 
L 1830 96 
Q 2112 115 2189 188 
Q 2266 262 2266 550 
L 2266 1901 
Q 2266 2611 1850 2611 
Q 1670 2611 1468 2531 
Q 1267 2451 1171 2336 
Q 1088 2240 1088 2227 
L 1088 448 
Q 1088 243 1177 176 
Q 1267 109 1523 96 
L 1523 0 
L 102 0 
L 102 96 
Q 371 102 460 195 
Q 550 288 550 563 
L 550 2150 
Q 550 2387 499 2480 
Q 448 2573 326 2573 
Q 230 2573 122 2547 
L 122 2656 
Q 557 2778 1011 2944 
L 1062 2925 
L 1062 2451 
L 1075 2451 
Q 1363 2752 1584 2848 
Q 1805 2944 2054 2944 
Q 2560 2944 2733 2406 
Q 3232 2944 3776 2944 
Q 4518 2944 4518 1792 
L 4518 493 
Q 4518 282 4582 202 
Q 4646 122 4794 109 
L 4960 96 
L 4960 0 
z
" transform="scale(0.015625)"/>
       <path id="STIXGeneral-Regular-2212" d="M 3974 1408 
L 410 1408 
L 410 1830 
L 3974 1830 
L 3974 1408 
z
" transform="scale(0.015625)"/>
       <path id="STIXGeneral-Regular-5d" d="M 1568 -998 
L 218 -998 
L 218 -838 
L 781 -838 
Q 947 -838 1014 -768 
Q 1082 -698 1082 -544 
L 1082 3731 
Q 1082 4077 755 4077 
L 218 4077 
L 218 4237 
L 1568 4237 
L 1568 -998 
z
" transform="scale(0.015625)"/>
      </defs>
      <use xlink:href="#STIXGeneral-Regular-54" transform="translate(0 0.409375)"/>
      <use xlink:href="#STIXGeneral-Regular-72" transform="translate(61.099991 0.409375)"/>
      <use xlink:href="#STIXGeneral-Regular-61" transform="translate(94.399979 0.409375)"/>
      <use xlink:href="#STIXGeneral-Regular-6e" transform="translate(138.799973 0.409375)"/>
      <use xlink:href="#STIXGeneral-Regular-73" transform="translate(188.799957 0.409375)"/>
      <use xlink:href="#STIXGeneral-Regular-69" transform="translate(227.699951 0.409375)"/>
      <use xlink:href="#STIXGeneral-Regular-74" transform="translate(255.499939 0.409375)"/>
      <use xlink:href="#STIXGeneral-Regular-69" transform="translate(283.299927 0.409375)"/>
      <use xlink:href="#STIXGeneral-Regular-6f" transform="translate(311.099915 0.409375)"/>
      <use xlink:href="#STIXGeneral-Regular-6e" transform="translate(361.099899 0.409375)"/>
      <use xlink:href="#STIXGeneral-Regular-20" transform="translate(411.099884 0.409375)"/>
      <use xlink:href="#STIXGeneral-Regular-65" transform="translate(436.099869 0.409375)"/>
      <use xlink:href="#STIXGeneral-Regular-6e" transform="translate(480.499863 0.409375)"/>
      <use xlink:href="#STIXGeneral-Regular-65" transform="translate(530.499847 0.409375)"/>
      <use xlink:href="#STIXGeneral-Regular-72" transform="translate(574.899841 0.409375)"/>
      <use xlink:href="#STIXGeneral-Regular-67" transform="translate(608.199829 0.409375)"/>
      <use xlink:href="#STIXGeneral-Regular-79" transform="translate(658.199814 0.409375)"/>
      <use xlink:href="#STIXGeneral-Regular-20" transform="translate(708.199799 0.409375)"/>
      <use xlink:href="#STIXGeneral-Regular-5b" transform="translate(733.199783 0.409375)"/>
      <use xlink:href="#STIXGeneral-Regular-63" transform="translate(766.499771 0.409375)"/>
      <use xlink:href="#STIXGeneral-Regular-6d" transform="translate(810.899765 0.409375)"/>
      <use xlink:href="#STIXGeneral-Regular-2212" transform="translate(890.243034 35.684375) scale(0.7)"/>
      <use xlink:href="#STIXGeneral-Regular-31" transform="translate(938.193023 35.684375) scale(0.7)"/>
      <use xlink:href="#STIXGeneral-Regular-5d" transform="translate(977.602388 0.409375)"/>
     </g>
    </g>
   </g>
   <g id="matplotlib.axis_2">
    <g id="ytick_1">
     <g id="line2d_9">
      <defs>
       <path id="mea4ce0f035" d="M 0 0 
L -3.5 0 
" style="stroke: #000000; stroke-width: 1.2"/>
      </defs>
      <g>
       <use xlink:href="#mea4ce0f035" x="196.11" y="287.163044" style="stroke: #000000; stroke-width: 1.2"/>
      </g>
     </g>
     <g id="text_10">
      <!-- 0.0 -->
      <g transform="translate(169.11 292.626794) scale(0.16 -0.16)">
       <defs>
        <path id="STIXGeneral-Regular-2e" d="M 1158 275 
Q 1158 134 1052 32 
Q 947 -70 800 -70 
Q 653 -70 550 32 
Q 448 134 448 281 
Q 448 429 553 534 
Q 659 640 806 640 
Q 947 640 1052 531 
Q 1158 422 1158 275 
z
" transform="scale(0.015625)"/>
       </defs>
       <use xlink:href="#STIXGeneral-Regular-30"/>
       <use xlink:href="#STIXGeneral-Regular-2e" transform="translate(49.999985 0)"/>
       <use xlink:href="#STIXGeneral-Regular-30" transform="translate(74.999969 0)"/>
      </g>
     </g>
    </g>
    <g id="ytick_2">
     <g id="line2d_10">
      <g>
       <use xlink:href="#mea4ce0f035" x="196.11" y="164.488933" style="stroke: #000000; stroke-width: 1.2"/>
      </g>
     </g>
     <g id="text_11">
      <!-- 2.0 -->
      <g transform="translate(169.11 169.952683) scale(0.16 -0.16)">
       <use xlink:href="#STIXGeneral-Regular-32"/>
       <use xlink:href="#STIXGeneral-Regular-2e" transform="translate(49.999985 0)"/>
       <use xlink:href="#STIXGeneral-Regular-30" transform="translate(74.999969 0)"/>
      </g>
     </g>
    </g>
    <g id="ytick_3">
     <g id="line2d_11">
      <g>
       <use xlink:href="#mea4ce0f035" x="196.11" y="23.413706" style="stroke: #000000; stroke-width: 1.2"/>
      </g>
     </g>
     <g id="text_12">
      <!-- 4.3 -->
      <g transform="translate(169.11 28.877456) scale(0.16 -0.16)">
       <defs>
        <path id="STIXGeneral-Regular-34" d="M 3027 1069 
L 2368 1069 
L 2368 0 
L 1869 0 
L 1869 1069 
L 77 1069 
L 77 1478 
L 2086 4326 
L 2368 4326 
L 2368 1478 
L 3027 1478 
L 3027 1069 
z
M 1869 1478 
L 1869 3674 
L 333 1478 
L 1869 1478 
z
" transform="scale(0.015625)"/>
        <path id="STIXGeneral-Regular-33" d="M 390 3264 
L 288 3290 
Q 435 3770 748 4048 
Q 1062 4326 1542 4326 
Q 1990 4326 2265 4083 
Q 2541 3840 2541 3450 
Q 2541 2925 1946 2566 
Q 2298 2413 2477 2227 
Q 2758 1914 2758 1402 
Q 2758 890 2464 506 
Q 2246 211 1840 60 
Q 1434 -90 979 -90 
Q 262 -90 262 275 
Q 262 378 339 442 
Q 416 506 525 506 
Q 685 506 915 339 
Q 1197 141 1466 141 
Q 1818 141 2058 425 
Q 2298 710 2298 1120 
Q 2298 1856 1632 2048 
Q 1434 2112 979 2112 
L 979 2202 
Q 1338 2323 1517 2432 
Q 2035 2726 2035 3290 
Q 2035 3610 1852 3776 
Q 1670 3942 1344 3942 
Q 768 3942 390 3264 
z
" transform="scale(0.015625)"/>
       </defs>
       <use xlink:href="#STIXGeneral-Regular-34"/>
       <use xlink:href="#STIXGeneral-Regular-2e" transform="translate(49.999985 0)"/>
       <use xlink:href="#STIXGeneral-Regular-33" transform="translate(74.999969 0)"/>
      </g>
     </g>
    </g>
    <g id="text_13">
     <!-- Einstein coefficient -->
     <g transform="translate(23.474875 47.41085) scale(0.2 -0.2)">
      <defs>
       <path id="STIXGeneral-Regular-45" d="M 3821 1082 
L 3526 0 
L 77 0 
L 77 122 
Q 442 147 538 252 
Q 634 358 634 730 
L 634 3520 
Q 634 3878 534 3987 
Q 435 4096 77 4115 
L 77 4237 
L 3469 4237 
L 3494 3322 
L 3334 3322 
Q 3264 3750 3085 3872 
Q 2906 3994 2349 3994 
L 1510 3994 
Q 1370 3994 1328 3952 
Q 1286 3910 1286 3763 
L 1286 2355 
L 2253 2355 
Q 2656 2355 2787 2470 
Q 2918 2586 2976 2970 
L 3123 2970 
L 3123 1472 
L 2976 1472 
Q 2918 1875 2790 1984 
Q 2662 2093 2253 2093 
L 1286 2093 
L 1286 538 
Q 1286 346 1420 291 
Q 1555 237 1933 237 
L 2163 237 
Q 2848 237 3136 403 
Q 3424 570 3642 1082 
L 3821 1082 
z
" transform="scale(0.015625)"/>
       <path id="STIXGeneral-Regular-66" d="M 134 2880 
L 659 2880 
Q 666 3264 710 3478 
Q 755 3693 883 3910 
Q 1152 4371 1786 4371 
Q 2074 4371 2262 4259 
Q 2451 4147 2451 3974 
Q 2451 3866 2374 3789 
Q 2298 3712 2182 3712 
Q 2029 3712 1894 3942 
Q 1741 4192 1555 4192 
Q 1197 4192 1197 3622 
L 1197 2880 
L 1978 2880 
L 1978 2675 
L 1197 2675 
L 1197 666 
Q 1197 307 1299 208 
Q 1402 109 1792 96 
L 1792 0 
L 128 0 
L 128 96 
Q 474 115 566 214 
Q 659 314 659 666 
L 659 2675 
L 134 2675 
L 134 2880 
z
" transform="scale(0.015625)"/>
      </defs>
      <use xlink:href="#STIXGeneral-Regular-45"/>
      <use xlink:href="#STIXGeneral-Regular-69" transform="translate(61.099991 0)"/>
      <use xlink:href="#STIXGeneral-Regular-6e" transform="translate(88.899979 0)"/>
      <use xlink:href="#STIXGeneral-Regular-73" transform="translate(138.899963 0)"/>
      <use xlink:href="#STIXGeneral-Regular-74" transform="translate(177.799957 0)"/>
      <use xlink:href="#STIXGeneral-Regular-65" transform="translate(205.599945 0)"/>
      <use xlink:href="#STIXGeneral-Regular-69" transform="translate(249.999939 0)"/>
      <use xlink:href="#STIXGeneral-Regular-6e" transform="translate(277.799927 0)"/>
      <use xlink:href="#STIXGeneral-Regular-20" transform="translate(327.799911 0)"/>
      <use xlink:href="#STIXGeneral-Regular-63" transform="translate(352.799896 0)"/>
      <use xlink:href="#STIXGeneral-Regular-6f" transform="translate(397.19989 0)"/>
      <use xlink:href="#STIXGeneral-Regular-65" transform="translate(447.199875 0)"/>
      <use xlink:href="#STIXGeneral-Regular-66" transform="translate(491.599869 0)"/>
      <use xlink:href="#STIXGeneral-Regular-66" transform="translate(524.899857 0)"/>
      <use xlink:href="#STIXGeneral-Regular-69" transform="translate(558.199844 0)"/>
      <use xlink:href="#STIXGeneral-Regular-63" transform="translate(585.999832 0)"/>
      <use xlink:href="#STIXGeneral-Regular-69" transform="translate(630.399826 0)"/>
      <use xlink:href="#STIXGeneral-Regular-65" transform="translate(658.199814 0)"/>
      <use xlink:href="#STIXGeneral-Regular-6e" transform="translate(702.599808 0)"/>
      <use xlink:href="#STIXGeneral-Regular-74" transform="translate(752.599792 0)"/>
     </g>
     <!-- [MHz] -->
     <g transform="translate(74.304562 68.142725) scale(0.2 -0.2)">
      <defs>
       <path id="STIXGeneral-Regular-4d" d="M 5530 0 
L 3738 0 
L 3738 122 
Q 4115 147 4214 265 
Q 4314 384 4314 787 
L 4314 3661 
L 2682 0 
L 2592 0 
L 979 3514 
L 979 966 
Q 979 448 1088 294 
Q 1197 141 1574 122 
L 1574 0 
L 77 0 
L 77 122 
Q 358 141 480 205 
Q 602 269 650 432 
Q 698 595 698 966 
L 698 3514 
Q 698 3878 589 3984 
Q 480 4090 90 4115 
L 90 4237 
L 1357 4237 
L 2835 1024 
L 4250 4237 
L 5523 4237 
L 5523 4115 
Q 5178 4109 5072 3993 
Q 4966 3878 4966 3520 
L 4966 717 
Q 4966 378 5072 262 
Q 5178 147 5530 122 
L 5530 0 
z
" transform="scale(0.015625)"/>
       <path id="STIXGeneral-Regular-48" d="M 4499 0 
L 2714 0 
L 2714 122 
Q 3085 147 3181 265 
Q 3277 384 3277 794 
L 3277 2016 
L 1338 2016 
L 1338 723 
Q 1338 371 1440 256 
Q 1542 141 1894 122 
L 1901 0 
L 115 0 
L 115 122 
Q 493 147 589 259 
Q 685 371 685 781 
L 685 3507 
Q 685 3878 585 3980 
Q 486 4083 115 4115 
L 115 4237 
L 1907 4237 
L 1907 4115 
Q 1549 4083 1443 3977 
Q 1338 3872 1338 3507 
L 1338 2298 
L 3277 2298 
L 3277 3507 
Q 3277 3878 3177 3980 
Q 3078 4083 2707 4115 
L 2707 4237 
L 4499 4237 
L 4499 4115 
Q 4141 4083 4035 3977 
Q 3930 3872 3930 3507 
L 3930 710 
Q 3930 371 4035 259 
Q 4141 147 4499 122 
L 4499 0 
z
" transform="scale(0.015625)"/>
       <path id="STIXGeneral-Regular-7a" d="M 2675 870 
L 2579 0 
L 173 0 
L 173 96 
L 1875 2688 
L 1011 2688 
Q 710 2688 604 2582 
Q 499 2477 454 2125 
L 339 2125 
L 365 2880 
L 2579 2880 
L 2579 2784 
L 858 192 
L 1709 192 
Q 2246 192 2387 365 
Q 2477 474 2560 896 
L 2675 870 
z
" transform="scale(0.015625)"/>
      </defs>
      <use xlink:href="#STIXGeneral-Regular-5b"/>
      <use xlink:href="#STIXGeneral-Regular-4d" transform="translate(33.299988 0)"/>
      <use xlink:href="#STIXGeneral-Regular-48" transform="translate(122.199982 0)"/>
      <use xlink:href="#STIXGeneral-Regular-7a" transform="translate(194.399963 0)"/>
      <use xlink:href="#STIXGeneral-Regular-5d" transform="translate(238.799957 0)"/>
     </g>
    </g>
   </g>
   <g id="LineCollection_1">
    <path clip-path="url(#pba8db6a1d1)" style="fill: none; stroke: #006400; stroke-opacity: 0.8; stroke-width: 3"/>
    <path clip-path="url(#pba8db6a1d1)" style="fill: none; stroke: #006400; stroke-opacity: 0.8; stroke-width: 3"/>
    <path clip-path="url(#pba8db6a1d1)" style="fill: none; stroke: #006400; stroke-opacity: 0.8; stroke-width: 3"/>
    <path clip-path="url(#pba8db6a1d1)" style="fill: none; stroke: #006400; stroke-opacity: 0.8; stroke-width: 3"/>
    <path clip-path="url(#pba8db6a1d1)" style="fill: none; stroke: #006400; stroke-opacity: 0.8; stroke-width: 3"/>
    <path clip-path="url(#pba8db6a1d1)" style="fill: none; stroke: #006400; stroke-opacity: 0.8; stroke-width: 3"/>
    <path clip-path="url(#pba8db6a1d1)" style="fill: none; stroke: #006400; stroke-opacity: 0.8; stroke-width: 3"/>
    <path clip-path="url(#pba8db6a1d1)" style="fill: none; stroke: #006400; stroke-opacity: 0.8; stroke-width: 3"/>
    <path clip-path="url(#pba8db6a1d1)" style="fill: none; stroke: #006400; stroke-opacity: 0.8; stroke-width: 3"/>
    <path d="M 253.773205 287.163044 
L 253.773205 287.16303 
" clip-path="url(#pba8db6a1d1)" style="fill: none; stroke: #006400; stroke-opacity: 0.8; stroke-width: 3"/>
    <path d="M 265.998326 287.163044 
L 265.998326 287.163003 
" clip-path="url(#pba8db6a1d1)" style="fill: none; stroke: #006400; stroke-opacity: 0.8; stroke-width: 3"/>
    <path d="M 289.872443 287.163044 
L 289.872443 287.151571 
" clip-path="url(#pba8db6a1d1)" style="fill: none; stroke: #006400; stroke-opacity: 0.8; stroke-width: 3"/>
    <path d="M 301.67811 287.163044 
L 301.67811 287.148287 
" clip-path="url(#pba8db6a1d1)" style="fill: none; stroke: #006400; stroke-opacity: 0.8; stroke-width: 3"/>
    <path d="M 313.384068 287.163044 
L 313.384068 287.126531 
" clip-path="url(#pba8db6a1d1)" style="fill: none; stroke: #006400; stroke-opacity: 0.8; stroke-width: 3"/>
    <path d="M 336.620261 287.163044 
L 336.620261 286.911989 
" clip-path="url(#pba8db6a1d1)" style="fill: none; stroke: #006400; stroke-opacity: 0.8; stroke-width: 3"/>
    <path d="M 348.238818 287.163044 
L 348.238818 285.675364 
" clip-path="url(#pba8db6a1d1)" style="fill: none; stroke: #006400; stroke-opacity: 0.8; stroke-width: 3"/>
    <path d="M 359.445215 287.163044 
L 359.445215 286.821574 
" clip-path="url(#pba8db6a1d1)" style="fill: none; stroke: #006400; stroke-opacity: 0.8; stroke-width: 3"/>
    <path d="M 382.835998 287.163044 
L 382.835998 276.656371 
" clip-path="url(#pba8db6a1d1)" style="fill: none; stroke: #006400; stroke-opacity: 0.8; stroke-width: 3"/>
    <path d="M 393.339464 287.163044 
L 393.339464 280.924452 
" clip-path="url(#pba8db6a1d1)" style="fill: none; stroke: #006400; stroke-opacity: 0.8; stroke-width: 3"/>
    <path d="M 413.897798 287.163044 
L 413.897798 160.190482 
" clip-path="url(#pba8db6a1d1)" style="fill: none; stroke: #006400; stroke-opacity: 0.8; stroke-width: 3"/>
    <path d="M 416.947388 287.163044 
L 416.947388 260.224224 
" clip-path="url(#pba8db6a1d1)" style="fill: none; stroke: #006400; stroke-opacity: 0.8; stroke-width: 3"/>
    <path d="M 448.658907 287.163044 
L 448.658907 67.603027 
" clip-path="url(#pba8db6a1d1)" style="fill: none; stroke: #006400; stroke-opacity: 0.8; stroke-width: 3"/>
    <path d="M 450.408684 287.163044 
L 450.408684 255.490542 
" clip-path="url(#pba8db6a1d1)" style="fill: none; stroke: #006400; stroke-opacity: 0.8; stroke-width: 3"/>
    <path d="M 472.339098 287.163044 
L 472.339098 265.290227 
" clip-path="url(#pba8db6a1d1)" style="fill: none; stroke: #006400; stroke-opacity: 0.8; stroke-width: 3"/>
    <path d="M 483.590014 287.163044 
L 483.590014 230.994187 
" clip-path="url(#pba8db6a1d1)" style="fill: none; stroke: #006400; stroke-opacity: 0.8; stroke-width: 3"/>
    <path d="M 506.051964 287.163044 
L 506.051964 251.315918 
" clip-path="url(#pba8db6a1d1)" style="fill: none; stroke: #006400; stroke-opacity: 0.8; stroke-width: 3"/>
    <path d="M 528.052156 287.163044 
L 528.052156 285.313896 
" clip-path="url(#pba8db6a1d1)" style="fill: none; stroke: #006400; stroke-opacity: 0.8; stroke-width: 3"/>
    <path d="M 533.405353 287.163044 
L 533.405353 61.660416 
" clip-path="url(#pba8db6a1d1)" style="fill: none; stroke: #006400; stroke-opacity: 0.8; stroke-width: 3"/>
    <path d="M 548.539416 287.163044 
L 548.539416 209.117995 
" clip-path="url(#pba8db6a1d1)" style="fill: none; stroke: #006400; stroke-opacity: 0.8; stroke-width: 3"/>
    <path d="M 567.053997 287.163044 
L 567.053997 134.523631 
" clip-path="url(#pba8db6a1d1)" style="fill: none; stroke: #006400; stroke-opacity: 0.8; stroke-width: 3"/>
    <path d="M 585.293555 287.163044 
L 585.293555 216.519974 
" clip-path="url(#pba8db6a1d1)" style="fill: none; stroke: #006400; stroke-opacity: 0.8; stroke-width: 3"/>
    <path d="M 600.544336 287.163044 
L 600.544336 203.158546 
" clip-path="url(#pba8db6a1d1)" style="fill: none; stroke: #006400; stroke-opacity: 0.8; stroke-width: 3"/>
    <path d="M 617.782011 287.163044 
L 617.782011 254.297626 
" clip-path="url(#pba8db6a1d1)" style="fill: none; stroke: #006400; stroke-opacity: 0.8; stroke-width: 3"/>
    <path d="M 626.213193 287.163044 
L 626.213193 280.384997 
" clip-path="url(#pba8db6a1d1)" style="fill: none; stroke: #006400; stroke-opacity: 0.8; stroke-width: 3"/>
    <path d="M 649.591533 287.163044 
L 649.591533 270.630872 
" clip-path="url(#pba8db6a1d1)" style="fill: none; stroke: #006400; stroke-opacity: 0.8; stroke-width: 3"/>
    <path d="M 659.119705 287.163044 
L 659.119705 283.971246 
" clip-path="url(#pba8db6a1d1)" style="fill: none; stroke: #006400; stroke-opacity: 0.8; stroke-width: 3"/>
    <path d="M 670.069896 287.163044 
L 670.069896 284.596892 
" clip-path="url(#pba8db6a1d1)" style="fill: none; stroke: #006400; stroke-opacity: 0.8; stroke-width: 3"/>
    <path d="M 691.82162 287.163044 
L 691.82162 286.454923 
" clip-path="url(#pba8db6a1d1)" style="fill: none; stroke: #006400; stroke-opacity: 0.8; stroke-width: 3"/>
    <path d="M 702.829011 287.163044 
L 702.829011 286.077981 
" clip-path="url(#pba8db6a1d1)" style="fill: none; stroke: #006400; stroke-opacity: 0.8; stroke-width: 3"/>
    <path d="M 723.932073 287.163044 
L 723.932073 287.137002 
" clip-path="url(#pba8db6a1d1)" style="fill: none; stroke: #006400; stroke-opacity: 0.8; stroke-width: 3"/>
    <path d="M 728.724588 287.163044 
L 728.724588 285.248822 
" clip-path="url(#pba8db6a1d1)" style="fill: none; stroke: #006400; stroke-opacity: 0.8; stroke-width: 3"/>
    <path d="M 755.385784 287.163044 
L 755.385784 287.147747 
" clip-path="url(#pba8db6a1d1)" style="fill: none; stroke: #006400; stroke-opacity: 0.8; stroke-width: 3"/>
    <path d="M 760.645306 287.163044 
L 760.645306 286.574183 
" clip-path="url(#pba8db6a1d1)" style="fill: none; stroke: #006400; stroke-opacity: 0.8; stroke-width: 3"/>
    <path d="M 778.79044 287.163044 
L 778.79044 287.030715 
" clip-path="url(#pba8db6a1d1)" style="fill: none; stroke: #006400; stroke-opacity: 0.8; stroke-width: 3"/>
    <path d="M 792.430115 287.163044 
L 792.430115 287.010691 
" clip-path="url(#pba8db6a1d1)" style="fill: none; stroke: #006400; stroke-opacity: 0.8; stroke-width: 3"/>
    <path d="M 809.856944 287.163044 
L 809.856944 287.142956 
" clip-path="url(#pba8db6a1d1)" style="fill: none; stroke: #006400; stroke-opacity: 0.8; stroke-width: 3"/>
    <path d="M 823.609519 287.163044 
L 823.609519 287.129465 
" clip-path="url(#pba8db6a1d1)" style="fill: none; stroke: #006400; stroke-opacity: 0.8; stroke-width: 3"/>
    <path d="M 837.803773 287.163044 
L 837.803773 287.143272 
" clip-path="url(#pba8db6a1d1)" style="fill: none; stroke: #006400; stroke-opacity: 0.8; stroke-width: 3"/>
    <path d="M 853.951821 287.163044 
L 853.951821 287.156299 
" clip-path="url(#pba8db6a1d1)" style="fill: none; stroke: #006400; stroke-opacity: 0.8; stroke-width: 3"/>
    <path clip-path="url(#pba8db6a1d1)" style="fill: none; stroke: #006400; stroke-opacity: 0.8; stroke-width: 3"/>
    <path clip-path="url(#pba8db6a1d1)" style="fill: none; stroke: #006400; stroke-opacity: 0.8; stroke-width: 3"/>
    <path clip-path="url(#pba8db6a1d1)" style="fill: none; stroke: #006400; stroke-opacity: 0.8; stroke-width: 3"/>
    <path clip-path="url(#pba8db6a1d1)" style="fill: none; stroke: #006400; stroke-opacity: 0.8; stroke-width: 3"/>
   </g>
   <g id="LineCollection_2">
    <path d="M 241.282334 287.163044 
L 241.282334 287.163038 
" clip-path="url(#pba8db6a1d1)" style="fill: none; stroke: #4169e1; stroke-opacity: 0.8; stroke-width: 3"/>
    <path d="M 242.27907 287.163044 
L 242.27907 287.162679 
" clip-path="url(#pba8db6a1d1)" style="fill: none; stroke: #4169e1; stroke-opacity: 0.8; stroke-width: 3"/>
    <path d="M 258.672859 287.163044 
L 258.672859 287.155964 
" clip-path="url(#pba8db6a1d1)" style="fill: none; stroke: #4169e1; stroke-opacity: 0.8; stroke-width: 3"/>
    <path d="M 275.496091 287.163044 
L 275.496091 287.097923 
" clip-path="url(#pba8db6a1d1)" style="fill: none; stroke: #4169e1; stroke-opacity: 0.8; stroke-width: 3"/>
    <path d="M 278.053005 287.163044 
L 278.053005 287.162943 
" clip-path="url(#pba8db6a1d1)" style="fill: none; stroke: #4169e1; stroke-opacity: 0.8; stroke-width: 3"/>
    <path d="M 292.698688 287.163044 
L 292.698688 286.791592 
" clip-path="url(#pba8db6a1d1)" style="fill: none; stroke: #4169e1; stroke-opacity: 0.8; stroke-width: 3"/>
    <path d="M 309.97144 287.163044 
L 309.97144 285.561521 
" clip-path="url(#pba8db6a1d1)" style="fill: none; stroke: #4169e1; stroke-opacity: 0.8; stroke-width: 3"/>
    <path d="M 325.023555 287.163044 
L 325.023555 287.093484 
" clip-path="url(#pba8db6a1d1)" style="fill: none; stroke: #4169e1; stroke-opacity: 0.8; stroke-width: 3"/>
    <path d="M 327.333195 287.163044 
L 327.333195 281.929138 
" clip-path="url(#pba8db6a1d1)" style="fill: none; stroke: #4169e1; stroke-opacity: 0.8; stroke-width: 3"/>
    <path d="M 344.649613 287.163044 
L 344.649613 274.223435 
" clip-path="url(#pba8db6a1d1)" style="fill: none; stroke: #4169e1; stroke-opacity: 0.8; stroke-width: 3"/>
    <path d="M 362.300333 287.163044 
L 362.300333 255.966472 
" clip-path="url(#pba8db6a1d1)" style="fill: none; stroke: #4169e1; stroke-opacity: 0.8; stroke-width: 3"/>
    <path d="M 371.076691 287.163044 
L 371.076691 286.524485 
" clip-path="url(#pba8db6a1d1)" style="fill: none; stroke: #4169e1; stroke-opacity: 0.8; stroke-width: 3"/>
    <path d="M 379.238646 287.163044 
L 379.238646 235.764393 
" clip-path="url(#pba8db6a1d1)" style="fill: none; stroke: #4169e1; stroke-opacity: 0.8; stroke-width: 3"/>
    <path d="M 397.392438 287.163044 
L 397.392438 190.464417 
" clip-path="url(#pba8db6a1d1)" style="fill: none; stroke: #4169e1; stroke-opacity: 0.8; stroke-width: 3"/>
    <path d="M 405.037071 287.163044 
L 405.037071 287.144424 
" clip-path="url(#pba8db6a1d1)" style="fill: none; stroke: #4169e1; stroke-opacity: 0.8; stroke-width: 3"/>
    <path d="M 427.154152 287.163044 
L 427.154152 265.661784 
" clip-path="url(#pba8db6a1d1)" style="fill: none; stroke: #4169e1; stroke-opacity: 0.8; stroke-width: 3"/>
    <path d="M 432.147787 287.163044 
L 432.147787 99.025698 
" clip-path="url(#pba8db6a1d1)" style="fill: none; stroke: #4169e1; stroke-opacity: 0.8; stroke-width: 3"/>
    <path d="M 438.684488 287.163044 
L 438.684488 283.336273 
" clip-path="url(#pba8db6a1d1)" style="fill: none; stroke: #4169e1; stroke-opacity: 0.8; stroke-width: 3"/>
    <path d="M 461.042231 287.163044 
L 461.042231 254.726404 
" clip-path="url(#pba8db6a1d1)" style="fill: none; stroke: #4169e1; stroke-opacity: 0.8; stroke-width: 3"/>
    <path d="M 466.272199 287.163044 
L 466.272199 33.883731 
" clip-path="url(#pba8db6a1d1)" style="fill: none; stroke: #4169e1; stroke-opacity: 0.8; stroke-width: 3"/>
    <path d="M 483.106066 287.163044 
L 483.106066 45.135828 
" clip-path="url(#pba8db6a1d1)" style="fill: none; stroke: #4169e1; stroke-opacity: 0.8; stroke-width: 3"/>
    <path d="M 494.790515 287.163044 
L 494.790515 267.642324 
" clip-path="url(#pba8db6a1d1)" style="fill: none; stroke: #4169e1; stroke-opacity: 0.8; stroke-width: 3"/>
    <path d="M 499.874006 287.163044 
L 499.874006 22.244794 
" clip-path="url(#pba8db6a1d1)" style="fill: none; stroke: #4169e1; stroke-opacity: 0.8; stroke-width: 3"/>
    <path d="M 515.864976 287.163044 
L 515.864976 188.12114 
" clip-path="url(#pba8db6a1d1)" style="fill: none; stroke: #4169e1; stroke-opacity: 0.8; stroke-width: 3"/>
    <path d="M 517.943601 287.163044 
L 517.943601 110.289009 
" clip-path="url(#pba8db6a1d1)" style="fill: none; stroke: #4169e1; stroke-opacity: 0.8; stroke-width: 3"/>
    <path d="M 539.507295 287.163044 
L 539.507295 262.135106 
" clip-path="url(#pba8db6a1d1)" style="fill: none; stroke: #4169e1; stroke-opacity: 0.8; stroke-width: 3"/>
    <path d="M 551.965987 287.163044 
L 551.965987 158.62668 
" clip-path="url(#pba8db6a1d1)" style="fill: none; stroke: #4169e1; stroke-opacity: 0.8; stroke-width: 3"/>
    <path d="M 560.807624 287.163044 
L 560.807624 285.397651 
" clip-path="url(#pba8db6a1d1)" style="fill: none; stroke: #4169e1; stroke-opacity: 0.8; stroke-width: 3"/>
    <path d="M 572.413057 287.163044 
L 572.413057 279.940529 
" clip-path="url(#pba8db6a1d1)" style="fill: none; stroke: #4169e1; stroke-opacity: 0.8; stroke-width: 3"/>
    <path d="M 581.491947 287.163044 
L 581.491947 232.22303 
" clip-path="url(#pba8db6a1d1)" style="fill: none; stroke: #4169e1; stroke-opacity: 0.8; stroke-width: 3"/>
    <path d="M 593.425239 287.163044 
L 593.425239 280.237776 
" clip-path="url(#pba8db6a1d1)" style="fill: none; stroke: #4169e1; stroke-opacity: 0.8; stroke-width: 3"/>
    <path d="M 604.849289 287.163044 
L 604.849289 287.091737 
" clip-path="url(#pba8db6a1d1)" style="fill: none; stroke: #4169e1; stroke-opacity: 0.8; stroke-width: 3"/>
    <path d="M 614.735454 287.163044 
L 614.735454 257.558489 
" clip-path="url(#pba8db6a1d1)" style="fill: none; stroke: #4169e1; stroke-opacity: 0.8; stroke-width: 3"/>
    <path d="M 633.398625 287.163044 
L 633.398625 250.361731 
" clip-path="url(#pba8db6a1d1)" style="fill: none; stroke: #4169e1; stroke-opacity: 0.8; stroke-width: 3"/>
    <path d="M 637.297282 287.163044 
L 637.297282 285.186094 
" clip-path="url(#pba8db6a1d1)" style="fill: none; stroke: #4169e1; stroke-opacity: 0.8; stroke-width: 3"/>
    <path d="M 648.057671 287.163044 
L 648.057671 277.031048 
" clip-path="url(#pba8db6a1d1)" style="fill: none; stroke: #4169e1; stroke-opacity: 0.8; stroke-width: 3"/>
    <path d="M 665.414688 287.163044 
L 665.414688 273.482963 
" clip-path="url(#pba8db6a1d1)" style="fill: none; stroke: #4169e1; stroke-opacity: 0.8; stroke-width: 3"/>
    <path d="M 680.655481 287.163044 
L 680.655481 286.612098 
" clip-path="url(#pba8db6a1d1)" style="fill: none; stroke: #4169e1; stroke-opacity: 0.8; stroke-width: 3"/>
    <path d="M 681.596074 287.163044 
L 681.596074 277.506695 
" clip-path="url(#pba8db6a1d1)" style="fill: none; stroke: #4169e1; stroke-opacity: 0.8; stroke-width: 3"/>
    <path d="M 697.026227 287.163044 
L 697.026227 281.952722 
" clip-path="url(#pba8db6a1d1)" style="fill: none; stroke: #4169e1; stroke-opacity: 0.8; stroke-width: 3"/>
    <path d="M 711.899891 287.163044 
L 711.899891 286.030926 
" clip-path="url(#pba8db6a1d1)" style="fill: none; stroke: #4169e1; stroke-opacity: 0.8; stroke-width: 3"/>
    <path d="M 714.471873 287.163044 
L 714.471873 284.696831 
" clip-path="url(#pba8db6a1d1)" style="fill: none; stroke: #4169e1; stroke-opacity: 0.8; stroke-width: 3"/>
    <path d="M 735.141061 287.163044 
L 735.141061 286.918017 
" clip-path="url(#pba8db6a1d1)" style="fill: none; stroke: #4169e1; stroke-opacity: 0.8; stroke-width: 3"/>
    <path d="M 743.069205 287.163044 
L 743.069205 286.612344 
" clip-path="url(#pba8db6a1d1)" style="fill: none; stroke: #4169e1; stroke-opacity: 0.8; stroke-width: 3"/>
    <path d="M 746.966464 287.163044 
L 746.966464 286.535321 
" clip-path="url(#pba8db6a1d1)" style="fill: none; stroke: #4169e1; stroke-opacity: 0.8; stroke-width: 3"/>
    <path d="M 766.796812 287.163044 
L 766.796812 287.139284 
" clip-path="url(#pba8db6a1d1)" style="fill: none; stroke: #4169e1; stroke-opacity: 0.8; stroke-width: 3"/>
    <path d="M 774.497656 287.163044 
L 774.497656 286.948108 
" clip-path="url(#pba8db6a1d1)" style="fill: none; stroke: #4169e1; stroke-opacity: 0.8; stroke-width: 3"/>
    <path d="M 786.654192 287.163044 
L 786.654192 287.136842 
" clip-path="url(#pba8db6a1d1)" style="fill: none; stroke: #4169e1; stroke-opacity: 0.8; stroke-width: 3"/>
    <path d="M 797.987431 287.163044 
L 797.987431 287.163044 
" clip-path="url(#pba8db6a1d1)" style="fill: none; stroke: #4169e1; stroke-opacity: 0.8; stroke-width: 3"/>
    <path d="M 806.187871 287.163044 
L 806.187871 287.093606 
" clip-path="url(#pba8db6a1d1)" style="fill: none; stroke: #4169e1; stroke-opacity: 0.8; stroke-width: 3"/>
    <path d="M 818.093142 287.163044 
L 818.093142 287.149534 
" clip-path="url(#pba8db6a1d1)" style="fill: none; stroke: #4169e1; stroke-opacity: 0.8; stroke-width: 3"/>
    <path d="M 829.099954 287.163044 
L 829.099954 287.161178 
" clip-path="url(#pba8db6a1d1)" style="fill: none; stroke: #4169e1; stroke-opacity: 0.8; stroke-width: 3"/>
    <path d="M 840.33744 287.163044 
L 840.33744 287.161939 
" clip-path="url(#pba8db6a1d1)" style="fill: none; stroke: #4169e1; stroke-opacity: 0.8; stroke-width: 3"/>
    <path d="M 849.675468 287.163044 
L 849.675468 287.158936 
" clip-path="url(#pba8db6a1d1)" style="fill: none; stroke: #4169e1; stroke-opacity: 0.8; stroke-width: 3"/>
    <path d="M 860.380565 287.163044 
L 860.380565 287.161833 
" clip-path="url(#pba8db6a1d1)" style="fill: none; stroke: #4169e1; stroke-opacity: 0.8; stroke-width: 3"/>
    <path clip-path="url(#pba8db6a1d1)" style="fill: none; stroke: #4169e1; stroke-opacity: 0.8; stroke-width: 3"/>
    <path clip-path="url(#pba8db6a1d1)" style="fill: none; stroke: #4169e1; stroke-opacity: 0.8; stroke-width: 3"/>
    <path clip-path="url(#pba8db6a1d1)" style="fill: none; stroke: #4169e1; stroke-opacity: 0.8; stroke-width: 3"/>
   </g>
   <g id="LineCollection_3">
    <path d="M 467.174261 287.163044 
L 467.174261 22.186964 
" clip-path="url(#pba8db6a1d1)" style="fill: none; stroke-dasharray: 7.4,3.2; stroke-dashoffset: 0; stroke: #ff0000; stroke-opacity: 0.7; stroke-width: 2"/>
   </g>
   <g id="patch_3">
    <path d="M 196.11 287.163044 
L 196.11 23.413706 
" style="fill: none; stroke: #000000; stroke-width: 1.2; stroke-linejoin: miter; stroke-linecap: square"/>
   </g>
   <g id="patch_4">
    <path d="M 230.198108 293.29675 
L 826.74 293.29675 
" style="fill: none; stroke: #000000; stroke-width: 1.2; stroke-linejoin: miter; stroke-linecap: square"/>
   </g>
   <g id="patch_5">
    <path d="M 417.546158 39.021223 
Q 441.909178 36.452477 464.937954 34.024409 
" style="fill: none; stroke: #000000; stroke-width: 1.2; stroke-linecap: round"/>
    <path d="M 460.750294 32.454854 
L 464.937954 34.024409 
L 461.169714 36.432804 
z
" style="stroke: #000000; stroke-width: 1.2; stroke-linecap: round"/>
   </g>
   <g id="text_14">
    <!-- $\nu=20$ -->
    <g transform="translate(366.550541 46.474197) scale(0.2 -0.2)">
     <defs>
      <path id="STIXGeneral-Italic-3bd" d="M 2835 2778 
L 2938 2752 
Q 2867 2342 2752 1971 
Q 2637 1600 2422 1216 
Q 2208 832 1929 553 
Q 1651 275 1232 89 
Q 813 -96 307 -115 
Q 128 -115 128 26 
Q 128 64 147 109 
L 736 2240 
Q 749 2304 749 2349 
Q 749 2451 653 2483 
Q 557 2515 333 2522 
L 333 2624 
L 1376 2822 
L 1395 2810 
L 723 390 
Q 2208 531 2835 2778 
z
" transform="scale(0.015625)"/>
      <path id="STIXGeneral-Regular-3d" d="M 4077 2048 
L 307 2048 
L 307 2470 
L 4077 2470 
L 4077 2048 
z
M 4077 768 
L 307 768 
L 307 1190 
L 4077 1190 
L 4077 768 
z
" transform="scale(0.015625)"/>
     </defs>
     <use xlink:href="#STIXGeneral-Italic-3bd" transform="translate(0 0.40625)"/>
     <use xlink:href="#STIXGeneral-Regular-3d" transform="translate(61.439981 0.40625)"/>
     <use xlink:href="#STIXGeneral-Regular-32" transform="translate(144.379962 0.40625)"/>
     <use xlink:href="#STIXGeneral-Regular-30" transform="translate(194.379947 0.40625)"/>
    </g>
   </g>
   <g id="legend_1">
    <g id="PathCollection_3">
     <g>
      <use xlink:href="#mb07053a527" x="735.0925" y="39.6875" style="fill: #006400; stroke: #006400; stroke-width: 1.5"/>
     </g>
    </g>
    <g id="text_15">
     <!-- b$^3\Pi_0$ -->
     <g transform="translate(763.8925 43.8875) scale(0.16 -0.16)">
      <defs>
       <path id="STIXGeneral-Regular-62" d="M 979 4358 
L 979 2406 
Q 1082 2650 1315 2797 
Q 1549 2944 1843 2944 
Q 2349 2944 2672 2541 
Q 2995 2138 2995 1536 
Q 2995 832 2566 384 
Q 2138 -64 1498 -64 
Q 1107 -64 774 67 
Q 442 198 442 358 
L 442 3622 
Q 442 3859 384 3926 
Q 326 3994 128 3994 
Q 83 3994 19 3981 
L 19 4090 
L 211 4147 
Q 864 4346 947 4371 
L 979 4358 
z
M 979 2035 
L 979 474 
Q 979 326 1161 233 
Q 1344 141 1600 141 
Q 1978 141 2195 416 
Q 2432 710 2432 1261 
Q 2432 1888 2182 2240 
Q 1971 2541 1613 2541 
Q 1357 2541 1168 2390 
Q 979 2240 979 2035 
z
" transform="scale(0.015625)"/>
       <path id="STIXGeneral-Regular-3a0" d="M 4499 0 
L 2714 0 
L 2714 122 
Q 3085 147 3181 265 
Q 3277 384 3277 794 
L 3277 3763 
Q 3277 3898 3232 3946 
Q 3187 3994 3046 3994 
L 1568 3994 
Q 1440 3994 1389 3952 
Q 1338 3910 1338 3782 
L 1338 723 
Q 1338 371 1440 256 
Q 1542 141 1894 122 
L 1901 0 
L 115 0 
L 115 122 
Q 493 147 589 259 
Q 685 371 685 781 
L 685 3507 
Q 685 3878 585 3980 
Q 486 4083 115 4115 
L 115 4237 
L 4499 4237 
L 4499 4115 
Q 4141 4083 4035 3977 
Q 3930 3872 3930 3507 
L 3930 710 
Q 3930 371 4035 259 
Q 4141 147 4499 122 
L 4499 0 
z
" transform="scale(0.015625)"/>
      </defs>
      <use xlink:href="#STIXGeneral-Regular-62" transform="translate(0 0.409375)"/>
      <use xlink:href="#STIXGeneral-Regular-33" transform="translate(51.543266 35.684375) scale(0.7)"/>
      <use xlink:href="#STIXGeneral-Regular-3a0" transform="translate(90.95263 0.409375)"/>
      <use xlink:href="#STIXGeneral-Regular-30" transform="translate(164.695893 -12.81875) scale(0.7)"/>
     </g>
    </g>
    <g id="PathCollection_4">
     <g>
      <use xlink:href="#m4aa3d60c34" x="735.0925" y="62.36" style="fill: #4169e1; stroke: #4169e1; stroke-width: 1.5"/>
     </g>
    </g>
    <g id="text_16">
     <!-- A$^1\Sigma^+$ -->
     <g transform="translate(763.8925 66.56) scale(0.16 -0.16)">
      <defs>
       <path id="STIXGeneral-Regular-41" d="M 4525 0 
L 2893 0 
L 2893 122 
Q 3149 122 3245 179 
Q 3334 224 3334 333 
Q 3334 499 3213 781 
L 2950 1382 
L 1274 1382 
L 979 653 
Q 922 506 922 384 
Q 922 237 1027 179 
Q 1133 122 1370 122 
L 1370 0 
L 96 0 
L 96 122 
Q 365 147 486 316 
Q 608 486 902 1190 
L 2221 4314 
L 2349 4314 
L 3923 710 
Q 4064 378 4176 262 
Q 4288 147 4525 122 
L 4525 0 
z
M 2861 1645 
L 2118 3405 
L 1382 1645 
L 2861 1645 
z
" transform="scale(0.015625)"/>
       <path id="STIXGeneral-Regular-3a3" d="M 3840 1306 
L 3661 0 
L 192 0 
L 192 96 
L 1901 2074 
L 192 4141 
L 192 4237 
L 3558 4237 
L 3558 3206 
L 3398 3206 
Q 3328 3674 3110 3834 
Q 2893 3994 2438 3994 
L 1107 3994 
L 2464 2349 
L 947 608 
L 2931 608 
Q 3290 608 3453 768 
Q 3616 928 3693 1306 
L 3840 1306 
z
" transform="scale(0.015625)"/>
       <path id="STIXGeneral-Regular-2b" d="M 4070 1408 
L 2400 1408 
L 2400 -262 
L 1978 -262 
L 1978 1408 
L 307 1408 
L 307 1830 
L 1978 1830 
L 1978 3501 
L 2400 3501 
L 2400 1830 
L 4070 1830 
L 4070 1408 
z
" transform="scale(0.015625)"/>
      </defs>
      <use xlink:href="#STIXGeneral-Regular-41" transform="translate(0 0.409375)"/>
      <use xlink:href="#STIXGeneral-Regular-31" transform="translate(73.743263 35.684375) scale(0.7)"/>
      <use xlink:href="#STIXGeneral-Regular-3a3" transform="translate(113.152627 0.409375)"/>
      <use xlink:href="#STIXGeneral-Regular-2b" transform="translate(187.2039 35.684375) scale(0.7)"/>
     </g>
    </g>
    <g id="line2d_12">
     <path d="M 719.0925 83.6325 
L 751.0925 83.6325 
" style="fill: none; stroke-dasharray: 7.4,3.2; stroke-dashoffset: 0; stroke: #ff0000; stroke-opacity: 0.7; stroke-width: 2"/>
    </g>
    <g id="text_17">
     <!-- 935 nm -->
     <g transform="translate(763.8925 89.2325) scale(0.16 -0.16)">
      <defs>
       <path id="STIXGeneral-Regular-39" d="M 378 -141 
L 358 -13 
Q 1094 115 1603 608 
Q 2112 1101 2304 1882 
Q 1933 1517 1344 1517 
Q 826 1517 509 1875 
Q 192 2234 192 2816 
Q 192 3462 573 3894 
Q 954 4326 1523 4326 
Q 2131 4326 2528 3840 
Q 2938 3328 2938 2522 
Q 2938 1958 2742 1462 
Q 2547 966 2170 621 
Q 1773 262 1395 105 
Q 1018 -51 378 -141 
z
M 2317 2272 
L 2317 2522 
Q 2317 4147 1472 4147 
Q 1171 4147 1005 3930 
Q 909 3802 845 3546 
Q 781 3290 781 3034 
Q 781 2464 995 2128 
Q 1210 1792 1568 1792 
Q 1824 1792 2070 1917 
Q 2317 2042 2317 2272 
z
" transform="scale(0.015625)"/>
      </defs>
      <use xlink:href="#STIXGeneral-Regular-39"/>
      <use xlink:href="#STIXGeneral-Regular-33" transform="translate(49.999985 0)"/>
      <use xlink:href="#STIXGeneral-Regular-35" transform="translate(99.999969 0)"/>
      <use xlink:href="#STIXGeneral-Regular-20" transform="translate(149.999954 0)"/>
      <use xlink:href="#STIXGeneral-Regular-6e" transform="translate(174.999939 0)"/>
      <use xlink:href="#STIXGeneral-Regular-6d" transform="translate(224.999924 0)"/>
     </g>
    </g>
   </g>
  </g>
 </g>
 <defs>
  <clipPath id="pba8db6a1d1">
   <rect x="196.11" y="17.28" width="630.63" height="276.01675"/>
  </clipPath>
 </defs>
</svg>
