<?xml version="1.0" encoding="utf-8" standalone="no"?>
<!DOCTYPE svg PUBLIC "-//W3C//DTD SVG 1.1//EN"
  "http://www.w3.org/Graphics/SVG/1.1/DTD/svg11.dtd">
<svg xmlns:xlink="http://www.w3.org/1999/xlink" width="460.8pt" height="345.6pt" viewBox="0 0 460.8 345.6" xmlns="http://www.w3.org/2000/svg" version="1.1">
 <metadata>
  <rdf:RDF xmlns:dc="http://purl.org/dc/elements/1.1/" xmlns:cc="http://creativecommons.org/ns#" xmlns:rdf="http://www.w3.org/1999/02/22-rdf-syntax-ns#">
   <cc:Work>
    <dc:type rdf:resource="http://purl.org/dc/dcmitype/StillImage"/>
    <dc:date>2025-05-14T15:26:28.492164</dc:date>
    <dc:format>image/svg+xml</dc:format>
    <dc:creator>
     <cc:Agent>
      <dc:title>Matplotlib v3.10.0, https://matplotlib.org/</dc:title>
     </cc:Agent>
    </dc:creator>
   </cc:Work>
  </rdf:RDF>
 </metadata>
 <defs>
  <style type="text/css">*{stroke-linejoin: round; stroke-linecap: butt}</style>
 </defs>
 <g id="figure_1">
  <g id="patch_1">
   <path d="M 0 345.6 
L 460.8 345.6 
L 460.8 0 
L 0 0 
z
" style="fill: #ffffff"/>
  </g>
  <g id="axes_1">
   <g id="patch_2">
    <path d="M 165.410087 282.395 
L 441.36 282.395 
L 441.36 19.44 
L 165.410087 19.44 
z
" style="fill: #ffffff"/>
   </g>
   <g id="PathCollection_1">
    <defs>
     <path id="mf65b33a52a" d="M -3 0 
L 3 0 
M 0 3 
L 0 -3 
" style="stroke: #000000; stroke-width: 1.5"/>
    </defs>
    <g clip-path="url(#p8e8236804b)">
     <use xlink:href="#mf65b33a52a" x="177.953265" y="31.3925" style="stroke: #000000; stroke-width: 1.5"/>
     <use xlink:href="#mf65b33a52a" x="183.07293" y="37.85066" style="stroke: #000000; stroke-width: 1.5"/>
     <use xlink:href="#mf65b33a52a" x="188.192594" y="44.2441" style="stroke: #000000; stroke-width: 1.5"/>
     <use xlink:href="#mf65b33a52a" x="193.312258" y="50.593818" style="stroke: #000000; stroke-width: 1.5"/>
     <use xlink:href="#mf65b33a52a" x="198.431923" y="56.877954" style="stroke: #000000; stroke-width: 1.5"/>
     <use xlink:href="#mf65b33a52a" x="203.551587" y="63.11204" style="stroke: #000000; stroke-width: 1.5"/>
     <use xlink:href="#mf65b33a52a" x="208.671252" y="69.274791" style="stroke: #000000; stroke-width: 1.5"/>
     <use xlink:href="#mf65b33a52a" x="213.790916" y="75.386053" style="stroke: #000000; stroke-width: 1.5"/>
     <use xlink:href="#mf65b33a52a" x="218.910581" y="81.443814" style="stroke: #000000; stroke-width: 1.5"/>
     <use xlink:href="#mf65b33a52a" x="224.030245" y="87.432828" style="stroke: #000000; stroke-width: 1.5"/>
     <use xlink:href="#mf65b33a52a" x="229.149909" y="93.374956" style="stroke: #000000; stroke-width: 1.5"/>
     <use xlink:href="#mf65b33a52a" x="234.269574" y="99.224176" style="stroke: #000000; stroke-width: 1.5"/>
     <use xlink:href="#mf65b33a52a" x="239.389238" y="105.037153" style="stroke: #000000; stroke-width: 1.5"/>
     <use xlink:href="#mf65b33a52a" x="244.508903" y="110.783396" style="stroke: #000000; stroke-width: 1.5"/>
     <use xlink:href="#mf65b33a52a" x="249.628567" y="116.4747" style="stroke: #000000; stroke-width: 1.5"/>
     <use xlink:href="#mf65b33a52a" x="254.748232" y="122.104448" style="stroke: #000000; stroke-width: 1.5"/>
     <use xlink:href="#mf65b33a52a" x="259.867896" y="127.654807" style="stroke: #000000; stroke-width: 1.5"/>
     <use xlink:href="#mf65b33a52a" x="264.98756" y="133.157704" style="stroke: #000000; stroke-width: 1.5"/>
     <use xlink:href="#mf65b33a52a" x="270.107225" y="138.589266" style="stroke: #000000; stroke-width: 1.5"/>
     <use xlink:href="#mf65b33a52a" x="275.226889" y="143.953808" style="stroke: #000000; stroke-width: 1.5"/>
     <use xlink:href="#mf65b33a52a" x="280.346554" y="149.25478" style="stroke: #000000; stroke-width: 1.5"/>
     <use xlink:href="#mf65b33a52a" x="285.466218" y="154.470897" style="stroke: #000000; stroke-width: 1.5"/>
     <use xlink:href="#mf65b33a52a" x="290.585883" y="159.63754" style="stroke: #000000; stroke-width: 1.5"/>
     <use xlink:href="#mf65b33a52a" x="295.705547" y="164.730547" style="stroke: #000000; stroke-width: 1.5"/>
     <use xlink:href="#mf65b33a52a" x="300.825211" y="169.752217" style="stroke: #000000; stroke-width: 1.5"/>
     <use xlink:href="#mf65b33a52a" x="305.944876" y="174.733906" style="stroke: #000000; stroke-width: 1.5"/>
     <use xlink:href="#mf65b33a52a" x="311.06454" y="179.597661" style="stroke: #000000; stroke-width: 1.5"/>
     <use xlink:href="#mf65b33a52a" x="316.184205" y="184.43035" style="stroke: #000000; stroke-width: 1.5"/>
     <use xlink:href="#mf65b33a52a" x="321.303869" y="189.175596" style="stroke: #000000; stroke-width: 1.5"/>
     <use xlink:href="#mf65b33a52a" x="326.423534" y="193.854684" style="stroke: #000000; stroke-width: 1.5"/>
     <use xlink:href="#mf65b33a52a" x="331.543198" y="198.451507" style="stroke: #000000; stroke-width: 1.5"/>
     <use xlink:href="#mf65b33a52a" x="336.662862" y="202.964625" style="stroke: #000000; stroke-width: 1.5"/>
     <use xlink:href="#mf65b33a52a" x="341.782527" y="207.427693" style="stroke: #000000; stroke-width: 1.5"/>
     <use xlink:href="#mf65b33a52a" x="346.902191" y="211.782895" style="stroke: #000000; stroke-width: 1.5"/>
     <use xlink:href="#mf65b33a52a" x="352.021856" y="216.090636" style="stroke: #000000; stroke-width: 1.5"/>
     <use xlink:href="#mf65b33a52a" x="357.14152" y="220.288497" style="stroke: #000000; stroke-width: 1.5"/>
     <use xlink:href="#mf65b33a52a" x="362.261185" y="224.42394" style="stroke: #000000; stroke-width: 1.5"/>
     <use xlink:href="#mf65b33a52a" x="367.380849" y="228.483446" style="stroke: #000000; stroke-width: 1.5"/>
     <use xlink:href="#mf65b33a52a" x="372.500513" y="232.475355" style="stroke: #000000; stroke-width: 1.5"/>
     <use xlink:href="#mf65b33a52a" x="377.620178" y="236.361123" style="stroke: #000000; stroke-width: 1.5"/>
     <use xlink:href="#mf65b33a52a" x="382.739842" y="240.162038" style="stroke: #000000; stroke-width: 1.5"/>
     <use xlink:href="#mf65b33a52a" x="387.859507" y="243.885288" style="stroke: #000000; stroke-width: 1.5"/>
     <use xlink:href="#mf65b33a52a" x="392.979171" y="247.511891" style="stroke: #000000; stroke-width: 1.5"/>
     <use xlink:href="#mf65b33a52a" x="398.098836" y="251.08154" style="stroke: #000000; stroke-width: 1.5"/>
     <use xlink:href="#mf65b33a52a" x="403.2185" y="254.533255" style="stroke: #000000; stroke-width: 1.5"/>
     <use xlink:href="#mf65b33a52a" x="408.338164" y="257.894363" style="stroke: #000000; stroke-width: 1.5"/>
     <use xlink:href="#mf65b33a52a" x="413.457829" y="261.188163" style="stroke: #000000; stroke-width: 1.5"/>
     <use xlink:href="#mf65b33a52a" x="418.577493" y="264.375247" style="stroke: #000000; stroke-width: 1.5"/>
     <use xlink:href="#mf65b33a52a" x="423.697158" y="267.44411" style="stroke: #000000; stroke-width: 1.5"/>
     <use xlink:href="#mf65b33a52a" x="428.816822" y="270.4425" style="stroke: #000000; stroke-width: 1.5"/>
    </g>
   </g>
   <g id="matplotlib.axis_1">
    <g id="xtick_1">
     <g id="line2d_1">
      <defs>
       <path id="m46fce2addf" d="M 0 0 
L 0 4 
" style="stroke: #000000; stroke-width: 1.2"/>
      </defs>
      <g>
       <use xlink:href="#m46fce2addf" x="172.833601" y="282.395" style="stroke: #000000; stroke-width: 1.2"/>
      </g>
     </g>
     <g id="text_1">
      <!-- 0 -->
      <g transform="translate(168.92782 300.395) scale(0.14 -0.14)">
       <defs>
        <path id="FiraSans-Regular-30" d="M 1786 4346 
Q 2496 4346 2857 3779 
Q 3219 3213 3219 2138 
Q 3219 1062 2857 492 
Q 2496 -77 1786 -77 
Q 1075 -77 713 492 
Q 352 1062 352 2138 
Q 352 3213 713 3779 
Q 1075 4346 1786 4346 
z
M 1786 3878 
Q 1370 3878 1168 3468 
Q 966 3059 966 2138 
Q 966 1216 1168 803 
Q 1370 390 1786 390 
Q 2195 390 2400 803 
Q 2605 1216 2605 2138 
Q 2605 3053 2400 3465 
Q 2195 3878 1786 3878 
z
" transform="scale(0.015625)"/>
       </defs>
       <use xlink:href="#FiraSans-Regular-30"/>
      </g>
     </g>
    </g>
    <g id="xtick_2">
     <g id="line2d_2">
      <g>
       <use xlink:href="#m46fce2addf" x="300.825211" y="282.395" style="stroke: #000000; stroke-width: 1.2"/>
      </g>
     </g>
     <g id="text_2">
      <!-- 25 -->
      <g transform="translate(293.853649 300.395) scale(0.14 -0.14)">
       <defs>
        <path id="FiraSans-Regular-32" d="M 1459 4346 
Q 1843 4346 2134 4192 
Q 2426 4038 2586 3772 
Q 2746 3507 2746 3174 
Q 2746 2784 2570 2425 
Q 2394 2067 2029 1651 
Q 1664 1235 922 493 
L 2848 493 
L 2778 0 
L 250 0 
L 250 467 
Q 1107 1357 1465 1769 
Q 1824 2182 1977 2489 
Q 2131 2797 2131 3149 
Q 2131 3482 1939 3670 
Q 1747 3859 1427 3859 
Q 1165 3859 966 3750 
Q 768 3642 544 3392 
L 160 3699 
Q 422 4026 742 4186 
Q 1062 4346 1459 4346 
z
" transform="scale(0.015625)"/>
        <path id="FiraSans-Regular-35" d="M 2688 3821 
L 1018 3821 
L 1018 2560 
Q 1344 2726 1702 2726 
Q 2253 2726 2585 2364 
Q 2918 2003 2918 1370 
Q 2918 947 2732 617 
Q 2547 288 2211 105 
Q 1875 -77 1434 -77 
Q 1043 -77 736 60 
Q 429 198 166 467 
L 512 806 
Q 717 602 934 502 
Q 1152 403 1427 403 
Q 1837 403 2070 659 
Q 2304 915 2304 1382 
Q 2304 1850 2093 2061 
Q 1882 2272 1523 2272 
Q 1357 2272 1216 2237 
Q 1075 2202 915 2125 
L 454 2125 
L 454 4282 
L 2771 4282 
L 2688 3821 
z
" transform="scale(0.015625)"/>
       </defs>
       <use xlink:href="#FiraSans-Regular-32"/>
       <use xlink:href="#FiraSans-Regular-35" transform="translate(49.499985 0)"/>
      </g>
     </g>
    </g>
    <g id="xtick_3">
     <g id="line2d_3">
      <g>
       <use xlink:href="#m46fce2addf" x="428.816822" y="282.395" style="stroke: #000000; stroke-width: 1.2"/>
      </g>
     </g>
     <g id="text_3">
      <!-- 50 -->
      <g transform="translate(421.404478 300.395) scale(0.14 -0.14)">
       <use xlink:href="#FiraSans-Regular-35"/>
       <use xlink:href="#FiraSans-Regular-30" transform="translate(50.099991 0)"/>
      </g>
     </g>
    </g>
    <g id="text_4">
     <!-- Vibrational quantum number -->
     <g transform="translate(184.566762 321.416562) scale(0.18 -0.18)">
      <defs>
       <path id="FiraSans-Regular-56" d="M 3520 4410 
L 2112 0 
L 1459 0 
L 38 4410 
L 691 4410 
L 1798 659 
L 2906 4410 
L 3520 4410 
z
" transform="scale(0.015625)"/>
       <path id="FiraSans-Regular-69" d="M 1197 3373 
L 1197 0 
L 608 0 
L 608 3373 
L 1197 3373 
z
M 896 4992 
Q 1082 4992 1197 4877 
Q 1312 4762 1312 4589 
Q 1312 4416 1197 4304 
Q 1082 4192 896 4192 
Q 717 4192 601 4304 
Q 486 4416 486 4589 
Q 486 4762 601 4877 
Q 717 4992 896 4992 
z
" transform="scale(0.015625)"/>
       <path id="FiraSans-Regular-62" d="M 2150 3450 
Q 2726 3450 3065 2986 
Q 3405 2522 3405 1690 
Q 3405 1165 3245 765 
Q 3085 365 2784 144 
Q 2483 -77 2080 -77 
Q 1549 -77 1184 371 
L 1126 0 
L 608 0 
L 608 4730 
L 1197 4800 
L 1197 2950 
Q 1562 3450 2150 3450 
z
M 1939 390 
Q 2330 390 2550 707 
Q 2771 1024 2771 1690 
Q 2771 2374 2566 2678 
Q 2362 2982 1984 2982 
Q 1536 2982 1197 2458 
L 1197 845 
Q 1331 634 1526 512 
Q 1722 390 1939 390 
z
" transform="scale(0.015625)"/>
       <path id="FiraSans-Regular-72" d="M 2074 3450 
Q 2253 3450 2406 3411 
L 2298 2835 
Q 2144 2874 2003 2874 
Q 1690 2874 1498 2643 
Q 1306 2413 1197 1926 
L 1197 0 
L 608 0 
L 608 3373 
L 1114 3373 
L 1171 2688 
Q 1306 3066 1536 3258 
Q 1766 3450 2074 3450 
z
" transform="scale(0.015625)"/>
       <path id="FiraSans-Regular-61" d="M 2880 787 
Q 2880 582 2950 483 
Q 3021 384 3162 333 
L 3027 -77 
Q 2765 -45 2605 70 
Q 2445 186 2368 429 
Q 2029 -77 1363 -77 
Q 864 -77 576 204 
Q 288 486 288 941 
Q 288 1478 675 1766 
Q 1062 2054 1773 2054 
L 2291 2054 
L 2291 2304 
Q 2291 2662 2118 2816 
Q 1946 2970 1587 2970 
Q 1216 2970 678 2790 
L 531 3219 
Q 1158 3450 1696 3450 
Q 2291 3450 2585 3158 
Q 2880 2867 2880 2330 
L 2880 787 
z
M 1498 365 
Q 2003 365 2291 890 
L 2291 1664 
L 1850 1664 
Q 915 1664 915 973 
Q 915 672 1062 518 
Q 1210 365 1498 365 
z
" transform="scale(0.015625)"/>
       <path id="FiraSans-Regular-74" d="M 2310 154 
Q 1978 -77 1555 -77 
Q 1126 -77 886 169 
Q 646 416 646 883 
L 646 2918 
L 58 2918 
L 58 3373 
L 646 3373 
L 646 4134 
L 1235 4205 
L 1235 3373 
L 2035 3373 
L 1971 2918 
L 1235 2918 
L 1235 909 
Q 1235 646 1328 528 
Q 1421 410 1638 410 
Q 1837 410 2086 544 
L 2310 154 
z
" transform="scale(0.015625)"/>
       <path id="FiraSans-Regular-6f" d="M 1875 3450 
Q 2586 3450 2979 2976 
Q 3373 2502 3373 1690 
Q 3373 1165 3193 765 
Q 3014 365 2675 144 
Q 2336 -77 1869 -77 
Q 1158 -77 761 396 
Q 365 870 365 1683 
Q 365 2208 544 2608 
Q 723 3008 1062 3229 
Q 1402 3450 1875 3450 
z
M 1875 2976 
Q 998 2976 998 1683 
Q 998 397 1869 397 
Q 2739 397 2739 1690 
Q 2739 2976 1875 2976 
z
" transform="scale(0.015625)"/>
       <path id="FiraSans-Regular-6e" d="M 2195 3450 
Q 2656 3450 2915 3174 
Q 3174 2899 3174 2419 
L 3174 0 
L 2586 0 
L 2586 2336 
Q 2586 2694 2451 2841 
Q 2317 2989 2054 2989 
Q 1786 2989 1581 2835 
Q 1376 2682 1197 2394 
L 1197 0 
L 608 0 
L 608 3373 
L 1114 3373 
L 1165 2874 
Q 1344 3142 1609 3296 
Q 1875 3450 2195 3450 
z
" transform="scale(0.015625)"/>
       <path id="FiraSans-Regular-6c" d="M 1280 -77 
Q 954 -77 765 118 
Q 576 314 576 666 
L 576 4730 
L 1165 4800 
L 1165 678 
Q 1165 538 1213 474 
Q 1261 410 1376 410 
Q 1498 410 1594 448 
L 1747 38 
Q 1536 -77 1280 -77 
z
" transform="scale(0.015625)"/>
       <path id="FiraSans-Regular-20" transform="scale(0.015625)"/>
       <path id="FiraSans-Regular-71" d="M 3219 3373 
L 3219 -1363 
L 2630 -1293 
L 2630 448 
Q 2464 198 2217 60 
Q 1971 -77 1670 -77 
Q 1069 -77 733 396 
Q 397 870 397 1670 
Q 397 2189 557 2592 
Q 717 2995 1017 3222 
Q 1318 3450 1722 3450 
Q 2259 3450 2669 2995 
L 2714 3373 
L 3219 3373 
z
M 1798 390 
Q 2067 390 2259 515 
Q 2451 640 2630 890 
L 2630 2541 
Q 2464 2758 2275 2870 
Q 2086 2982 1850 2982 
Q 1459 2982 1244 2656 
Q 1030 2330 1030 1683 
Q 1030 1030 1228 710 
Q 1427 390 1798 390 
z
" transform="scale(0.015625)"/>
       <path id="FiraSans-Regular-75" d="M 3117 0 
L 2611 0 
L 2566 525 
Q 2374 211 2124 67 
Q 1875 -77 1517 -77 
Q 1075 -77 825 192 
Q 576 461 576 954 
L 576 3373 
L 1165 3373 
L 1165 1018 
Q 1165 672 1286 528 
Q 1408 384 1683 384 
Q 2176 384 2528 966 
L 2528 3373 
L 3117 3373 
L 3117 0 
z
" transform="scale(0.015625)"/>
       <path id="FiraSans-Regular-6d" d="M 3994 3450 
Q 4410 3450 4659 3171 
Q 4909 2893 4909 2419 
L 4909 0 
L 4320 0 
L 4320 2336 
Q 4320 2989 3846 2989 
Q 3597 2989 3424 2845 
Q 3251 2701 3053 2394 
L 3053 0 
L 2464 0 
L 2464 2336 
Q 2464 2989 1990 2989 
Q 1734 2989 1561 2841 
Q 1389 2694 1197 2394 
L 1197 0 
L 608 0 
L 608 3373 
L 1114 3373 
L 1165 2880 
Q 1542 3450 2138 3450 
Q 2451 3450 2672 3290 
Q 2893 3130 2989 2842 
Q 3187 3136 3427 3293 
Q 3667 3450 3994 3450 
z
" transform="scale(0.015625)"/>
       <path id="FiraSans-Regular-65" d="M 3155 1786 
Q 3155 1638 3142 1485 
L 992 1485 
Q 1030 928 1273 665 
Q 1517 403 1901 403 
Q 2144 403 2349 473 
Q 2554 544 2778 698 
L 3034 346 
Q 2496 -77 1856 -77 
Q 1152 -77 758 384 
Q 365 845 365 1651 
Q 365 2176 534 2582 
Q 704 2989 1021 3219 
Q 1338 3450 1766 3450 
Q 2438 3450 2796 3008 
Q 3155 2566 3155 1786 
z
M 2573 1958 
Q 2573 2458 2374 2720 
Q 2176 2982 1779 2982 
Q 1056 2982 992 1920 
L 2573 1920 
L 2573 1958 
z
" transform="scale(0.015625)"/>
      </defs>
      <use xlink:href="#FiraSans-Regular-56"/>
      <use xlink:href="#FiraSans-Regular-69" transform="translate(55.599991 0)"/>
      <use xlink:href="#FiraSans-Regular-62" transform="translate(83.799988 0)"/>
      <use xlink:href="#FiraSans-Regular-72" transform="translate(143.199982 0)"/>
      <use xlink:href="#FiraSans-Regular-61" transform="translate(181.799973 0)"/>
      <use xlink:href="#FiraSans-Regular-74" transform="translate(236.199966 0)"/>
      <use xlink:href="#FiraSans-Regular-69" transform="translate(272.299957 0)"/>
      <use xlink:href="#FiraSans-Regular-6f" transform="translate(300.499954 0)"/>
      <use xlink:href="#FiraSans-Regular-6e" transform="translate(358.899948 0)"/>
      <use xlink:href="#FiraSans-Regular-61" transform="translate(417.499939 0)"/>
      <use xlink:href="#FiraSans-Regular-6c" transform="translate(471.899933 0)"/>
      <use xlink:href="#FiraSans-Regular-20" transform="translate(501.199921 0)"/>
      <use xlink:href="#FiraSans-Regular-71" transform="translate(527.699905 0)"/>
      <use xlink:href="#FiraSans-Regular-75" transform="translate(587.499893 0)"/>
      <use xlink:href="#FiraSans-Regular-61" transform="translate(645.69989 0)"/>
      <use xlink:href="#FiraSans-Regular-6e" transform="translate(700.099884 0)"/>
      <use xlink:href="#FiraSans-Regular-74" transform="translate(758.699875 0)"/>
      <use xlink:href="#FiraSans-Regular-75" transform="translate(794.799866 0)"/>
      <use xlink:href="#FiraSans-Regular-6d" transform="translate(852.999863 0)"/>
      <use xlink:href="#FiraSans-Regular-20" transform="translate(938.699844 0)"/>
      <use xlink:href="#FiraSans-Regular-6e" transform="translate(965.199829 0)"/>
      <use xlink:href="#FiraSans-Regular-75" transform="translate(1023.79982 0)"/>
      <use xlink:href="#FiraSans-Regular-6d" transform="translate(1081.999817 0)"/>
      <use xlink:href="#FiraSans-Regular-62" transform="translate(1167.699799 0)"/>
      <use xlink:href="#FiraSans-Regular-65" transform="translate(1227.099792 0)"/>
      <use xlink:href="#FiraSans-Regular-72" transform="translate(1281.599777 0)"/>
     </g>
    </g>
   </g>
   <g id="matplotlib.axis_2">
    <g id="ytick_1">
     <g id="line2d_4">
      <defs>
       <path id="md0ba9865c4" d="M 0 0 
L -4 0 
" style="stroke: #000000; stroke-width: 1.2"/>
      </defs>
      <g>
       <use xlink:href="#md0ba9865c4" x="165.410087" y="28.125451" style="stroke: #000000; stroke-width: 1.2"/>
      </g>
     </g>
     <g id="text_5">
      <!-- 0.00 -->
      <g transform="translate(131.1154 33.375451) scale(0.14 -0.14)">
       <defs>
        <path id="FiraSans-Regular-2e" d="M 762 813 
Q 954 813 1082 685 
Q 1210 557 1210 371 
Q 1210 186 1082 54 
Q 954 -77 762 -77 
Q 576 -77 448 54 
Q 320 186 320 371 
Q 320 557 448 685 
Q 576 813 762 813 
z
" transform="scale(0.015625)"/>
       </defs>
       <use xlink:href="#FiraSans-Regular-30"/>
       <use xlink:href="#FiraSans-Regular-2e" transform="translate(55.799988 0)"/>
       <use xlink:href="#FiraSans-Regular-30" transform="translate(79.799973 0)"/>
       <use xlink:href="#FiraSans-Regular-30" transform="translate(135.59996 0)"/>
      </g>
     </g>
    </g>
    <g id="ytick_2">
     <g id="line2d_5">
      <g>
       <use xlink:href="#md0ba9865c4" x="165.410087" y="272.621971" style="stroke: #000000; stroke-width: 1.2"/>
      </g>
     </g>
     <g id="text_6">
      <!-- −0.85 -->
      <g transform="translate(125.012275 277.871971) scale(0.14 -0.14)">
       <defs>
        <path id="FiraSans-Regular-2212" d="M 397 1882 
L 397 2374 
L 2803 2374 
L 2803 1882 
L 397 1882 
z
" transform="scale(0.015625)"/>
        <path id="FiraSans-Regular-38" d="M 2336 2298 
Q 3238 1933 3238 1146 
Q 3238 794 3049 515 
Q 2861 237 2521 80 
Q 2182 -77 1754 -77 
Q 1318 -77 985 76 
Q 653 230 470 505 
Q 288 781 288 1133 
Q 288 1530 502 1798 
Q 717 2067 1133 2246 
Q 794 2419 630 2665 
Q 467 2912 467 3245 
Q 467 3590 649 3840 
Q 832 4090 1129 4218 
Q 1427 4346 1766 4346 
Q 2099 4346 2396 4224 
Q 2694 4102 2880 3856 
Q 3066 3610 3066 3264 
Q 3066 2944 2886 2713 
Q 2707 2483 2336 2298 
z
M 1766 3904 
Q 1434 3904 1238 3731 
Q 1043 3558 1043 3238 
Q 1043 2931 1232 2771 
Q 1421 2611 1837 2477 
L 1946 2438 
Q 2234 2605 2362 2790 
Q 2490 2976 2490 3245 
Q 2490 3546 2301 3725 
Q 2112 3904 1766 3904 
z
M 1760 390 
Q 2157 390 2390 595 
Q 2624 800 2624 1139 
Q 2624 1370 2534 1526 
Q 2445 1683 2246 1801 
Q 2048 1920 1690 2042 
L 1530 2099 
Q 1210 1946 1056 1712 
Q 902 1478 902 1133 
Q 902 781 1132 585 
Q 1363 390 1760 390 
z
" transform="scale(0.015625)"/>
       </defs>
       <use xlink:href="#FiraSans-Regular-2212"/>
       <use xlink:href="#FiraSans-Regular-30" transform="translate(49.999985 0)"/>
       <use xlink:href="#FiraSans-Regular-2e" transform="translate(105.799973 0)"/>
       <use xlink:href="#FiraSans-Regular-38" transform="translate(129.799957 0)"/>
       <use xlink:href="#FiraSans-Regular-35" transform="translate(184.899948 0)"/>
      </g>
     </g>
    </g>
    <g id="text_7">
     <!-- E${}_\text{DUO}$ - E${}_\text{LEVEL16}$ -->
     <g transform="translate(39.992609 61.311875) scale(0.18 -0.18)">
      <defs>
       <path id="FiraSans-Regular-45" d="M 3027 4410 
L 2957 3923 
L 1248 3923 
L 1248 2483 
L 2733 2483 
L 2733 1997 
L 1248 1997 
L 1248 486 
L 3078 486 
L 3078 0 
L 640 0 
L 640 4410 
L 3027 4410 
z
" transform="scale(0.015625)"/>
       <path id="STIXGeneral-Regular-1d5a3" d="M 474 4237 
L 1536 4237 
Q 4198 4237 4198 2093 
Q 4198 1677 4051 1305 
Q 3904 934 3619 640 
Q 3334 346 2880 173 
Q 2426 0 1850 0 
L 474 0 
L 474 4237 
z
M 1030 474 
L 1344 474 
Q 1946 474 2272 522 
Q 2598 570 2906 730 
Q 3629 1107 3629 2099 
Q 3629 2554 3485 2867 
Q 3341 3181 3014 3405 
Q 2714 3610 2349 3686 
Q 1984 3763 1414 3763 
L 1030 3763 
L 1030 474 
z
" transform="scale(0.015625)"/>
       <path id="STIXGeneral-Regular-1d5b4" d="M 3789 4237 
L 3789 1555 
Q 3789 749 3363 329 
Q 2938 -90 2112 -90 
Q 442 -90 442 1555 
L 442 4237 
L 998 4237 
L 998 1638 
Q 998 1139 1120 902 
Q 1382 397 2112 397 
Q 2464 397 2729 531 
Q 2995 666 3123 902 
Q 3232 1101 3232 1722 
L 3232 4237 
L 3789 4237 
z
" transform="scale(0.015625)"/>
       <path id="STIXGeneral-Regular-1d5ae" d="M 4378 2118 
Q 4378 1146 3786 528 
Q 3194 -90 2285 -90 
Q 1376 -90 784 528 
Q 192 1146 192 2118 
Q 192 3098 784 3712 
Q 1376 4326 2285 4326 
Q 3194 4326 3786 3712 
Q 4378 3098 4378 2118 
z
M 3398 861 
Q 3808 1325 3808 2118 
Q 3808 2912 3398 3376 
Q 2989 3840 2285 3840 
Q 1581 3840 1171 3376 
Q 762 2912 762 2118 
Q 762 1325 1171 861 
Q 1581 397 2285 397 
Q 2989 397 3398 861 
z
" transform="scale(0.015625)"/>
       <path id="FiraSans-Regular-2d" d="M 384 1754 
L 384 2253 
L 2195 2253 
L 2195 1754 
L 384 1754 
z
" transform="scale(0.015625)"/>
       <path id="STIXGeneral-Regular-1d5ab" d="M 3494 474 
L 3379 0 
L 474 0 
L 474 4237 
L 1030 4237 
L 1030 474 
L 3494 474 
z
" transform="scale(0.015625)"/>
       <path id="STIXGeneral-Regular-1d5a4" d="M 3456 474 
L 3347 0 
L 474 0 
L 474 4237 
L 3283 4237 
L 3283 3763 
L 1030 3763 
L 1030 2470 
L 2982 2470 
L 2982 1990 
L 1030 1990 
L 1030 474 
L 3456 474 
z
" transform="scale(0.015625)"/>
       <path id="STIXGeneral-Regular-1d5b5" d="M 3987 4237 
L 2176 -70 
L 2010 -70 
L 198 4237 
L 813 4237 
L 2099 1050 
L 3373 4237 
L 3987 4237 
z
" transform="scale(0.015625)"/>
       <path id="STIXGeneral-Regular-1d7e3" d="M 1933 0 
L 1427 0 
L 1427 3648 
Q 1286 3584 1008 3440 
Q 730 3296 691 3277 
L 691 3744 
L 1843 4333 
L 1933 4301 
L 1933 0 
z
" transform="scale(0.015625)"/>
       <path id="STIXGeneral-Regular-1d7e8" d="M 2867 4275 
L 2752 3936 
Q 2022 3885 1513 3517 
Q 1005 3149 781 2483 
Q 1158 2758 1658 2758 
Q 2208 2758 2608 2387 
Q 3008 2016 3008 1408 
Q 3008 787 2621 348 
Q 2234 -90 1645 -90 
Q 1152 -90 816 169 
Q 480 429 342 816 
Q 205 1203 205 1690 
Q 205 2234 397 2755 
Q 589 3277 915 3597 
Q 1344 4019 1734 4163 
Q 2125 4307 2861 4378 
L 2867 4275 
z
M 2496 1325 
Q 2496 1786 2233 2045 
Q 1971 2304 1606 2304 
Q 1274 2304 1024 2109 
Q 774 1914 717 1536 
Q 717 1018 973 691 
Q 1229 365 1664 365 
Q 2016 365 2256 637 
Q 2496 909 2496 1325 
z
" transform="scale(0.015625)"/>
      </defs>
      <use xlink:href="#FiraSans-Regular-45" transform="translate(0 0.09375)"/>
      <use xlink:href="#STIXGeneral-Regular-1d5a3" transform="translate(54.29268 -13.495312) scale(0.7)"/>
      <use xlink:href="#STIXGeneral-Regular-1d5b4" transform="translate(102.732667 -13.495312) scale(0.7)"/>
      <use xlink:href="#STIXGeneral-Regular-1d5ae" transform="translate(149.002661 -13.495312) scale(0.7)"/>
      <use xlink:href="#FiraSans-Regular-20" transform="translate(201.2475 0.09375)"/>
      <use xlink:href="#FiraSans-Regular-2d" transform="translate(227.747485 0.09375)"/>
      <use xlink:href="#FiraSans-Regular-20" transform="translate(268.047473 0.09375)"/>
      <use xlink:href="#FiraSans-Regular-45" transform="translate(294.547458 0.09375)"/>
      <use xlink:href="#STIXGeneral-Regular-1d5ab" transform="translate(348.840138 -13.495312) scale(0.7)"/>
      <use xlink:href="#STIXGeneral-Regular-1d5a4" transform="translate(387.970133 -13.495312) scale(0.7)"/>
      <use xlink:href="#STIXGeneral-Regular-1d5b5" transform="translate(428.780125 -13.495312) scale(0.7)"/>
      <use xlink:href="#STIXGeneral-Regular-1d5a4" transform="translate(474.560121 -13.495312) scale(0.7)"/>
      <use xlink:href="#STIXGeneral-Regular-1d5ab" transform="translate(515.370112 -13.495312) scale(0.7)"/>
      <use xlink:href="#STIXGeneral-Regular-1d7e3" transform="translate(554.500108 -13.495312) scale(0.7)"/>
      <use xlink:href="#STIXGeneral-Regular-1d7e8" transform="translate(589.500097 -13.495312) scale(0.7)"/>
     </g>
     <!-- [cm$^{-1}$] -->
     <g transform="translate(70.862609 81.345312) scale(0.18 -0.18)">
      <defs>
       <path id="FiraSans-Regular-5b" d="M 1741 5222 
L 1741 4730 
L 973 4730 
L 973 -256 
L 1741 -256 
L 1741 -742 
L 416 -742 
L 416 5222 
L 1741 5222 
z
" transform="scale(0.015625)"/>
       <path id="FiraSans-Regular-63" d="M 1837 3450 
Q 2138 3450 2387 3363 
Q 2637 3277 2867 3085 
L 2586 2714 
Q 2406 2842 2236 2902 
Q 2067 2963 1862 2963 
Q 1453 2963 1225 2636 
Q 998 2310 998 1670 
Q 998 1030 1222 726 
Q 1446 422 1862 422 
Q 2061 422 2227 483 
Q 2394 544 2598 678 
L 2867 294 
Q 2406 -77 1837 -77 
Q 1152 -77 758 384 
Q 365 845 365 1658 
Q 365 2195 544 2598 
Q 723 3002 1052 3226 
Q 1382 3450 1837 3450 
z
" transform="scale(0.015625)"/>
       <path id="STIXGeneral-Regular-2212" d="M 3974 1408 
L 410 1408 
L 410 1830 
L 3974 1830 
L 3974 1408 
z
" transform="scale(0.015625)"/>
       <path id="FiraSans-Regular-5d" d="M 1645 5222 
L 1645 -742 
L 320 -742 
L 320 -256 
L 1088 -256 
L 1088 4730 
L 320 4730 
L 320 5222 
L 1645 5222 
z
" transform="scale(0.015625)"/>
      </defs>
      <use xlink:href="#FiraSans-Regular-5b" transform="translate(0 0.370312)"/>
      <use xlink:href="#FiraSans-Regular-63" transform="translate(32.199997 0.370312)"/>
      <use xlink:href="#FiraSans-Regular-6d" transform="translate(79.999985 0.370312)"/>
      <use xlink:href="#STIXGeneral-Regular-2212" transform="translate(166.492662 36.607813) scale(0.7)"/>
      <use xlink:href="#STIXGeneral-Regular-1d7e3" transform="translate(214.442651 36.607813) scale(0.7)"/>
      <use xlink:href="#FiraSans-Regular-5d" transform="translate(251.707484 0.370312)"/>
     </g>
    </g>
   </g>
   <g id="patch_3">
    <path d="M 165.410087 28.125451 
L 165.410087 272.621971 
" style="fill: none; stroke: #000000; stroke-width: 1.2; stroke-linejoin: miter; stroke-linecap: square"/>
   </g>
   <g id="patch_4">
    <path d="M 172.833601 282.395 
L 428.816822 282.395 
" style="fill: none; stroke: #000000; stroke-width: 1.2; stroke-linejoin: miter; stroke-linecap: square"/>
   </g>
  </g>
  <g id="axes_2">
   <g id="patch_5">
    <path d="M 312.385044 141.9175 
L 444.841002 141.9175 
L 444.841002 15.6991 
L 312.385044 15.6991 
z
" style="fill: #ffffff"/>
   </g>
   <g id="PathCollection_2">
    <defs>
     <path id="med88bdb877" d="M -3 0 
L 3 0 
M 0 3 
L 0 -3 
" style="stroke: #fa8072; stroke-width: 1.5"/>
    </defs>
    <g clip-path="url(#p0bc6a65e19)">
     <use xlink:href="#med88bdb877" x="320.255661" y="134.416839" style="fill: #fa8072; stroke: #fa8072; stroke-width: 1.5"/>
     <use xlink:href="#med88bdb877" x="323.372927" y="131.445021" style="fill: #fa8072; stroke: #fa8072; stroke-width: 1.5"/>
     <use xlink:href="#med88bdb877" x="326.476526" y="128.486239" style="fill: #fa8072; stroke: #fa8072; stroke-width: 1.5"/>
     <use xlink:href="#med88bdb877" x="329.56641" y="125.540536" style="fill: #fa8072; stroke: #fa8072; stroke-width: 1.5"/>
     <use xlink:href="#med88bdb877" x="332.642526" y="122.607966" style="fill: #fa8072; stroke: #fa8072; stroke-width: 1.5"/>
     <use xlink:href="#med88bdb877" x="335.704815" y="119.688583" style="fill: #fa8072; stroke: #fa8072; stroke-width: 1.5"/>
     <use xlink:href="#med88bdb877" x="338.753212" y="116.782452" style="fill: #fa8072; stroke: #fa8072; stroke-width: 1.5"/>
     <use xlink:href="#med88bdb877" x="341.787661" y="113.889622" style="fill: #fa8072; stroke: #fa8072; stroke-width: 1.5"/>
     <use xlink:href="#med88bdb877" x="344.808114" y="111.010142" style="fill: #fa8072; stroke: #fa8072; stroke-width: 1.5"/>
     <use xlink:href="#med88bdb877" x="347.814503" y="108.144077" style="fill: #fa8072; stroke: #fa8072; stroke-width: 1.5"/>
     <use xlink:href="#med88bdb877" x="350.806762" y="105.291487" style="fill: #fa8072; stroke: #fa8072; stroke-width: 1.5"/>
     <use xlink:href="#med88bdb877" x="353.78483" y="102.452438" style="fill: #fa8072; stroke: #fa8072; stroke-width: 1.5"/>
     <use xlink:href="#med88bdb877" x="356.748638" y="99.626985" style="fill: #fa8072; stroke: #fa8072; stroke-width: 1.5"/>
     <use xlink:href="#med88bdb877" x="359.698119" y="96.8152" style="fill: #fa8072; stroke: #fa8072; stroke-width: 1.5"/>
     <use xlink:href="#med88bdb877" x="362.633199" y="94.017148" style="fill: #fa8072; stroke: #fa8072; stroke-width: 1.5"/>
     <use xlink:href="#med88bdb877" x="365.553804" y="91.232903" style="fill: #fa8072; stroke: #fa8072; stroke-width: 1.5"/>
     <use xlink:href="#med88bdb877" x="368.459862" y="88.462535" style="fill: #fa8072; stroke: #fa8072; stroke-width: 1.5"/>
     <use xlink:href="#med88bdb877" x="371.351292" y="85.706118" style="fill: #fa8072; stroke: #fa8072; stroke-width: 1.5"/>
     <use xlink:href="#med88bdb877" x="374.228016" y="82.963728" style="fill: #fa8072; stroke: #fa8072; stroke-width: 1.5"/>
     <use xlink:href="#med88bdb877" x="377.089951" y="80.235445" style="fill: #fa8072; stroke: #fa8072; stroke-width: 1.5"/>
     <use xlink:href="#med88bdb877" x="379.937014" y="77.521347" style="fill: #fa8072; stroke: #fa8072; stroke-width: 1.5"/>
     <use xlink:href="#med88bdb877" x="382.769116" y="74.821524" style="fill: #fa8072; stroke: #fa8072; stroke-width: 1.5"/>
     <use xlink:href="#med88bdb877" x="385.586166" y="72.136053" style="fill: #fa8072; stroke: #fa8072; stroke-width: 1.5"/>
     <use xlink:href="#med88bdb877" x="388.38807" y="69.465031" style="fill: #fa8072; stroke: #fa8072; stroke-width: 1.5"/>
     <use xlink:href="#med88bdb877" x="391.174731" y="66.808548" style="fill: #fa8072; stroke: #fa8072; stroke-width: 1.5"/>
     <use xlink:href="#med88bdb877" x="393.946056" y="64.166689" style="fill: #fa8072; stroke: #fa8072; stroke-width: 1.5"/>
     <use xlink:href="#med88bdb877" x="396.701946" y="61.539561" style="fill: #fa8072; stroke: #fa8072; stroke-width: 1.5"/>
     <use xlink:href="#med88bdb877" x="399.442296" y="58.927249" style="fill: #fa8072; stroke: #fa8072; stroke-width: 1.5"/>
     <use xlink:href="#med88bdb877" x="402.166997" y="56.329867" style="fill: #fa8072; stroke: #fa8072; stroke-width: 1.5"/>
     <use xlink:href="#med88bdb877" x="404.875945" y="53.74751" style="fill: #fa8072; stroke: #fa8072; stroke-width: 1.5"/>
     <use xlink:href="#med88bdb877" x="407.569028" y="51.180288" style="fill: #fa8072; stroke: #fa8072; stroke-width: 1.5"/>
     <use xlink:href="#med88bdb877" x="410.246127" y="48.628315" style="fill: #fa8072; stroke: #fa8072; stroke-width: 1.5"/>
     <use xlink:href="#med88bdb877" x="412.907129" y="46.091691" style="fill: #fa8072; stroke: #fa8072; stroke-width: 1.5"/>
     <use xlink:href="#med88bdb877" x="415.551912" y="43.570545" style="fill: #fa8072; stroke: #fa8072; stroke-width: 1.5"/>
     <use xlink:href="#med88bdb877" x="418.180351" y="41.064983" style="fill: #fa8072; stroke: #fa8072; stroke-width: 1.5"/>
     <use xlink:href="#med88bdb877" x="420.792319" y="38.575139" style="fill: #fa8072; stroke: #fa8072; stroke-width: 1.5"/>
     <use xlink:href="#med88bdb877" x="423.387688" y="36.101126" style="fill: #fa8072; stroke: #fa8072; stroke-width: 1.5"/>
     <use xlink:href="#med88bdb877" x="425.966321" y="33.643077" style="fill: #fa8072; stroke: #fa8072; stroke-width: 1.5"/>
     <use xlink:href="#med88bdb877" x="428.528084" y="31.201118" style="fill: #fa8072; stroke: #fa8072; stroke-width: 1.5"/>
     <use xlink:href="#med88bdb877" x="431.072833" y="28.775392" style="fill: #fa8072; stroke: #fa8072; stroke-width: 1.5"/>
     <use xlink:href="#med88bdb877" x="433.600426" y="26.366033" style="fill: #fa8072; stroke: #fa8072; stroke-width: 1.5"/>
     <use xlink:href="#med88bdb877" x="436.110716" y="23.973179" style="fill: #fa8072; stroke: #fa8072; stroke-width: 1.5"/>
     <use xlink:href="#med88bdb877" x="438.60355" y="21.596979" style="fill: #fa8072; stroke: #fa8072; stroke-width: 1.5"/>
     <use xlink:href="#med88bdb877" x="441.078772" y="19.237573" style="fill: #fa8072; stroke: #fa8072; stroke-width: 1.5"/>
     <use xlink:href="#med88bdb877" x="443.536221" y="16.895128" style="fill: #fa8072; stroke: #fa8072; stroke-width: 1.5"/>
     <use xlink:href="#med88bdb877" x="445.975733" y="14.569794" style="fill: #fa8072; stroke: #fa8072; stroke-width: 1.5"/>
     <use xlink:href="#med88bdb877" x="448.397138" y="12.261728" style="fill: #fa8072; stroke: #fa8072; stroke-width: 1.5"/>
     <use xlink:href="#med88bdb877" x="450.800269" y="9.971099" style="fill: #fa8072; stroke: #fa8072; stroke-width: 1.5"/>
     <use xlink:href="#med88bdb877" x="453.184951" y="7.698074" style="fill: #fa8072; stroke: #fa8072; stroke-width: 1.5"/>
     <use xlink:href="#med88bdb877" x="455.551004" y="5.442815" style="fill: #fa8072; stroke: #fa8072; stroke-width: 1.5"/>
    </g>
   </g>
   <g id="matplotlib.axis_3">
    <g id="xtick_4">
     <g id="line2d_6">
      <g>
       <use xlink:href="#m46fce2addf" x="318.69247" y="141.9175" style="stroke: #000000; stroke-width: 1.2"/>
      </g>
     </g>
     <g id="text_8">
      <!-- 0 -->
      <g transform="translate(314.786689 159.9175) scale(0.14 -0.14)">
       <use xlink:href="#FiraSans-Regular-30"/>
      </g>
     </g>
    </g>
    <g id="xtick_5">
     <g id="line2d_7">
      <g>
       <use xlink:href="#m46fce2addf" x="444.841002" y="141.9175" style="stroke: #000000; stroke-width: 1.2"/>
      </g>
     </g>
     <g id="text_9">
      <!-- 2000 -->
      <g transform="translate(429.658658 159.9175) scale(0.14 -0.14)">
       <use xlink:href="#FiraSans-Regular-32"/>
       <use xlink:href="#FiraSans-Regular-30" transform="translate(49.499985 0)"/>
       <use xlink:href="#FiraSans-Regular-30" transform="translate(105.299973 0)"/>
       <use xlink:href="#FiraSans-Regular-30" transform="translate(161.09996 0)"/>
      </g>
     </g>
    </g>
    <g id="text_10">
     <!-- $\text{E}_\text{LEVEL16} \: [\text{cm}^{-1}]$ -->
     <g transform="translate(322.093023 175.016823) scale(0.18 -0.18)">
      <defs>
       <path id="STIXGeneral-Regular-5b" d="M 1914 -998 
L 563 -998 
L 563 4237 
L 1914 4237 
L 1914 4077 
L 1382 4077 
Q 1216 4077 1133 4006 
Q 1050 3936 1050 3770 
L 1050 -493 
Q 1050 -838 1382 -838 
L 1914 -838 
L 1914 -998 
z
" transform="scale(0.015625)"/>
       <path id="STIXGeneral-Regular-1d5bc" d="M 2349 1062 
L 2765 845 
Q 2560 378 2221 154 
Q 1907 -64 1485 -64 
Q 1011 -64 685 192 
Q 147 608 147 1382 
Q 147 2080 547 2521 
Q 947 2963 1549 2963 
Q 1901 2963 2189 2816 
Q 2477 2669 2630 2374 
L 2349 2029 
L 2246 2029 
Q 2042 2509 1523 2509 
Q 1158 2509 905 2221 
Q 653 1933 653 1421 
Q 653 947 902 668 
Q 1152 390 1523 390 
Q 2042 390 2349 1062 
z
" transform="scale(0.015625)"/>
       <path id="STIXGeneral-Regular-1d5c6" d="M 4422 0 
L 3930 0 
L 3930 1875 
Q 3930 2509 3424 2509 
Q 3251 2509 3004 2345 
Q 2758 2182 2669 1933 
L 2669 0 
L 2170 0 
L 2170 1856 
Q 2170 2509 1677 2509 
Q 1504 2509 1248 2349 
Q 992 2189 909 1933 
L 909 0 
L 416 0 
L 416 2816 
L 832 2970 
L 890 2938 
L 890 2573 
Q 1203 2963 1779 2963 
Q 2349 2963 2618 2547 
Q 2995 2963 3526 2963 
Q 3904 2963 4163 2716 
Q 4422 2470 4422 2016 
L 4422 0 
z
" transform="scale(0.015625)"/>
       <path id="STIXGeneral-Regular-5d" d="M 1568 -998 
L 218 -998 
L 218 -838 
L 781 -838 
Q 947 -838 1014 -768 
Q 1082 -698 1082 -544 
L 1082 3731 
Q 1082 4077 755 4077 
L 218 4077 
L 218 4237 
L 1568 4237 
L 1568 -998 
z
" transform="scale(0.015625)"/>
      </defs>
      <use xlink:href="#STIXGeneral-Regular-1d5a4" transform="translate(0 0.370312)"/>
      <use xlink:href="#STIXGeneral-Regular-1d5ab" transform="translate(59.092683 -13.21875) scale(0.7)"/>
      <use xlink:href="#STIXGeneral-Regular-1d5a4" transform="translate(98.222679 -13.21875) scale(0.7)"/>
      <use xlink:href="#STIXGeneral-Regular-1d5b5" transform="translate(139.03267 -13.21875) scale(0.7)"/>
      <use xlink:href="#STIXGeneral-Regular-1d5a4" transform="translate(184.812666 -13.21875) scale(0.7)"/>
      <use xlink:href="#STIXGeneral-Regular-1d5ab" transform="translate(225.622657 -13.21875) scale(0.7)"/>
      <use xlink:href="#STIXGeneral-Regular-1d7e3" transform="translate(264.752653 -13.21875) scale(0.7)"/>
      <use xlink:href="#STIXGeneral-Regular-1d7e8" transform="translate(299.752643 -13.21875) scale(0.7)"/>
      <use xlink:href="#STIXGeneral-Regular-5b" transform="translate(353.817306 0.370312)"/>
      <use xlink:href="#STIXGeneral-Regular-1d5bc" transform="translate(387.117293 0.370312)"/>
      <use xlink:href="#STIXGeneral-Regular-1d5c6" transform="translate(432.717284 0.370312)"/>
      <use xlink:href="#STIXGeneral-Regular-2212" transform="translate(509.10997 36.607813) scale(0.7)"/>
      <use xlink:href="#STIXGeneral-Regular-1d7e3" transform="translate(557.05996 36.607813) scale(0.7)"/>
      <use xlink:href="#STIXGeneral-Regular-5d" transform="translate(594.324793 0.370312)"/>
     </g>
    </g>
   </g>
   <g id="matplotlib.axis_4">
    <g id="ytick_3">
     <g id="line2d_8">
      <g>
       <use xlink:href="#md0ba9865c4" x="312.385044" y="135.9071" style="stroke: #000000; stroke-width: 1.2"/>
      </g>
     </g>
     <g id="text_11">
      <!-- 0 -->
      <g transform="translate(297.073481 141.1571) scale(0.14 -0.14)">
       <use xlink:href="#FiraSans-Regular-30"/>
      </g>
     </g>
    </g>
    <g id="ytick_4">
     <g id="line2d_9">
      <g>
       <use xlink:href="#md0ba9865c4" x="312.385044" y="15.6991" style="stroke: #000000; stroke-width: 1.2"/>
      </g>
     </g>
     <g id="text_12">
      <!-- 2000 -->
      <g transform="translate(274.520356 20.9491) scale(0.14 -0.14)">
       <use xlink:href="#FiraSans-Regular-32"/>
       <use xlink:href="#FiraSans-Regular-30" transform="translate(49.499985 0)"/>
       <use xlink:href="#FiraSans-Regular-30" transform="translate(105.299973 0)"/>
       <use xlink:href="#FiraSans-Regular-30" transform="translate(161.09996 0)"/>
      </g>
     </g>
    </g>
    <g id="text_13">
     <!-- $\text{E}_\text{DUO} \: [\text{cm}^{-1}]$ -->
     <g transform="translate(214.67266 43.420262) scale(0.18 -0.18)">
      <use xlink:href="#STIXGeneral-Regular-1d5a4" transform="translate(0 0.370312)"/>
      <use xlink:href="#STIXGeneral-Regular-1d5a3" transform="translate(59.092683 -13.21875) scale(0.7)"/>
      <use xlink:href="#STIXGeneral-Regular-1d5b4" transform="translate(107.53267 -13.21875) scale(0.7)"/>
      <use xlink:href="#STIXGeneral-Regular-1d5ae" transform="translate(153.802664 -13.21875) scale(0.7)"/>
      <use xlink:href="#STIXGeneral-Regular-5b" transform="translate(222.847333 0.370312)"/>
      <use xlink:href="#STIXGeneral-Regular-1d5bc" transform="translate(256.147321 0.370312)"/>
      <use xlink:href="#STIXGeneral-Regular-1d5c6" transform="translate(301.747312 0.370312)"/>
      <use xlink:href="#STIXGeneral-Regular-2212" transform="translate(378.139998 36.607813) scale(0.7)"/>
      <use xlink:href="#STIXGeneral-Regular-1d7e3" transform="translate(426.089987 36.607813) scale(0.7)"/>
      <use xlink:href="#STIXGeneral-Regular-5d" transform="translate(463.354821 0.370312)"/>
     </g>
    </g>
   </g>
   <g id="line2d_10">
    <path d="M 318.69247 135.9071 
L 444.777927 15.759204 
L 444.777927 15.759204 
" clip-path="url(#p0bc6a65e19)" style="fill: none; stroke: #000000; stroke-opacity: 0.6; stroke-width: 1.5; stroke-linecap: square"/>
   </g>
   <g id="patch_6">
    <path d="M 312.385044 135.9071 
L 312.385044 15.6991 
" style="fill: none; stroke: #000000; stroke-width: 1.2; stroke-linejoin: miter; stroke-linecap: square"/>
   </g>
   <g id="patch_7">
    <path d="M 318.69247 141.9175 
L 444.841002 141.9175 
" style="fill: none; stroke: #000000; stroke-width: 1.2; stroke-linejoin: miter; stroke-linecap: square"/>
   </g>
   <g id="text_14">
    <!-- $y=x$ -->
    <g transform="translate(432.226149 39.7407) scale(0.18 -0.18)">
     <defs>
      <path id="STIXGeneral-Italic-1d63a" d="M 3616 2899 
L 1690 -282 
Q 1344 -851 1033 -1116 
Q 723 -1382 314 -1382 
Q 6 -1382 -122 -1229 
L -6 -768 
L 96 -768 
Q 262 -922 442 -922 
Q 646 -922 883 -675 
Q 1120 -429 1338 -38 
Q 1350 -13 1395 60 
Q 1440 134 1459 173 
Q 1370 691 1171 1689 
Q 973 2688 934 2899 
L 1485 2899 
L 1862 832 
L 3072 2899 
L 3616 2899 
z
" transform="scale(0.015625)"/>
      <path id="STIXGeneral-Regular-3d" d="M 4077 2048 
L 307 2048 
L 307 2470 
L 4077 2470 
L 4077 2048 
z
M 4077 768 
L 307 768 
L 307 1190 
L 4077 1190 
L 4077 768 
z
" transform="scale(0.015625)"/>
      <path id="STIXGeneral-Italic-1d639" d="M 3482 2899 
L 2202 1510 
L 2893 0 
L 2291 0 
L 1786 1120 
L 794 0 
L 192 0 
L 1600 1530 
L 986 2899 
L 1587 2899 
L 2022 1933 
L 2880 2899 
L 3482 2899 
z
" transform="scale(0.015625)"/>
     </defs>
     <use xlink:href="#STIXGeneral-Italic-1d63a" transform="translate(0 0.703125)"/>
     <use xlink:href="#STIXGeneral-Regular-3d" transform="translate(63.519992 0.703125)"/>
     <use xlink:href="#STIXGeneral-Italic-1d639" transform="translate(147.139975 0.703125)"/>
    </g>
   </g>
  </g>
 </g>
 <defs>
  <clipPath id="p8e8236804b">
   <rect x="165.410087" y="19.44" width="275.949913" height="262.955"/>
  </clipPath>
  <clipPath id="p0bc6a65e19">
   <rect x="312.385044" y="15.6991" width="132.455958" height="126.2184"/>
  </clipPath>
 </defs>
</svg>
