<?xml version="1.0" encoding="utf-8" standalone="no"?>
<!DOCTYPE svg PUBLIC "-//W3C//DTD SVG 1.1//EN"
  "http://www.w3.org/Graphics/SVG/1.1/DTD/svg11.dtd">
<svg xmlns:xlink="http://www.w3.org/1999/xlink" width="460.8pt" height="345.6pt" viewBox="0 0 460.8 345.6" xmlns="http://www.w3.org/2000/svg" version="1.1">
 <metadata>
  <rdf:RDF xmlns:dc="http://purl.org/dc/elements/1.1/" xmlns:cc="http://creativecommons.org/ns#" xmlns:rdf="http://www.w3.org/1999/02/22-rdf-syntax-ns#">
   <cc:Work>
    <dc:type rdf:resource="http://purl.org/dc/dcmitype/StillImage"/>
    <dc:date>2025-05-08T10:12:16.280336</dc:date>
    <dc:format>image/svg+xml</dc:format>
    <dc:creator>
     <cc:Agent>
      <dc:title>Matplotlib v3.10.0, https://matplotlib.org/</dc:title>
     </cc:Agent>
    </dc:creator>
   </cc:Work>
  </rdf:RDF>
 </metadata>
 <defs>
  <style type="text/css">*{stroke-linejoin: round; stroke-linecap: butt}</style>
 </defs>
 <g id="figure_1">
  <g id="patch_1">
   <path d="M 0 345.6 
L 460.8 345.6 
L 460.8 0 
L 0 0 
z
" style="fill: #ffffff"/>
  </g>
  <g id="axes_1">
   <g id="patch_2">
    <path d="M 114.252293 293.92625 
L 445.68 293.92625 
L 445.68 15.12 
L 114.252293 15.12 
z
" style="fill: #ffffff"/>
   </g>
   <g id="PathCollection_1">
    <defs>
     <path id="me9d406b0be" d="M -3 0 
L 3 0 
M 0 3 
L 0 -3 
" style="stroke: #000000; stroke-width: 1.5"/>
    </defs>
    <g clip-path="url(#p0b85139a4e)">
     <use xlink:href="#me9d406b0be" x="129.317189" y="27.793011" style="stroke: #000000; stroke-width: 1.5"/>
     <use xlink:href="#me9d406b0be" x="135.466126" y="34.640477" style="stroke: #000000; stroke-width: 1.5"/>
     <use xlink:href="#me9d406b0be" x="141.615063" y="41.419322" style="stroke: #000000; stroke-width: 1.5"/>
     <use xlink:href="#me9d406b0be" x="147.764" y="48.151809" style="stroke: #000000; stroke-width: 1.5"/>
     <use xlink:href="#me9d406b0be" x="153.912937" y="54.81476" style="stroke: #000000; stroke-width: 1.5"/>
     <use xlink:href="#me9d406b0be" x="160.061874" y="61.424644" style="stroke: #000000; stroke-width: 1.5"/>
     <use xlink:href="#me9d406b0be" x="166.210811" y="67.958893" style="stroke: #000000; stroke-width: 1.5"/>
     <use xlink:href="#me9d406b0be" x="172.359748" y="74.43855" style="stroke: #000000; stroke-width: 1.5"/>
     <use xlink:href="#me9d406b0be" x="178.508685" y="80.86148" style="stroke: #000000; stroke-width: 1.5"/>
     <use xlink:href="#me9d406b0be" x="184.657622" y="87.211519" style="stroke: #000000; stroke-width: 1.5"/>
     <use xlink:href="#me9d406b0be" x="190.806559" y="93.511846" style="stroke: #000000; stroke-width: 1.5"/>
     <use xlink:href="#me9d406b0be" x="196.955496" y="99.713664" style="stroke: #000000; stroke-width: 1.5"/>
     <use xlink:href="#me9d406b0be" x="203.104433" y="105.877054" style="stroke: #000000; stroke-width: 1.5"/>
     <use xlink:href="#me9d406b0be" x="209.25337" y="111.969688" style="stroke: #000000; stroke-width: 1.5"/>
     <use xlink:href="#me9d406b0be" x="215.402307" y="118.004071" style="stroke: #000000; stroke-width: 1.5"/>
     <use xlink:href="#me9d406b0be" x="221.551244" y="123.973187" style="stroke: #000000; stroke-width: 1.5"/>
     <use xlink:href="#me9d406b0be" x="227.700181" y="129.858128" style="stroke: #000000; stroke-width: 1.5"/>
     <use xlink:href="#me9d406b0be" x="233.849119" y="135.692747" style="stroke: #000000; stroke-width: 1.5"/>
     <use xlink:href="#me9d406b0be" x="239.998056" y="141.45173" style="stroke: #000000; stroke-width: 1.5"/>
     <use xlink:href="#me9d406b0be" x="246.146993" y="147.139653" style="stroke: #000000; stroke-width: 1.5"/>
     <use xlink:href="#me9d406b0be" x="252.29593" y="152.760174" style="stroke: #000000; stroke-width: 1.5"/>
     <use xlink:href="#me9d406b0be" x="258.444867" y="158.290726" style="stroke: #000000; stroke-width: 1.5"/>
     <use xlink:href="#me9d406b0be" x="264.593804" y="163.76882" style="stroke: #000000; stroke-width: 1.5"/>
     <use xlink:href="#me9d406b0be" x="270.742741" y="169.168839" style="stroke: #000000; stroke-width: 1.5"/>
     <use xlink:href="#me9d406b0be" x="276.891678" y="174.493222" style="stroke: #000000; stroke-width: 1.5"/>
     <use xlink:href="#me9d406b0be" x="283.040615" y="179.775213" style="stroke: #000000; stroke-width: 1.5"/>
     <use xlink:href="#me9d406b0be" x="289.189552" y="184.932161" style="stroke: #000000; stroke-width: 1.5"/>
     <use xlink:href="#me9d406b0be" x="295.338489" y="190.056171" style="stroke: #000000; stroke-width: 1.5"/>
     <use xlink:href="#me9d406b0be" x="301.487426" y="195.087466" style="stroke: #000000; stroke-width: 1.5"/>
     <use xlink:href="#me9d406b0be" x="307.636363" y="200.048616" style="stroke: #000000; stroke-width: 1.5"/>
     <use xlink:href="#me9d406b0be" x="313.7853" y="204.92254" style="stroke: #000000; stroke-width: 1.5"/>
     <use xlink:href="#me9d406b0be" x="319.934237" y="209.707714" style="stroke: #000000; stroke-width: 1.5"/>
     <use xlink:href="#me9d406b0be" x="326.083174" y="214.439822" style="stroke: #000000; stroke-width: 1.5"/>
     <use xlink:href="#me9d406b0be" x="332.232111" y="219.057561" style="stroke: #000000; stroke-width: 1.5"/>
     <use xlink:href="#me9d406b0be" x="338.381048" y="223.624978" style="stroke: #000000; stroke-width: 1.5"/>
     <use xlink:href="#me9d406b0be" x="344.529985" y="228.075891" style="stroke: #000000; stroke-width: 1.5"/>
     <use xlink:href="#me9d406b0be" x="350.678923" y="232.460624" style="stroke: #000000; stroke-width: 1.5"/>
     <use xlink:href="#me9d406b0be" x="356.82786" y="236.764841" style="stroke: #000000; stroke-width: 1.5"/>
     <use xlink:href="#me9d406b0be" x="362.976797" y="240.997387" style="stroke: #000000; stroke-width: 1.5"/>
     <use xlink:href="#me9d406b0be" x="369.125734" y="245.117395" style="stroke: #000000; stroke-width: 1.5"/>
     <use xlink:href="#me9d406b0be" x="375.274671" y="249.147433" style="stroke: #000000; stroke-width: 1.5"/>
     <use xlink:href="#me9d406b0be" x="381.423608" y="253.095125" style="stroke: #000000; stroke-width: 1.5"/>
     <use xlink:href="#me9d406b0be" x="387.572545" y="256.940344" style="stroke: #000000; stroke-width: 1.5"/>
     <use xlink:href="#me9d406b0be" x="393.721482" y="260.725176" style="stroke: #000000; stroke-width: 1.5"/>
     <use xlink:href="#me9d406b0be" x="399.870419" y="264.384965" style="stroke: #000000; stroke-width: 1.5"/>
     <use xlink:href="#me9d406b0be" x="406.019356" y="267.948685" style="stroke: #000000; stroke-width: 1.5"/>
     <use xlink:href="#me9d406b0be" x="412.168293" y="271.441039" style="stroke: #000000; stroke-width: 1.5"/>
     <use xlink:href="#me9d406b0be" x="418.31723" y="274.820244" style="stroke: #000000; stroke-width: 1.5"/>
     <use xlink:href="#me9d406b0be" x="424.466167" y="278.074102" style="stroke: #000000; stroke-width: 1.5"/>
     <use xlink:href="#me9d406b0be" x="430.615104" y="281.253239" style="stroke: #000000; stroke-width: 1.5"/>
    </g>
   </g>
   <g id="matplotlib.axis_1">
    <g id="xtick_1">
     <g id="line2d_1">
      <defs>
       <path id="m6c95f63b0d" d="M 0 0 
L 0 4 
" style="stroke: #000000; stroke-width: 1.2"/>
      </defs>
      <g>
       <use xlink:href="#m6c95f63b0d" x="123.168252" y="293.92625" style="stroke: #000000; stroke-width: 1.2"/>
      </g>
     </g>
     <g id="text_1">
      <!-- 0 -->
      <g transform="translate(119.668252 310.987812) scale(0.14 -0.14)">
       <defs>
        <path id="STIXGeneral-Regular-30" d="M 3046 2112 
Q 3046 1683 2963 1302 
Q 2880 922 2717 602 
Q 2554 282 2266 96 
Q 1978 -90 1600 -90 
Q 1210 -90 915 108 
Q 621 307 461 640 
Q 301 973 227 1350 
Q 154 1728 154 2150 
Q 154 2746 301 3222 
Q 448 3699 790 4012 
Q 1133 4326 1626 4326 
Q 2253 4326 2649 3712 
Q 3046 3098 3046 2112 
z
M 2432 2080 
Q 2432 3091 2217 3625 
Q 2003 4160 1587 4160 
Q 1190 4160 979 3622 
Q 768 3085 768 2106 
Q 768 1120 979 598 
Q 1190 77 1600 77 
Q 2003 77 2217 598 
Q 2432 1120 2432 2080 
z
" transform="scale(0.015625)"/>
       </defs>
       <use xlink:href="#STIXGeneral-Regular-30"/>
      </g>
     </g>
    </g>
    <g id="xtick_2">
     <g id="line2d_2">
      <g>
       <use xlink:href="#m6c95f63b0d" x="276.891678" y="293.92625" style="stroke: #000000; stroke-width: 1.2"/>
      </g>
     </g>
     <g id="text_2">
      <!-- 25 -->
      <g transform="translate(269.891678 310.987812) scale(0.14 -0.14)">
       <defs>
        <path id="STIXGeneral-Regular-32" d="M 3034 877 
L 2688 0 
L 186 0 
L 186 77 
L 1325 1286 
Q 1773 1754 1965 2144 
Q 2157 2534 2157 2950 
Q 2157 3379 1920 3616 
Q 1683 3853 1267 3853 
Q 922 3853 720 3673 
Q 518 3494 326 3021 
L 192 3053 
Q 301 3648 630 3987 
Q 960 4326 1523 4326 
Q 2054 4326 2380 4006 
Q 2707 3686 2707 3200 
Q 2707 2477 1888 1613 
L 832 486 
L 2330 486 
Q 2541 486 2665 569 
Q 2790 653 2944 915 
L 3034 877 
z
" transform="scale(0.015625)"/>
        <path id="STIXGeneral-Regular-35" d="M 2803 4358 
L 2573 3814 
Q 2534 3731 2400 3731 
L 1158 3731 
L 902 3187 
Q 1606 3053 1920 2896 
Q 2234 2739 2502 2368 
Q 2726 2061 2726 1555 
Q 2726 1094 2576 780 
Q 2426 467 2099 224 
Q 1664 -90 1011 -90 
Q 646 -90 422 19 
Q 198 128 198 307 
Q 198 550 486 550 
Q 717 550 960 352 
Q 1210 147 1414 147 
Q 1747 147 2012 480 
Q 2278 813 2278 1229 
Q 2278 1843 1850 2189 
Q 1293 2637 486 2637 
Q 410 2637 410 2688 
L 416 2720 
L 1114 4237 
L 2438 4237 
Q 2547 4237 2608 4269 
Q 2669 4301 2746 4403 
L 2803 4358 
z
" transform="scale(0.015625)"/>
       </defs>
       <use xlink:href="#STIXGeneral-Regular-32"/>
       <use xlink:href="#STIXGeneral-Regular-35" transform="translate(49.999985 0)"/>
      </g>
     </g>
    </g>
    <g id="xtick_3">
     <g id="line2d_3">
      <g>
       <use xlink:href="#m6c95f63b0d" x="430.615104" y="293.92625" style="stroke: #000000; stroke-width: 1.2"/>
      </g>
     </g>
     <g id="text_3">
      <!-- 50 -->
      <g transform="translate(423.615104 310.987812) scale(0.14 -0.14)">
       <use xlink:href="#STIXGeneral-Regular-35"/>
       <use xlink:href="#STIXGeneral-Regular-30" transform="translate(49.999985 0)"/>
      </g>
     </g>
    </g>
    <g id="text_4">
     <!-- Vibrational quantum number -->
     <g transform="translate(198.696146 327.587812) scale(0.14 -0.14)">
      <defs>
       <path id="STIXGeneral-Regular-56" d="M 4461 4237 
L 4461 4115 
Q 4262 4109 4134 3990 
Q 4006 3872 3872 3533 
L 2451 -70 
L 2355 -70 
L 794 3411 
Q 589 3866 467 3987 
Q 346 4109 102 4115 
L 102 4237 
L 1798 4237 
L 1798 4115 
L 1619 4102 
Q 1331 4083 1331 3904 
Q 1331 3776 1581 3219 
L 2554 1030 
L 3494 3392 
Q 3616 3699 3616 3853 
Q 3616 3898 3606 3933 
Q 3597 3968 3584 3993 
Q 3571 4019 3536 4038 
Q 3501 4058 3481 4067 
Q 3462 4077 3411 4086 
Q 3360 4096 3337 4099 
Q 3315 4102 3248 4108 
Q 3181 4115 3155 4115 
L 3155 4237 
L 4461 4237 
z
" transform="scale(0.015625)"/>
       <path id="STIXGeneral-Regular-69" d="M 1152 4045 
Q 1152 3904 1056 3811 
Q 960 3718 819 3718 
Q 685 3718 592 3811 
Q 499 3904 499 4045 
Q 499 4179 595 4275 
Q 691 4371 826 4371 
Q 966 4371 1059 4275 
Q 1152 4179 1152 4045 
z
M 1619 0 
L 102 0 
L 102 96 
Q 435 115 521 211 
Q 608 307 608 666 
L 608 2118 
Q 608 2342 563 2432 
Q 518 2522 397 2522 
Q 243 2522 128 2490 
L 128 2592 
L 1120 2944 
L 1146 2918 
L 1146 672 
Q 1146 314 1226 218 
Q 1306 122 1619 96 
L 1619 0 
z
" transform="scale(0.015625)"/>
       <path id="STIXGeneral-Regular-62" d="M 979 4358 
L 979 2406 
Q 1082 2650 1315 2797 
Q 1549 2944 1843 2944 
Q 2349 2944 2672 2541 
Q 2995 2138 2995 1536 
Q 2995 832 2566 384 
Q 2138 -64 1498 -64 
Q 1107 -64 774 67 
Q 442 198 442 358 
L 442 3622 
Q 442 3859 384 3926 
Q 326 3994 128 3994 
Q 83 3994 19 3981 
L 19 4090 
L 211 4147 
Q 864 4346 947 4371 
L 979 4358 
z
M 979 2035 
L 979 474 
Q 979 326 1161 233 
Q 1344 141 1600 141 
Q 1978 141 2195 416 
Q 2432 710 2432 1261 
Q 2432 1888 2182 2240 
Q 1971 2541 1613 2541 
Q 1357 2541 1168 2390 
Q 979 2240 979 2035 
z
" transform="scale(0.015625)"/>
       <path id="STIXGeneral-Regular-72" d="M 1024 2931 
L 1024 2342 
Q 1267 2688 1430 2816 
Q 1594 2944 1792 2944 
Q 1958 2944 2051 2854 
Q 2144 2765 2144 2605 
Q 2144 2470 2077 2393 
Q 2010 2317 1894 2317 
Q 1773 2317 1638 2445 
Q 1536 2541 1472 2541 
Q 1338 2541 1181 2355 
Q 1024 2170 1024 2016 
L 1024 576 
Q 1024 301 1133 205 
Q 1242 109 1568 96 
L 1568 0 
L 32 0 
L 32 96 
Q 339 154 412 224 
Q 486 294 486 538 
L 486 2138 
Q 486 2349 438 2435 
Q 390 2522 269 2522 
Q 166 2522 45 2496 
L 45 2598 
Q 448 2726 992 2944 
L 1024 2931 
z
" transform="scale(0.015625)"/>
       <path id="STIXGeneral-Regular-61" d="M 2829 422 
L 2829 243 
Q 2586 -64 2253 -64 
Q 1888 -64 1843 403 
L 1837 403 
Q 1427 -64 909 -64 
Q 608 -64 422 112 
Q 237 288 237 602 
Q 237 1050 685 1350 
Q 992 1555 1837 1869 
L 1837 2214 
Q 1837 2502 1699 2646 
Q 1562 2790 1338 2790 
Q 1146 2790 1018 2697 
Q 890 2605 890 2477 
Q 890 2419 909 2348 
Q 928 2278 928 2208 
Q 928 2112 841 2029 
Q 755 1946 634 1946 
Q 525 1946 441 2029 
Q 358 2112 358 2240 
Q 358 2547 685 2752 
Q 986 2944 1421 2944 
Q 1939 2944 2176 2656 
Q 2291 2522 2323 2384 
Q 2355 2246 2355 1946 
L 2355 723 
Q 2355 301 2554 301 
Q 2682 301 2829 422 
z
M 1837 813 
L 1837 1715 
Q 1248 1510 1018 1293 
Q 800 1094 800 800 
Q 800 557 921 432 
Q 1043 307 1242 307 
Q 1453 307 1613 410 
Q 1747 506 1792 589 
Q 1837 672 1837 813 
z
" transform="scale(0.015625)"/>
       <path id="STIXGeneral-Regular-74" d="M 1702 493 
L 1786 422 
Q 1478 -64 1011 -64 
Q 448 -64 448 749 
L 448 2675 
L 109 2675 
Q 83 2694 83 2720 
Q 83 2771 192 2842 
Q 435 2982 813 3526 
Q 826 3546 874 3606 
Q 922 3667 941 3706 
Q 986 3706 986 3622 
L 986 2880 
L 1632 2880 
L 1632 2675 
L 986 2675 
L 986 845 
Q 986 538 1062 403 
Q 1139 269 1318 269 
Q 1510 269 1702 493 
z
" transform="scale(0.015625)"/>
       <path id="STIXGeneral-Regular-6f" d="M 3008 1478 
Q 3008 806 2608 371 
Q 2208 -64 1568 -64 
Q 979 -64 582 368 
Q 186 800 186 1459 
Q 186 2125 582 2534 
Q 979 2944 1626 2944 
Q 2221 2944 2614 2537 
Q 3008 2131 3008 1478 
z
M 2432 1306 
Q 2432 2035 2112 2445 
Q 1856 2765 1504 2765 
Q 1171 2765 966 2493 
Q 762 2221 762 1747 
Q 762 928 1101 435 
Q 1318 115 1677 115 
Q 2029 115 2230 432 
Q 2432 749 2432 1306 
z
" transform="scale(0.015625)"/>
       <path id="STIXGeneral-Regular-6e" d="M 3104 0 
L 1773 0 
L 1779 96 
Q 2016 115 2096 233 
Q 2176 352 2176 672 
L 2176 1946 
Q 2176 2592 1709 2592 
Q 1549 2592 1408 2515 
Q 1267 2438 1050 2227 
L 1050 461 
Q 1050 269 1136 192 
Q 1222 115 1466 96 
L 1466 0 
L 115 0 
L 115 96 
Q 358 115 435 214 
Q 512 314 512 602 
L 512 2157 
Q 512 2394 467 2483 
Q 422 2573 288 2573 
Q 160 2573 102 2547 
L 102 2656 
Q 550 2784 979 2944 
L 1030 2925 
L 1030 2426 
L 1037 2426 
Q 1491 2944 1958 2944 
Q 2323 2944 2518 2688 
Q 2714 2432 2714 1958 
L 2714 544 
Q 2714 288 2790 205 
Q 2867 122 3104 96 
L 3104 0 
z
" transform="scale(0.015625)"/>
       <path id="STIXGeneral-Regular-6c" d="M 1645 0 
L 134 0 
L 134 96 
Q 435 122 531 221 
Q 627 320 627 589 
L 627 3590 
Q 627 3821 569 3910 
Q 512 4000 358 4000 
Q 224 4000 122 3987 
L 122 4090 
Q 730 4237 1133 4371 
L 1165 4346 
L 1165 557 
Q 1165 288 1254 201 
Q 1344 115 1645 96 
L 1645 0 
z
" transform="scale(0.015625)"/>
       <path id="STIXGeneral-Regular-20" transform="scale(0.015625)"/>
       <path id="STIXGeneral-Regular-71" d="M 3123 -1389 
L 1613 -1389 
L 1613 -1280 
Q 1952 -1254 2067 -1158 
Q 2182 -1062 2182 -794 
L 2182 410 
Q 1747 -64 1178 -64 
Q 730 -64 442 320 
Q 154 704 154 1312 
Q 154 2003 560 2473 
Q 966 2944 1562 2944 
Q 1920 2944 2304 2720 
L 2650 2925 
L 2720 2925 
L 2720 -902 
Q 2720 -1107 2797 -1180 
Q 2874 -1254 3123 -1280 
L 3123 -1389 
z
M 2182 813 
L 2182 2131 
Q 2182 2758 1587 2758 
Q 1178 2758 941 2432 
Q 704 2106 704 1542 
Q 704 1210 803 925 
Q 902 640 1062 499 
Q 1254 326 1542 326 
Q 1882 326 2106 531 
Q 2182 602 2182 813 
z
" transform="scale(0.015625)"/>
       <path id="STIXGeneral-Regular-75" d="M 3072 320 
L 3072 230 
Q 2573 96 2195 -58 
L 2163 -38 
L 2163 486 
L 2150 486 
Q 1747 -64 1235 -64 
Q 870 -64 662 160 
Q 454 384 454 755 
L 454 2362 
Q 454 2598 371 2688 
Q 288 2778 58 2790 
L 58 2880 
L 992 2880 
L 992 813 
Q 992 595 1123 451 
Q 1254 307 1446 307 
Q 1760 307 1984 506 
Q 2067 582 2099 649 
Q 2131 717 2131 877 
L 2131 2355 
Q 2131 2605 2041 2678 
Q 1952 2752 1658 2771 
L 1658 2880 
L 2669 2880 
L 2669 685 
Q 2669 461 2742 390 
Q 2816 320 3034 320 
L 3072 320 
z
" transform="scale(0.015625)"/>
       <path id="STIXGeneral-Regular-6d" d="M 4960 0 
L 3565 0 
L 3565 96 
Q 3834 122 3907 208 
Q 3981 294 3981 576 
L 3981 1894 
Q 3981 2278 3869 2444 
Q 3757 2611 3488 2611 
Q 3264 2611 3107 2521 
Q 2950 2432 2803 2221 
L 2803 608 
Q 2803 301 2896 201 
Q 2989 102 3264 96 
L 3264 0 
L 1830 0 
L 1830 96 
Q 2112 115 2189 188 
Q 2266 262 2266 550 
L 2266 1901 
Q 2266 2611 1850 2611 
Q 1670 2611 1468 2531 
Q 1267 2451 1171 2336 
Q 1088 2240 1088 2227 
L 1088 448 
Q 1088 243 1177 176 
Q 1267 109 1523 96 
L 1523 0 
L 102 0 
L 102 96 
Q 371 102 460 195 
Q 550 288 550 563 
L 550 2150 
Q 550 2387 499 2480 
Q 448 2573 326 2573 
Q 230 2573 122 2547 
L 122 2656 
Q 557 2778 1011 2944 
L 1062 2925 
L 1062 2451 
L 1075 2451 
Q 1363 2752 1584 2848 
Q 1805 2944 2054 2944 
Q 2560 2944 2733 2406 
Q 3232 2944 3776 2944 
Q 4518 2944 4518 1792 
L 4518 493 
Q 4518 282 4582 202 
Q 4646 122 4794 109 
L 4960 96 
L 4960 0 
z
" transform="scale(0.015625)"/>
       <path id="STIXGeneral-Regular-65" d="M 2611 1050 
L 2714 1005 
Q 2330 -64 1376 -64 
Q 813 -64 486 329 
Q 160 723 160 1389 
Q 160 2074 525 2509 
Q 890 2944 1485 2944 
Q 2061 2944 2374 2502 
Q 2560 2246 2592 1773 
L 621 1773 
Q 646 1370 700 1158 
Q 755 947 915 730 
Q 1184 378 1626 378 
Q 1939 378 2153 531 
Q 2368 685 2611 1050 
z
M 634 1978 
L 1939 1978 
Q 1882 2381 1750 2547 
Q 1619 2714 1312 2714 
Q 1043 2714 864 2525 
Q 685 2336 634 1978 
z
" transform="scale(0.015625)"/>
      </defs>
      <use xlink:href="#STIXGeneral-Regular-56"/>
      <use xlink:href="#STIXGeneral-Regular-69" transform="translate(72.199982 0)"/>
      <use xlink:href="#STIXGeneral-Regular-62" transform="translate(99.999969 0)"/>
      <use xlink:href="#STIXGeneral-Regular-72" transform="translate(149.999954 0)"/>
      <use xlink:href="#STIXGeneral-Regular-61" transform="translate(183.299942 0)"/>
      <use xlink:href="#STIXGeneral-Regular-74" transform="translate(227.699936 0)"/>
      <use xlink:href="#STIXGeneral-Regular-69" transform="translate(255.499924 0)"/>
      <use xlink:href="#STIXGeneral-Regular-6f" transform="translate(283.299911 0)"/>
      <use xlink:href="#STIXGeneral-Regular-6e" transform="translate(333.299896 0)"/>
      <use xlink:href="#STIXGeneral-Regular-61" transform="translate(383.299881 0)"/>
      <use xlink:href="#STIXGeneral-Regular-6c" transform="translate(427.699875 0)"/>
      <use xlink:href="#STIXGeneral-Regular-20" transform="translate(455.499863 0)"/>
      <use xlink:href="#STIXGeneral-Regular-71" transform="translate(480.499847 0)"/>
      <use xlink:href="#STIXGeneral-Regular-75" transform="translate(530.499832 0)"/>
      <use xlink:href="#STIXGeneral-Regular-61" transform="translate(580.499817 0)"/>
      <use xlink:href="#STIXGeneral-Regular-6e" transform="translate(624.899811 0)"/>
      <use xlink:href="#STIXGeneral-Regular-74" transform="translate(674.899796 0)"/>
      <use xlink:href="#STIXGeneral-Regular-75" transform="translate(702.699783 0)"/>
      <use xlink:href="#STIXGeneral-Regular-6d" transform="translate(752.699768 0)"/>
      <use xlink:href="#STIXGeneral-Regular-20" transform="translate(830.499756 0)"/>
      <use xlink:href="#STIXGeneral-Regular-6e" transform="translate(855.499741 0)"/>
      <use xlink:href="#STIXGeneral-Regular-75" transform="translate(905.499725 0)"/>
      <use xlink:href="#STIXGeneral-Regular-6d" transform="translate(955.49971 0)"/>
      <use xlink:href="#STIXGeneral-Regular-62" transform="translate(1033.299698 0)"/>
      <use xlink:href="#STIXGeneral-Regular-65" transform="translate(1083.299683 0)"/>
      <use xlink:href="#STIXGeneral-Regular-72" transform="translate(1127.699677 0)"/>
     </g>
    </g>
   </g>
   <g id="matplotlib.axis_2">
    <g id="ytick_1">
     <g id="line2d_4">
      <defs>
       <path id="m7b3eca8690" d="M 0 0 
L -4 0 
" style="stroke: #000000; stroke-width: 1.2"/>
      </defs>
      <g>
       <use xlink:href="#m7b3eca8690" x="114.252293" y="24.329021" style="stroke: #000000; stroke-width: 1.2"/>
      </g>
     </g>
     <g id="text_5">
      <!-- 0.00 -->
      <g transform="translate(82.252293 29.109802) scale(0.14 -0.14)">
       <defs>
        <path id="STIXGeneral-Regular-2e" d="M 1158 275 
Q 1158 134 1052 32 
Q 947 -70 800 -70 
Q 653 -70 550 32 
Q 448 134 448 281 
Q 448 429 553 534 
Q 659 640 806 640 
Q 947 640 1052 531 
Q 1158 422 1158 275 
z
" transform="scale(0.015625)"/>
       </defs>
       <use xlink:href="#STIXGeneral-Regular-30"/>
       <use xlink:href="#STIXGeneral-Regular-2e" transform="translate(49.999985 0)"/>
       <use xlink:href="#STIXGeneral-Regular-30" transform="translate(74.999969 0)"/>
       <use xlink:href="#STIXGeneral-Regular-30" transform="translate(124.999954 0)"/>
      </g>
     </g>
    </g>
    <g id="ytick_2">
     <g id="line2d_5">
      <g>
       <use xlink:href="#m7b3eca8690" x="114.252293" y="283.564091" style="stroke: #000000; stroke-width: 1.2"/>
      </g>
     </g>
     <g id="text_6">
      <!-- −0.85 -->
      <g transform="translate(72.662293 288.344872) scale(0.14 -0.14)">
       <defs>
        <path id="STIXGeneral-Regular-2212" d="M 3974 1408 
L 410 1408 
L 410 1830 
L 3974 1830 
L 3974 1408 
z
" transform="scale(0.015625)"/>
        <path id="STIXGeneral-Regular-38" d="M 2848 992 
Q 2848 499 2505 204 
Q 2163 -90 1587 -90 
Q 1050 -90 704 204 
Q 358 499 358 954 
Q 358 1293 524 1533 
Q 691 1773 1190 2125 
Q 710 2522 553 2765 
Q 397 3008 397 3328 
Q 397 3782 745 4054 
Q 1094 4326 1638 4326 
Q 2106 4326 2410 4060 
Q 2714 3795 2714 3411 
Q 2714 3059 2531 2848 
Q 2349 2637 1856 2374 
Q 2432 1990 2640 1689 
Q 2848 1389 2848 992 
z
M 2272 3411 
Q 2272 3744 2086 3945 
Q 1901 4147 1574 4147 
Q 1248 4147 1059 3977 
Q 870 3808 870 3513 
Q 870 3219 1059 2979 
Q 1248 2739 1670 2490 
Q 1997 2682 2134 2896 
Q 2272 3110 2272 3411 
z
M 1734 1741 
L 1357 1997 
Q 1075 1766 960 1545 
Q 845 1325 845 1011 
Q 845 576 1065 333 
Q 1286 90 1658 90 
Q 1971 90 2166 285 
Q 2362 480 2362 794 
Q 2362 1082 2214 1299 
Q 2067 1517 1734 1741 
z
" transform="scale(0.015625)"/>
       </defs>
       <use xlink:href="#STIXGeneral-Regular-2212"/>
       <use xlink:href="#STIXGeneral-Regular-30" transform="translate(68.499985 0)"/>
       <use xlink:href="#STIXGeneral-Regular-2e" transform="translate(118.499969 0)"/>
       <use xlink:href="#STIXGeneral-Regular-38" transform="translate(143.499954 0)"/>
       <use xlink:href="#STIXGeneral-Regular-35" transform="translate(193.499939 0)"/>
      </g>
     </g>
    </g>
    <g id="text_7">
     <!-- E${}_{DUO}$ - E${}_{LEVEL16}$ -->
     <g transform="translate(19.318137 51.8185) scale(0.14 -0.14)">
      <defs>
       <path id="STIXGeneral-Regular-45" d="M 3821 1082 
L 3526 0 
L 77 0 
L 77 122 
Q 442 147 538 252 
Q 634 358 634 730 
L 634 3520 
Q 634 3878 534 3987 
Q 435 4096 77 4115 
L 77 4237 
L 3469 4237 
L 3494 3322 
L 3334 3322 
Q 3264 3750 3085 3872 
Q 2906 3994 2349 3994 
L 1510 3994 
Q 1370 3994 1328 3952 
Q 1286 3910 1286 3763 
L 1286 2355 
L 2253 2355 
Q 2656 2355 2787 2470 
Q 2918 2586 2976 2970 
L 3123 2970 
L 3123 1472 
L 2976 1472 
Q 2918 1875 2790 1984 
Q 2662 2093 2253 2093 
L 1286 2093 
L 1286 538 
Q 1286 346 1420 291 
Q 1555 237 1933 237 
L 2163 237 
Q 2848 237 3136 403 
Q 3424 570 3642 1082 
L 3821 1082 
z
" transform="scale(0.015625)"/>
       <path id="STIXGeneral-Italic-44" d="M 838 4179 
L 2611 4179 
Q 3469 4179 3974 3731 
Q 4480 3283 4480 2458 
Q 4480 1325 3456 531 
Q 2778 0 1594 0 
L -51 0 
L -51 102 
Q 224 154 310 230 
Q 397 307 474 589 
L 1254 3437 
Q 1325 3686 1325 3814 
Q 1325 3949 1222 4009 
Q 1120 4070 838 4077 
L 838 4179 
z
M 1984 3738 
L 1229 1037 
Q 1088 525 1088 429 
Q 1088 192 1523 192 
Q 2470 192 3066 768 
Q 3398 1088 3584 1597 
Q 3770 2106 3770 2611 
Q 3770 3386 3270 3763 
Q 2970 3987 2432 3987 
Q 2227 3987 2128 3939 
Q 2029 3891 1984 3738 
z
" transform="scale(0.015625)"/>
       <path id="STIXGeneral-Italic-55" d="M 4896 4179 
L 4896 4077 
Q 4762 4045 4694 4016 
Q 4627 3987 4563 3945 
Q 4499 3904 4451 3789 
Q 4403 3674 4358 3539 
Q 4314 3405 4230 3123 
L 3699 1299 
Q 3482 557 3078 218 
Q 2694 -115 2067 -115 
Q 1440 -115 1046 179 
Q 653 474 653 934 
Q 653 1286 934 2317 
L 1267 3526 
Q 1325 3731 1325 3814 
Q 1325 3942 1213 4006 
Q 1101 4070 813 4077 
L 813 4179 
L 2554 4179 
L 2554 4077 
Q 2227 4045 2102 3936 
Q 1978 3827 1888 3494 
L 1485 2048 
Q 1229 1146 1229 902 
Q 1229 563 1481 355 
Q 1734 147 2112 147 
Q 2650 147 2976 492 
Q 3302 838 3520 1632 
L 3930 3123 
Q 4077 3667 4077 3782 
Q 4077 3923 3981 3987 
Q 3885 4051 3629 4077 
L 3629 4179 
L 4896 4179 
z
" transform="scale(0.015625)"/>
       <path id="STIXGeneral-Italic-4f" d="M 4474 2675 
Q 4474 1990 4106 1363 
Q 3738 736 3149 339 
Q 2477 -115 1779 -115 
Q 1146 -115 765 281 
Q 384 678 384 1382 
Q 384 1965 697 2582 
Q 1011 3200 1517 3642 
Q 2234 4262 3034 4262 
Q 3718 4269 4096 3840 
Q 4474 3411 4474 2675 
z
M 3802 3078 
Q 3802 3533 3581 3792 
Q 3360 4051 2976 4051 
Q 2342 4051 1786 3302 
Q 1446 2842 1251 2259 
Q 1056 1677 1056 1178 
Q 1056 653 1270 374 
Q 1485 96 1888 96 
Q 2477 96 2976 704 
Q 3354 1178 3578 1862 
Q 3802 2547 3802 3078 
z
" transform="scale(0.015625)"/>
       <path id="STIXGeneral-Regular-2d" d="M 1824 1242 
L 250 1242 
L 250 1645 
L 1824 1645 
L 1824 1242 
z
" transform="scale(0.015625)"/>
       <path id="STIXGeneral-Italic-4c" d="M 3578 1152 
L 3206 0 
L -51 0 
L -51 102 
Q 218 128 301 211 
Q 384 294 474 602 
L 1254 3405 
Q 1325 3642 1325 3802 
Q 1325 3942 1225 4000 
Q 1126 4058 832 4077 
L 832 4179 
L 2579 4179 
L 2579 4077 
Q 2285 4058 2147 3955 
Q 2010 3853 1933 3584 
L 1165 838 
Q 1101 595 1101 493 
Q 1101 346 1241 288 
Q 1382 230 1773 230 
Q 2266 230 2480 275 
Q 2694 320 2925 474 
Q 3187 646 3450 1190 
L 3578 1152 
z
" transform="scale(0.015625)"/>
       <path id="STIXGeneral-Italic-45" d="M 4058 4179 
L 3859 3194 
L 3718 3206 
Q 3738 3366 3738 3501 
Q 3738 3789 3501 3878 
Q 3264 3968 2509 3968 
Q 2240 3968 2157 3939 
Q 2074 3910 2042 3802 
L 1619 2310 
L 2118 2310 
Q 2541 2310 2681 2412 
Q 2822 2515 3008 2931 
L 3123 2906 
L 2688 1421 
L 2560 1453 
Q 2605 1651 2605 1786 
Q 2605 1939 2560 1984 
Q 2451 2080 2061 2080 
L 1562 2080 
L 1357 1363 
Q 1126 550 1126 429 
Q 1126 211 1632 211 
Q 2458 211 2931 461 
Q 3174 589 3533 1088 
L 3635 1037 
L 3238 0 
L -6 0 
L -6 102 
Q 269 154 352 227 
Q 435 301 512 576 
L 1299 3405 
Q 1370 3642 1370 3814 
Q 1370 3942 1270 3996 
Q 1171 4051 877 4077 
L 877 4179 
L 4058 4179 
z
" transform="scale(0.015625)"/>
       <path id="STIXGeneral-Italic-56" d="M 4403 4179 
L 4403 4077 
Q 4198 4070 4045 3821 
L 1658 -115 
L 1536 -115 
L 1011 3104 
Q 902 3776 828 3910 
Q 755 4045 486 4077 
L 486 4179 
L 2022 4179 
L 2022 4077 
Q 1722 4045 1629 3981 
Q 1536 3917 1536 3750 
Q 1536 3686 1542 3654 
L 1958 819 
L 3302 3123 
Q 3616 3661 3616 3859 
Q 3616 4032 3219 4077 
L 3219 4179 
L 4403 4179 
z
" transform="scale(0.015625)"/>
       <path id="STIXGeneral-Regular-31" d="M 2522 0 
L 755 0 
L 755 96 
Q 1107 115 1235 227 
Q 1363 339 1363 608 
L 1363 3482 
Q 1363 3795 1171 3795 
Q 1082 3795 883 3718 
L 710 3654 
L 710 3744 
L 1856 4326 
L 1914 4307 
L 1914 486 
Q 1914 275 2042 185 
Q 2170 96 2522 96 
L 2522 0 
z
" transform="scale(0.015625)"/>
       <path id="STIXGeneral-Regular-36" d="M 2854 4378 
L 2867 4275 
Q 2112 4154 1606 3664 
Q 1101 3174 973 2451 
Q 1344 2739 1786 2739 
Q 2349 2739 2672 2380 
Q 2995 2022 2995 1402 
Q 2995 774 2669 378 
Q 2291 -90 1651 -90 
Q 870 -90 518 557 
Q 218 1107 218 1786 
Q 218 2835 915 3552 
Q 1312 3962 1731 4131 
Q 2150 4301 2854 4378 
z
M 2419 1203 
Q 2419 2445 1555 2445 
Q 1235 2445 1024 2275 
Q 813 2106 813 1702 
Q 813 954 1046 522 
Q 1280 90 1722 90 
Q 2061 90 2240 394 
Q 2419 698 2419 1203 
z
" transform="scale(0.015625)"/>
      </defs>
      <use xlink:href="#STIXGeneral-Regular-45" transform="translate(0 0.796875)"/>
      <use xlink:href="#STIXGeneral-Italic-44" transform="translate(62.643272 -12.43125) scale(0.7)"/>
      <use xlink:href="#STIXGeneral-Italic-55" transform="translate(113.183259 -12.43125) scale(0.7)"/>
      <use xlink:href="#STIXGeneral-Italic-4f" transform="translate(163.723246 -12.43125) scale(0.7)"/>
      <use xlink:href="#STIXGeneral-Regular-20" transform="translate(218.672609 0.796875)"/>
      <use xlink:href="#STIXGeneral-Regular-2d" transform="translate(243.672593 0.796875)"/>
      <use xlink:href="#STIXGeneral-Regular-20" transform="translate(276.972581 0.796875)"/>
      <use xlink:href="#STIXGeneral-Regular-45" transform="translate(301.972566 0.796875)"/>
      <use xlink:href="#STIXGeneral-Italic-4c" transform="translate(364.615838 -12.43125) scale(0.7)"/>
      <use xlink:href="#STIXGeneral-Italic-45" transform="translate(403.535832 -12.43125) scale(0.7)"/>
      <use xlink:href="#STIXGeneral-Italic-56" transform="translate(446.305825 -12.43125) scale(0.7)"/>
      <use xlink:href="#STIXGeneral-Italic-45" transform="translate(489.075819 -12.43125) scale(0.7)"/>
      <use xlink:href="#STIXGeneral-Italic-4c" transform="translate(531.845812 -12.43125) scale(0.7)"/>
      <use xlink:href="#STIXGeneral-Regular-31" transform="translate(570.765806 -12.43125) scale(0.7)"/>
      <use xlink:href="#STIXGeneral-Regular-36" transform="translate(605.765795 -12.43125) scale(0.7)"/>
     </g>
     <!-- [cm$^{-1}$] -->
     <g transform="translate(45.078137 67.842812) scale(0.14 -0.14)">
      <defs>
       <path id="STIXGeneral-Regular-5b" d="M 1914 -998 
L 563 -998 
L 563 4237 
L 1914 4237 
L 1914 4077 
L 1382 4077 
Q 1216 4077 1133 4006 
Q 1050 3936 1050 3770 
L 1050 -493 
Q 1050 -838 1382 -838 
L 1914 -838 
L 1914 -998 
z
" transform="scale(0.015625)"/>
       <path id="STIXGeneral-Regular-63" d="M 2547 998 
L 2637 941 
Q 2362 403 2112 205 
Q 1786 -64 1376 -64 
Q 845 -64 502 336 
Q 160 736 160 1357 
Q 160 2170 698 2618 
Q 1094 2944 1562 2944 
Q 1965 2944 2256 2749 
Q 2547 2554 2547 2285 
Q 2547 2176 2457 2096 
Q 2368 2016 2246 2016 
Q 2022 2016 1939 2310 
L 1901 2451 
Q 1850 2630 1773 2694 
Q 1696 2758 1523 2758 
Q 1133 2758 893 2451 
Q 653 2144 653 1645 
Q 653 1094 928 745 
Q 1203 397 1645 397 
Q 1920 397 2118 528 
Q 2317 659 2547 998 
z
" transform="scale(0.015625)"/>
       <path id="STIXGeneral-Regular-5d" d="M 1568 -998 
L 218 -998 
L 218 -838 
L 781 -838 
Q 947 -838 1014 -768 
Q 1082 -698 1082 -544 
L 1082 3731 
Q 1082 4077 755 4077 
L 218 4077 
L 218 4237 
L 1568 4237 
L 1568 -998 
z
" transform="scale(0.015625)"/>
      </defs>
      <use xlink:href="#STIXGeneral-Regular-5b" transform="translate(0 0.409375)"/>
      <use xlink:href="#STIXGeneral-Regular-63" transform="translate(33.299988 0.409375)"/>
      <use xlink:href="#STIXGeneral-Regular-6d" transform="translate(77.699982 0.409375)"/>
      <use xlink:href="#STIXGeneral-Regular-2212" transform="translate(157.043251 35.684375) scale(0.7)"/>
      <use xlink:href="#STIXGeneral-Regular-31" transform="translate(204.99324 35.684375) scale(0.7)"/>
      <use xlink:href="#STIXGeneral-Regular-5d" transform="translate(244.402604 0.409375)"/>
     </g>
    </g>
   </g>
   <g id="patch_3">
    <path d="M 114.252293 24.329021 
L 114.252293 283.564091 
" style="fill: none; stroke: #000000; stroke-width: 1.2; stroke-linejoin: miter; stroke-linecap: square"/>
   </g>
   <g id="patch_4">
    <path d="M 123.168252 293.92625 
L 430.615104 293.92625 
" style="fill: none; stroke: #000000; stroke-width: 1.2; stroke-linejoin: miter; stroke-linecap: square"/>
   </g>
  </g>
  <g id="axes_2">
   <g id="patch_5">
    <path d="M 286.966146 147.523125 
L 446.051446 147.523125 
L 446.051446 13.696125 
L 286.966146 13.696125 
z
" style="fill: #ffffff"/>
   </g>
   <g id="PathCollection_2">
    <defs>
     <path id="m03f222a3cf" d="M -3 0 
L 3 0 
M 0 3 
L 0 -3 
" style="stroke: #fa8072; stroke-width: 1.5"/>
    </defs>
    <g clip-path="url(#p8fab359067)">
     <use xlink:href="#m03f222a3cf" x="296.419097" y="139.570315" style="fill: #fa8072; stroke: #fa8072; stroke-width: 1.5"/>
     <use xlink:href="#m03f222a3cf" x="300.163067" y="136.419352" style="fill: #fa8072; stroke: #fa8072; stroke-width: 1.5"/>
     <use xlink:href="#m03f222a3cf" x="303.890623" y="133.282212" style="fill: #fa8072; stroke: #fa8072; stroke-width: 1.5"/>
     <use xlink:href="#m03f222a3cf" x="307.601706" y="130.158938" style="fill: #fa8072; stroke: #fa8072; stroke-width: 1.5"/>
     <use xlink:href="#m03f222a3cf" x="311.296254" y="127.049589" style="fill: #fa8072; stroke: #fa8072; stroke-width: 1.5"/>
     <use xlink:href="#m03f222a3cf" x="314.974194" y="123.954221" style="fill: #fa8072; stroke: #fa8072; stroke-width: 1.5"/>
     <use xlink:href="#m03f222a3cf" x="318.63545" y="120.872905" style="fill: #fa8072; stroke: #fa8072; stroke-width: 1.5"/>
     <use xlink:href="#m03f222a3cf" x="322.279954" y="117.805693" style="fill: #fa8072; stroke: #fa8072; stroke-width: 1.5"/>
     <use xlink:href="#m03f222a3cf" x="325.907647" y="114.752633" style="fill: #fa8072; stroke: #fa8072; stroke-width: 1.5"/>
     <use xlink:href="#m03f222a3cf" x="329.51845" y="111.713798" style="fill: #fa8072; stroke: #fa8072; stroke-width: 1.5"/>
     <use xlink:href="#m03f222a3cf" x="333.112281" y="108.689251" style="fill: #fa8072; stroke: #fa8072; stroke-width: 1.5"/>
     <use xlink:href="#m03f222a3cf" x="336.689069" y="105.679061" style="fill: #fa8072; stroke: #fa8072; stroke-width: 1.5"/>
     <use xlink:href="#m03f222a3cf" x="340.248731" y="102.683286" style="fill: #fa8072; stroke: #fa8072; stroke-width: 1.5"/>
     <use xlink:href="#m03f222a3cf" x="343.791183" y="99.702003" style="fill: #fa8072; stroke: #fa8072; stroke-width: 1.5"/>
     <use xlink:href="#m03f222a3cf" x="347.31634" y="96.735281" style="fill: #fa8072; stroke: #fa8072; stroke-width: 1.5"/>
     <use xlink:href="#m03f222a3cf" x="350.824113" y="93.783198" style="fill: #fa8072; stroke: #fa8072; stroke-width: 1.5"/>
     <use xlink:href="#m03f222a3cf" x="354.314414" y="90.845829" style="fill: #fa8072; stroke: #fa8072; stroke-width: 1.5"/>
     <use xlink:href="#m03f222a3cf" x="357.787146" y="87.923251" style="fill: #fa8072; stroke: #fa8072; stroke-width: 1.5"/>
     <use xlink:href="#m03f222a3cf" x="361.242214" y="85.015548" style="fill: #fa8072; stroke: #fa8072; stroke-width: 1.5"/>
     <use xlink:href="#m03f222a3cf" x="364.679521" y="82.122801" style="fill: #fa8072; stroke: #fa8072; stroke-width: 1.5"/>
     <use xlink:href="#m03f222a3cf" x="368.098967" y="79.245093" style="fill: #fa8072; stroke: #fa8072; stroke-width: 1.5"/>
     <use xlink:href="#m03f222a3cf" x="371.500443" y="76.382521" style="fill: #fa8072; stroke: #fa8072; stroke-width: 1.5"/>
     <use xlink:href="#m03f222a3cf" x="374.883841" y="73.535167" style="fill: #fa8072; stroke: #fa8072; stroke-width: 1.5"/>
     <use xlink:href="#m03f222a3cf" x="378.249048" y="70.703132" style="fill: #fa8072; stroke: #fa8072; stroke-width: 1.5"/>
     <use xlink:href="#m03f222a3cf" x="381.595948" y="67.886514" style="fill: #fa8072; stroke: #fa8072; stroke-width: 1.5"/>
     <use xlink:href="#m03f222a3cf" x="384.924428" y="65.0854" style="fill: #fa8072; stroke: #fa8072; stroke-width: 1.5"/>
     <use xlink:href="#m03f222a3cf" x="388.234371" y="62.299906" style="fill: #fa8072; stroke: #fa8072; stroke-width: 1.5"/>
     <use xlink:href="#m03f222a3cf" x="391.525649" y="59.53012" style="fill: #fa8072; stroke: #fa8072; stroke-width: 1.5"/>
     <use xlink:href="#m03f222a3cf" x="394.798132" y="56.776164" style="fill: #fa8072; stroke: #fa8072; stroke-width: 1.5"/>
     <use xlink:href="#m03f222a3cf" x="398.051694" y="54.03814" style="fill: #fa8072; stroke: #fa8072; stroke-width: 1.5"/>
     <use xlink:href="#m03f222a3cf" x="401.286203" y="51.316163" style="fill: #fa8072; stroke: #fa8072; stroke-width: 1.5"/>
     <use xlink:href="#m03f222a3cf" x="404.501514" y="48.610353" style="fill: #fa8072; stroke: #fa8072; stroke-width: 1.5"/>
     <use xlink:href="#m03f222a3cf" x="407.697491" y="45.920819" style="fill: #fa8072; stroke: #fa8072; stroke-width: 1.5"/>
     <use xlink:href="#m03f222a3cf" x="410.87399" y="43.247695" style="fill: #fa8072; stroke: #fa8072; stroke-width: 1.5"/>
     <use xlink:href="#m03f222a3cf" x="414.030858" y="40.591095" style="fill: #fa8072; stroke: #fa8072; stroke-width: 1.5"/>
     <use xlink:href="#m03f222a3cf" x="417.167945" y="37.95116" style="fill: #fa8072; stroke: #fa8072; stroke-width: 1.5"/>
     <use xlink:href="#m03f222a3cf" x="420.285094" y="35.32801" style="fill: #fa8072; stroke: #fa8072; stroke-width: 1.5"/>
     <use xlink:href="#m03f222a3cf" x="423.382143" y="32.721787" style="fill: #fa8072; stroke: #fa8072; stroke-width: 1.5"/>
     <use xlink:href="#m03f222a3cf" x="426.45893" y="30.132623" style="fill: #fa8072; stroke: #fa8072; stroke-width: 1.5"/>
     <use xlink:href="#m03f222a3cf" x="429.515284" y="27.560672" style="fill: #fa8072; stroke: #fa8072; stroke-width: 1.5"/>
     <use xlink:href="#m03f222a3cf" x="432.551032" y="25.006074" style="fill: #fa8072; stroke: #fa8072; stroke-width: 1.5"/>
     <use xlink:href="#m03f222a3cf" x="435.565998" y="22.468976" style="fill: #fa8072; stroke: #fa8072; stroke-width: 1.5"/>
     <use xlink:href="#m03f222a3cf" x="438.559998" y="19.949536" style="fill: #fa8072; stroke: #fa8072; stroke-width: 1.5"/>
     <use xlink:href="#m03f222a3cf" x="441.532847" y="17.447901" style="fill: #fa8072; stroke: #fa8072; stroke-width: 1.5"/>
     <use xlink:href="#m03f222a3cf" x="444.484349" y="14.964251" style="fill: #fa8072; stroke: #fa8072; stroke-width: 1.5"/>
     <use xlink:href="#m03f222a3cf" x="447.414307" y="12.498743" style="fill: #fa8072; stroke: #fa8072; stroke-width: 1.5"/>
     <use xlink:href="#m03f222a3cf" x="450.322519" y="10.051544" style="fill: #fa8072; stroke: #fa8072; stroke-width: 1.5"/>
     <use xlink:href="#m03f222a3cf" x="453.208782" y="7.622833" style="fill: #fa8072; stroke: #fa8072; stroke-width: 1.5"/>
     <use xlink:href="#m03f222a3cf" x="456.072888" y="5.212787" style="fill: #fa8072; stroke: #fa8072; stroke-width: 1.5"/>
     <use xlink:href="#m03f222a3cf" x="458.914619" y="2.821579" style="fill: #fa8072; stroke: #fa8072; stroke-width: 1.5"/>
    </g>
   </g>
   <g id="matplotlib.axis_3">
    <g id="xtick_4">
     <g id="line2d_6">
      <g>
       <use xlink:href="#m6c95f63b0d" x="294.541637" y="147.523125" style="stroke: #000000; stroke-width: 1.2"/>
      </g>
     </g>
     <g id="text_8">
      <!-- 0 -->
      <g transform="translate(291.041637 164.584687) scale(0.14 -0.14)">
       <use xlink:href="#STIXGeneral-Regular-30"/>
      </g>
     </g>
    </g>
    <g id="xtick_5">
     <g id="line2d_7">
      <g>
       <use xlink:href="#m6c95f63b0d" x="446.051446" y="147.523125" style="stroke: #000000; stroke-width: 1.2"/>
      </g>
     </g>
     <g id="text_9">
      <!-- 2000 -->
      <g transform="translate(432.051446 164.584687) scale(0.14 -0.14)">
       <use xlink:href="#STIXGeneral-Regular-32"/>
       <use xlink:href="#STIXGeneral-Regular-30" transform="translate(49.999985 0)"/>
       <use xlink:href="#STIXGeneral-Regular-30" transform="translate(99.999969 0)"/>
       <use xlink:href="#STIXGeneral-Regular-30" transform="translate(149.999954 0)"/>
      </g>
     </g>
    </g>
    <g id="text_10">
     <!-- $\text{E}_\text{LEVEL16} \: [\text{cm}^{-1}]$ -->
     <g transform="translate(320.798796 171.727387) scale(0.14 -0.14)">
      <defs>
       <path id="STIXGeneral-Regular-4c" d="M 3827 1114 
L 3520 0 
L 77 0 
L 77 122 
Q 429 141 531 256 
Q 634 371 634 736 
L 634 3494 
Q 634 3872 541 3981 
Q 448 4090 77 4115 
L 77 4237 
L 1888 4237 
L 1888 4115 
Q 1498 4090 1392 3984 
Q 1286 3878 1286 3507 
L 1286 538 
Q 1286 358 1398 304 
Q 1510 250 1862 250 
L 2310 250 
Q 3085 250 3392 640 
Q 3520 813 3661 1114 
L 3827 1114 
z
" transform="scale(0.015625)"/>
      </defs>
      <use xlink:href="#STIXGeneral-Regular-45" transform="translate(0 0.409375)"/>
      <use xlink:href="#STIXGeneral-Regular-4c" transform="translate(62.643272 -12.81875) scale(0.7)"/>
      <use xlink:href="#STIXGeneral-Regular-45" transform="translate(105.413266 -12.81875) scale(0.7)"/>
      <use xlink:href="#STIXGeneral-Regular-56" transform="translate(148.183259 -12.81875) scale(0.7)"/>
      <use xlink:href="#STIXGeneral-Regular-45" transform="translate(198.723246 -12.81875) scale(0.7)"/>
      <use xlink:href="#STIXGeneral-Regular-4c" transform="translate(241.49324 -12.81875) scale(0.7)"/>
      <use xlink:href="#STIXGeneral-Regular-31" transform="translate(284.263234 -12.81875) scale(0.7)"/>
      <use xlink:href="#STIXGeneral-Regular-36" transform="translate(319.263223 -12.81875) scale(0.7)"/>
      <use xlink:href="#STIXGeneral-Regular-5b" transform="translate(374.716867 0.409375)"/>
      <use xlink:href="#STIXGeneral-Regular-63" transform="translate(408.016855 0.409375)"/>
      <use xlink:href="#STIXGeneral-Regular-6d" transform="translate(452.416849 0.409375)"/>
      <use xlink:href="#STIXGeneral-Regular-2212" transform="translate(531.760118 35.684375) scale(0.7)"/>
      <use xlink:href="#STIXGeneral-Regular-31" transform="translate(579.710107 35.684375) scale(0.7)"/>
      <use xlink:href="#STIXGeneral-Regular-5d" transform="translate(619.119472 0.409375)"/>
     </g>
    </g>
   </g>
   <g id="matplotlib.axis_4">
    <g id="ytick_3">
     <g id="line2d_8">
      <g>
       <use xlink:href="#m7b3eca8690" x="286.966146" y="141.150411" style="stroke: #000000; stroke-width: 1.2"/>
      </g>
     </g>
     <g id="text_11">
      <!-- 0 -->
      <g transform="translate(272.466146 145.931192) scale(0.14 -0.14)">
       <use xlink:href="#STIXGeneral-Regular-30"/>
      </g>
     </g>
    </g>
    <g id="ytick_4">
     <g id="line2d_9">
      <g>
       <use xlink:href="#m7b3eca8690" x="286.966146" y="13.696125" style="stroke: #000000; stroke-width: 1.2"/>
      </g>
     </g>
     <g id="text_12">
      <!-- 2000 -->
      <g transform="translate(251.466146 18.476906) scale(0.14 -0.14)">
       <use xlink:href="#STIXGeneral-Regular-32"/>
       <use xlink:href="#STIXGeneral-Regular-30" transform="translate(49.999985 0)"/>
       <use xlink:href="#STIXGeneral-Regular-30" transform="translate(99.999969 0)"/>
       <use xlink:href="#STIXGeneral-Regular-30" transform="translate(149.999954 0)"/>
      </g>
     </g>
    </g>
    <g id="text_13">
     <!-- $\text{E}_\text{DUO} \: [\text{cm}^{-1}]$ -->
     <g transform="translate(211.284822 37.423088) scale(0.14 -0.14)">
      <defs>
       <path id="STIXGeneral-Regular-44" d="M 102 4237 
L 1830 4237 
Q 3078 4237 3750 3654 
Q 4384 3110 4384 2138 
Q 4384 966 3514 410 
Q 2880 0 1901 0 
L 102 0 
L 102 122 
Q 474 147 570 252 
Q 666 358 666 736 
L 666 3520 
Q 666 3891 570 3990 
Q 474 4090 102 4115 
L 102 4237 
z
M 1318 3731 
L 1318 538 
Q 1318 365 1379 301 
Q 1440 237 1626 237 
Q 2125 237 2432 307 
Q 2739 378 3021 570 
Q 3686 1018 3686 2099 
Q 3686 3027 3078 3558 
Q 2803 3802 2476 3901 
Q 2150 4000 1658 4000 
Q 1472 4000 1395 3942 
Q 1318 3885 1318 3731 
z
" transform="scale(0.015625)"/>
       <path id="STIXGeneral-Regular-55" d="M 4512 4237 
L 4512 4115 
Q 4122 4077 4016 3926 
Q 3910 3776 3910 3302 
L 3910 1670 
Q 3910 1178 3840 896 
Q 3770 614 3565 378 
Q 3155 -90 2272 -90 
Q 1574 -90 1184 205 
Q 666 589 666 1594 
L 666 3578 
Q 666 3898 566 3994 
Q 467 4090 90 4115 
L 90 4237 
L 1901 4237 
L 1901 4115 
Q 1517 4083 1417 3977 
Q 1318 3872 1318 3514 
L 1318 1517 
Q 1318 1101 1369 877 
Q 1421 653 1600 480 
Q 1901 192 2419 192 
Q 3066 192 3392 570 
Q 3539 749 3584 963 
Q 3629 1178 3629 1600 
L 3629 3283 
Q 3629 3782 3520 3936 
Q 3411 4090 3027 4115 
L 3027 4237 
L 4512 4237 
z
" transform="scale(0.015625)"/>
       <path id="STIXGeneral-Regular-4f" d="M 4403 2118 
Q 4403 1133 3820 521 
Q 3238 -90 2310 -90 
Q 1376 -90 797 524 
Q 218 1139 218 2138 
Q 218 3110 797 3718 
Q 1376 4326 2310 4326 
Q 3245 4326 3824 3702 
Q 4403 3078 4403 2118 
z
M 3674 2157 
Q 3674 2701 3520 3133 
Q 3366 3565 3091 3795 
Q 2733 4096 2304 4096 
Q 1760 4096 1389 3667 
Q 1184 3437 1065 3011 
Q 947 2586 947 2125 
Q 947 960 1523 429 
Q 1837 141 2317 141 
Q 2816 141 3142 448 
Q 3674 960 3674 2157 
z
" transform="scale(0.015625)"/>
      </defs>
      <use xlink:href="#STIXGeneral-Regular-45" transform="translate(0 0.409375)"/>
      <use xlink:href="#STIXGeneral-Regular-44" transform="translate(62.643272 -12.81875) scale(0.7)"/>
      <use xlink:href="#STIXGeneral-Regular-55" transform="translate(113.183259 -12.81875) scale(0.7)"/>
      <use xlink:href="#STIXGeneral-Regular-4f" transform="translate(163.723246 -12.81875) scale(0.7)"/>
      <use xlink:href="#STIXGeneral-Regular-5b" transform="translate(234.716889 0.409375)"/>
      <use xlink:href="#STIXGeneral-Regular-63" transform="translate(268.016876 0.409375)"/>
      <use xlink:href="#STIXGeneral-Regular-6d" transform="translate(312.41687 0.409375)"/>
      <use xlink:href="#STIXGeneral-Regular-2212" transform="translate(391.760139 35.684375) scale(0.7)"/>
      <use xlink:href="#STIXGeneral-Regular-31" transform="translate(439.710129 35.684375) scale(0.7)"/>
      <use xlink:href="#STIXGeneral-Regular-5d" transform="translate(479.119493 0.409375)"/>
     </g>
    </g>
   </g>
   <g id="line2d_10">
    <path d="M 294.541637 141.150411 
L 445.975691 13.759852 
L 445.975691 13.759852 
" clip-path="url(#p8fab359067)" style="fill: none; stroke: #000000; stroke-opacity: 0.6; stroke-width: 1.5; stroke-linecap: square"/>
   </g>
   <g id="patch_6">
    <path d="M 286.966146 141.150411 
L 286.966146 13.696125 
" style="fill: none; stroke: #000000; stroke-width: 1.2; stroke-linejoin: miter; stroke-linecap: square"/>
   </g>
   <g id="patch_7">
    <path d="M 294.541637 147.523125 
L 446.051446 147.523125 
" style="fill: none; stroke: #000000; stroke-width: 1.2; stroke-linejoin: miter; stroke-linecap: square"/>
   </g>
   <g id="text_14">
    <!-- $y=x$ -->
    <g transform="translate(430.900465 39.186982) scale(0.14 -0.14)">
     <defs>
      <path id="STIXGeneral-Italic-79" d="M 1555 1190 
L 1690 486 
Q 2118 1190 2294 1558 
Q 2470 1926 2470 2131 
Q 2470 2234 2304 2336 
Q 2138 2445 2138 2586 
Q 2138 2688 2211 2755 
Q 2285 2822 2394 2822 
Q 2534 2822 2630 2720 
Q 2726 2618 2726 2470 
Q 2726 1914 1888 518 
Q 1389 -307 918 -812 
Q 448 -1318 173 -1318 
Q 26 -1318 -64 -1241 
Q -154 -1165 -154 -1043 
Q -154 -934 -80 -860 
Q -6 -787 96 -787 
Q 218 -787 314 -876 
Q 410 -966 486 -966 
Q 602 -966 794 -755 
Q 877 -672 1040 -457 
Q 1203 -243 1248 -173 
Q 1312 -45 1312 51 
Q 1312 243 1113 1046 
Q 915 1850 787 2176 
Q 698 2413 592 2499 
Q 486 2586 294 2586 
Q 192 2586 96 2560 
L 96 2669 
Q 237 2694 301 2707 
Q 563 2758 986 2822 
L 1011 2822 
Q 1082 2822 1277 2227 
Q 1472 1632 1555 1190 
z
" transform="scale(0.015625)"/>
      <path id="STIXGeneral-Regular-3d" d="M 4077 2048 
L 307 2048 
L 307 2470 
L 4077 2470 
L 4077 2048 
z
M 4077 768 
L 307 768 
L 307 1190 
L 4077 1190 
L 4077 768 
z
" transform="scale(0.015625)"/>
      <path id="STIXGeneral-Italic-78" d="M 1555 2272 
L 1632 1907 
Q 1971 2426 2179 2624 
Q 2387 2822 2598 2822 
Q 2714 2822 2787 2755 
Q 2861 2688 2861 2585 
Q 2861 2483 2800 2419 
Q 2739 2355 2643 2355 
Q 2586 2355 2490 2409 
Q 2394 2464 2310 2464 
Q 2125 2464 1683 1690 
Q 1683 1606 1734 1402 
L 1939 544 
Q 2003 282 2131 282 
Q 2234 282 2432 538 
Q 2451 563 2476 598 
Q 2502 634 2521 662 
Q 2541 691 2566 717 
L 2662 659 
Q 2387 230 2227 80 
Q 2067 -70 1882 -70 
Q 1728 -70 1645 26 
Q 1562 122 1504 365 
L 1318 1126 
L 755 365 
Q 557 96 432 13 
Q 307 -70 147 -70 
Q 0 -70 -86 0 
Q -173 70 -173 198 
Q -173 294 -112 361 
Q -51 429 45 429 
Q 122 429 250 358 
Q 346 301 416 301 
Q 525 301 742 614 
L 1267 1357 
L 1088 2150 
Q 1024 2432 969 2509 
Q 915 2586 794 2586 
Q 717 2586 544 2541 
L 429 2509 
L 410 2611 
L 480 2637 
Q 992 2822 1229 2822 
Q 1350 2822 1420 2707 
Q 1491 2592 1555 2272 
z
" transform="scale(0.015625)"/>
     </defs>
     <use xlink:href="#STIXGeneral-Italic-79" transform="translate(0 0.90625)"/>
     <use xlink:href="#STIXGeneral-Regular-3d" transform="translate(58.83999 0.90625)"/>
     <use xlink:href="#STIXGeneral-Italic-78" transform="translate(141.779971 0.90625)"/>
    </g>
   </g>
  </g>
 </g>
 <defs>
  <clipPath id="p0b85139a4e">
   <rect x="114.252293" y="15.12" width="331.427707" height="278.80625"/>
  </clipPath>
  <clipPath id="p8fab359067">
   <rect x="286.966146" y="13.696125" width="159.085299" height="133.827"/>
  </clipPath>
 </defs>
</svg>
