<?xml version="1.0" encoding="utf-8" standalone="no"?>
<!DOCTYPE svg PUBLIC "-//W3C//DTD SVG 1.1//EN"
  "http://www.w3.org/Graphics/SVG/1.1/DTD/svg11.dtd">
<svg xmlns:xlink="http://www.w3.org/1999/xlink" width="648pt" height="432pt" viewBox="0 0 648 432" xmlns="http://www.w3.org/2000/svg" version="1.1">
 <metadata>
  <rdf:RDF xmlns:dc="http://purl.org/dc/elements/1.1/" xmlns:cc="http://creativecommons.org/ns#" xmlns:rdf="http://www.w3.org/1999/02/22-rdf-syntax-ns#">
   <cc:Work>
    <dc:type rdf:resource="http://purl.org/dc/dcmitype/StillImage"/>
    <dc:date>2025-05-09T15:00:49.501853</dc:date>
    <dc:format>image/svg+xml</dc:format>
    <dc:creator>
     <cc:Agent>
      <dc:title>Matplotlib v3.10.0, https://matplotlib.org/</dc:title>
     </cc:Agent>
    </dc:creator>
   </cc:Work>
  </rdf:RDF>
 </metadata>
 <defs>
  <style type="text/css">*{stroke-linejoin: round; stroke-linecap: butt}</style>
 </defs>
 <g id="figure_1">
  <g id="patch_1">
   <path d="M 0 432 
L 648 432 
L 648 0 
L 0 0 
z
" style="fill: #ffffff"/>
  </g>
  <g id="axes_1">
   <g id="patch_2">
    <path d="M 99.09 349.51425 
L 603.945 349.51425 
L 603.945 21.6 
L 99.09 21.6 
z
" style="fill: #ffffff"/>
   </g>
   <g id="PathCollection_1">
    <defs>
     <path id="mf52960f69c" d="M 0 2.236068 
C 0.593012 2.236068 1.161816 2.000462 1.581139 1.581139 
C 2.000462 1.161816 2.236068 0.593012 2.236068 0 
C 2.236068 -0.593012 2.000462 -1.161816 1.581139 -1.581139 
C 1.161816 -2.000462 0.593012 -2.236068 0 -2.236068 
C -0.593012 -2.236068 -1.161816 -2.000462 -1.581139 -1.581139 
C -2.000462 -1.161816 -2.236068 -0.593012 -2.236068 0 
C -2.236068 0.593012 -2.000462 1.161816 -1.581139 1.581139 
C -1.161816 2.000462 -0.593012 2.236068 0 2.236068 
z
" style="stroke: #000000"/>
    </defs>
    <g>
     <use xlink:href="#mf52960f69c" x="144.661775" y="343.431072" style="stroke: #000000"/>
     <use xlink:href="#mf52960f69c" x="151.651872" y="345.41977" style="stroke: #000000"/>
     <use xlink:href="#mf52960f69c" x="158.623456" y="348.285155" style="stroke: #000000"/>
     <use xlink:href="#mf52960f69c" x="165.576509" y="349.291905" style="stroke: #000000"/>
     <use xlink:href="#mf52960f69c" x="172.51095" y="349.486239" style="stroke: #000000"/>
     <use xlink:href="#mf52960f69c" x="179.426636" y="349.51152" style="stroke: #000000"/>
     <use xlink:href="#mf52960f69c" x="186.323357" y="349.514025" style="stroke: #000000"/>
     <use xlink:href="#mf52960f69c" x="193.200824" y="349.514232" style="stroke: #000000"/>
     <use xlink:href="#mf52960f69c" x="200.058669" y="349.514248" style="stroke: #000000"/>
     <use xlink:href="#mf52960f69c" x="206.896422" y="349.51425" style="stroke: #000000"/>
     <use xlink:href="#mf52960f69c" x="213.713498" y="349.51425" style="stroke: #000000"/>
     <use xlink:href="#mf52960f69c" x="220.509166" y="349.51425" style="stroke: #000000"/>
     <use xlink:href="#mf52960f69c" x="227.282516" y="349.51425" style="stroke: #000000"/>
     <use xlink:href="#mf52960f69c" x="234.032409" y="349.51425" style="stroke: #000000"/>
     <use xlink:href="#mf52960f69c" x="240.757404" y="349.51425" style="stroke: #000000"/>
     <use xlink:href="#mf52960f69c" x="247.455659" y="349.51425" style="stroke: #000000"/>
     <use xlink:href="#mf52960f69c" x="254.124787" y="349.51425" style="stroke: #000000"/>
     <use xlink:href="#mf52960f69c" x="260.761645" y="349.51425" style="stroke: #000000"/>
     <use xlink:href="#mf52960f69c" x="267.362015" y="349.51425" style="stroke: #000000"/>
     <use xlink:href="#mf52960f69c" x="273.920119" y="349.51425" style="stroke: #000000"/>
     <use xlink:href="#mf52960f69c" x="280.427868" y="349.51425" style="stroke: #000000"/>
     <use xlink:href="#mf52960f69c" x="286.873693" y="349.51425" style="stroke: #000000"/>
     <use xlink:href="#mf52960f69c" x="293.240748" y="349.51425" style="stroke: #000000"/>
     <use xlink:href="#mf52960f69c" x="299.504388" y="349.51425" style="stroke: #000000"/>
     <use xlink:href="#mf52960f69c" x="305.629563" y="349.51425" style="stroke: #000000"/>
     <use xlink:href="#mf52960f69c" x="311.571605" y="349.51425" style="stroke: #000000"/>
     <use xlink:href="#mf52960f69c" x="317.289327" y="349.51425" style="stroke: #000000"/>
     <use xlink:href="#mf52960f69c" x="322.774412" y="349.51425" style="stroke: #000000"/>
     <use xlink:href="#mf52960f69c" x="328.053493" y="349.514208" style="stroke: #000000"/>
     <use xlink:href="#mf52960f69c" x="328.463543" y="349.511858" style="stroke: #000000"/>
     <use xlink:href="#mf52960f69c" x="333.192202" y="349.514161" style="stroke: #000000"/>
     <use xlink:href="#mf52960f69c" x="335.207902" y="349.473407" style="stroke: #000000"/>
     <use xlink:href="#mf52960f69c" x="338.221574" y="349.514025" style="stroke: #000000"/>
     <use xlink:href="#mf52960f69c" x="342.128926" y="349.183686" style="stroke: #000000"/>
     <use xlink:href="#mf52960f69c" x="343.180843" y="349.513741" style="stroke: #000000"/>
     <use xlink:href="#mf52960f69c" x="348.043316" y="349.462014" style="stroke: #000000"/>
     <use xlink:href="#mf52960f69c" x="349.20603" y="347.858111" style="stroke: #000000"/>
     <use xlink:href="#mf52960f69c" x="352.900143" y="349.452736" style="stroke: #000000"/>
     <use xlink:href="#mf52960f69c" x="356.311988" y="343.240206" style="stroke: #000000"/>
     <use xlink:href="#mf52960f69c" x="357.71594" y="349.374774" style="stroke: #000000"/>
     <use xlink:href="#mf52960f69c" x="362.504382" y="349.270583" style="stroke: #000000"/>
     <use xlink:href="#mf52960f69c" x="363.454565" y="331.494816" style="stroke: #000000"/>
     <use xlink:href="#mf52960f69c" x="367.275241" y="348.707345" style="stroke: #000000"/>
     <use xlink:href="#mf52960f69c" x="370.578485" y="310.321302" style="stroke: #000000"/>
     <use xlink:href="#mf52960f69c" x="372.055084" y="345.126018" style="stroke: #000000"/>
     <use xlink:href="#mf52960f69c" x="376.665356" y="348.586635" style="stroke: #000000"/>
     <use xlink:href="#mf52960f69c" x="377.839954" y="266.53309" style="stroke: #000000"/>
     <use xlink:href="#mf52960f69c" x="381.450514" y="347.921641" style="stroke: #000000"/>
     <use xlink:href="#mf52960f69c" x="384.808316" y="228.752222" style="stroke: #000000"/>
     <use xlink:href="#mf52960f69c" x="386.288266" y="325.469089" style="stroke: #000000"/>
     <use xlink:href="#mf52960f69c" x="390.609354" y="336.290642" style="stroke: #000000"/>
     <use xlink:href="#mf52960f69c" x="392.276737" y="150.509144" style="stroke: #000000"/>
     <use xlink:href="#mf52960f69c" x="395.421719" y="349.477992" style="stroke: #000000"/>
     <use xlink:href="#mf52960f69c" x="399.066993" y="117.767759" style="stroke: #000000"/>
     <use xlink:href="#mf52960f69c" x="400.321588" y="301.423198" style="stroke: #000000"/>
     <use xlink:href="#mf52960f69c" x="404.520621" y="313.870026" style="stroke: #000000"/>
     <use xlink:href="#mf52960f69c" x="406.574989" y="48.714176" style="stroke: #000000"/>
     <use xlink:href="#mf52960f69c" x="409.264176" y="343.678707" style="stroke: #000000"/>
     <use xlink:href="#mf52960f69c" x="413.367617" y="38.027007" style="stroke: #000000"/>
     <use xlink:href="#mf52960f69c" x="414.087471" y="305.146375" style="stroke: #000000"/>
     <use xlink:href="#mf52960f69c" x="418.462084" y="307.438369" style="stroke: #000000"/>
     <use xlink:href="#mf52960f69c" x="420.613676" y="33.1538" style="stroke: #000000"/>
     <use xlink:href="#mf52960f69c" x="423.109574" y="323.365672" style="stroke: #000000"/>
     <use xlink:href="#mf52960f69c" x="427.539085" y="81.819844" style="stroke: #000000"/>
     <use xlink:href="#mf52960f69c" x="427.738178" y="287.605849" style="stroke: #000000"/>
     <use xlink:href="#mf52960f69c" x="432.346026" y="329.670305" style="stroke: #000000"/>
     <use xlink:href="#mf52960f69c" x="434.437361" y="89.91131" style="stroke: #000000"/>
     <use xlink:href="#mf52960f69c" x="436.97895" y="315.918614" style="stroke: #000000"/>
     <use xlink:href="#mf52960f69c" x="441.016008" y="263.04229" style="stroke: #000000"/>
     <use xlink:href="#mf52960f69c" x="441.871143" y="197.3879" style="stroke: #000000"/>
     <use xlink:href="#mf52960f69c" x="446.029771" y="348.035745" style="stroke: #000000"/>
     <use xlink:href="#mf52960f69c" x="448.23206" y="176.059622" style="stroke: #000000"/>
     <use xlink:href="#mf52960f69c" x="450.742381" y="331.093489" style="stroke: #000000"/>
     <use xlink:href="#mf52960f69c" x="454.45817" y="295.705188" style="stroke: #000000"/>
     <use xlink:href="#mf52960f69c" x="455.867848" y="263.064168" style="stroke: #000000"/>
     <use xlink:href="#mf52960f69c" x="459.505281" y="348.400486" style="stroke: #000000"/>
     <use xlink:href="#mf52960f69c" x="462.075013" y="257.484528" style="stroke: #000000"/>
     <use xlink:href="#mf52960f69c" x="464.279719" y="345.325837" style="stroke: #000000"/>
     <use xlink:href="#mf52960f69c" x="468.014745" y="319.687069" style="stroke: #000000"/>
     <use xlink:href="#mf52960f69c" x="469.578717" y="312.208205" style="stroke: #000000"/>
     <use xlink:href="#mf52960f69c" x="472.924077" y="346.067499" style="stroke: #000000"/>
     <use xlink:href="#mf52960f69c" x="475.852842" y="309.820607" style="stroke: #000000"/>
     <use xlink:href="#mf52960f69c" x="477.62389" y="349.481588" style="stroke: #000000"/>
     <use xlink:href="#mf52960f69c" x="481.691032" y="336.905545" style="stroke: #000000"/>
     <use xlink:href="#mf52960f69c" x="482.944371" y="335.825841" style="stroke: #000000"/>
     <use xlink:href="#mf52960f69c" x="486.412936" y="346.860819" style="stroke: #000000"/>
     <use xlink:href="#mf52960f69c" x="489.369007" y="335.850363" style="stroke: #000000"/>
     <use xlink:href="#mf52960f69c" x="490.972903" y="348.801008" style="stroke: #000000"/>
     <use xlink:href="#mf52960f69c" x="495.399701" y="346.138761" style="stroke: #000000"/>
     <use xlink:href="#mf52960f69c" x="496.030731" y="344.069073" style="stroke: #000000"/>
     <use xlink:href="#mf52960f69c" x="499.950587" y="348.534822" style="stroke: #000000"/>
     <use xlink:href="#mf52960f69c" x="502.540325" y="345.508999" style="stroke: #000000"/>
     <use xlink:href="#mf52960f69c" x="504.455459" y="348.788655" style="stroke: #000000"/>
     <use xlink:href="#mf52960f69c" x="508.810344" y="349.370318" style="stroke: #000000"/>
     <use xlink:href="#mf52960f69c" x="509.197303" y="347.009808" style="stroke: #000000"/>
     <use xlink:href="#mf52960f69c" x="513.404058" y="349.344213" style="stroke: #000000"/>
     <use xlink:href="#mf52960f69c" x="515.545224" y="348.311068" style="stroke: #000000"/>
     <use xlink:href="#mf52960f69c" x="517.932474" y="349.274418" style="stroke: #000000"/>
     <use xlink:href="#mf52960f69c" x="521.66421" y="349.28058" style="stroke: #000000"/>
     <use xlink:href="#mf52960f69c" x="522.722307" y="349.014937" style="stroke: #000000"/>
    </g>
   </g>
   <g id="matplotlib.axis_1">
    <g id="xtick_1">
     <g id="line2d_1">
      <defs>
       <path id="mfa579e78e8" d="M 0 0 
L 0 3.5 
" style="stroke: #000000; stroke-width: 1.2"/>
      </defs>
      <g>
       <use xlink:href="#mfa579e78e8" x="113.11375" y="359.51425" style="stroke: #000000; stroke-width: 1.2"/>
      </g>
     </g>
     <g id="text_1">
      <!-- 8500 -->
      <g transform="translate(95.11375 378.807688) scale(0.18 -0.18)">
       <defs>
        <path id="STIXGeneral-Regular-38" d="M 2848 992 
Q 2848 499 2505 204 
Q 2163 -90 1587 -90 
Q 1050 -90 704 204 
Q 358 499 358 954 
Q 358 1293 524 1533 
Q 691 1773 1190 2125 
Q 710 2522 553 2765 
Q 397 3008 397 3328 
Q 397 3782 745 4054 
Q 1094 4326 1638 4326 
Q 2106 4326 2410 4060 
Q 2714 3795 2714 3411 
Q 2714 3059 2531 2848 
Q 2349 2637 1856 2374 
Q 2432 1990 2640 1689 
Q 2848 1389 2848 992 
z
M 2272 3411 
Q 2272 3744 2086 3945 
Q 1901 4147 1574 4147 
Q 1248 4147 1059 3977 
Q 870 3808 870 3513 
Q 870 3219 1059 2979 
Q 1248 2739 1670 2490 
Q 1997 2682 2134 2896 
Q 2272 3110 2272 3411 
z
M 1734 1741 
L 1357 1997 
Q 1075 1766 960 1545 
Q 845 1325 845 1011 
Q 845 576 1065 333 
Q 1286 90 1658 90 
Q 1971 90 2166 285 
Q 2362 480 2362 794 
Q 2362 1082 2214 1299 
Q 2067 1517 1734 1741 
z
" transform="scale(0.015625)"/>
        <path id="STIXGeneral-Regular-35" d="M 2803 4358 
L 2573 3814 
Q 2534 3731 2400 3731 
L 1158 3731 
L 902 3187 
Q 1606 3053 1920 2896 
Q 2234 2739 2502 2368 
Q 2726 2061 2726 1555 
Q 2726 1094 2576 780 
Q 2426 467 2099 224 
Q 1664 -90 1011 -90 
Q 646 -90 422 19 
Q 198 128 198 307 
Q 198 550 486 550 
Q 717 550 960 352 
Q 1210 147 1414 147 
Q 1747 147 2012 480 
Q 2278 813 2278 1229 
Q 2278 1843 1850 2189 
Q 1293 2637 486 2637 
Q 410 2637 410 2688 
L 416 2720 
L 1114 4237 
L 2438 4237 
Q 2547 4237 2608 4269 
Q 2669 4301 2746 4403 
L 2803 4358 
z
" transform="scale(0.015625)"/>
        <path id="STIXGeneral-Regular-30" d="M 3046 2112 
Q 3046 1683 2963 1302 
Q 2880 922 2717 602 
Q 2554 282 2266 96 
Q 1978 -90 1600 -90 
Q 1210 -90 915 108 
Q 621 307 461 640 
Q 301 973 227 1350 
Q 154 1728 154 2150 
Q 154 2746 301 3222 
Q 448 3699 790 4012 
Q 1133 4326 1626 4326 
Q 2253 4326 2649 3712 
Q 3046 3098 3046 2112 
z
M 2432 2080 
Q 2432 3091 2217 3625 
Q 2003 4160 1587 4160 
Q 1190 4160 979 3622 
Q 768 3085 768 2106 
Q 768 1120 979 598 
Q 1190 77 1600 77 
Q 2003 77 2217 598 
Q 2432 1120 2432 2080 
z
" transform="scale(0.015625)"/>
       </defs>
       <use xlink:href="#STIXGeneral-Regular-38"/>
       <use xlink:href="#STIXGeneral-Regular-35" transform="translate(49.999985 0)"/>
       <use xlink:href="#STIXGeneral-Regular-30" transform="translate(99.999969 0)"/>
       <use xlink:href="#STIXGeneral-Regular-30" transform="translate(149.999954 0)"/>
      </g>
     </g>
    </g>
    <g id="xtick_2">
     <g id="line2d_2">
      <g>
       <use xlink:href="#mfa579e78e8" x="183.2325" y="359.51425" style="stroke: #000000; stroke-width: 1.2"/>
      </g>
     </g>
     <g id="text_2">
      <!-- 9000 -->
      <g transform="translate(165.2325 378.807688) scale(0.18 -0.18)">
       <defs>
        <path id="STIXGeneral-Regular-39" d="M 378 -141 
L 358 -13 
Q 1094 115 1603 608 
Q 2112 1101 2304 1882 
Q 1933 1517 1344 1517 
Q 826 1517 509 1875 
Q 192 2234 192 2816 
Q 192 3462 573 3894 
Q 954 4326 1523 4326 
Q 2131 4326 2528 3840 
Q 2938 3328 2938 2522 
Q 2938 1958 2742 1462 
Q 2547 966 2170 621 
Q 1773 262 1395 105 
Q 1018 -51 378 -141 
z
M 2317 2272 
L 2317 2522 
Q 2317 4147 1472 4147 
Q 1171 4147 1005 3930 
Q 909 3802 845 3546 
Q 781 3290 781 3034 
Q 781 2464 995 2128 
Q 1210 1792 1568 1792 
Q 1824 1792 2070 1917 
Q 2317 2042 2317 2272 
z
" transform="scale(0.015625)"/>
       </defs>
       <use xlink:href="#STIXGeneral-Regular-39"/>
       <use xlink:href="#STIXGeneral-Regular-30" transform="translate(49.999985 0)"/>
       <use xlink:href="#STIXGeneral-Regular-30" transform="translate(99.999969 0)"/>
       <use xlink:href="#STIXGeneral-Regular-30" transform="translate(149.999954 0)"/>
      </g>
     </g>
    </g>
    <g id="xtick_3">
     <g id="line2d_3">
      <g>
       <use xlink:href="#mfa579e78e8" x="253.35125" y="359.51425" style="stroke: #000000; stroke-width: 1.2"/>
      </g>
     </g>
     <g id="text_3">
      <!-- 9500 -->
      <g transform="translate(235.35125 378.807688) scale(0.18 -0.18)">
       <use xlink:href="#STIXGeneral-Regular-39"/>
       <use xlink:href="#STIXGeneral-Regular-35" transform="translate(49.999985 0)"/>
       <use xlink:href="#STIXGeneral-Regular-30" transform="translate(99.999969 0)"/>
       <use xlink:href="#STIXGeneral-Regular-30" transform="translate(149.999954 0)"/>
      </g>
     </g>
    </g>
    <g id="xtick_4">
     <g id="line2d_4">
      <g>
       <use xlink:href="#mfa579e78e8" x="323.47" y="359.51425" style="stroke: #000000; stroke-width: 1.2"/>
      </g>
     </g>
     <g id="text_4">
      <!-- 10000 -->
      <g transform="translate(300.97 378.807688) scale(0.18 -0.18)">
       <defs>
        <path id="STIXGeneral-Regular-31" d="M 2522 0 
L 755 0 
L 755 96 
Q 1107 115 1235 227 
Q 1363 339 1363 608 
L 1363 3482 
Q 1363 3795 1171 3795 
Q 1082 3795 883 3718 
L 710 3654 
L 710 3744 
L 1856 4326 
L 1914 4307 
L 1914 486 
Q 1914 275 2042 185 
Q 2170 96 2522 96 
L 2522 0 
z
" transform="scale(0.015625)"/>
       </defs>
       <use xlink:href="#STIXGeneral-Regular-31"/>
       <use xlink:href="#STIXGeneral-Regular-30" transform="translate(49.999985 0)"/>
       <use xlink:href="#STIXGeneral-Regular-30" transform="translate(99.999969 0)"/>
       <use xlink:href="#STIXGeneral-Regular-30" transform="translate(149.999954 0)"/>
       <use xlink:href="#STIXGeneral-Regular-30" transform="translate(199.999939 0)"/>
      </g>
     </g>
    </g>
    <g id="xtick_5">
     <g id="line2d_5">
      <g>
       <use xlink:href="#mfa579e78e8" x="393.58875" y="359.51425" style="stroke: #000000; stroke-width: 1.2"/>
      </g>
     </g>
     <g id="text_5">
      <!-- 10500 -->
      <g transform="translate(371.08875 378.807688) scale(0.18 -0.18)">
       <use xlink:href="#STIXGeneral-Regular-31"/>
       <use xlink:href="#STIXGeneral-Regular-30" transform="translate(49.999985 0)"/>
       <use xlink:href="#STIXGeneral-Regular-35" transform="translate(99.999969 0)"/>
       <use xlink:href="#STIXGeneral-Regular-30" transform="translate(149.999954 0)"/>
       <use xlink:href="#STIXGeneral-Regular-30" transform="translate(199.999939 0)"/>
      </g>
     </g>
    </g>
    <g id="xtick_6">
     <g id="line2d_6">
      <g>
       <use xlink:href="#mfa579e78e8" x="463.7075" y="359.51425" style="stroke: #000000; stroke-width: 1.2"/>
      </g>
     </g>
     <g id="text_6">
      <!-- 11000 -->
      <g transform="translate(441.2075 378.807688) scale(0.18 -0.18)">
       <use xlink:href="#STIXGeneral-Regular-31"/>
       <use xlink:href="#STIXGeneral-Regular-31" transform="translate(49.999985 0)"/>
       <use xlink:href="#STIXGeneral-Regular-30" transform="translate(99.999969 0)"/>
       <use xlink:href="#STIXGeneral-Regular-30" transform="translate(149.999954 0)"/>
       <use xlink:href="#STIXGeneral-Regular-30" transform="translate(199.999939 0)"/>
      </g>
     </g>
    </g>
    <g id="xtick_7">
     <g id="line2d_7">
      <g>
       <use xlink:href="#mfa579e78e8" x="533.82625" y="359.51425" style="stroke: #000000; stroke-width: 1.2"/>
      </g>
     </g>
     <g id="text_7">
      <!-- 11500 -->
      <g transform="translate(511.32625 378.807688) scale(0.18 -0.18)">
       <use xlink:href="#STIXGeneral-Regular-31"/>
       <use xlink:href="#STIXGeneral-Regular-31" transform="translate(49.999985 0)"/>
       <use xlink:href="#STIXGeneral-Regular-35" transform="translate(99.999969 0)"/>
       <use xlink:href="#STIXGeneral-Regular-30" transform="translate(149.999954 0)"/>
       <use xlink:href="#STIXGeneral-Regular-30" transform="translate(199.999939 0)"/>
      </g>
     </g>
    </g>
    <g id="xtick_8">
     <g id="line2d_8">
      <g>
       <use xlink:href="#mfa579e78e8" x="603.945" y="359.51425" style="stroke: #000000; stroke-width: 1.2"/>
      </g>
     </g>
     <g id="text_8">
      <!-- 12000 -->
      <g transform="translate(581.445 378.807688) scale(0.18 -0.18)">
       <defs>
        <path id="STIXGeneral-Regular-32" d="M 3034 877 
L 2688 0 
L 186 0 
L 186 77 
L 1325 1286 
Q 1773 1754 1965 2144 
Q 2157 2534 2157 2950 
Q 2157 3379 1920 3616 
Q 1683 3853 1267 3853 
Q 922 3853 720 3673 
Q 518 3494 326 3021 
L 192 3053 
Q 301 3648 630 3987 
Q 960 4326 1523 4326 
Q 2054 4326 2380 4006 
Q 2707 3686 2707 3200 
Q 2707 2477 1888 1613 
L 832 486 
L 2330 486 
Q 2541 486 2665 569 
Q 2790 653 2944 915 
L 3034 877 
z
" transform="scale(0.015625)"/>
       </defs>
       <use xlink:href="#STIXGeneral-Regular-31"/>
       <use xlink:href="#STIXGeneral-Regular-32" transform="translate(49.999985 0)"/>
       <use xlink:href="#STIXGeneral-Regular-30" transform="translate(99.999969 0)"/>
       <use xlink:href="#STIXGeneral-Regular-30" transform="translate(149.999954 0)"/>
       <use xlink:href="#STIXGeneral-Regular-30" transform="translate(199.999939 0)"/>
      </g>
     </g>
    </g>
    <g id="text_9">
     <!-- E/hc [cm$^{-1}$] -->
     <g transform="translate(302.8175 402.173625) scale(0.2 -0.2)">
      <defs>
       <path id="STIXGeneral-Regular-45" d="M 3821 1082 
L 3526 0 
L 77 0 
L 77 122 
Q 442 147 538 252 
Q 634 358 634 730 
L 634 3520 
Q 634 3878 534 3987 
Q 435 4096 77 4115 
L 77 4237 
L 3469 4237 
L 3494 3322 
L 3334 3322 
Q 3264 3750 3085 3872 
Q 2906 3994 2349 3994 
L 1510 3994 
Q 1370 3994 1328 3952 
Q 1286 3910 1286 3763 
L 1286 2355 
L 2253 2355 
Q 2656 2355 2787 2470 
Q 2918 2586 2976 2970 
L 3123 2970 
L 3123 1472 
L 2976 1472 
Q 2918 1875 2790 1984 
Q 2662 2093 2253 2093 
L 1286 2093 
L 1286 538 
Q 1286 346 1420 291 
Q 1555 237 1933 237 
L 2163 237 
Q 2848 237 3136 403 
Q 3424 570 3642 1082 
L 3821 1082 
z
" transform="scale(0.015625)"/>
       <path id="STIXGeneral-Regular-2f" d="M 1837 4326 
L 378 -90 
L -58 -90 
L 1408 4326 
L 1837 4326 
z
" transform="scale(0.015625)"/>
       <path id="STIXGeneral-Regular-68" d="M 3117 0 
L 1760 0 
L 1760 96 
Q 2042 128 2118 224 
Q 2195 320 2195 653 
L 2195 1920 
Q 2195 2598 1722 2598 
Q 1530 2598 1370 2508 
Q 1210 2419 1005 2195 
L 1005 653 
Q 1005 320 1081 224 
Q 1158 128 1440 96 
L 1440 0 
L 58 0 
L 58 96 
Q 333 134 400 224 
Q 467 314 467 653 
L 467 3667 
Q 467 3872 406 3933 
Q 346 3994 141 3994 
Q 83 3994 64 3987 
L 64 4090 
L 237 4141 
Q 730 4288 973 4371 
L 1005 4352 
L 1005 2406 
Q 1229 2694 1446 2819 
Q 1664 2944 1946 2944 
Q 2733 2944 2733 1926 
L 2733 653 
Q 2733 320 2793 233 
Q 2854 147 3117 96 
L 3117 0 
z
" transform="scale(0.015625)"/>
       <path id="STIXGeneral-Regular-63" d="M 2547 998 
L 2637 941 
Q 2362 403 2112 205 
Q 1786 -64 1376 -64 
Q 845 -64 502 336 
Q 160 736 160 1357 
Q 160 2170 698 2618 
Q 1094 2944 1562 2944 
Q 1965 2944 2256 2749 
Q 2547 2554 2547 2285 
Q 2547 2176 2457 2096 
Q 2368 2016 2246 2016 
Q 2022 2016 1939 2310 
L 1901 2451 
Q 1850 2630 1773 2694 
Q 1696 2758 1523 2758 
Q 1133 2758 893 2451 
Q 653 2144 653 1645 
Q 653 1094 928 745 
Q 1203 397 1645 397 
Q 1920 397 2118 528 
Q 2317 659 2547 998 
z
" transform="scale(0.015625)"/>
       <path id="STIXGeneral-Regular-20" transform="scale(0.015625)"/>
       <path id="STIXGeneral-Regular-5b" d="M 1914 -998 
L 563 -998 
L 563 4237 
L 1914 4237 
L 1914 4077 
L 1382 4077 
Q 1216 4077 1133 4006 
Q 1050 3936 1050 3770 
L 1050 -493 
Q 1050 -838 1382 -838 
L 1914 -838 
L 1914 -998 
z
" transform="scale(0.015625)"/>
       <path id="STIXGeneral-Regular-6d" d="M 4960 0 
L 3565 0 
L 3565 96 
Q 3834 122 3907 208 
Q 3981 294 3981 576 
L 3981 1894 
Q 3981 2278 3869 2444 
Q 3757 2611 3488 2611 
Q 3264 2611 3107 2521 
Q 2950 2432 2803 2221 
L 2803 608 
Q 2803 301 2896 201 
Q 2989 102 3264 96 
L 3264 0 
L 1830 0 
L 1830 96 
Q 2112 115 2189 188 
Q 2266 262 2266 550 
L 2266 1901 
Q 2266 2611 1850 2611 
Q 1670 2611 1468 2531 
Q 1267 2451 1171 2336 
Q 1088 2240 1088 2227 
L 1088 448 
Q 1088 243 1177 176 
Q 1267 109 1523 96 
L 1523 0 
L 102 0 
L 102 96 
Q 371 102 460 195 
Q 550 288 550 563 
L 550 2150 
Q 550 2387 499 2480 
Q 448 2573 326 2573 
Q 230 2573 122 2547 
L 122 2656 
Q 557 2778 1011 2944 
L 1062 2925 
L 1062 2451 
L 1075 2451 
Q 1363 2752 1584 2848 
Q 1805 2944 2054 2944 
Q 2560 2944 2733 2406 
Q 3232 2944 3776 2944 
Q 4518 2944 4518 1792 
L 4518 493 
Q 4518 282 4582 202 
Q 4646 122 4794 109 
L 4960 96 
L 4960 0 
z
" transform="scale(0.015625)"/>
       <path id="STIXGeneral-Regular-2212" d="M 3974 1408 
L 410 1408 
L 410 1830 
L 3974 1830 
L 3974 1408 
z
" transform="scale(0.015625)"/>
       <path id="STIXGeneral-Regular-5d" d="M 1568 -998 
L 218 -998 
L 218 -838 
L 781 -838 
Q 947 -838 1014 -768 
Q 1082 -698 1082 -544 
L 1082 3731 
Q 1082 4077 755 4077 
L 218 4077 
L 218 4237 
L 1568 4237 
L 1568 -998 
z
" transform="scale(0.015625)"/>
      </defs>
      <use xlink:href="#STIXGeneral-Regular-45" transform="translate(0 0.409375)"/>
      <use xlink:href="#STIXGeneral-Regular-2f" transform="translate(61.099991 0.409375)"/>
      <use xlink:href="#STIXGeneral-Regular-68" transform="translate(88.899979 0.409375)"/>
      <use xlink:href="#STIXGeneral-Regular-63" transform="translate(138.899963 0.409375)"/>
      <use xlink:href="#STIXGeneral-Regular-20" transform="translate(183.299957 0.409375)"/>
      <use xlink:href="#STIXGeneral-Regular-5b" transform="translate(208.299942 0.409375)"/>
      <use xlink:href="#STIXGeneral-Regular-63" transform="translate(241.59993 0.409375)"/>
      <use xlink:href="#STIXGeneral-Regular-6d" transform="translate(285.999924 0.409375)"/>
      <use xlink:href="#STIXGeneral-Regular-2212" transform="translate(365.343193 35.684375) scale(0.7)"/>
      <use xlink:href="#STIXGeneral-Regular-31" transform="translate(413.293182 35.684375) scale(0.7)"/>
      <use xlink:href="#STIXGeneral-Regular-5d" transform="translate(452.702546 0.409375)"/>
     </g>
    </g>
   </g>
   <g id="matplotlib.axis_2">
    <g id="ytick_1">
     <g id="line2d_9">
      <defs>
       <path id="m5678e209c9" d="M 0 0 
L -3.5 0 
" style="stroke: #000000; stroke-width: 1.2"/>
      </defs>
      <g>
       <use xlink:href="#m5678e209c9" x="99.09" y="349.51425" style="stroke: #000000; stroke-width: 1.2"/>
      </g>
     </g>
     <g id="text_10">
      <!-- 0.0 -->
      <g transform="translate(69.59 355.660969) scale(0.18 -0.18)">
       <defs>
        <path id="STIXGeneral-Regular-2e" d="M 1158 275 
Q 1158 134 1052 32 
Q 947 -70 800 -70 
Q 653 -70 550 32 
Q 448 134 448 281 
Q 448 429 553 534 
Q 659 640 806 640 
Q 947 640 1052 531 
Q 1158 422 1158 275 
z
" transform="scale(0.015625)"/>
       </defs>
       <use xlink:href="#STIXGeneral-Regular-30"/>
       <use xlink:href="#STIXGeneral-Regular-2e" transform="translate(49.999985 0)"/>
       <use xlink:href="#STIXGeneral-Regular-30" transform="translate(74.999969 0)"/>
      </g>
     </g>
    </g>
    <g id="ytick_2">
     <g id="line2d_10">
      <g>
       <use xlink:href="#m5678e209c9" x="99.09" y="193.364607" style="stroke: #000000; stroke-width: 1.2"/>
      </g>
     </g>
     <g id="text_11">
      <!-- 0.1 -->
      <g transform="translate(69.59 199.511326) scale(0.18 -0.18)">
       <use xlink:href="#STIXGeneral-Regular-30"/>
       <use xlink:href="#STIXGeneral-Regular-2e" transform="translate(49.999985 0)"/>
       <use xlink:href="#STIXGeneral-Regular-31" transform="translate(74.999969 0)"/>
      </g>
     </g>
    </g>
    <g id="ytick_3">
     <g id="line2d_11">
      <g>
       <use xlink:href="#m5678e209c9" x="99.09" y="37.214964" style="stroke: #000000; stroke-width: 1.2"/>
      </g>
     </g>
     <g id="text_12">
      <!-- 0.2 -->
      <g transform="translate(69.59 43.361683) scale(0.18 -0.18)">
       <use xlink:href="#STIXGeneral-Regular-30"/>
       <use xlink:href="#STIXGeneral-Regular-2e" transform="translate(49.999985 0)"/>
       <use xlink:href="#STIXGeneral-Regular-32" transform="translate(74.999969 0)"/>
      </g>
     </g>
    </g>
    <g id="ytick_4">
     <g id="line2d_12">
      <defs>
       <path id="ma32b7a022d" d="M 0 0 
L -3 0 
" style="stroke: #000000; stroke-width: 1.2"/>
      </defs>
      <g>
       <use xlink:href="#ma32b7a022d" x="99.09" y="271.439429" style="stroke: #000000; stroke-width: 1.2"/>
      </g>
     </g>
    </g>
    <g id="ytick_5">
     <g id="line2d_13">
      <g>
       <use xlink:href="#ma32b7a022d" x="99.09" y="115.289786" style="stroke: #000000; stroke-width: 1.2"/>
      </g>
     </g>
    </g>
    <g id="text_13">
     <!-- $\Gamma / 2\pi$ -->
     <g transform="translate(29.9045 62.11035) scale(0.2 -0.2)">
      <defs>
       <path id="STIXGeneral-Regular-393" d="M 3693 3162 
L 3533 3162 
Q 3482 3642 3299 3818 
Q 3117 3994 2637 3994 
L 1517 3994 
Q 1382 3994 1334 3942 
Q 1286 3891 1286 3738 
L 1286 723 
Q 1286 352 1388 246 
Q 1491 141 1869 122 
L 1869 0 
L 70 0 
L 70 122 
Q 435 147 534 262 
Q 634 378 634 794 
L 634 3526 
Q 634 3878 538 3984 
Q 442 4090 77 4115 
L 77 4237 
L 3661 4237 
L 3693 3162 
z
" transform="scale(0.015625)"/>
       <path id="STIXGeneral-Italic-3c0" d="M 3430 2739 
L 3296 2266 
L 2643 2266 
Q 2624 2195 2502 1782 
Q 2381 1370 2297 1072 
Q 2214 774 2214 717 
Q 2214 448 2413 448 
Q 2694 448 2867 838 
L 2970 838 
Q 2886 486 2652 208 
Q 2419 -70 2093 -70 
Q 1901 -70 1808 67 
Q 1715 205 1715 410 
Q 1715 627 1824 922 
L 2310 2266 
L 1645 2266 
Q 1568 2061 1401 1469 
Q 1235 877 1068 512 
Q 902 147 672 -38 
Q 563 -115 442 -115 
Q 314 -115 218 -32 
Q 122 51 122 166 
Q 122 429 314 480 
Q 634 563 774 928 
L 1299 2266 
L 1261 2266 
Q 973 2266 819 2208 
Q 666 2150 474 1914 
L 371 1914 
Q 640 2362 931 2550 
Q 1222 2739 1696 2739 
L 3430 2739 
z
" transform="scale(0.015625)"/>
      </defs>
      <use xlink:href="#STIXGeneral-Regular-393" transform="translate(0 0.40625)"/>
      <use xlink:href="#STIXGeneral-Regular-2f" transform="translate(58.699997 0.40625)"/>
      <use xlink:href="#STIXGeneral-Regular-32" transform="translate(86.499985 0.40625)"/>
      <use xlink:href="#STIXGeneral-Italic-3c0" transform="translate(136.499969 0.40625)"/>
     </g>
     <!-- [MHz] -->
     <g transform="translate(21.393563 82.842225) scale(0.2 -0.2)">
      <defs>
       <path id="STIXGeneral-Regular-4d" d="M 5530 0 
L 3738 0 
L 3738 122 
Q 4115 147 4214 265 
Q 4314 384 4314 787 
L 4314 3661 
L 2682 0 
L 2592 0 
L 979 3514 
L 979 966 
Q 979 448 1088 294 
Q 1197 141 1574 122 
L 1574 0 
L 77 0 
L 77 122 
Q 358 141 480 205 
Q 602 269 650 432 
Q 698 595 698 966 
L 698 3514 
Q 698 3878 589 3984 
Q 480 4090 90 4115 
L 90 4237 
L 1357 4237 
L 2835 1024 
L 4250 4237 
L 5523 4237 
L 5523 4115 
Q 5178 4109 5072 3993 
Q 4966 3878 4966 3520 
L 4966 717 
Q 4966 378 5072 262 
Q 5178 147 5530 122 
L 5530 0 
z
" transform="scale(0.015625)"/>
       <path id="STIXGeneral-Regular-48" d="M 4499 0 
L 2714 0 
L 2714 122 
Q 3085 147 3181 265 
Q 3277 384 3277 794 
L 3277 2016 
L 1338 2016 
L 1338 723 
Q 1338 371 1440 256 
Q 1542 141 1894 122 
L 1901 0 
L 115 0 
L 115 122 
Q 493 147 589 259 
Q 685 371 685 781 
L 685 3507 
Q 685 3878 585 3980 
Q 486 4083 115 4115 
L 115 4237 
L 1907 4237 
L 1907 4115 
Q 1549 4083 1443 3977 
Q 1338 3872 1338 3507 
L 1338 2298 
L 3277 2298 
L 3277 3507 
Q 3277 3878 3177 3980 
Q 3078 4083 2707 4115 
L 2707 4237 
L 4499 4237 
L 4499 4115 
Q 4141 4083 4035 3977 
Q 3930 3872 3930 3507 
L 3930 710 
Q 3930 371 4035 259 
Q 4141 147 4499 122 
L 4499 0 
z
" transform="scale(0.015625)"/>
       <path id="STIXGeneral-Regular-7a" d="M 2675 870 
L 2579 0 
L 173 0 
L 173 96 
L 1875 2688 
L 1011 2688 
Q 710 2688 604 2582 
Q 499 2477 454 2125 
L 339 2125 
L 365 2880 
L 2579 2880 
L 2579 2784 
L 858 192 
L 1709 192 
Q 2246 192 2387 365 
Q 2477 474 2560 896 
L 2675 870 
z
" transform="scale(0.015625)"/>
      </defs>
      <use xlink:href="#STIXGeneral-Regular-5b"/>
      <use xlink:href="#STIXGeneral-Regular-4d" transform="translate(33.299988 0)"/>
      <use xlink:href="#STIXGeneral-Regular-48" transform="translate(122.199982 0)"/>
      <use xlink:href="#STIXGeneral-Regular-7a" transform="translate(194.399963 0)"/>
      <use xlink:href="#STIXGeneral-Regular-5d" transform="translate(238.799957 0)"/>
     </g>
    </g>
   </g>
   <g id="line2d_14">
    <path d="M 144.661775 343.431072 
L 151.651872 345.41977 
L 158.623456 348.285155 
L 165.576509 349.291905 
L 172.51095 349.486239 
L 179.426636 349.51152 
L 186.323357 349.514025 
L 193.200824 349.514232 
L 200.058669 349.514248 
L 206.896422 349.51425 
L 213.713498 349.51425 
L 220.509166 349.51425 
L 227.282516 349.51425 
L 234.032409 349.51425 
L 240.757404 349.51425 
L 247.455659 349.51425 
L 254.124787 349.51425 
L 260.761645 349.51425 
L 267.362015 349.51425 
L 273.920119 349.51425 
L 280.427868 349.51425 
L 286.873693 349.51425 
L 293.240748 349.51425 
L 299.504388 349.51425 
L 305.629563 349.51425 
L 311.571605 349.51425 
L 317.289327 349.51425 
L 322.774412 349.51425 
L 328.053493 349.514208 
L 328.463543 349.511858 
L 333.192202 349.514161 
L 335.207902 349.473407 
L 338.221574 349.514025 
L 342.128926 349.183686 
L 343.180843 349.513741 
L 348.043316 349.462014 
L 349.20603 347.858111 
L 352.900143 349.452736 
L 356.311988 343.240206 
L 357.71594 349.374774 
L 362.504382 349.270583 
L 363.454565 331.494816 
L 367.275241 348.707345 
L 370.578485 310.321302 
L 372.055084 345.126018 
L 376.665356 348.586635 
L 377.839954 266.53309 
L 381.450514 347.921641 
L 384.808316 228.752222 
L 386.288266 325.469089 
L 390.609354 336.290642 
L 392.276737 150.509144 
L 395.421719 349.477992 
L 399.066993 117.767759 
L 400.321588 301.423198 
L 404.520621 313.870026 
L 406.574989 48.714176 
L 409.264176 343.678707 
L 413.367617 38.027007 
L 414.087471 305.146375 
L 418.462084 307.438369 
L 420.613676 33.1538 
L 423.109574 323.365672 
L 427.539085 81.819844 
L 427.738178 287.605849 
L 432.346026 329.670305 
L 434.437361 89.91131 
L 436.97895 315.918614 
L 441.016008 263.04229 
L 441.871143 197.3879 
L 446.029771 348.035745 
L 448.23206 176.059622 
L 450.742381 331.093489 
L 454.45817 295.705188 
L 455.867848 263.064168 
L 459.505281 348.400486 
L 462.075013 257.484528 
L 464.279719 345.325837 
L 468.014745 319.687069 
L 469.578717 312.208205 
L 472.924077 346.067499 
L 475.852842 309.820607 
L 477.62389 349.481588 
L 481.691032 336.905545 
L 482.944371 335.825841 
L 486.412936 346.860819 
L 489.369007 335.850363 
L 490.972903 348.801008 
L 495.399701 346.138761 
L 496.030731 344.069073 
L 499.950587 348.534822 
L 502.540325 345.508999 
L 504.455459 348.788655 
L 508.810344 349.370318 
L 509.197303 347.009808 
L 513.404058 349.344213 
L 515.545224 348.311068 
L 517.932474 349.274418 
L 521.66421 349.28058 
L 522.722307 349.014937 
" clip-path="url(#pb5f2278b7e)" style="fill: none; stroke: #000000; stroke-opacity: 0.6; stroke-width: 2; stroke-linecap: square"/>
   </g>
   <g id="patch_3">
    <path d="M 99.09 349.51425 
L 99.09 37.214964 
" style="fill: none; stroke: #000000; stroke-width: 1.2; stroke-linejoin: miter; stroke-linecap: square"/>
   </g>
   <g id="patch_4">
    <path d="M 113.11375 359.51425 
L 603.945 359.51425 
" style="fill: none; stroke: #000000; stroke-width: 1.2; stroke-linejoin: miter; stroke-linecap: square"/>
   </g>
   <g id="PathCollection_2">
    <defs>
     <path id="mf0fd161e21" d="M 0 4.242641 
L 4.242641 0 
L 0 -4.242641 
L -4.242641 0 
z
" style="stroke: #ff0000"/>
    </defs>
    <g clip-path="url(#pb5f2278b7e)">
     <use xlink:href="#mf0fd161e21" x="420.613676" y="33.1538" style="fill: #ff0000; stroke: #ff0000"/>
    </g>
   </g>
   <g id="patch_5">
    <path d="M 365.624828 35.605396 
Q 393.119252 34.379598 419.273366 33.213556 
" style="fill: none; stroke: #000000; stroke-width: 1.2; stroke-linecap: round"/>
    <path d="M 415.188257 31.393698 
L 419.273366 33.213556 
L 415.366414 35.389728 
z
" style="stroke: #000000; stroke-width: 1.2; stroke-linecap: round"/>
   </g>
   <g id="text_14">
    <!-- $202~\text{kHz}$ -->
    <g transform="translate(295.4225 41.874339) scale(0.2 -0.2)">
     <defs>
      <path id="STIXGeneral-Regular-6b" d="M 3232 0 
L 1837 0 
L 1837 96 
L 1958 96 
Q 2093 96 2093 192 
Q 2093 250 2022 339 
L 1062 1606 
L 1062 429 
Q 1062 262 1142 185 
Q 1222 109 1414 102 
L 1542 96 
L 1542 0 
L 45 0 
L 45 96 
Q 390 154 457 214 
Q 525 275 525 525 
L 525 3610 
Q 525 3840 467 3920 
Q 410 4000 250 4000 
Q 211 4000 45 3987 
L 45 4090 
L 237 4141 
Q 621 4243 1037 4371 
L 1062 4358 
L 1062 1670 
L 1939 2451 
Q 2086 2586 2086 2675 
Q 2086 2739 2019 2761 
Q 1952 2784 1766 2790 
L 1766 2880 
L 3072 2880 
L 3072 2784 
Q 2752 2784 2505 2646 
Q 2259 2509 1690 1978 
L 1504 1805 
L 2483 563 
Q 2829 122 3232 96 
L 3232 0 
z
" transform="scale(0.015625)"/>
     </defs>
     <use xlink:href="#STIXGeneral-Regular-32" transform="translate(0 0.703125)"/>
     <use xlink:href="#STIXGeneral-Regular-30" transform="translate(49.999985 0.703125)"/>
     <use xlink:href="#STIXGeneral-Regular-32" transform="translate(99.999969 0.703125)"/>
     <use xlink:href="#STIXGeneral-Regular-6b" transform="translate(174.066374 0.703125)"/>
     <use xlink:href="#STIXGeneral-Regular-48" transform="translate(224.066359 0.703125)"/>
     <use xlink:href="#STIXGeneral-Regular-7a" transform="translate(296.266341 0.703125)"/>
    </g>
   </g>
  </g>
 </g>
 <defs>
  <clipPath id="pb5f2278b7e">
   <rect x="99.09" y="21.6" width="504.855" height="327.91425"/>
  </clipPath>
 </defs>
</svg>
