<?xml version="1.0" encoding="utf-8" standalone="no"?>
<!DOCTYPE svg PUBLIC "-//W3C//DTD SVG 1.1//EN"
  "http://www.w3.org/Graphics/SVG/1.1/DTD/svg11.dtd">
<svg xmlns:xlink="http://www.w3.org/1999/xlink" width="648pt" height="432pt" viewBox="0 0 648 432" xmlns="http://www.w3.org/2000/svg" version="1.1">
 <metadata>
  <rdf:RDF xmlns:dc="http://purl.org/dc/elements/1.1/" xmlns:cc="http://creativecommons.org/ns#" xmlns:rdf="http://www.w3.org/1999/02/22-rdf-syntax-ns#">
   <cc:Work>
    <dc:type rdf:resource="http://purl.org/dc/dcmitype/StillImage"/>
    <dc:date>2025-05-14T15:36:18.284823</dc:date>
    <dc:format>image/svg+xml</dc:format>
    <dc:creator>
     <cc:Agent>
      <dc:title>Matplotlib v3.10.0, https://matplotlib.org/</dc:title>
     </cc:Agent>
    </dc:creator>
   </cc:Work>
  </rdf:RDF>
 </metadata>
 <defs>
  <style type="text/css">*{stroke-linejoin: round; stroke-linecap: butt}</style>
 </defs>
 <g id="figure_1">
  <g id="patch_1">
   <path d="M 0 432 
L 648 432 
L 648 0 
L 0 0 
z
" style="fill: #ffffff"/>
  </g>
  <g id="axes_1">
   <g id="patch_2">
    <path d="M 139.156122 366.26425 
L 609.795 366.26425 
L 609.795 23.3775 
L 139.156122 23.3775 
z
" style="fill: #ffffff"/>
   </g>
   <g id="PathCollection_1">
    <defs>
     <path id="m5bb01d947f" d="M 0 2.236068 
C 0.593012 2.236068 1.161816 2.000462 1.581139 1.581139 
C 2.000462 1.161816 2.236068 0.593012 2.236068 0 
C 2.236068 -0.593012 2.000462 -1.161816 1.581139 -1.581139 
C 1.161816 -2.000462 0.593012 -2.236068 0 -2.236068 
C -0.593012 -2.236068 -1.161816 -2.000462 -1.581139 -1.581139 
C -2.000462 -1.161816 -2.236068 -0.593012 -2.236068 0 
C -2.236068 0.593012 -2.000462 1.161816 -1.581139 1.581139 
C -1.161816 2.000462 -0.593012 2.236068 0 2.236068 
z
" style="stroke: #000000"/>
    </defs>
    <g>
     <use xlink:href="#m5bb01d947f" x="184.880781" y="365.096484" style="stroke: #000000"/>
     <use xlink:href="#m5bb01d947f" x="191.397142" y="365.016037" style="stroke: #000000"/>
     <use xlink:href="#m5bb01d947f" x="197.896221" y="364.926574" style="stroke: #000000"/>
     <use xlink:href="#m5bb01d947f" x="204.378042" y="364.826708" style="stroke: #000000"/>
     <use xlink:href="#m5bb01d947f" x="210.842503" y="364.714687" style="stroke: #000000"/>
     <use xlink:href="#m5bb01d947f" x="217.289484" y="364.588444" style="stroke: #000000"/>
     <use xlink:href="#m5bb01d947f" x="223.71879" y="364.445469" style="stroke: #000000"/>
     <use xlink:href="#m5bb01d947f" x="230.130147" y="364.28266" style="stroke: #000000"/>
     <use xlink:href="#m5bb01d947f" x="236.523201" y="364.096154" style="stroke: #000000"/>
     <use xlink:href="#m5bb01d947f" x="242.897534" y="363.8811" style="stroke: #000000"/>
     <use xlink:href="#m5bb01d947f" x="249.252584" y="363.631336" style="stroke: #000000"/>
     <use xlink:href="#m5bb01d947f" x="255.587684" y="363.338946" style="stroke: #000000"/>
     <use xlink:href="#m5bb01d947f" x="261.901971" y="362.993625" style="stroke: #000000"/>
     <use xlink:href="#m5bb01d947f" x="268.1944" y="362.58177" style="stroke: #000000"/>
     <use xlink:href="#m5bb01d947f" x="274.46361" y="362.085139" style="stroke: #000000"/>
     <use xlink:href="#m5bb01d947f" x="280.707903" y="361.478838" style="stroke: #000000"/>
     <use xlink:href="#m5bb01d947f" x="286.925029" y="360.728258" style="stroke: #000000"/>
     <use xlink:href="#m5bb01d947f" x="293.112087" y="359.784278" style="stroke: #000000"/>
     <use xlink:href="#m5bb01d947f" x="299.265115" y="358.575658" style="stroke: #000000"/>
     <use xlink:href="#m5bb01d947f" x="305.378754" y="356.996742" style="stroke: #000000"/>
     <use xlink:href="#m5bb01d947f" x="311.445446" y="354.887476" style="stroke: #000000"/>
     <use xlink:href="#m5bb01d947f" x="317.454406" y="352.001538" style="stroke: #000000"/>
     <use xlink:href="#m5bb01d947f" x="323.389947" y="347.959523" style="stroke: #000000"/>
     <use xlink:href="#m5bb01d947f" x="329.229072" y="342.198817" style="stroke: #000000"/>
     <use xlink:href="#m5bb01d947f" x="334.939124" y="333.997471" style="stroke: #000000"/>
     <use xlink:href="#m5bb01d947f" x="340.478439" y="322.829735" style="stroke: #000000"/>
     <use xlink:href="#m5bb01d947f" x="345.808646" y="309.384221" style="stroke: #000000"/>
     <use xlink:href="#m5bb01d947f" x="350.921994" y="296.189502" style="stroke: #000000"/>
     <use xlink:href="#m5bb01d947f" x="355.843282" y="279.357177" style="stroke: #000000"/>
     <use xlink:href="#m5bb01d947f" x="356.225545" y="61.728228" style="stroke: #000000"/>
     <use xlink:href="#m5bb01d947f" x="360.633719" y="275.207839" style="stroke: #000000"/>
     <use xlink:href="#m5bb01d947f" x="362.51281" y="63.533364" style="stroke: #000000"/>
     <use xlink:href="#m5bb01d947f" x="365.322236" y="269.564852" style="stroke: #000000"/>
     <use xlink:href="#m5bb01d947f" x="368.964772" y="67.604189" style="stroke: #000000"/>
     <use xlink:href="#m5bb01d947f" x="369.945387" y="266.434174" style="stroke: #000000"/>
     <use xlink:href="#m5bb01d947f" x="374.47832" y="250.073881" style="stroke: #000000"/>
     <use xlink:href="#m5bb01d947f" x="375.562227" y="85.673275" style="stroke: #000000"/>
     <use xlink:href="#m5bb01d947f" x="379.00597" y="252.304741" style="stroke: #000000"/>
     <use xlink:href="#m5bb01d947f" x="382.186587" y="86.048216" style="stroke: #000000"/>
     <use xlink:href="#m5bb01d947f" x="383.495381" y="249.555157" style="stroke: #000000"/>
     <use xlink:href="#m5bb01d947f" x="387.9593" y="248.18298" style="stroke: #000000"/>
     <use xlink:href="#m5bb01d947f" x="388.845081" y="90.454683" style="stroke: #000000"/>
     <use xlink:href="#m5bb01d947f" x="392.406811" y="242.88312" style="stroke: #000000"/>
     <use xlink:href="#m5bb01d947f" x="395.486188" y="109.03875" style="stroke: #000000"/>
     <use xlink:href="#m5bb01d947f" x="396.862702" y="227.000333" style="stroke: #000000"/>
     <use xlink:href="#m5bb01d947f" x="401.160524" y="253.949686" style="stroke: #000000"/>
     <use xlink:href="#m5bb01d947f" x="402.255505" y="85.777619" style="stroke: #000000"/>
     <use xlink:href="#m5bb01d947f" x="405.62137" y="245.699385" style="stroke: #000000"/>
     <use xlink:href="#m5bb01d947f" x="408.751602" y="115.954067" style="stroke: #000000"/>
     <use xlink:href="#m5bb01d947f" x="410.131241" y="218.848692" style="stroke: #000000"/>
     <use xlink:href="#m5bb01d947f" x="414.159478" y="240.400373" style="stroke: #000000"/>
     <use xlink:href="#m5bb01d947f" x="415.713855" y="96.510093" style="stroke: #000000"/>
     <use xlink:href="#m5bb01d947f" x="418.645687" y="249.77032" style="stroke: #000000"/>
     <use xlink:href="#m5bb01d947f" x="422.043908" y="107.044545" style="stroke: #000000"/>
     <use xlink:href="#m5bb01d947f" x="423.213472" y="231.759369" style="stroke: #000000"/>
     <use xlink:href="#m5bb01d947f" x="427.12792" y="219.196743" style="stroke: #000000"/>
     <use xlink:href="#m5bb01d947f" x="429.043054" y="118.220309" style="stroke: #000000"/>
     <use xlink:href="#m5bb01d947f" x="431.549977" y="239.316492" style="stroke: #000000"/>
     <use xlink:href="#m5bb01d947f" x="435.375317" y="96.301821" style="stroke: #000000"/>
     <use xlink:href="#m5bb01d947f" x="436.046383" y="251.205868" style="stroke: #000000"/>
     <use xlink:href="#m5bb01d947f" x="440.124508" y="207.321462" style="stroke: #000000"/>
     <use xlink:href="#m5bb01d947f" x="442.130279" y="141.506209" style="stroke: #000000"/>
     <use xlink:href="#m5bb01d947f" x="444.457026" y="216.293464" style="stroke: #000000"/>
     <use xlink:href="#m5bb01d947f" x="448.58632" y="163.61757" style="stroke: #000000"/>
     <use xlink:href="#m5bb01d947f" x="448.771922" y="188.870064" style="stroke: #000000"/>
     <use xlink:href="#m5bb01d947f" x="453.067469" y="218.474302" style="stroke: #000000"/>
     <use xlink:href="#m5bb01d947f" x="455.017077" y="141.84629" style="stroke: #000000"/>
     <use xlink:href="#m5bb01d947f" x="457.386404" y="204.867592" style="stroke: #000000"/>
     <use xlink:href="#m5bb01d947f" x="461.149829" y="228.323789" style="stroke: #000000"/>
     <use xlink:href="#m5bb01d947f" x="461.947026" y="121.245142" style="stroke: #000000"/>
     <use xlink:href="#m5bb01d947f" x="465.82373" y="241.938667" style="stroke: #000000"/>
     <use xlink:href="#m5bb01d947f" x="467.87684" y="118.546084" style="stroke: #000000"/>
     <use xlink:href="#m5bb01d947f" x="470.21687" y="218.356824" style="stroke: #000000"/>
     <use xlink:href="#m5bb01d947f" x="473.680759" y="203.683989" style="stroke: #000000"/>
     <use xlink:href="#m5bb01d947f" x="474.995005" y="138.389825" style="stroke: #000000"/>
     <use xlink:href="#m5bb01d947f" x="478.385291" y="247.018497" style="stroke: #000000"/>
     <use xlink:href="#m5bb01d947f" x="480.781601" y="101.852539" style="stroke: #000000"/>
     <use xlink:href="#m5bb01d947f" x="482.835509" y="242.80291" style="stroke: #000000"/>
     <use xlink:href="#m5bb01d947f" x="486.31757" y="168.594762" style="stroke: #000000"/>
     <use xlink:href="#m5bb01d947f" x="487.775557" y="173.078665" style="stroke: #000000"/>
     <use xlink:href="#m5bb01d947f" x="490.891552" y="225.720451" style="stroke: #000000"/>
     <use xlink:href="#m5bb01d947f" x="493.625546" y="109.464792" style="stroke: #000000"/>
     <use xlink:href="#m5bb01d947f" x="495.269435" y="249.537806" style="stroke: #000000"/>
     <use xlink:href="#m5bb01d947f" x="499.063438" y="144.231957" style="stroke: #000000"/>
     <use xlink:href="#m5bb01d947f" x="500.229877" y="208.383638" style="stroke: #000000"/>
     <use xlink:href="#m5bb01d947f" x="503.456786" y="197.409261" style="stroke: #000000"/>
     <use xlink:href="#m5bb01d947f" x="506.222274" y="149.266535" style="stroke: #000000"/>
     <use xlink:href="#m5bb01d947f" x="507.698798" y="217.408968" style="stroke: #000000"/>
     <use xlink:href="#m5bb01d947f" x="511.829635" y="152.487864" style="stroke: #000000"/>
     <use xlink:href="#m5bb01d947f" x="512.417986" y="210.068114" style="stroke: #000000"/>
     <use xlink:href="#m5bb01d947f" x="516.055188" y="188.041404" style="stroke: #000000"/>
     <use xlink:href="#m5bb01d947f" x="518.487789" y="182.13208" style="stroke: #000000"/>
     <use xlink:href="#m5bb01d947f" x="520.24624" y="181.755635" style="stroke: #000000"/>
     <use xlink:href="#m5bb01d947f" x="524.274033" y="263.716061" style="stroke: #000000"/>
     <use xlink:href="#m5bb01d947f" x="524.709688" y="100.305629" style="stroke: #000000"/>
     <use xlink:href="#m5bb01d947f" x="528.557383" y="208.08516" style="stroke: #000000"/>
     <use xlink:href="#m5bb01d947f" x="530.603708" y="168.429341" style="stroke: #000000"/>
     <use xlink:href="#m5bb01d947f" x="532.783119" y="181.353693" style="stroke: #000000"/>
     <use xlink:href="#m5bb01d947f" x="536.243582" y="245.646926" style="stroke: #000000"/>
     <use xlink:href="#m5bb01d947f" x="537.299278" y="111.072388" style="stroke: #000000"/>
     <use xlink:href="#m5bb01d947f" x="540.832808" y="241.117632" style="stroke: #000000"/>
     <use xlink:href="#m5bb01d947f" x="542.774076" y="128.667776" style="stroke: #000000"/>
     <use xlink:href="#m5bb01d947f" x="545.150292" y="208.823902" style="stroke: #000000"/>
     <use xlink:href="#m5bb01d947f" x="548.215433" y="203.228739" style="stroke: #000000"/>
     <use xlink:href="#m5bb01d947f" x="549.742486" y="141.944517" style="stroke: #000000"/>
     <use xlink:href="#m5bb01d947f" x="552.895113" y="247.294997" style="stroke: #000000"/>
     <use xlink:href="#m5bb01d947f" x="555.02661" y="106.599673" style="stroke: #000000"/>
     <use xlink:href="#m5bb01d947f" x="557.278865" y="241.229496" style="stroke: #000000"/>
     <use xlink:href="#m5bb01d947f" x="560.299347" y="153.67443" style="stroke: #000000"/>
     <use xlink:href="#m5bb01d947f" x="561.926411" y="188.980066" style="stroke: #000000"/>
     <use xlink:href="#m5bb01d947f" x="564.909242" y="218.617742" style="stroke: #000000"/>
     <use xlink:href="#m5bb01d947f" x="567.211385" y="120.045412" style="stroke: #000000"/>
     <use xlink:href="#m5bb01d947f" x="569.241708" y="247.174268" style="stroke: #000000"/>
     <use xlink:href="#m5bb01d947f" x="572.47671" y="115.461738" style="stroke: #000000"/>
     <use xlink:href="#m5bb01d947f" x="573.820279" y="238.442597" style="stroke: #000000"/>
     <use xlink:href="#m5bb01d947f" x="576.99534" y="179.224146" style="stroke: #000000"/>
     <use xlink:href="#m5bb01d947f" x="579.153794" y="164.46476" style="stroke: #000000"/>
     <use xlink:href="#m5bb01d947f" x="581.204982" y="216.769781" style="stroke: #000000"/>
     <use xlink:href="#m5bb01d947f" x="584.617507" y="102.409826" style="stroke: #000000"/>
     <use xlink:href="#m5bb01d947f" x="585.519643" y="264.104949" style="stroke: #000000"/>
     <use xlink:href="#m5bb01d947f" x="589.139274" y="152.496816" style="stroke: #000000"/>
     <use xlink:href="#m5bb01d947f" x="590.788458" y="208.271929" style="stroke: #000000"/>
     <use xlink:href="#m5bb01d947f" x="593.241925" y="180.846979" style="stroke: #000000"/>
     <use xlink:href="#m5bb01d947f" x="596.43687" y="163.579219" style="stroke: #000000"/>
     <use xlink:href="#m5bb01d947f" x="597.301616" y="209.820286" style="stroke: #000000"/>
     <use xlink:href="#m5bb01d947f" x="601.260735" y="149.58766" style="stroke: #000000"/>
     <use xlink:href="#m5bb01d947f" x="602.182011" y="221.780067" style="stroke: #000000"/>
     <use xlink:href="#m5bb01d947f" x="605.279782" y="166.718281" style="stroke: #000000"/>
     <use xlink:href="#m5bb01d947f" x="607.828893" y="211.362031" style="stroke: #000000"/>
     <use xlink:href="#m5bb01d947f" x="609.277611" y="161.460385" style="stroke: #000000"/>
    </g>
   </g>
   <g id="matplotlib.axis_1">
    <g id="xtick_1">
     <g id="line2d_1">
      <defs>
       <path id="m560c196713" d="M 0 0 
L 0 3.5 
" style="stroke: #000000; stroke-width: 1.2"/>
      </defs>
      <g>
       <use xlink:href="#m560c196713" x="152.229425" y="366.26425" style="stroke: #000000; stroke-width: 1.2"/>
      </g>
     </g>
     <g id="text_1">
      <!-- 8500 -->
      <g transform="translate(134.886925 385.26425) scale(0.16 -0.16)">
       <defs>
        <path id="FiraSans-Regular-38" d="M 2336 2298 
Q 3238 1933 3238 1146 
Q 3238 794 3049 515 
Q 2861 237 2521 80 
Q 2182 -77 1754 -77 
Q 1318 -77 985 76 
Q 653 230 470 505 
Q 288 781 288 1133 
Q 288 1530 502 1798 
Q 717 2067 1133 2246 
Q 794 2419 630 2665 
Q 467 2912 467 3245 
Q 467 3590 649 3840 
Q 832 4090 1129 4218 
Q 1427 4346 1766 4346 
Q 2099 4346 2396 4224 
Q 2694 4102 2880 3856 
Q 3066 3610 3066 3264 
Q 3066 2944 2886 2713 
Q 2707 2483 2336 2298 
z
M 1766 3904 
Q 1434 3904 1238 3731 
Q 1043 3558 1043 3238 
Q 1043 2931 1232 2771 
Q 1421 2611 1837 2477 
L 1946 2438 
Q 2234 2605 2362 2790 
Q 2490 2976 2490 3245 
Q 2490 3546 2301 3725 
Q 2112 3904 1766 3904 
z
M 1760 390 
Q 2157 390 2390 595 
Q 2624 800 2624 1139 
Q 2624 1370 2534 1526 
Q 2445 1683 2246 1801 
Q 2048 1920 1690 2042 
L 1530 2099 
Q 1210 1946 1056 1712 
Q 902 1478 902 1133 
Q 902 781 1132 585 
Q 1363 390 1760 390 
z
" transform="scale(0.015625)"/>
        <path id="FiraSans-Regular-35" d="M 2688 3821 
L 1018 3821 
L 1018 2560 
Q 1344 2726 1702 2726 
Q 2253 2726 2585 2364 
Q 2918 2003 2918 1370 
Q 2918 947 2732 617 
Q 2547 288 2211 105 
Q 1875 -77 1434 -77 
Q 1043 -77 736 60 
Q 429 198 166 467 
L 512 806 
Q 717 602 934 502 
Q 1152 403 1427 403 
Q 1837 403 2070 659 
Q 2304 915 2304 1382 
Q 2304 1850 2093 2061 
Q 1882 2272 1523 2272 
Q 1357 2272 1216 2237 
Q 1075 2202 915 2125 
L 454 2125 
L 454 4282 
L 2771 4282 
L 2688 3821 
z
" transform="scale(0.015625)"/>
        <path id="FiraSans-Regular-30" d="M 1786 4346 
Q 2496 4346 2857 3779 
Q 3219 3213 3219 2138 
Q 3219 1062 2857 492 
Q 2496 -77 1786 -77 
Q 1075 -77 713 492 
Q 352 1062 352 2138 
Q 352 3213 713 3779 
Q 1075 4346 1786 4346 
z
M 1786 3878 
Q 1370 3878 1168 3468 
Q 966 3059 966 2138 
Q 966 1216 1168 803 
Q 1370 390 1786 390 
Q 2195 390 2400 803 
Q 2605 1216 2605 2138 
Q 2605 3053 2400 3465 
Q 2195 3878 1786 3878 
z
" transform="scale(0.015625)"/>
       </defs>
       <use xlink:href="#FiraSans-Regular-38"/>
       <use xlink:href="#FiraSans-Regular-35" transform="translate(55.099991 0)"/>
       <use xlink:href="#FiraSans-Regular-30" transform="translate(105.199982 0)"/>
       <use xlink:href="#FiraSans-Regular-30" transform="translate(160.999969 0)"/>
      </g>
     </g>
    </g>
    <g id="xtick_2">
     <g id="line2d_2">
      <g>
       <use xlink:href="#m560c196713" x="217.595935" y="366.26425" style="stroke: #000000; stroke-width: 1.2"/>
      </g>
     </g>
     <g id="text_2">
      <!-- 9000 -->
      <g transform="translate(200.004685 385.26425) scale(0.16 -0.16)">
       <defs>
        <path id="FiraSans-Regular-39" d="M 1658 4346 
Q 2336 4346 2688 3901 
Q 3040 3456 3040 2682 
Q 3040 1805 2803 1270 
Q 2566 736 2080 419 
Q 1594 102 762 -141 
L 627 301 
Q 1485 544 1942 960 
Q 2400 1376 2432 2067 
Q 2285 1837 2035 1696 
Q 1786 1555 1472 1555 
Q 1139 1555 870 1724 
Q 602 1894 445 2204 
Q 288 2515 288 2931 
Q 288 3366 473 3686 
Q 659 4006 969 4176 
Q 1280 4346 1658 4346 
z
M 1594 2016 
Q 2099 2016 2445 2547 
Q 2458 3258 2269 3568 
Q 2080 3878 1670 3878 
Q 1293 3878 1088 3628 
Q 883 3379 883 2918 
Q 883 2470 1075 2243 
Q 1267 2016 1594 2016 
z
" transform="scale(0.015625)"/>
       </defs>
       <use xlink:href="#FiraSans-Regular-39"/>
       <use xlink:href="#FiraSans-Regular-30" transform="translate(52.499985 0)"/>
       <use xlink:href="#FiraSans-Regular-30" transform="translate(108.299973 0)"/>
       <use xlink:href="#FiraSans-Regular-30" transform="translate(164.09996 0)"/>
      </g>
     </g>
    </g>
    <g id="xtick_3">
     <g id="line2d_3">
      <g>
       <use xlink:href="#m560c196713" x="282.962446" y="366.26425" style="stroke: #000000; stroke-width: 1.2"/>
      </g>
     </g>
     <g id="text_3">
      <!-- 9500 -->
      <g transform="translate(265.827446 385.26425) scale(0.16 -0.16)">
       <use xlink:href="#FiraSans-Regular-39"/>
       <use xlink:href="#FiraSans-Regular-35" transform="translate(52.499985 0)"/>
       <use xlink:href="#FiraSans-Regular-30" transform="translate(102.599976 0)"/>
       <use xlink:href="#FiraSans-Regular-30" transform="translate(158.399963 0)"/>
      </g>
     </g>
    </g>
    <g id="xtick_4">
     <g id="line2d_4">
      <g>
       <use xlink:href="#m560c196713" x="348.328957" y="366.26425" style="stroke: #000000; stroke-width: 1.2"/>
      </g>
     </g>
     <g id="text_4">
      <!-- 10000 -->
      <g transform="translate(327.010207 385.26425) scale(0.16 -0.16)">
       <defs>
        <path id="FiraSans-Regular-31" d="M 2067 4282 
L 2067 0 
L 1478 0 
L 1478 3654 
L 480 3046 
L 224 3462 
L 1549 4282 
L 2067 4282 
z
" transform="scale(0.015625)"/>
       </defs>
       <use xlink:href="#FiraSans-Regular-31"/>
       <use xlink:href="#FiraSans-Regular-30" transform="translate(43.299988 0)"/>
       <use xlink:href="#FiraSans-Regular-30" transform="translate(99.099976 0)"/>
       <use xlink:href="#FiraSans-Regular-30" transform="translate(154.899963 0)"/>
       <use xlink:href="#FiraSans-Regular-30" transform="translate(210.699951 0)"/>
      </g>
     </g>
    </g>
    <g id="xtick_5">
     <g id="line2d_5">
      <g>
       <use xlink:href="#m560c196713" x="413.695468" y="366.26425" style="stroke: #000000; stroke-width: 1.2"/>
      </g>
     </g>
     <g id="text_5">
      <!-- 10500 -->
      <g transform="translate(392.832968 385.26425) scale(0.16 -0.16)">
       <use xlink:href="#FiraSans-Regular-31"/>
       <use xlink:href="#FiraSans-Regular-30" transform="translate(43.299988 0)"/>
       <use xlink:href="#FiraSans-Regular-35" transform="translate(99.099976 0)"/>
       <use xlink:href="#FiraSans-Regular-30" transform="translate(149.199966 0)"/>
       <use xlink:href="#FiraSans-Regular-30" transform="translate(204.999954 0)"/>
      </g>
     </g>
    </g>
    <g id="xtick_6">
     <g id="line2d_6">
      <g>
       <use xlink:href="#m560c196713" x="479.061978" y="366.26425" style="stroke: #000000; stroke-width: 1.2"/>
      </g>
     </g>
     <g id="text_6">
      <!-- 11000 -->
      <g transform="translate(458.743228 385.26425) scale(0.16 -0.16)">
       <use xlink:href="#FiraSans-Regular-31"/>
       <use xlink:href="#FiraSans-Regular-31" transform="translate(43.299988 0)"/>
       <use xlink:href="#FiraSans-Regular-30" transform="translate(86.599976 0)"/>
       <use xlink:href="#FiraSans-Regular-30" transform="translate(142.399963 0)"/>
       <use xlink:href="#FiraSans-Regular-30" transform="translate(198.199951 0)"/>
      </g>
     </g>
    </g>
    <g id="xtick_7">
     <g id="line2d_7">
      <g>
       <use xlink:href="#m560c196713" x="544.428489" y="366.26425" style="stroke: #000000; stroke-width: 1.2"/>
      </g>
     </g>
     <g id="text_7">
      <!-- 11500 -->
      <g transform="translate(524.565989 385.26425) scale(0.16 -0.16)">
       <use xlink:href="#FiraSans-Regular-31"/>
       <use xlink:href="#FiraSans-Regular-31" transform="translate(43.299988 0)"/>
       <use xlink:href="#FiraSans-Regular-35" transform="translate(86.599976 0)"/>
       <use xlink:href="#FiraSans-Regular-30" transform="translate(136.699966 0)"/>
       <use xlink:href="#FiraSans-Regular-30" transform="translate(192.499954 0)"/>
      </g>
     </g>
    </g>
    <g id="xtick_8">
     <g id="line2d_8">
      <g>
       <use xlink:href="#m560c196713" x="609.795" y="366.26425" style="stroke: #000000; stroke-width: 1.2"/>
      </g>
     </g>
     <g id="text_8">
      <!-- 12000 -->
      <g transform="translate(588.98 385.26425) scale(0.16 -0.16)">
       <defs>
        <path id="FiraSans-Regular-32" d="M 1459 4346 
Q 1843 4346 2134 4192 
Q 2426 4038 2586 3772 
Q 2746 3507 2746 3174 
Q 2746 2784 2570 2425 
Q 2394 2067 2029 1651 
Q 1664 1235 922 493 
L 2848 493 
L 2778 0 
L 250 0 
L 250 467 
Q 1107 1357 1465 1769 
Q 1824 2182 1977 2489 
Q 2131 2797 2131 3149 
Q 2131 3482 1939 3670 
Q 1747 3859 1427 3859 
Q 1165 3859 966 3750 
Q 768 3642 544 3392 
L 160 3699 
Q 422 4026 742 4186 
Q 1062 4346 1459 4346 
z
" transform="scale(0.015625)"/>
       </defs>
       <use xlink:href="#FiraSans-Regular-31"/>
       <use xlink:href="#FiraSans-Regular-32" transform="translate(43.299988 0)"/>
       <use xlink:href="#FiraSans-Regular-30" transform="translate(92.799973 0)"/>
       <use xlink:href="#FiraSans-Regular-30" transform="translate(148.59996 0)"/>
       <use xlink:href="#FiraSans-Regular-30" transform="translate(204.399948 0)"/>
      </g>
     </g>
    </g>
    <g id="text_9">
     <!-- E/hc [cm$^{-1}$] -->
     <g transform="translate(322.175561 407.67175) scale(0.2 -0.2)">
      <defs>
       <path id="FiraSans-Regular-45" d="M 3027 4410 
L 2957 3923 
L 1248 3923 
L 1248 2483 
L 2733 2483 
L 2733 1997 
L 1248 1997 
L 1248 486 
L 3078 486 
L 3078 0 
L 640 0 
L 640 4410 
L 3027 4410 
z
" transform="scale(0.015625)"/>
       <path id="FiraSans-Regular-2f" d="M 2157 5165 
L 2656 5050 
L 1178 -666 
L 672 -544 
L 2157 5165 
z
" transform="scale(0.015625)"/>
       <path id="FiraSans-Regular-68" d="M 2195 3450 
Q 2656 3450 2915 3174 
Q 3174 2899 3174 2419 
L 3174 0 
L 2586 0 
L 2586 2336 
Q 2586 2694 2448 2841 
Q 2310 2989 2048 2989 
Q 1786 2989 1581 2835 
Q 1376 2682 1197 2400 
L 1197 0 
L 608 0 
L 608 4723 
L 1197 4787 
L 1197 2906 
Q 1594 3450 2195 3450 
z
" transform="scale(0.015625)"/>
       <path id="FiraSans-Regular-63" d="M 1837 3450 
Q 2138 3450 2387 3363 
Q 2637 3277 2867 3085 
L 2586 2714 
Q 2406 2842 2236 2902 
Q 2067 2963 1862 2963 
Q 1453 2963 1225 2636 
Q 998 2310 998 1670 
Q 998 1030 1222 726 
Q 1446 422 1862 422 
Q 2061 422 2227 483 
Q 2394 544 2598 678 
L 2867 294 
Q 2406 -77 1837 -77 
Q 1152 -77 758 384 
Q 365 845 365 1658 
Q 365 2195 544 2598 
Q 723 3002 1052 3226 
Q 1382 3450 1837 3450 
z
" transform="scale(0.015625)"/>
       <path id="FiraSans-Regular-20" transform="scale(0.015625)"/>
       <path id="FiraSans-Regular-5b" d="M 1741 5222 
L 1741 4730 
L 973 4730 
L 973 -256 
L 1741 -256 
L 1741 -742 
L 416 -742 
L 416 5222 
L 1741 5222 
z
" transform="scale(0.015625)"/>
       <path id="FiraSans-Regular-6d" d="M 3994 3450 
Q 4410 3450 4659 3171 
Q 4909 2893 4909 2419 
L 4909 0 
L 4320 0 
L 4320 2336 
Q 4320 2989 3846 2989 
Q 3597 2989 3424 2845 
Q 3251 2701 3053 2394 
L 3053 0 
L 2464 0 
L 2464 2336 
Q 2464 2989 1990 2989 
Q 1734 2989 1561 2841 
Q 1389 2694 1197 2394 
L 1197 0 
L 608 0 
L 608 3373 
L 1114 3373 
L 1165 2880 
Q 1542 3450 2138 3450 
Q 2451 3450 2672 3290 
Q 2893 3130 2989 2842 
Q 3187 3136 3427 3293 
Q 3667 3450 3994 3450 
z
" transform="scale(0.015625)"/>
       <path id="STIXGeneral-Regular-2212" d="M 3974 1408 
L 410 1408 
L 410 1830 
L 3974 1830 
L 3974 1408 
z
" transform="scale(0.015625)"/>
       <path id="STIXGeneral-Regular-1d7e3" d="M 1933 0 
L 1427 0 
L 1427 3648 
Q 1286 3584 1008 3440 
Q 730 3296 691 3277 
L 691 3744 
L 1843 4333 
L 1933 4301 
L 1933 0 
z
" transform="scale(0.015625)"/>
       <path id="FiraSans-Regular-5d" d="M 1645 5222 
L 1645 -742 
L 320 -742 
L 320 -256 
L 1088 -256 
L 1088 4730 
L 320 4730 
L 320 5222 
L 1645 5222 
z
" transform="scale(0.015625)"/>
      </defs>
      <use xlink:href="#FiraSans-Regular-45" transform="translate(0 0.370312)"/>
      <use xlink:href="#FiraSans-Regular-2f" transform="translate(53.499985 0.370312)"/>
      <use xlink:href="#FiraSans-Regular-68" transform="translate(105.499969 0.370312)"/>
      <use xlink:href="#FiraSans-Regular-63" transform="translate(164.09996 0.370312)"/>
      <use xlink:href="#FiraSans-Regular-20" transform="translate(211.899948 0.370312)"/>
      <use xlink:href="#FiraSans-Regular-5b" transform="translate(238.399933 0.370312)"/>
      <use xlink:href="#FiraSans-Regular-63" transform="translate(270.59993 0.370312)"/>
      <use xlink:href="#FiraSans-Regular-6d" transform="translate(318.399918 0.370312)"/>
      <use xlink:href="#STIXGeneral-Regular-2212" transform="translate(404.892595 36.607813) scale(0.7)"/>
      <use xlink:href="#STIXGeneral-Regular-1d7e3" transform="translate(452.842584 36.607813) scale(0.7)"/>
      <use xlink:href="#FiraSans-Regular-5d" transform="translate(490.107417 0.370312)"/>
     </g>
    </g>
   </g>
   <g id="matplotlib.axis_2">
    <g id="ytick_1">
     <g id="line2d_9">
      <defs>
       <path id="m464d035716" d="M 0 0 
L -3.5 0 
" style="stroke: #000000; stroke-width: 1.2"/>
      </defs>
      <g>
       <use xlink:href="#m464d035716" x="139.156122" y="366.26425" style="stroke: #000000; stroke-width: 1.2"/>
      </g>
     </g>
     <g id="text_10">
      <!-- 0 -->
      <g transform="translate(123.228622 372.26425) scale(0.16 -0.16)">
       <use xlink:href="#FiraSans-Regular-30"/>
      </g>
     </g>
    </g>
    <g id="ytick_2">
     <g id="line2d_10">
      <g>
       <use xlink:href="#m464d035716" x="139.156122" y="251.968667" style="stroke: #000000; stroke-width: 1.2"/>
      </g>
     </g>
     <g id="text_11">
      <!-- 2 -->
      <g transform="translate(124.236122 257.968667) scale(0.16 -0.16)">
       <use xlink:href="#FiraSans-Regular-32"/>
      </g>
     </g>
    </g>
    <g id="ytick_3">
     <g id="line2d_11">
      <g>
       <use xlink:href="#m464d035716" x="139.156122" y="137.673083" style="stroke: #000000; stroke-width: 1.2"/>
      </g>
     </g>
     <g id="text_12">
      <!-- 4 -->
      <g transform="translate(123.643622 143.673083) scale(0.16 -0.16)">
       <defs>
        <path id="FiraSans-Regular-34" d="M 3213 1523 
L 3213 1056 
L 2656 1056 
L 2656 0 
L 2086 0 
L 2086 1056 
L 256 1056 
L 256 1478 
L 1542 4346 
L 2035 4141 
L 877 1523 
L 2093 1523 
L 2144 2675 
L 2656 2675 
L 2656 1523 
L 3213 1523 
z
" transform="scale(0.015625)"/>
       </defs>
       <use xlink:href="#FiraSans-Regular-34"/>
      </g>
     </g>
    </g>
    <g id="ytick_4">
     <g id="line2d_12">
      <g>
       <use xlink:href="#m464d035716" x="139.156122" y="23.3775" style="stroke: #000000; stroke-width: 1.2"/>
      </g>
     </g>
     <g id="text_13">
      <!-- 6 -->
      <g transform="translate(123.628622 29.3775) scale(0.16 -0.16)">
       <defs>
        <path id="FiraSans-Regular-36" d="M 1971 2816 
Q 2298 2816 2566 2662 
Q 2835 2509 2995 2201 
Q 3155 1894 3155 1453 
Q 3155 998 2972 649 
Q 2790 301 2480 112 
Q 2170 -77 1792 -77 
Q 1043 -77 697 476 
Q 352 1030 352 2010 
Q 352 2707 547 3235 
Q 742 3763 1107 4054 
Q 1472 4346 1971 4346 
Q 2458 4346 2854 4083 
L 2624 3693 
Q 2323 3878 1965 3878 
Q 1504 3878 1235 3436 
Q 966 2995 941 2253 
Q 1338 2816 1971 2816 
z
M 1792 390 
Q 2163 390 2361 672 
Q 2560 954 2560 1434 
Q 2560 2349 1869 2349 
Q 1587 2349 1350 2192 
Q 1114 2035 947 1760 
Q 966 1056 1168 723 
Q 1370 390 1792 390 
z
" transform="scale(0.015625)"/>
       </defs>
       <use xlink:href="#FiraSans-Regular-36"/>
      </g>
     </g>
    </g>
    <g id="text_14">
     <!-- $\gamma / 2\pi$ [MHz] -->
     <g transform="translate(22.060291 53.266175) scale(0.2 -0.2)">
      <defs>
       <path id="STIXNonUnicode-Italic-e1da" d="M 3373 2899 
L 1523 186 
L 1139 -1350 
L 1075 -1382 
L 666 -1229 
Q 928 -314 1075 288 
Q 1190 774 1190 1536 
Q 1190 1722 1139 1926 
Q 1088 2131 928 2320 
Q 768 2509 538 2509 
L 557 2579 
L 909 2963 
Q 1318 2963 1513 2598 
Q 1709 2234 1709 1696 
Q 1709 1446 1670 1210 
L 2822 2899 
L 3373 2899 
z
" transform="scale(0.015625)"/>
       <path id="STIXGeneral-Regular-2f" d="M 1837 4326 
L 378 -90 
L -58 -90 
L 1408 4326 
L 1837 4326 
z
" transform="scale(0.015625)"/>
       <path id="STIXGeneral-Regular-1d7e4" d="M 3002 454 
L 2816 0 
L 224 0 
L 224 134 
L 1344 1504 
L 1344 1498 
L 1702 1933 
Q 1952 2234 2054 2365 
Q 2157 2496 2253 2685 
Q 2349 2874 2349 3040 
Q 2349 3437 2134 3654 
Q 1920 3872 1549 3872 
Q 1254 3872 1008 3629 
Q 762 3386 698 2938 
L 237 3046 
Q 339 3616 716 3971 
Q 1094 4326 1594 4326 
Q 2150 4326 2502 3980 
Q 2854 3635 2854 3142 
Q 2854 2784 2720 2525 
Q 2586 2266 2157 1728 
L 1133 454 
L 3002 454 
z
" transform="scale(0.015625)"/>
       <path id="STIXNonUnicode-Italic-e1e7" d="M 3770 2899 
L 3661 2445 
L 3008 2445 
Q 2925 2234 2637 1126 
Q 2566 832 2566 704 
Q 2566 493 2691 441 
Q 2816 390 3142 390 
L 3110 282 
L 2778 -64 
Q 2426 -58 2224 70 
Q 2022 198 2022 525 
Q 2022 685 2067 864 
Q 2131 1133 2297 1725 
Q 2464 2317 2509 2445 
L 1958 2445 
Q 1811 1869 1670 1449 
Q 1530 1030 1341 668 
Q 1152 307 909 121 
Q 666 -64 378 -64 
L 288 390 
Q 653 410 902 829 
Q 1152 1248 1453 2445 
Q 1120 2419 864 1939 
L 518 2157 
Q 774 2605 1062 2752 
Q 1350 2899 1818 2899 
L 3770 2899 
z
" transform="scale(0.015625)"/>
       <path id="FiraSans-Regular-4d" d="M 4582 0 
L 3994 0 
L 3840 1990 
Q 3744 3162 3731 3789 
L 2778 499 
L 2208 499 
L 1203 3795 
Q 1203 2995 1120 1946 
L 973 0 
L 397 0 
L 762 4410 
L 1581 4410 
L 2509 1203 
L 3392 4410 
L 4218 4410 
L 4582 0 
z
" transform="scale(0.015625)"/>
       <path id="FiraSans-Regular-48" d="M 3104 0 
L 3104 2067 
L 1248 2067 
L 1248 0 
L 640 0 
L 640 4410 
L 1248 4410 
L 1248 2566 
L 3104 2566 
L 3104 4410 
L 3712 4410 
L 3712 0 
L 3104 0 
z
" transform="scale(0.015625)"/>
       <path id="FiraSans-Regular-7a" d="M 2586 3373 
L 2586 2925 
L 826 493 
L 2605 493 
L 2534 0 
L 160 0 
L 160 442 
L 1914 2874 
L 307 2874 
L 307 3373 
L 2586 3373 
z
" transform="scale(0.015625)"/>
      </defs>
      <use xlink:href="#STIXNonUnicode-Italic-e1da" transform="translate(0 0.40625)"/>
      <use xlink:href="#STIXGeneral-Regular-2f" transform="translate(50.299988 0.40625)"/>
      <use xlink:href="#STIXGeneral-Regular-1d7e4" transform="translate(78.099976 0.40625)"/>
      <use xlink:href="#STIXNonUnicode-Italic-e1e7" transform="translate(128.09996 0.40625)"/>
      <use xlink:href="#FiraSans-Regular-20" transform="translate(184.599945 0.40625)"/>
      <use xlink:href="#FiraSans-Regular-5b" transform="translate(211.09993 0.40625)"/>
      <use xlink:href="#FiraSans-Regular-4d" transform="translate(243.299927 0.40625)"/>
      <use xlink:href="#FiraSans-Regular-48" transform="translate(321.099915 0.40625)"/>
      <use xlink:href="#FiraSans-Regular-7a" transform="translate(389.099899 0.40625)"/>
      <use xlink:href="#FiraSans-Regular-5d" transform="translate(432.799896 0.40625)"/>
     </g>
    </g>
   </g>
   <g id="line2d_13">
    <path d="M 184.880781 365.096484 
L 217.289484 364.588444 
L 236.523201 364.096154 
L 249.252584 363.631336 
L 261.901971 362.993625 
L 274.46361 362.085139 
L 280.707903 361.478838 
L 286.925029 360.728258 
L 293.112087 359.784278 
L 299.265115 358.575658 
L 305.378754 356.996742 
L 311.445446 354.887476 
L 317.454406 352.001538 
L 323.389947 347.959523 
L 329.229072 342.198817 
L 334.939124 333.997471 
L 340.478439 322.829735 
L 350.921994 296.189502 
L 355.843282 279.357177 
L 356.225545 61.728228 
L 360.633719 275.207839 
L 362.51281 63.533364 
L 365.322236 269.564852 
L 368.964772 67.604189 
L 369.945387 266.434174 
L 374.47832 250.073881 
L 375.562227 85.673275 
L 379.00597 252.304741 
L 382.186587 86.048216 
L 383.495381 249.555157 
L 387.9593 248.18298 
L 388.845081 90.454683 
L 392.406811 242.88312 
L 395.486188 109.03875 
L 396.862702 227.000333 
L 401.160524 253.949686 
L 402.255505 85.777619 
L 405.62137 245.699385 
L 408.751602 115.954067 
L 410.131241 218.848692 
L 414.159478 240.400373 
L 415.713855 96.510093 
L 418.645687 249.77032 
L 422.043908 107.044545 
L 423.213472 231.759369 
L 427.12792 219.196743 
L 429.043054 118.220309 
L 431.549977 239.316492 
L 435.375317 96.301821 
L 436.046383 251.205868 
L 440.124508 207.321462 
L 442.130279 141.506209 
L 444.457026 216.293464 
L 448.58632 163.61757 
L 448.771922 188.870064 
L 453.067469 218.474302 
L 455.017077 141.84629 
L 457.386404 204.867592 
L 461.149829 228.323789 
L 461.947026 121.245142 
L 465.82373 241.938667 
L 467.87684 118.546084 
L 470.21687 218.356824 
L 473.680759 203.683989 
L 474.995005 138.389825 
L 478.385291 247.018497 
L 480.781601 101.852539 
L 482.835509 242.80291 
L 486.31757 168.594762 
L 487.775557 173.078665 
L 490.891552 225.720451 
L 493.625546 109.464792 
L 495.269435 249.537806 
L 499.063438 144.231957 
L 500.229877 208.383638 
L 503.456786 197.409261 
L 506.222274 149.266535 
L 507.698798 217.408968 
L 511.829635 152.487864 
L 512.417986 210.068114 
L 516.055188 188.041404 
L 518.487789 182.13208 
L 520.24624 181.755635 
L 524.274033 263.716061 
L 524.709688 100.305629 
L 528.557383 208.08516 
L 530.603708 168.429341 
L 532.783119 181.353693 
L 536.243582 245.646926 
L 537.299278 111.072388 
L 540.832808 241.117632 
L 542.774076 128.667776 
L 545.150292 208.823902 
L 548.215433 203.228739 
L 549.742486 141.944517 
L 552.895113 247.294997 
L 555.02661 106.599673 
L 557.278865 241.229496 
L 560.299347 153.67443 
L 561.926411 188.980066 
L 564.909242 218.617742 
L 567.211385 120.045412 
L 569.241708 247.174268 
L 572.47671 115.461738 
L 573.820279 238.442597 
L 576.99534 179.224146 
L 579.153794 164.46476 
L 581.204982 216.769781 
L 584.617507 102.409826 
L 585.519643 264.104949 
L 589.139274 152.496816 
L 590.788458 208.271929 
L 593.241925 180.846979 
L 596.43687 163.579219 
L 597.301616 209.820286 
L 601.260735 149.58766 
L 602.182011 221.780067 
L 605.279782 166.718281 
L 607.828893 211.362031 
L 609.277611 161.460385 
L 609.277611 161.460385 
" clip-path="url(#p1235c72821)" style="fill: none; stroke: #000000; stroke-opacity: 0.6; stroke-width: 2; stroke-linecap: square"/>
   </g>
   <g id="patch_3">
    <path d="M 139.156122 366.26425 
L 139.156122 23.3775 
" style="fill: none; stroke: #000000; stroke-width: 1.2; stroke-linejoin: miter; stroke-linecap: square"/>
   </g>
   <g id="patch_4">
    <path d="M 152.229425 366.26425 
L 609.795 366.26425 
" style="fill: none; stroke: #000000; stroke-width: 1.2; stroke-linejoin: miter; stroke-linecap: square"/>
   </g>
  </g>
 </g>
 <defs>
  <clipPath id="p1235c72821">
   <rect x="139.156122" y="23.3775" width="470.638878" height="342.88675"/>
  </clipPath>
 </defs>
</svg>
