<?xml version="1.0" encoding="utf-8" standalone="no"?>
<!DOCTYPE svg PUBLIC "-//W3C//DTD SVG 1.1//EN"
  "http://www.w3.org/Graphics/SVG/1.1/DTD/svg11.dtd">
<svg xmlns:xlink="http://www.w3.org/1999/xlink" width="864pt" height="576pt" viewBox="0 0 864 576" xmlns="http://www.w3.org/2000/svg" version="1.1">
 <metadata>
  <rdf:RDF xmlns:dc="http://purl.org/dc/elements/1.1/" xmlns:cc="http://creativecommons.org/ns#" xmlns:rdf="http://www.w3.org/1999/02/22-rdf-syntax-ns#">
   <cc:Work>
    <dc:type rdf:resource="http://purl.org/dc/dcmitype/StillImage"/>
    <dc:date>2025-05-14T16:38:40.017770</dc:date>
    <dc:format>image/svg+xml</dc:format>
    <dc:creator>
     <cc:Agent>
      <dc:title>Matplotlib v3.10.0, https://matplotlib.org/</dc:title>
     </cc:Agent>
    </dc:creator>
   </cc:Work>
  </rdf:RDF>
 </metadata>
 <defs>
  <style type="text/css">*{stroke-linejoin: round; stroke-linecap: butt}</style>
 </defs>
 <g id="figure_1">
  <g id="patch_1">
   <path d="M 0 576 
L 864 576 
L 864 0 
L 0 0 
z
" style="fill: #ffffff"/>
  </g>
  <g id="axes_1">
   <g id="patch_2">
    <path d="M 127.333799 500.2975 
L 437.488567 500.2975 
L 437.488567 29.21625 
L 127.333799 29.21625 
z
" style="fill: #ffffff"/>
   </g>
   <g id="matplotlib.axis_1">
    <g id="xtick_1">
     <g id="line2d_1">
      <defs>
       <path id="m8c24609f09" d="M 0 0 
L 0 4 
" style="stroke: #000000; stroke-width: 1.2"/>
      </defs>
      <g>
       <use xlink:href="#m8c24609f09" x="215.949447" y="500.2975" style="stroke: #000000; stroke-width: 1.2"/>
      </g>
     </g>
     <g id="text_1">
      <!-- 5 -->
      <g transform="translate(211.44101 521.2975) scale(0.18 -0.18)">
       <defs>
        <path id="FiraSans-Regular-35" d="M 2688 3821 
L 1018 3821 
L 1018 2560 
Q 1344 2726 1702 2726 
Q 2253 2726 2585 2364 
Q 2918 2003 2918 1370 
Q 2918 947 2732 617 
Q 2547 288 2211 105 
Q 1875 -77 1434 -77 
Q 1043 -77 736 60 
Q 429 198 166 467 
L 512 806 
Q 717 602 934 502 
Q 1152 403 1427 403 
Q 1837 403 2070 659 
Q 2304 915 2304 1382 
Q 2304 1850 2093 2061 
Q 1882 2272 1523 2272 
Q 1357 2272 1216 2237 
Q 1075 2202 915 2125 
L 454 2125 
L 454 4282 
L 2771 4282 
L 2688 3821 
z
" transform="scale(0.015625)"/>
       </defs>
       <use xlink:href="#FiraSans-Regular-35"/>
      </g>
     </g>
    </g>
    <g id="xtick_2">
     <g id="line2d_2">
      <g>
       <use xlink:href="#m8c24609f09" x="326.719007" y="500.2975" style="stroke: #000000; stroke-width: 1.2"/>
      </g>
     </g>
     <g id="text_2">
      <!-- 10 -->
      <g transform="translate(317.800569 521.2975) scale(0.18 -0.18)">
       <defs>
        <path id="FiraSans-Regular-31" d="M 2067 4282 
L 2067 0 
L 1478 0 
L 1478 3654 
L 480 3046 
L 224 3462 
L 1549 4282 
L 2067 4282 
z
" transform="scale(0.015625)"/>
        <path id="FiraSans-Regular-30" d="M 1786 4346 
Q 2496 4346 2857 3779 
Q 3219 3213 3219 2138 
Q 3219 1062 2857 492 
Q 2496 -77 1786 -77 
Q 1075 -77 713 492 
Q 352 1062 352 2138 
Q 352 3213 713 3779 
Q 1075 4346 1786 4346 
z
M 1786 3878 
Q 1370 3878 1168 3468 
Q 966 3059 966 2138 
Q 966 1216 1168 803 
Q 1370 390 1786 390 
Q 2195 390 2400 803 
Q 2605 1216 2605 2138 
Q 2605 3053 2400 3465 
Q 2195 3878 1786 3878 
z
" transform="scale(0.015625)"/>
       </defs>
       <use xlink:href="#FiraSans-Regular-31"/>
       <use xlink:href="#FiraSans-Regular-30" transform="translate(43.299988 0)"/>
      </g>
     </g>
    </g>
    <g id="xtick_3">
     <g id="line2d_3">
      <g>
       <use xlink:href="#m8c24609f09" x="437.488567" y="500.2975" style="stroke: #000000; stroke-width: 1.2"/>
      </g>
     </g>
     <g id="text_3">
      <!-- 15 -->
      <g transform="translate(429.08341 521.2975) scale(0.18 -0.18)">
       <use xlink:href="#FiraSans-Regular-31"/>
       <use xlink:href="#FiraSans-Regular-35" transform="translate(43.299988 0)"/>
      </g>
     </g>
    </g>
    <g id="text_4">
     <!-- R (Å) -->
     <g transform="translate(261.500245 547.012187) scale(0.2 -0.2)">
      <defs>
       <path id="FiraSans-Regular-52" d="M 1933 1869 
L 1248 1869 
L 1248 0 
L 640 0 
L 640 4410 
L 1798 4410 
Q 2624 4410 3049 4096 
Q 3475 3782 3475 3162 
Q 3475 2701 3238 2413 
Q 3002 2125 2522 1978 
L 3712 0 
L 2989 0 
L 1933 1869 
z
M 1862 2336 
Q 2342 2336 2585 2531 
Q 2829 2726 2829 3162 
Q 2829 3571 2582 3753 
Q 2336 3936 1792 3936 
L 1248 3936 
L 1248 2336 
L 1862 2336 
z
" transform="scale(0.015625)"/>
       <path id="FiraSans-Regular-20" transform="scale(0.015625)"/>
       <path id="FiraSans-Regular-28" d="M 1818 5152 
Q 1485 4659 1289 4272 
Q 1094 3885 982 3392 
Q 870 2899 870 2240 
Q 870 1587 982 1094 
Q 1094 602 1289 208 
Q 1485 -186 1818 -672 
L 1446 -928 
Q 1024 -326 797 61 
Q 570 448 413 989 
Q 256 1530 256 2240 
Q 256 2950 413 3491 
Q 570 4032 797 4419 
Q 1024 4806 1446 5408 
L 1818 5152 
z
" transform="scale(0.015625)"/>
       <path id="FiraSans-Regular-c5" d="M 2989 0 
L 2656 1107 
L 986 1107 
L 653 0 
L 38 0 
L 1453 4410 
L 2221 4410 
L 3629 0 
L 2989 0 
z
M 1133 1600 
L 2509 1600 
L 1824 3904 
L 1133 1600 
z
M 1837 6157 
Q 2157 6157 2361 5961 
Q 2566 5766 2566 5478 
Q 2566 5190 2361 4995 
Q 2157 4800 1837 4800 
Q 1517 4800 1312 4995 
Q 1107 5190 1107 5478 
Q 1107 5766 1312 5961 
Q 1517 6157 1837 6157 
z
M 1837 5837 
Q 1677 5837 1587 5741 
Q 1498 5645 1498 5478 
Q 1498 5312 1587 5216 
Q 1677 5120 1837 5120 
Q 1990 5120 2083 5216 
Q 2176 5312 2176 5478 
Q 2176 5645 2086 5741 
Q 1997 5837 1837 5837 
z
" transform="scale(0.015625)"/>
       <path id="FiraSans-Regular-29" d="M 627 5408 
Q 1050 4806 1277 4419 
Q 1504 4032 1661 3491 
Q 1818 2950 1818 2240 
Q 1818 1530 1661 989 
Q 1504 448 1277 61 
Q 1050 -326 627 -928 
L 256 -672 
Q 589 -186 784 208 
Q 979 602 1091 1094 
Q 1203 1587 1203 2240 
Q 1203 2899 1091 3392 
Q 979 3885 784 4272 
Q 589 4659 256 5152 
L 627 5408 
z
" transform="scale(0.015625)"/>
      </defs>
      <use xlink:href="#FiraSans-Regular-52"/>
      <use xlink:href="#FiraSans-Regular-20" transform="translate(60.499985 0)"/>
      <use xlink:href="#FiraSans-Regular-28" transform="translate(86.999969 0)"/>
      <use xlink:href="#FiraSans-Regular-c5" transform="translate(119.399963 0)"/>
      <use xlink:href="#FiraSans-Regular-29" transform="translate(176.699951 0)"/>
     </g>
    </g>
   </g>
   <g id="matplotlib.axis_2">
    <g id="ytick_1">
     <g id="line2d_4">
      <defs>
       <path id="m537241624a" d="M 0 0 
L -4 0 
" style="stroke: #000000; stroke-width: 1.2"/>
      </defs>
      <g>
       <use xlink:href="#m537241624a" x="127.333799" y="487.21191" style="stroke: #000000; stroke-width: 1.2"/>
      </g>
     </g>
     <g id="text_5">
      <!-- 0 -->
      <g transform="translate(109.790362 493.96191) scale(0.18 -0.18)">
       <use xlink:href="#FiraSans-Regular-30"/>
      </g>
     </g>
    </g>
    <g id="ytick_2">
     <g id="line2d_5">
      <g>
       <use xlink:href="#m537241624a" x="127.333799" y="421.783958" style="stroke: #000000; stroke-width: 1.2"/>
      </g>
     </g>
     <g id="text_6">
      <!-- 5 -->
      <g transform="translate(110.816924 428.533958) scale(0.18 -0.18)">
       <use xlink:href="#FiraSans-Regular-35"/>
      </g>
     </g>
    </g>
    <g id="ytick_3">
     <g id="line2d_6">
      <g>
       <use xlink:href="#m537241624a" x="127.333799" y="356.356007" style="stroke: #000000; stroke-width: 1.2"/>
      </g>
     </g>
     <g id="text_7">
      <!-- 10 -->
      <g transform="translate(101.996924 363.106007) scale(0.18 -0.18)">
       <use xlink:href="#FiraSans-Regular-31"/>
       <use xlink:href="#FiraSans-Regular-30" transform="translate(43.299988 0)"/>
      </g>
     </g>
    </g>
    <g id="ytick_4">
     <g id="line2d_7">
      <g>
       <use xlink:href="#m537241624a" x="127.333799" y="290.928056" style="stroke: #000000; stroke-width: 1.2"/>
      </g>
     </g>
     <g id="text_8">
      <!-- 15 -->
      <g transform="translate(103.023487 297.678056) scale(0.18 -0.18)">
       <use xlink:href="#FiraSans-Regular-31"/>
       <use xlink:href="#FiraSans-Regular-35" transform="translate(43.299988 0)"/>
      </g>
     </g>
    </g>
    <g id="ytick_5">
     <g id="line2d_8">
      <g>
       <use xlink:href="#m537241624a" x="127.333799" y="225.500104" style="stroke: #000000; stroke-width: 1.2"/>
      </g>
     </g>
     <g id="text_9">
      <!-- 20 -->
      <g transform="translate(100.880362 232.250104) scale(0.18 -0.18)">
       <defs>
        <path id="FiraSans-Regular-32" d="M 1459 4346 
Q 1843 4346 2134 4192 
Q 2426 4038 2586 3772 
Q 2746 3507 2746 3174 
Q 2746 2784 2570 2425 
Q 2394 2067 2029 1651 
Q 1664 1235 922 493 
L 2848 493 
L 2778 0 
L 250 0 
L 250 467 
Q 1107 1357 1465 1769 
Q 1824 2182 1977 2489 
Q 2131 2797 2131 3149 
Q 2131 3482 1939 3670 
Q 1747 3859 1427 3859 
Q 1165 3859 966 3750 
Q 768 3642 544 3392 
L 160 3699 
Q 422 4026 742 4186 
Q 1062 4346 1459 4346 
z
" transform="scale(0.015625)"/>
       </defs>
       <use xlink:href="#FiraSans-Regular-32"/>
       <use xlink:href="#FiraSans-Regular-30" transform="translate(49.499985 0)"/>
      </g>
     </g>
    </g>
    <g id="ytick_6">
     <g id="line2d_9">
      <g>
       <use xlink:href="#m537241624a" x="127.333799" y="160.072153" style="stroke: #000000; stroke-width: 1.2"/>
      </g>
     </g>
     <g id="text_10">
      <!-- 25 -->
      <g transform="translate(101.906924 166.822153) scale(0.18 -0.18)">
       <use xlink:href="#FiraSans-Regular-32"/>
       <use xlink:href="#FiraSans-Regular-35" transform="translate(49.499985 0)"/>
      </g>
     </g>
    </g>
    <g id="ytick_7">
     <g id="line2d_10">
      <g>
       <use xlink:href="#m537241624a" x="127.333799" y="94.644201" style="stroke: #000000; stroke-width: 1.2"/>
      </g>
     </g>
     <g id="text_11">
      <!-- 30 -->
      <g transform="translate(100.807237 101.394201) scale(0.18 -0.18)">
       <defs>
        <path id="FiraSans-Regular-33" d="M 1440 4346 
Q 1837 4346 2121 4198 
Q 2406 4051 2556 3801 
Q 2707 3552 2707 3258 
Q 2707 2867 2480 2614 
Q 2253 2362 1875 2272 
Q 2304 2234 2573 1965 
Q 2842 1696 2842 1235 
Q 2842 864 2662 563 
Q 2483 262 2150 92 
Q 1818 -77 1382 -77 
Q 992 -77 665 67 
Q 339 211 96 499 
L 448 826 
Q 659 608 880 505 
Q 1101 403 1363 403 
Q 1766 403 1996 630 
Q 2227 858 2227 1242 
Q 2227 1664 2009 1837 
Q 1792 2010 1376 2010 
L 1056 2010 
L 1126 2464 
L 1344 2464 
Q 1677 2464 1897 2662 
Q 2118 2861 2118 3219 
Q 2118 3520 1926 3696 
Q 1734 3872 1408 3872 
Q 1158 3872 950 3782 
Q 742 3693 525 3488 
L 218 3840 
Q 762 4346 1440 4346 
z
" transform="scale(0.015625)"/>
       </defs>
       <use xlink:href="#FiraSans-Regular-33"/>
       <use xlink:href="#FiraSans-Regular-30" transform="translate(49.899994 0)"/>
      </g>
     </g>
    </g>
    <g id="ytick_8">
     <g id="line2d_11">
      <g>
       <use xlink:href="#m537241624a" x="127.333799" y="29.21625" style="stroke: #000000; stroke-width: 1.2"/>
      </g>
     </g>
     <g id="text_12">
      <!-- 35 -->
      <g transform="translate(101.833799 35.96625) scale(0.18 -0.18)">
       <use xlink:href="#FiraSans-Regular-33"/>
       <use xlink:href="#FiraSans-Regular-35" transform="translate(49.899994 0)"/>
      </g>
     </g>
    </g>
    <g id="text_13">
     <!-- E / hc -->
     <g transform="translate(38.813783 49.805625) scale(0.2 -0.2)">
      <defs>
       <path id="FiraSans-Regular-45" d="M 3027 4410 
L 2957 3923 
L 1248 3923 
L 1248 2483 
L 2733 2483 
L 2733 1997 
L 1248 1997 
L 1248 486 
L 3078 486 
L 3078 0 
L 640 0 
L 640 4410 
L 3027 4410 
z
" transform="scale(0.015625)"/>
       <path id="FiraSans-Regular-2f" d="M 2157 5165 
L 2656 5050 
L 1178 -666 
L 672 -544 
L 2157 5165 
z
" transform="scale(0.015625)"/>
       <path id="FiraSans-Regular-68" d="M 2195 3450 
Q 2656 3450 2915 3174 
Q 3174 2899 3174 2419 
L 3174 0 
L 2586 0 
L 2586 2336 
Q 2586 2694 2448 2841 
Q 2310 2989 2048 2989 
Q 1786 2989 1581 2835 
Q 1376 2682 1197 2400 
L 1197 0 
L 608 0 
L 608 4723 
L 1197 4787 
L 1197 2906 
Q 1594 3450 2195 3450 
z
" transform="scale(0.015625)"/>
       <path id="FiraSans-Regular-63" d="M 1837 3450 
Q 2138 3450 2387 3363 
Q 2637 3277 2867 3085 
L 2586 2714 
Q 2406 2842 2236 2902 
Q 2067 2963 1862 2963 
Q 1453 2963 1225 2636 
Q 998 2310 998 1670 
Q 998 1030 1222 726 
Q 1446 422 1862 422 
Q 2061 422 2227 483 
Q 2394 544 2598 678 
L 2867 294 
Q 2406 -77 1837 -77 
Q 1152 -77 758 384 
Q 365 845 365 1658 
Q 365 2195 544 2598 
Q 723 3002 1052 3226 
Q 1382 3450 1837 3450 
z
" transform="scale(0.015625)"/>
      </defs>
      <use xlink:href="#FiraSans-Regular-45"/>
      <use xlink:href="#FiraSans-Regular-20" transform="translate(53.499985 0)"/>
      <use xlink:href="#FiraSans-Regular-2f" transform="translate(79.999969 0)"/>
      <use xlink:href="#FiraSans-Regular-20" transform="translate(131.999954 0)"/>
      <use xlink:href="#FiraSans-Regular-68" transform="translate(158.499939 0)"/>
      <use xlink:href="#FiraSans-Regular-63" transform="translate(217.09993 0)"/>
     </g>
     <!-- [$10^3$ cm$^{-1}$] -->
     <g transform="translate(20.402846 72.065) scale(0.2 -0.2)">
      <defs>
       <path id="FiraSans-Regular-5b" d="M 1741 5222 
L 1741 4730 
L 973 4730 
L 973 -256 
L 1741 -256 
L 1741 -742 
L 416 -742 
L 416 5222 
L 1741 5222 
z
" transform="scale(0.015625)"/>
       <path id="STIXGeneral-Regular-1d7e3" d="M 1933 0 
L 1427 0 
L 1427 3648 
Q 1286 3584 1008 3440 
Q 730 3296 691 3277 
L 691 3744 
L 1843 4333 
L 1933 4301 
L 1933 0 
z
" transform="scale(0.015625)"/>
       <path id="STIXGeneral-Regular-1d7e2" d="M 3053 2112 
Q 3053 1523 2915 1046 
Q 2778 570 2438 240 
Q 2099 -90 1600 -90 
Q 1203 -90 912 108 
Q 621 307 461 643 
Q 301 979 224 1353 
Q 147 1728 147 2150 
Q 147 2746 294 3222 
Q 442 3699 787 4012 
Q 1133 4326 1626 4326 
Q 2253 4326 2653 3708 
Q 3053 3091 3053 2112 
z
M 2547 2112 
Q 2547 2893 2288 3382 
Q 2029 3872 1613 3872 
Q 1139 3872 896 3376 
Q 653 2880 653 2138 
Q 653 1805 701 1507 
Q 749 1210 854 944 
Q 960 678 1152 521 
Q 1344 365 1600 365 
Q 1926 365 2147 627 
Q 2368 890 2457 1270 
Q 2547 1651 2547 2112 
z
" transform="scale(0.015625)"/>
       <path id="STIXGeneral-Regular-1d7e5" d="M 723 3149 
L 269 3258 
Q 410 3757 736 4041 
Q 1062 4326 1555 4326 
Q 2010 4326 2317 4038 
Q 2624 3750 2624 3322 
Q 2624 2752 2074 2368 
Q 2432 2240 2627 1942 
Q 2822 1645 2822 1344 
Q 2822 723 2419 320 
Q 2010 -90 1312 -90 
Q 608 -90 198 358 
L 499 717 
Q 826 365 1280 365 
Q 1754 365 2022 595 
Q 2317 845 2317 1222 
Q 2317 1555 2077 1779 
Q 1837 2003 1421 2061 
L 1011 2061 
L 1011 2195 
L 1318 2522 
Q 1606 2522 1862 2742 
Q 2118 2963 2118 3277 
Q 2118 3546 1948 3709 
Q 1779 3872 1536 3872 
Q 1280 3872 1059 3689 
Q 838 3507 723 3149 
z
" transform="scale(0.015625)"/>
       <path id="FiraSans-Regular-6d" d="M 3994 3450 
Q 4410 3450 4659 3171 
Q 4909 2893 4909 2419 
L 4909 0 
L 4320 0 
L 4320 2336 
Q 4320 2989 3846 2989 
Q 3597 2989 3424 2845 
Q 3251 2701 3053 2394 
L 3053 0 
L 2464 0 
L 2464 2336 
Q 2464 2989 1990 2989 
Q 1734 2989 1561 2841 
Q 1389 2694 1197 2394 
L 1197 0 
L 608 0 
L 608 3373 
L 1114 3373 
L 1165 2880 
Q 1542 3450 2138 3450 
Q 2451 3450 2672 3290 
Q 2893 3130 2989 2842 
Q 3187 3136 3427 3293 
Q 3667 3450 3994 3450 
z
" transform="scale(0.015625)"/>
       <path id="STIXGeneral-Regular-2212" d="M 3974 1408 
L 410 1408 
L 410 1830 
L 3974 1830 
L 3974 1408 
z
" transform="scale(0.015625)"/>
       <path id="FiraSans-Regular-5d" d="M 1645 5222 
L 1645 -742 
L 320 -742 
L 320 -256 
L 1088 -256 
L 1088 4730 
L 320 4730 
L 320 5222 
L 1645 5222 
z
" transform="scale(0.015625)"/>
      </defs>
      <use xlink:href="#FiraSans-Regular-5b" transform="translate(0 0.370312)"/>
      <use xlink:href="#STIXGeneral-Regular-1d7e3" transform="translate(32.199997 0.370312)"/>
      <use xlink:href="#STIXGeneral-Regular-1d7e2" transform="translate(82.199982 0.370312)"/>
      <use xlink:href="#STIXGeneral-Regular-1d7e5" transform="translate(132.992662 36.607813) scale(0.7)"/>
      <use xlink:href="#FiraSans-Regular-20" transform="translate(170.257495 0.370312)"/>
      <use xlink:href="#FiraSans-Regular-63" transform="translate(196.75748 0.370312)"/>
      <use xlink:href="#FiraSans-Regular-6d" transform="translate(244.557467 0.370312)"/>
      <use xlink:href="#STIXGeneral-Regular-2212" transform="translate(331.050144 36.607813) scale(0.7)"/>
      <use xlink:href="#STIXGeneral-Regular-1d7e3" transform="translate(379.000134 36.607813) scale(0.7)"/>
      <use xlink:href="#FiraSans-Regular-5d" transform="translate(416.264967 0.370312)"/>
     </g>
    </g>
   </g>
   <g id="line2d_12">
    <path d="M 156.762591 377.229338 
L 159.10725 396.100172 
L 161.451931 413.431714 
L 163.796591 428.971196 
L 166.14125 442.56746 
L 168.485931 454.164522 
L 170.830591 463.787543 
L 173.175272 471.524464 
L 175.519931 477.507135 
L 177.864591 481.894392 
L 184.898613 487.21191 
L 187.243272 486.934002 
L 191.932613 484.217615 
L 194.277272 482.039801 
L 196.621953 479.467318 
L 198.966613 476.598146 
L 201.311272 473.518497 
L 203.655953 470.30371 
L 206.000613 467.019162 
L 208.345294 463.72106 
L 210.689953 460.457243 
L 213.034613 457.267799 
L 215.379294 454.185638 
L 220.068635 448.44191 
L 222.413294 445.814718 
L 224.757953 443.364562 
L 227.102635 441.095971 
L 229.447294 439.009429 
L 231.791975 437.102045 
L 234.136635 435.368127 
L 236.481294 433.799858 
L 238.825975 432.38784 
L 241.170635 431.121623 
L 243.515316 429.990182 
L 245.859975 428.982265 
L 248.204635 428.086763 
L 250.549316 427.292897 
L 252.893975 426.590407 
L 255.238657 425.969696 
L 257.583316 425.421845 
L 259.927975 424.93871 
L 262.272657 424.512859 
L 264.617316 424.137602 
L 266.961997 423.806934 
L 269.306657 423.515506 
L 271.651316 423.258545 
L 273.995997 423.031857 
L 276.340657 422.831705 
L 278.685338 422.654824 
L 281.029997 422.498327 
L 283.374657 422.359699 
L 285.719338 422.236719 
L 288.063997 422.127452 
L 290.408679 422.030213 
L 295.097997 421.866083 
L 297.442679 421.79678 
L 299.787338 421.734623 
L 302.132019 421.678763 
L 304.476679 421.628453 
L 306.821338 421.583037 
L 309.166019 421.54196 
L 311.510679 421.504715 
L 313.85536 421.470876 
L 316.200019 421.440071 
L 323.234019 421.362724 
L 327.92336 421.321263 
L 330.268019 421.302978 
L 332.612701 421.286115 
L 337.302041 421.256138 
L 339.646701 421.242803 
L 344.336041 421.21898 
L 346.680701 421.20833 
L 358.404041 421.165223 
L 367.782723 421.140072 
L 370.127382 421.134771 
L 372.472063 421.129806 
L 374.816723 421.125156 
L 377.161382 421.120793 
L 384.195404 421.109231 
L 386.540063 421.105823 
L 388.884723 421.102611 
L 391.229404 421.099579 
L 393.574063 421.096721 
L 395.918745 421.094014 
L 398.263404 421.091455 
L 400.608063 421.089031 
L 402.952745 421.086728 
L 405.297404 421.084543 
L 407.642085 421.082465 
L 409.986745 421.080488 
L 412.331404 421.0786 
L 414.676085 421.076803 
L 417.020745 421.075081 
L 419.365426 421.073436 
L 421.710085 421.07186 
L 424.054745 421.070348 
L 426.399426 421.068896 
L 428.744085 421.067504 
L 431.088767 421.066162 
L 433.433426 421.06487 
L 435.778085 421.063627 
L 438.122767 421.062428 
L 440.467426 421.06127 
L 442.812107 421.060154 
L 445.156767 421.059075 
L 447.501426 421.058032 
L 449.846107 421.057023 
L 452.190767 421.05605 
L 454.535448 421.055106 
L 456.880107 421.054192 
L 461.569448 421.052454 
" clip-path="url(#p7d493b74e8)" style="fill: none; stroke: #8b4513; stroke-width: 2; stroke-linecap: square"/>
   </g>
   <g id="line2d_13">
    <path d="M 156.762591 161.416569 
L 159.10725 182.340931 
L 161.451931 202.369199 
L 163.796591 221.175762 
L 166.14125 238.513803 
L 168.485931 254.226832 
L 170.830591 268.245111 
L 173.175272 280.571907 
L 175.519931 291.265743 
L 177.864591 300.422835 
L 184.898613 319.9074 
L 187.243272 324.174239 
L 191.932613 330.103932 
L 194.277272 331.983431 
L 196.621953 333.26695 
L 198.966613 334.037223 
L 201.311272 334.36685 
L 203.655953 334.318792 
L 206.000613 333.946983 
L 208.345294 333.2971 
L 210.689953 332.407388 
L 213.034613 331.309573 
L 215.379294 330.029772 
L 220.068635 327.006337 
L 222.413294 325.295403 
L 224.757953 323.469587 
L 227.102635 321.540585 
L 229.447294 319.519352 
L 231.791975 317.416604 
L 234.136635 315.242999 
L 236.481294 313.009328 
L 238.825975 310.726504 
L 241.170635 308.405517 
L 243.515316 306.057342 
L 245.859975 303.692826 
L 248.204635 301.322581 
L 250.549316 298.956882 
L 252.893975 296.605597 
L 255.238657 294.278131 
L 257.583316 291.98338 
L 259.927975 289.729749 
L 262.272657 287.525088 
L 264.617316 285.376732 
L 266.961997 283.291451 
L 269.306657 281.275478 
L 271.651316 279.334431 
L 273.995997 277.473326 
L 276.340657 275.696484 
L 278.685338 274.007503 
L 281.029997 272.409171 
L 283.374657 270.903444 
L 285.719338 269.49136 
L 288.063997 268.173057 
L 290.408679 266.947732 
L 295.097997 264.768441 
L 297.442679 263.808723 
L 299.787338 262.930668 
L 302.132019 262.12993 
L 304.476679 261.401803 
L 306.821338 260.741358 
L 309.166019 260.143613 
L 311.510679 259.603559 
L 313.85536 259.116335 
L 316.200019 258.677265 
L 323.234019 257.605897 
L 327.92336 257.058592 
L 330.268019 256.825209 
L 332.612701 256.615001 
L 337.302041 256.254624 
L 339.646701 256.100309 
L 344.336041 255.834652 
L 346.680701 255.720344 
L 358.404041 255.287851 
L 367.782723 255.059358 
L 370.127382 255.013577 
L 372.472063 254.971473 
L 374.816723 254.932703 
L 377.161382 254.896947 
L 384.195404 254.805144 
L 386.540063 254.778948 
L 388.884723 254.754633 
L 391.229404 254.732033 
L 393.574063 254.711011 
L 395.918745 254.691428 
L 398.263404 254.67317 
L 400.608063 254.656124 
L 402.952745 254.64019 
L 405.297404 254.625287 
L 407.642085 254.611332 
L 409.986745 254.598253 
L 412.331404 254.585977 
L 414.676085 254.574452 
L 417.020745 254.563615 
L 419.365426 254.553424 
L 421.710085 254.543825 
L 424.054745 254.53478 
L 426.399426 254.526248 
L 428.744085 254.518199 
L 431.088767 254.510593 
L 433.433426 254.503404 
L 435.778085 254.496604 
L 438.122767 254.490168 
L 440.467426 254.48407 
L 442.812107 254.478293 
L 445.156767 254.47281 
L 447.501426 254.467608 
L 449.846107 254.462668 
L 452.190767 254.457975 
L 454.535448 254.453508 
L 456.880107 254.449259 
L 461.569448 254.441361 
" clip-path="url(#p7d493b74e8)" style="fill: none; stroke: #00008b; stroke-width: 2; stroke-linecap: square"/>
   </g>
   <g id="line2d_14">
    <path d="M 140.349909 87.332649 
L 142.694569 106.019882 
L 145.03925 128.100907 
L 147.383909 151.360164 
L 149.728591 174.5639 
L 152.07325 196.993542 
L 154.417909 218.206654 
L 156.762591 237.915013 
L 159.10725 255.924698 
L 161.451931 272.1094 
L 163.796591 286.400204 
L 166.14125 298.781034 
L 168.485931 309.283958 
L 170.830591 317.982104 
L 173.175272 324.980522 
L 175.519931 330.40651 
L 177.864591 334.400467 
L 184.898613 339.241143 
L 187.243272 338.939346 
L 191.932613 336.215204 
L 194.277272 334.009158 
L 196.621953 331.367899 
L 198.966613 328.375063 
L 201.311272 325.105525 
L 203.655953 321.626179 
L 206.000613 317.996774 
L 208.345294 314.270637 
L 210.689953 310.495479 
L 213.034613 306.71394 
L 215.379294 302.964178 
L 220.068635 295.692406 
L 222.413294 292.22725 
L 224.757953 288.907801 
L 227.102635 285.753427 
L 229.447294 282.77971 
L 231.791975 279.998322 
L 234.136635 277.416853 
L 236.481294 275.038839 
L 238.825975 272.863845 
L 241.170635 270.887754 
L 243.515316 269.103249 
L 245.859975 267.500396 
L 248.204635 266.06736 
L 250.549316 264.791071 
L 252.893975 263.657876 
L 255.238657 262.654082 
L 257.583316 261.766375 
L 259.927975 260.982148 
L 262.272657 260.289692 
L 264.617316 259.678285 
L 266.961997 259.138239 
L 269.306657 258.660915 
L 271.651316 258.238601 
L 273.995997 257.864535 
L 276.340657 257.53274 
L 278.685338 257.237989 
L 281.029997 256.975726 
L 283.374657 256.741973 
L 285.719338 256.533243 
L 288.063997 256.346521 
L 290.408679 256.179164 
L 295.097997 255.893674 
L 297.442679 255.771791 
L 299.787338 255.661708 
L 302.132019 255.5621 
L 304.476679 255.471794 
L 306.821338 255.389771 
L 309.166019 255.315144 
L 311.510679 255.247115 
L 313.85536 255.184998 
L 316.200019 255.128191 
L 318.544679 255.076142 
L 320.88936 255.028388 
L 323.234019 254.984498 
L 325.578701 254.944103 
L 327.92336 254.90687 
L 330.268019 254.872504 
L 332.612701 254.840742 
L 334.95736 254.811344 
L 337.302041 254.784103 
L 339.646701 254.758828 
L 341.99136 254.735352 
L 344.336041 254.71352 
L 346.680701 254.693192 
L 349.025382 254.674248 
L 353.714701 254.640066 
L 358.404041 254.610198 
L 363.093382 254.584 
L 367.782723 254.560947 
L 370.127382 254.550454 
L 372.472063 254.540587 
L 374.816723 254.531302 
L 377.161382 254.522557 
L 384.195404 254.499203 
L 386.540063 254.492273 
L 388.884723 254.485723 
L 391.229404 254.479527 
L 393.574063 254.473669 
L 395.918745 254.468118 
L 398.263404 254.462862 
L 400.608063 254.45788 
L 402.952745 254.453151 
L 405.297404 254.448666 
L 407.642085 254.444407 
L 409.986745 254.440363 
L 412.331404 254.436515 
L 414.676085 254.43286 
L 417.020745 254.429379 
L 419.365426 254.426066 
L 421.710085 254.422913 
L 424.054745 254.419906 
L 426.399426 254.41704 
L 428.744085 254.414308 
L 431.088767 254.4117 
L 433.433426 254.40921 
L 438.122767 254.404565 
L 445.156767 254.398337 
L 447.501426 254.39644 
L 449.846107 254.394623 
L 452.190767 254.392886 
L 454.535448 254.391218 
L 456.880107 254.389622 
L 459.224767 254.388092 
L 463.914107 254.38522 
" clip-path="url(#p7d493b74e8)" style="fill: none; stroke: #006400; stroke-width: 2; stroke-linecap: square"/>
   </g>
   <g id="patch_3">
    <path d="M 127.333799 487.21191 
L 127.333799 29.21625 
" style="fill: none; stroke: #000000; stroke-linejoin: miter; stroke-linecap: square"/>
   </g>
   <g id="patch_4">
    <path d="M 149.487711 500.2975 
L 437.488567 500.2975 
" style="fill: none; stroke: #000000; stroke-linejoin: miter; stroke-linecap: square"/>
   </g>
   <g id="text_14">
    <!-- X${}^1\Sigma^+$ -->
    <g style="fill: #8b4513" transform="translate(238.103359 478.051997) scale(0.2 -0.2)">
     <defs>
      <path id="FiraSans-Regular-58" d="M 2080 2381 
L 3424 0 
L 2733 0 
L 1715 1952 
L 685 0 
L 32 0 
L 1357 2349 
L 147 4410 
L 838 4410 
L 1728 2752 
L 2624 4410 
L 3277 4410 
L 2080 2381 
z
" transform="scale(0.015625)"/>
      <path id="STIXNonUnicode-Regular-e18f" d="M 3802 474 
L 3731 0 
L 173 0 
L 166 147 
L 1926 2189 
L 166 4096 
L 166 4237 
L 3501 4237 
L 3501 3763 
L 1146 3763 
L 2592 2195 
L 1107 474 
L 3802 474 
z
" transform="scale(0.015625)"/>
      <path id="STIXGeneral-Regular-2b" d="M 4070 1408 
L 2400 1408 
L 2400 -262 
L 1978 -262 
L 1978 1408 
L 307 1408 
L 307 1830 
L 1978 1830 
L 1978 3501 
L 2400 3501 
L 2400 1830 
L 4070 1830 
L 4070 1408 
z
" transform="scale(0.015625)"/>
     </defs>
     <use xlink:href="#FiraSans-Regular-58" transform="translate(0 0.370312)"/>
     <use xlink:href="#STIXGeneral-Regular-1d7e3" transform="translate(54.79268 36.607813) scale(0.7)"/>
     <use xlink:href="#STIXNonUnicode-Regular-e18f" transform="translate(92.057513 0.370312)"/>
     <use xlink:href="#STIXGeneral-Regular-2b" transform="translate(165.834201 36.607813) scale(0.7)"/>
    </g>
   </g>
   <g id="text_15">
    <!-- A${}^1\Sigma^+$ -->
    <g style="fill: #00008b" transform="translate(260.257271 356.356007) scale(0.2 -0.2)">
     <defs>
      <path id="FiraSans-Regular-41" d="M 2989 0 
L 2656 1107 
L 986 1107 
L 653 0 
L 38 0 
L 1453 4410 
L 2221 4410 
L 3629 0 
L 2989 0 
z
M 1133 1600 
L 2509 1600 
L 1824 3904 
L 1133 1600 
z
" transform="scale(0.015625)"/>
     </defs>
     <use xlink:href="#FiraSans-Regular-41" transform="translate(0 0.370312)"/>
     <use xlink:href="#STIXGeneral-Regular-1d7e3" transform="translate(58.092683 36.607813) scale(0.7)"/>
     <use xlink:href="#STIXNonUnicode-Regular-e18f" transform="translate(95.357516 0.370312)"/>
     <use xlink:href="#STIXGeneral-Regular-2b" transform="translate(169.134204 36.607813) scale(0.7)"/>
    </g>
   </g>
   <g id="text_16">
    <!-- b${}^3\Pi_0$ -->
    <g style="fill: #006400" transform="translate(215.949447 304.013646) scale(0.2 -0.2)">
     <defs>
      <path id="FiraSans-Regular-62" d="M 2150 3450 
Q 2726 3450 3065 2986 
Q 3405 2522 3405 1690 
Q 3405 1165 3245 765 
Q 3085 365 2784 144 
Q 2483 -77 2080 -77 
Q 1549 -77 1184 371 
L 1126 0 
L 608 0 
L 608 4730 
L 1197 4800 
L 1197 2950 
Q 1562 3450 2150 3450 
z
M 1939 390 
Q 2330 390 2550 707 
Q 2771 1024 2771 1690 
Q 2771 2374 2566 2678 
Q 2362 2982 1984 2982 
Q 1536 2982 1197 2458 
L 1197 845 
Q 1331 634 1526 512 
Q 1722 390 1939 390 
z
" transform="scale(0.015625)"/>
      <path id="STIXNonUnicode-Regular-e18c" d="M 3738 0 
L 3181 0 
L 3181 3763 
L 1030 3763 
L 1030 0 
L 474 0 
L 474 4237 
L 3738 4237 
L 3738 0 
z
" transform="scale(0.015625)"/>
     </defs>
     <use xlink:href="#FiraSans-Regular-62" transform="translate(0 0.446875)"/>
     <use xlink:href="#STIXGeneral-Regular-1d7e5" transform="translate(60.192689 36.684375) scale(0.7)"/>
     <use xlink:href="#STIXNonUnicode-Regular-e18c" transform="translate(97.457522 0.446875)"/>
     <use xlink:href="#STIXGeneral-Regular-1d7e2" transform="translate(164.050205 -13.142187) scale(0.7)"/>
    </g>
   </g>
   <g id="text_17">
    <!-- A -->
    <g transform="translate(156.133885 107.729792) scale(0.25 -0.25)">
     <defs>
      <path id="FiraSans-Bold-41" d="M 2752 0 
L 2522 954 
L 1229 954 
L 1005 0 
L -83 0 
L 1254 4435 
L 2528 4435 
L 3866 0 
L 2752 0 
z
M 1408 1715 
L 2342 1715 
L 1875 3674 
L 1408 1715 
z
" transform="scale(0.015625)"/>
     </defs>
     <use xlink:href="#FiraSans-Bold-41"/>
    </g>
   </g>
   <g id="legend_1">
    <g id="line2d_15">
     <path d="M 231.411183 55.21625 
L 251.411183 55.21625 
L 271.411183 55.21625 
" style="fill: none; stroke: #8b4513; stroke-width: 2; stroke-linecap: square"/>
    </g>
    <g id="text_18">
     <!-- X$^1\Sigma^+$ -->
     <g transform="translate(287.411183 62.21625) scale(0.2 -0.2)">
      <use xlink:href="#FiraSans-Regular-58" transform="translate(0 0.370312)"/>
      <use xlink:href="#STIXGeneral-Regular-1d7e3" transform="translate(54.79268 36.607813) scale(0.7)"/>
      <use xlink:href="#STIXNonUnicode-Regular-e18f" transform="translate(92.057513 0.370312)"/>
      <use xlink:href="#STIXGeneral-Regular-2b" transform="translate(165.834201 36.607813) scale(0.7)"/>
     </g>
    </g>
    <g id="line2d_16">
     <path d="M 231.411183 84.475625 
L 251.411183 84.475625 
L 271.411183 84.475625 
" style="fill: none; stroke: #00008b; stroke-width: 2; stroke-linecap: square"/>
    </g>
    <g id="text_19">
     <!-- A$^1\Sigma^+$ -->
     <g transform="translate(287.411183 91.475625) scale(0.2 -0.2)">
      <use xlink:href="#FiraSans-Regular-41" transform="translate(0 0.370312)"/>
      <use xlink:href="#STIXGeneral-Regular-1d7e3" transform="translate(58.092683 36.607813) scale(0.7)"/>
      <use xlink:href="#STIXNonUnicode-Regular-e18f" transform="translate(95.357516 0.370312)"/>
      <use xlink:href="#STIXGeneral-Regular-2b" transform="translate(169.134204 36.607813) scale(0.7)"/>
     </g>
    </g>
    <g id="line2d_17">
     <path d="M 231.411183 114.275625 
L 251.411183 114.275625 
L 271.411183 114.275625 
" style="fill: none; stroke: #006400; stroke-width: 2; stroke-linecap: square"/>
    </g>
    <g id="text_20">
     <!-- b$^3\Pi_0$ -->
     <g transform="translate(287.411183 121.275625) scale(0.2 -0.2)">
      <use xlink:href="#FiraSans-Regular-62" transform="translate(0 0.446875)"/>
      <use xlink:href="#STIXGeneral-Regular-1d7e5" transform="translate(60.192689 36.684375) scale(0.7)"/>
      <use xlink:href="#STIXNonUnicode-Regular-e18c" transform="translate(97.457522 0.446875)"/>
      <use xlink:href="#STIXGeneral-Regular-1d7e2" transform="translate(164.050205 -13.142187) scale(0.7)"/>
     </g>
    </g>
   </g>
  </g>
  <g id="axes_2">
   <g id="patch_5">
    <path d="M 526.32796 244.32125 
L 836.482727 244.32125 
L 836.482727 29.21625 
L 526.32796 29.21625 
z
" style="fill: #ffffff"/>
   </g>
   <g id="matplotlib.axis_3">
    <g id="xtick_4">
     <g id="line2d_18">
      <defs>
       <path id="m7426f08104" d="M 0 0 
L 0 5 
" style="stroke: #000000"/>
      </defs>
      <g>
       <use xlink:href="#m7426f08104" x="537.815173" y="244.32125" style="stroke: #000000"/>
      </g>
     </g>
    </g>
    <g id="xtick_5">
     <g id="line2d_19">
      <g>
       <use xlink:href="#m7426f08104" x="595.251241" y="244.32125" style="stroke: #000000"/>
      </g>
     </g>
    </g>
    <g id="xtick_6">
     <g id="line2d_20">
      <g>
       <use xlink:href="#m7426f08104" x="710.123378" y="244.32125" style="stroke: #000000"/>
      </g>
     </g>
    </g>
    <g id="xtick_7">
     <g id="line2d_21">
      <g>
       <use xlink:href="#m7426f08104" x="824.995514" y="244.32125" style="stroke: #000000"/>
      </g>
     </g>
    </g>
   </g>
   <g id="matplotlib.axis_4">
    <g id="ytick_9">
     <g id="line2d_22">
      <defs>
       <path id="me4bcea916d" d="M 0 0 
L -5 0 
" style="stroke: #000000"/>
      </defs>
      <g>
       <use xlink:href="#me4bcea916d" x="526.32796" y="244.32125" style="stroke: #000000"/>
      </g>
     </g>
     <g id="text_21">
      <!-- 7.8 -->
      <g transform="translate(493.12796 251.82125) scale(0.2 -0.2)">
       <defs>
        <path id="FiraSans-Regular-37" d="M 2650 4282 
L 2650 3840 
L 1050 -64 
L 512 115 
L 2054 3802 
L 160 3802 
L 160 4282 
L 2650 4282 
z
" transform="scale(0.015625)"/>
        <path id="FiraSans-Regular-2e" d="M 762 813 
Q 954 813 1082 685 
Q 1210 557 1210 371 
Q 1210 186 1082 54 
Q 954 -77 762 -77 
Q 576 -77 448 54 
Q 320 186 320 371 
Q 320 557 448 685 
Q 576 813 762 813 
z
" transform="scale(0.015625)"/>
        <path id="FiraSans-Regular-38" d="M 2336 2298 
Q 3238 1933 3238 1146 
Q 3238 794 3049 515 
Q 2861 237 2521 80 
Q 2182 -77 1754 -77 
Q 1318 -77 985 76 
Q 653 230 470 505 
Q 288 781 288 1133 
Q 288 1530 502 1798 
Q 717 2067 1133 2246 
Q 794 2419 630 2665 
Q 467 2912 467 3245 
Q 467 3590 649 3840 
Q 832 4090 1129 4218 
Q 1427 4346 1766 4346 
Q 2099 4346 2396 4224 
Q 2694 4102 2880 3856 
Q 3066 3610 3066 3264 
Q 3066 2944 2886 2713 
Q 2707 2483 2336 2298 
z
M 1766 3904 
Q 1434 3904 1238 3731 
Q 1043 3558 1043 3238 
Q 1043 2931 1232 2771 
Q 1421 2611 1837 2477 
L 1946 2438 
Q 2234 2605 2362 2790 
Q 2490 2976 2490 3245 
Q 2490 3546 2301 3725 
Q 2112 3904 1766 3904 
z
M 1760 390 
Q 2157 390 2390 595 
Q 2624 800 2624 1139 
Q 2624 1370 2534 1526 
Q 2445 1683 2246 1801 
Q 2048 1920 1690 2042 
L 1530 2099 
Q 1210 1946 1056 1712 
Q 902 1478 902 1133 
Q 902 781 1132 585 
Q 1363 390 1760 390 
z
" transform="scale(0.015625)"/>
       </defs>
       <use xlink:href="#FiraSans-Regular-37"/>
       <use xlink:href="#FiraSans-Regular-2e" transform="translate(44.399994 0)"/>
       <use xlink:href="#FiraSans-Regular-38" transform="translate(68.399979 0)"/>
      </g>
     </g>
    </g>
    <g id="ytick_10">
     <g id="line2d_23">
      <g>
       <use xlink:href="#me4bcea916d" x="526.32796" y="29.21625" style="stroke: #000000"/>
      </g>
     </g>
     <g id="text_22">
      <!-- 11.0 -->
      <g transform="translate(484.549835 36.71625) scale(0.2 -0.2)">
       <use xlink:href="#FiraSans-Regular-31"/>
       <use xlink:href="#FiraSans-Regular-31" transform="translate(43.299988 0)"/>
       <use xlink:href="#FiraSans-Regular-2e" transform="translate(86.599976 0)"/>
       <use xlink:href="#FiraSans-Regular-30" transform="translate(110.59996 0)"/>
      </g>
     </g>
    </g>
    <g id="text_23">
     <!-- $\mu_{X \rightarrow A}$  -->
     <g transform="translate(468.512483 77.843625) scale(0.2 -0.2)">
      <defs>
       <path id="STIXNonUnicode-Italic-e1e3" d="M 3430 2899 
L 2912 819 
Q 2880 704 2880 621 
Q 2880 390 3181 390 
L 3155 301 
L 2918 -64 
Q 2522 -64 2400 134 
Q 2342 224 2342 410 
L 1382 -64 
Q 1024 -64 902 96 
L 678 -806 
Q 595 -1146 435 -1376 
L -58 -1376 
Q 128 -1088 198 -813 
L 1120 2899 
L 1626 2899 
L 1146 954 
Q 1114 813 1114 730 
Q 1114 390 1530 390 
Q 1709 390 2006 579 
Q 2304 768 2464 1030 
L 2925 2899 
L 3430 2899 
z
" transform="scale(0.015625)"/>
       <path id="STIXGeneral-Italic-1d61f" d="M 5158 4237 
L 3130 2234 
L 4282 0 
L 3610 0 
L 2682 1811 
L 870 0 
L 198 0 
L 2451 2234 
L 1414 4237 
L 2093 4237 
L 2893 2650 
L 4474 4237 
L 5158 4237 
z
" transform="scale(0.015625)"/>
       <path id="STIXGeneral-Regular-2192" d="M 5478 1651 
L 5478 1587 
Q 4742 1274 3955 365 
L 3827 486 
Q 4006 742 4352 1101 
Q 4442 1190 4442 1280 
Q 4442 1408 4275 1408 
L 448 1408 
L 448 1830 
L 4282 1830 
Q 4333 1830 4390 1878 
Q 4448 1926 4448 1971 
Q 4448 2042 4358 2131 
Q 4032 2445 3834 2746 
L 3962 2867 
Q 4755 1952 5478 1651 
z
" transform="scale(0.015625)"/>
       <path id="STIXGeneral-Italic-1d608" d="M 4064 0 
L 3450 0 
L 3238 1280 
L 1645 1280 
L 813 0 
L 198 0 
L 3123 4314 
L 3290 4314 
L 4064 0 
z
M 3168 1754 
L 2931 3219 
L 1965 1754 
L 3168 1754 
z
" transform="scale(0.015625)"/>
      </defs>
      <use xlink:href="#STIXNonUnicode-Italic-e1e3" transform="translate(0 0.703125)"/>
      <use xlink:href="#STIXGeneral-Italic-1d61f" transform="translate(56.892686 -12.885937) scale(0.7)"/>
      <use xlink:href="#STIXGeneral-Regular-2192" transform="translate(116.476674 -12.885937) scale(0.7)"/>
      <use xlink:href="#STIXGeneral-Italic-1d608" transform="translate(191.880667 -12.885937) scale(0.7)"/>
      <use xlink:href="#FiraSans-Regular-20" transform="translate(240.765504 0.703125)"/>
     </g>
     <!-- [D] -->
     <g transform="translate(482.431233 100.243625) scale(0.2 -0.2)">
      <defs>
       <path id="FiraSans-Regular-44" d="M 1562 4410 
Q 2560 4410 3165 3946 
Q 3770 3482 3770 2227 
Q 3770 1005 3165 502 
Q 2560 0 1696 0 
L 640 0 
L 640 4410 
L 1562 4410 
z
M 1248 3923 
L 1248 480 
L 1741 480 
Q 2355 480 2739 857 
Q 3123 1235 3123 2227 
Q 3123 2925 2924 3299 
Q 2726 3674 2419 3798 
Q 2112 3923 1696 3923 
L 1248 3923 
z
" transform="scale(0.015625)"/>
      </defs>
      <use xlink:href="#FiraSans-Regular-5b"/>
      <use xlink:href="#FiraSans-Regular-44" transform="translate(32.199997 0)"/>
      <use xlink:href="#FiraSans-Regular-5d" transform="translate(96.599991 0)"/>
     </g>
    </g>
   </g>
   <g id="line2d_24">
    <path d="M 537.815173 182.691112 
L 544.644322 165.753967 
L 547.519571 157.95433 
L 550.395051 149.544946 
L 553.62985 139.342301 
L 557.224199 127.201602 
L 561.896738 110.497866 
L 571.601136 75.486569 
L 574.835936 64.726831 
L 577.351865 57.01492 
L 579.867795 50.043185 
L 582.024404 44.734836 
L 583.821464 40.879566 
L 585.618753 37.575193 
L 587.056263 35.35027 
L 588.494003 33.542646 
L 589.931743 32.166244 
L 591.009932 31.418409 
L 592.088352 30.92176 
L 593.166542 30.684219 
L 594.244962 30.709962 
L 595.323151 31.001869 
L 596.401341 31.561067 
L 597.479761 32.387624 
L 598.557951 33.481021 
L 599.636141 34.841237 
L 601.07388 37.064867 
L 602.51162 39.736452 
L 603.94936 42.836297 
L 605.746419 47.290184 
L 607.543479 52.341949 
L 609.700088 59.101628 
L 612.216018 67.799269 
L 615.091497 78.601732 
L 619.045167 94.408795 
L 628.390245 132.057742 
L 631.625044 144.075727 
L 634.500523 153.983154 
L 637.016453 161.955981 
L 639.532382 169.223104 
L 642.048312 175.761478 
L 644.204921 180.760867 
L 646.361531 185.19172 
L 648.51791 189.065528 
L 650.67452 192.42078 
L 652.47158 194.825489 
L 654.268869 196.889189 
L 656.065929 198.629094 
L 657.862988 200.070099 
L 659.660048 201.24193 
L 661.457338 202.158703 
L 663.613717 202.978903 
L 665.770327 203.544098 
L 667.926936 203.878579 
L 670.802416 204.074499 
L 674.756085 204.072332 
L 685.179353 203.944176 
L 688.773472 204.193335 
L 692.727141 204.704113 
L 696.68081 205.491762 
L 700.994029 206.574919 
L 705.666568 208.018294 
L 711.777536 210.156845 
L 721.840335 213.989244 
L 733.341334 218.40056 
L 743.40643 222.029373 
L 751.672629 224.783879 
L 759.938828 227.296064 
L 768.207324 229.595742 
L 777.192623 231.865396 
L 786.897021 234.077615 
L 796.601419 236.035197 
L 806.664218 237.866926 
L 817.806815 239.65509 
L 824.995514 240.702455 
L 824.995514 240.702455 
" clip-path="url(#p02032fb068)" style="fill: none; stroke: #000000; stroke-width: 2; stroke-linecap: square"/>
   </g>
   <g id="patch_6">
    <path d="M 526.32796 244.32125 
L 526.32796 29.21625 
" style="fill: none; stroke: #000000; stroke-linejoin: miter; stroke-linecap: square"/>
   </g>
   <g id="patch_7">
    <path d="M 537.815173 244.32125 
L 824.995514 244.32125 
" style="fill: none; stroke: #000000; stroke-linejoin: miter; stroke-linecap: square"/>
   </g>
   <g id="text_24">
    <!-- B -->
    <g transform="translate(537.815173 62.826406) scale(0.25 -0.25)">
     <defs>
      <path id="FiraSans-Bold-42" d="M 2778 2349 
Q 3219 2266 3497 2022 
Q 3776 1779 3776 1293 
Q 3776 582 3267 291 
Q 2758 0 1843 0 
L 416 0 
L 416 4435 
L 1670 4435 
Q 2605 4435 3097 4169 
Q 3590 3904 3590 3302 
Q 3590 2912 3356 2672 
Q 3123 2432 2778 2349 
z
M 1466 3693 
L 1466 2662 
L 1856 2662 
Q 2522 2662 2522 3200 
Q 2522 3469 2342 3581 
Q 2163 3693 1773 3693 
L 1466 3693 
z
M 1850 762 
Q 2266 762 2480 886 
Q 2694 1011 2694 1350 
Q 2694 1965 1926 1965 
L 1466 1965 
L 1466 762 
L 1850 762 
z
" transform="scale(0.015625)"/>
     </defs>
     <use xlink:href="#FiraSans-Bold-42"/>
    </g>
   </g>
  </g>
  <g id="axes_3">
   <g id="patch_8">
    <path d="M 526.32796 500.2975 
L 836.482727 500.2975 
L 836.482727 285.1925 
L 526.32796 285.1925 
z
" style="fill: #ffffff"/>
   </g>
   <g id="matplotlib.axis_5">
    <g id="xtick_8">
     <g id="line2d_25">
      <g>
       <use xlink:href="#m7426f08104" x="537.815173" y="500.2975" style="stroke: #000000"/>
      </g>
     </g>
     <g id="text_25">
      <!-- 2.5 -->
      <g transform="translate(525.455798 523.7975) scale(0.2 -0.2)">
       <use xlink:href="#FiraSans-Regular-32"/>
       <use xlink:href="#FiraSans-Regular-2e" transform="translate(49.499985 0)"/>
       <use xlink:href="#FiraSans-Regular-35" transform="translate(73.499969 0)"/>
      </g>
     </g>
    </g>
    <g id="xtick_9">
     <g id="line2d_26">
      <g>
       <use xlink:href="#m7426f08104" x="595.251241" y="500.2975" style="stroke: #000000"/>
      </g>
     </g>
     <g id="text_26">
      <!-- 5.0 -->
      <g transform="translate(582.262179 523.7975) scale(0.2 -0.2)">
       <use xlink:href="#FiraSans-Regular-35"/>
       <use xlink:href="#FiraSans-Regular-2e" transform="translate(50.099991 0)"/>
       <use xlink:href="#FiraSans-Regular-30" transform="translate(74.099976 0)"/>
      </g>
     </g>
    </g>
    <g id="xtick_10">
     <g id="line2d_27">
      <g>
       <use xlink:href="#m7426f08104" x="710.123378" y="500.2975" style="stroke: #000000"/>
      </g>
     </g>
     <g id="text_27">
      <!-- 10.0 -->
      <g transform="translate(692.234315 523.7975) scale(0.2 -0.2)">
       <use xlink:href="#FiraSans-Regular-31"/>
       <use xlink:href="#FiraSans-Regular-30" transform="translate(43.299988 0)"/>
       <use xlink:href="#FiraSans-Regular-2e" transform="translate(99.099976 0)"/>
       <use xlink:href="#FiraSans-Regular-30" transform="translate(123.09996 0)"/>
      </g>
     </g>
    </g>
    <g id="xtick_11">
     <g id="line2d_28">
      <g>
       <use xlink:href="#m7426f08104" x="824.995514" y="500.2975" style="stroke: #000000"/>
      </g>
     </g>
     <g id="text_28">
      <!-- 15.0 -->
      <g transform="translate(807.676764 523.7975) scale(0.2 -0.2)">
       <use xlink:href="#FiraSans-Regular-31"/>
       <use xlink:href="#FiraSans-Regular-35" transform="translate(43.299988 0)"/>
       <use xlink:href="#FiraSans-Regular-2e" transform="translate(93.399979 0)"/>
       <use xlink:href="#FiraSans-Regular-30" transform="translate(117.399963 0)"/>
      </g>
     </g>
    </g>
    <g id="text_29">
     <!-- R (Å) -->
     <g transform="translate(660.494406 549.938125) scale(0.2 -0.2)">
      <use xlink:href="#FiraSans-Regular-52"/>
      <use xlink:href="#FiraSans-Regular-20" transform="translate(60.499985 0)"/>
      <use xlink:href="#FiraSans-Regular-28" transform="translate(86.999969 0)"/>
      <use xlink:href="#FiraSans-Regular-c5" transform="translate(119.399963 0)"/>
      <use xlink:href="#FiraSans-Regular-29" transform="translate(176.699951 0)"/>
     </g>
    </g>
   </g>
   <g id="matplotlib.axis_6">
    <g id="ytick_11">
     <g id="line2d_29">
      <g>
       <use xlink:href="#me4bcea916d" x="526.32796" y="500.2975" style="stroke: #000000"/>
      </g>
     </g>
     <g id="text_30">
      <!-- 40 -->
      <g transform="translate(496.02796 507.7975) scale(0.2 -0.2)">
       <defs>
        <path id="FiraSans-Regular-34" d="M 3213 1523 
L 3213 1056 
L 2656 1056 
L 2656 0 
L 2086 0 
L 2086 1056 
L 256 1056 
L 256 1478 
L 1542 4346 
L 2035 4141 
L 877 1523 
L 2093 1523 
L 2144 2675 
L 2656 2675 
L 2656 1523 
L 3213 1523 
z
" transform="scale(0.015625)"/>
       </defs>
       <use xlink:href="#FiraSans-Regular-34"/>
       <use xlink:href="#FiraSans-Regular-30" transform="translate(53.199997 0)"/>
      </g>
     </g>
    </g>
    <g id="ytick_12">
     <g id="line2d_30">
      <g>
       <use xlink:href="#me4bcea916d" x="526.32796" y="285.1925" style="stroke: #000000"/>
      </g>
     </g>
     <g id="text_31">
      <!-- 80 -->
      <g transform="translate(495.649835 292.6925) scale(0.2 -0.2)">
       <use xlink:href="#FiraSans-Regular-38"/>
       <use xlink:href="#FiraSans-Regular-30" transform="translate(55.099991 0)"/>
      </g>
     </g>
    </g>
    <g id="text_32">
     <!-- SO -->
     <g transform="translate(482.942171 333.9605) scale(0.2 -0.2)">
      <defs>
       <path id="FiraSans-Regular-53" d="M 1728 4486 
Q 2170 4486 2483 4361 
Q 2797 4237 3091 3974 
L 2758 3603 
Q 2509 3802 2269 3894 
Q 2029 3987 1754 3987 
Q 1408 3987 1184 3827 
Q 960 3667 960 3360 
Q 960 3168 1037 3037 
Q 1114 2906 1322 2797 
Q 1530 2688 1926 2566 
Q 2342 2438 2617 2291 
Q 2893 2144 3062 1885 
Q 3232 1626 3232 1229 
Q 3232 845 3043 550 
Q 2854 256 2499 89 
Q 2144 -77 1658 -77 
Q 742 -77 160 493 
L 493 864 
Q 762 646 1037 534 
Q 1312 422 1651 422 
Q 2061 422 2329 624 
Q 2598 826 2598 1210 
Q 2598 1427 2515 1571 
Q 2432 1715 2230 1830 
Q 2029 1946 1645 2061 
Q 966 2266 652 2554 
Q 339 2842 339 3334 
Q 339 3667 515 3929 
Q 691 4192 1008 4339 
Q 1325 4486 1728 4486 
z
" transform="scale(0.015625)"/>
       <path id="FiraSans-Regular-4f" d="M 2214 4486 
Q 2771 4486 3190 4220 
Q 3610 3955 3843 3443 
Q 4077 2931 4077 2202 
Q 4077 1485 3843 973 
Q 3610 461 3190 192 
Q 2771 -77 2214 -77 
Q 1658 -77 1238 185 
Q 819 448 585 960 
Q 352 1472 352 2195 
Q 352 2906 585 3424 
Q 819 3942 1241 4214 
Q 1664 4486 2214 4486 
z
M 2214 3987 
Q 1638 3987 1318 3552 
Q 998 3117 998 2195 
Q 998 1280 1321 851 
Q 1645 422 2214 422 
Q 3430 422 3430 2202 
Q 3430 3987 2214 3987 
z
" transform="scale(0.015625)"/>
      </defs>
      <use xlink:href="#FiraSans-Regular-53"/>
      <use xlink:href="#FiraSans-Regular-4f" transform="translate(54.499985 0)"/>
     </g>
     <!-- [cm${}^{-1}$] -->
     <g transform="translate(466.912483 356.219875) scale(0.2 -0.2)">
      <use xlink:href="#FiraSans-Regular-5b" transform="translate(0 0.370312)"/>
      <use xlink:href="#FiraSans-Regular-63" transform="translate(32.199997 0.370312)"/>
      <use xlink:href="#FiraSans-Regular-6d" transform="translate(79.999985 0.370312)"/>
      <use xlink:href="#STIXGeneral-Regular-2212" transform="translate(166.492662 36.607813) scale(0.7)"/>
      <use xlink:href="#STIXGeneral-Regular-1d7e3" transform="translate(214.442651 36.607813) scale(0.7)"/>
      <use xlink:href="#FiraSans-Regular-5d" transform="translate(251.707484 0.370312)"/>
     </g>
    </g>
   </g>
   <g id="line2d_31">
    <path d="M 537.815173 372.148613 
L 545.722512 404.251897 
L 549.676181 419.32759 
L 552.91098 430.850904 
L 555.78646 440.366398 
L 558.661709 449.127104 
L 561.177868 456.139287 
L 563.693798 462.520253 
L 566.209728 468.261445 
L 568.366337 472.67239 
L 570.522717 476.615269 
L 572.679326 480.097484 
L 574.835936 483.127885 
L 576.632995 485.316249 
L 578.430055 487.206626 
L 580.227345 488.807691 
L 582.024404 490.128156 
L 583.821464 491.177878 
L 585.618753 491.96698 
L 587.415813 492.505599 
L 589.212873 492.804408 
L 591.009932 492.8741 
L 592.807222 492.7254 
L 594.604282 492.369107 
L 596.401341 491.815929 
L 598.557951 490.907095 
L 600.71456 489.748059 
L 602.87094 488.356678 
L 605.387099 486.462271 
L 607.903029 484.301559 
L 610.778278 481.538623 
L 614.013307 478.098728 
L 617.607427 473.922544 
L 621.561096 468.968968 
L 626.233635 462.728708 
L 631.625044 455.146355 
L 639.172832 444.111619 
L 660.019598 413.414397 
L 667.208067 403.334369 
L 673.677665 394.641579 
L 679.787944 386.807026 
L 685.538673 379.79124 
L 691.289631 373.135752 
L 696.68081 367.229671 
L 702.072219 361.646238 
L 707.463628 356.382642 
L 712.855037 351.432951 
L 718.247135 346.788417 
L 723.636936 342.441587 
L 729.029034 338.377582 
L 734.421132 334.586238 
L 739.810932 331.056329 
L 745.563729 327.560614 
L 751.314228 324.331301 
L 757.064727 321.351064 
L 763.173627 318.440467 
L 769.284825 315.774136 
L 775.754424 313.199294 
L 782.224023 310.859768 
L 789.052022 308.624949 
L 796.240721 306.509476 
L 803.790117 304.525479 
L 811.697915 302.6822 
L 819.964114 300.984888 
L 824.995514 300.05538 
L 824.995514 300.05538 
" clip-path="url(#p56ccb38627)" style="fill: none; stroke: #000000; stroke-width: 2; stroke-linecap: square"/>
   </g>
   <g id="patch_9">
    <path d="M 526.32796 500.2975 
L 526.32796 285.1925 
" style="fill: none; stroke: #000000; stroke-linejoin: miter; stroke-linecap: square"/>
   </g>
   <g id="patch_10">
    <path d="M 537.815173 500.2975 
L 824.995514 500.2975 
" style="fill: none; stroke: #000000; stroke-linejoin: miter; stroke-linecap: square"/>
   </g>
   <g id="text_33">
    <!-- C -->
    <g transform="translate(549.302387 338.96875) scale(0.25 -0.25)">
     <defs>
      <path id="FiraSans-Bold-43" d="M 2227 4544 
Q 2643 4544 2966 4422 
Q 3290 4301 3578 4058 
L 3078 3462 
Q 2880 3616 2688 3693 
Q 2496 3770 2278 3770 
Q 1830 3770 1571 3392 
Q 1312 3014 1312 2227 
Q 1312 1453 1571 1078 
Q 1830 704 2291 704 
Q 2534 704 2732 797 
Q 2931 890 3162 1062 
L 3629 461 
Q 3379 211 3024 51 
Q 2669 -109 2240 -109 
Q 1626 -109 1171 160 
Q 717 429 464 957 
Q 211 1485 211 2227 
Q 211 2950 470 3475 
Q 730 4000 1187 4272 
Q 1645 4544 2227 4544 
z
" transform="scale(0.015625)"/>
     </defs>
     <use xlink:href="#FiraSans-Bold-43"/>
    </g>
   </g>
  </g>
 </g>
 <defs>
  <clipPath id="p7d493b74e8">
   <rect x="127.333799" y="29.21625" width="310.154767" height="471.08125"/>
  </clipPath>
  <clipPath id="p02032fb068">
   <rect x="526.32796" y="29.21625" width="310.154767" height="215.105"/>
  </clipPath>
  <clipPath id="p56ccb38627">
   <rect x="526.32796" y="285.1925" width="310.154767" height="215.105"/>
  </clipPath>
 </defs>
</svg>
