<?xml version="1.0" encoding="utf-8" standalone="no"?>
<!DOCTYPE svg PUBLIC "-//W3C//DTD SVG 1.1//EN"
  "http://www.w3.org/Graphics/SVG/1.1/DTD/svg11.dtd">
<svg xmlns:xlink="http://www.w3.org/1999/xlink" width="720pt" height="360pt" viewBox="0 0 720 360" xmlns="http://www.w3.org/2000/svg" version="1.1">
 <metadata>
  <rdf:RDF xmlns:dc="http://purl.org/dc/elements/1.1/" xmlns:cc="http://creativecommons.org/ns#" xmlns:rdf="http://www.w3.org/1999/02/22-rdf-syntax-ns#">
   <cc:Work>
    <dc:type rdf:resource="http://purl.org/dc/dcmitype/StillImage"/>
    <dc:date>2025-05-14T16:21:14.226286</dc:date>
    <dc:format>image/svg+xml</dc:format>
    <dc:creator>
     <cc:Agent>
      <dc:title>Matplotlib v3.10.0, https://matplotlib.org/</dc:title>
     </cc:Agent>
    </dc:creator>
   </cc:Work>
  </rdf:RDF>
 </metadata>
 <defs>
  <style type="text/css">*{stroke-linejoin: round; stroke-linecap: butt}</style>
 </defs>
 <g id="figure_1">
  <g id="patch_1">
   <path d="M 0 360 
L 720 360 
L 720 0 
L 0 0 
z
" style="fill: #ffffff"/>
  </g>
  <g id="axes_1">
   <g id="patch_2">
    <path d="M 180.065803 285.09675 
L 672.165 285.09675 
L 672.165 21.6 
L 180.065803 21.6 
z
" style="fill: #ffffff"/>
   </g>
   <g id="matplotlib.axis_1">
    <g id="xtick_1">
     <g id="line2d_1">
      <defs>
       <path id="m6513b39405" d="M 0 0 
L 0 -10 
" style="stroke: #000000; stroke-width: 2"/>
      </defs>
      <g>
       <use xlink:href="#m6513b39405" x="180.065803" y="285.09675" style="stroke: #000000; stroke-width: 2"/>
      </g>
     </g>
     <g id="text_1">
      <!-- 11000 -->
      <g transform="translate(154.667365 308.09675) scale(0.2 -0.2)">
       <defs>
        <path id="FiraSans-Regular-31" d="M 2067 4282 
L 2067 0 
L 1478 0 
L 1478 3654 
L 480 3046 
L 224 3462 
L 1549 4282 
L 2067 4282 
z
" transform="scale(0.015625)"/>
        <path id="FiraSans-Regular-30" d="M 1786 4346 
Q 2496 4346 2857 3779 
Q 3219 3213 3219 2138 
Q 3219 1062 2857 492 
Q 2496 -77 1786 -77 
Q 1075 -77 713 492 
Q 352 1062 352 2138 
Q 352 3213 713 3779 
Q 1075 4346 1786 4346 
z
M 1786 3878 
Q 1370 3878 1168 3468 
Q 966 3059 966 2138 
Q 966 1216 1168 803 
Q 1370 390 1786 390 
Q 2195 390 2400 803 
Q 2605 1216 2605 2138 
Q 2605 3053 2400 3465 
Q 2195 3878 1786 3878 
z
" transform="scale(0.015625)"/>
       </defs>
       <use xlink:href="#FiraSans-Regular-31"/>
       <use xlink:href="#FiraSans-Regular-31" transform="translate(43.299988 0)"/>
       <use xlink:href="#FiraSans-Regular-30" transform="translate(86.599976 0)"/>
       <use xlink:href="#FiraSans-Regular-30" transform="translate(142.399963 0)"/>
       <use xlink:href="#FiraSans-Regular-30" transform="translate(198.199951 0)"/>
      </g>
     </g>
    </g>
    <g id="xtick_2">
     <g id="line2d_2">
      <g>
       <use xlink:href="#m6513b39405" x="344.098868" y="285.09675" style="stroke: #000000; stroke-width: 2"/>
      </g>
     </g>
     <g id="text_2">
      <!-- 12000 -->
      <g transform="translate(318.080118 308.09675) scale(0.2 -0.2)">
       <defs>
        <path id="FiraSans-Regular-32" d="M 1459 4346 
Q 1843 4346 2134 4192 
Q 2426 4038 2586 3772 
Q 2746 3507 2746 3174 
Q 2746 2784 2570 2425 
Q 2394 2067 2029 1651 
Q 1664 1235 922 493 
L 2848 493 
L 2778 0 
L 250 0 
L 250 467 
Q 1107 1357 1465 1769 
Q 1824 2182 1977 2489 
Q 2131 2797 2131 3149 
Q 2131 3482 1939 3670 
Q 1747 3859 1427 3859 
Q 1165 3859 966 3750 
Q 768 3642 544 3392 
L 160 3699 
Q 422 4026 742 4186 
Q 1062 4346 1459 4346 
z
" transform="scale(0.015625)"/>
       </defs>
       <use xlink:href="#FiraSans-Regular-31"/>
       <use xlink:href="#FiraSans-Regular-32" transform="translate(43.299988 0)"/>
       <use xlink:href="#FiraSans-Regular-30" transform="translate(92.799973 0)"/>
       <use xlink:href="#FiraSans-Regular-30" transform="translate(148.59996 0)"/>
       <use xlink:href="#FiraSans-Regular-30" transform="translate(204.399948 0)"/>
      </g>
     </g>
    </g>
    <g id="xtick_3">
     <g id="line2d_3">
      <g>
       <use xlink:href="#m6513b39405" x="508.131934" y="285.09675" style="stroke: #000000; stroke-width: 2"/>
      </g>
     </g>
     <g id="text_3">
      <!-- 13000 -->
      <g transform="translate(482.072559 308.09675) scale(0.2 -0.2)">
       <defs>
        <path id="FiraSans-Regular-33" d="M 1440 4346 
Q 1837 4346 2121 4198 
Q 2406 4051 2556 3801 
Q 2707 3552 2707 3258 
Q 2707 2867 2480 2614 
Q 2253 2362 1875 2272 
Q 2304 2234 2573 1965 
Q 2842 1696 2842 1235 
Q 2842 864 2662 563 
Q 2483 262 2150 92 
Q 1818 -77 1382 -77 
Q 992 -77 665 67 
Q 339 211 96 499 
L 448 826 
Q 659 608 880 505 
Q 1101 403 1363 403 
Q 1766 403 1996 630 
Q 2227 858 2227 1242 
Q 2227 1664 2009 1837 
Q 1792 2010 1376 2010 
L 1056 2010 
L 1126 2464 
L 1344 2464 
Q 1677 2464 1897 2662 
Q 2118 2861 2118 3219 
Q 2118 3520 1926 3696 
Q 1734 3872 1408 3872 
Q 1158 3872 950 3782 
Q 742 3693 525 3488 
L 218 3840 
Q 762 4346 1440 4346 
z
" transform="scale(0.015625)"/>
       </defs>
       <use xlink:href="#FiraSans-Regular-31"/>
       <use xlink:href="#FiraSans-Regular-33" transform="translate(43.299988 0)"/>
       <use xlink:href="#FiraSans-Regular-30" transform="translate(93.199982 0)"/>
       <use xlink:href="#FiraSans-Regular-30" transform="translate(148.999969 0)"/>
       <use xlink:href="#FiraSans-Regular-30" transform="translate(204.799957 0)"/>
      </g>
     </g>
    </g>
    <g id="xtick_4">
     <g id="line2d_4">
      <g>
       <use xlink:href="#m6513b39405" x="672.165" y="285.09675" style="stroke: #000000; stroke-width: 2"/>
      </g>
     </g>
     <g id="text_4">
      <!-- 14000 -->
      <g transform="translate(645.775938 308.09675) scale(0.2 -0.2)">
       <defs>
        <path id="FiraSans-Regular-34" d="M 3213 1523 
L 3213 1056 
L 2656 1056 
L 2656 0 
L 2086 0 
L 2086 1056 
L 256 1056 
L 256 1478 
L 1542 4346 
L 2035 4141 
L 877 1523 
L 2093 1523 
L 2144 2675 
L 2656 2675 
L 2656 1523 
L 3213 1523 
z
" transform="scale(0.015625)"/>
       </defs>
       <use xlink:href="#FiraSans-Regular-31"/>
       <use xlink:href="#FiraSans-Regular-34" transform="translate(43.299988 0)"/>
       <use xlink:href="#FiraSans-Regular-30" transform="translate(96.499985 0)"/>
       <use xlink:href="#FiraSans-Regular-30" transform="translate(152.299973 0)"/>
       <use xlink:href="#FiraSans-Regular-30" transform="translate(208.09996 0)"/>
      </g>
     </g>
    </g>
    <g id="xtick_5">
     <g id="line2d_5">
      <defs>
       <path id="me0f9808cad" d="M 0 0 
L 0 -6 
" style="stroke: #000000"/>
      </defs>
      <g>
       <use xlink:href="#me0f9808cad" x="262.082336" y="285.09675" style="stroke: #000000"/>
      </g>
     </g>
    </g>
    <g id="xtick_6">
     <g id="line2d_6">
      <g>
       <use xlink:href="#me0f9808cad" x="426.115401" y="285.09675" style="stroke: #000000"/>
      </g>
     </g>
    </g>
    <g id="xtick_7">
     <g id="line2d_7">
      <g>
       <use xlink:href="#me0f9808cad" x="590.148467" y="285.09675" style="stroke: #000000"/>
      </g>
     </g>
    </g>
    <g id="text_5">
     <!-- E/hc [cm$^{-1}$] -->
     <g transform="translate(373.815401 331.356125) scale(0.2 -0.2)">
      <defs>
       <path id="FiraSans-Regular-45" d="M 3027 4410 
L 2957 3923 
L 1248 3923 
L 1248 2483 
L 2733 2483 
L 2733 1997 
L 1248 1997 
L 1248 486 
L 3078 486 
L 3078 0 
L 640 0 
L 640 4410 
L 3027 4410 
z
" transform="scale(0.015625)"/>
       <path id="FiraSans-Regular-2f" d="M 2157 5165 
L 2656 5050 
L 1178 -666 
L 672 -544 
L 2157 5165 
z
" transform="scale(0.015625)"/>
       <path id="FiraSans-Regular-68" d="M 2195 3450 
Q 2656 3450 2915 3174 
Q 3174 2899 3174 2419 
L 3174 0 
L 2586 0 
L 2586 2336 
Q 2586 2694 2448 2841 
Q 2310 2989 2048 2989 
Q 1786 2989 1581 2835 
Q 1376 2682 1197 2400 
L 1197 0 
L 608 0 
L 608 4723 
L 1197 4787 
L 1197 2906 
Q 1594 3450 2195 3450 
z
" transform="scale(0.015625)"/>
       <path id="FiraSans-Regular-63" d="M 1837 3450 
Q 2138 3450 2387 3363 
Q 2637 3277 2867 3085 
L 2586 2714 
Q 2406 2842 2236 2902 
Q 2067 2963 1862 2963 
Q 1453 2963 1225 2636 
Q 998 2310 998 1670 
Q 998 1030 1222 726 
Q 1446 422 1862 422 
Q 2061 422 2227 483 
Q 2394 544 2598 678 
L 2867 294 
Q 2406 -77 1837 -77 
Q 1152 -77 758 384 
Q 365 845 365 1658 
Q 365 2195 544 2598 
Q 723 3002 1052 3226 
Q 1382 3450 1837 3450 
z
" transform="scale(0.015625)"/>
       <path id="FiraSans-Regular-20" transform="scale(0.015625)"/>
       <path id="FiraSans-Regular-5b" d="M 1741 5222 
L 1741 4730 
L 973 4730 
L 973 -256 
L 1741 -256 
L 1741 -742 
L 416 -742 
L 416 5222 
L 1741 5222 
z
" transform="scale(0.015625)"/>
       <path id="FiraSans-Regular-6d" d="M 3994 3450 
Q 4410 3450 4659 3171 
Q 4909 2893 4909 2419 
L 4909 0 
L 4320 0 
L 4320 2336 
Q 4320 2989 3846 2989 
Q 3597 2989 3424 2845 
Q 3251 2701 3053 2394 
L 3053 0 
L 2464 0 
L 2464 2336 
Q 2464 2989 1990 2989 
Q 1734 2989 1561 2841 
Q 1389 2694 1197 2394 
L 1197 0 
L 608 0 
L 608 3373 
L 1114 3373 
L 1165 2880 
Q 1542 3450 2138 3450 
Q 2451 3450 2672 3290 
Q 2893 3130 2989 2842 
Q 3187 3136 3427 3293 
Q 3667 3450 3994 3450 
z
" transform="scale(0.015625)"/>
       <path id="STIXGeneral-Regular-2212" d="M 3974 1408 
L 410 1408 
L 410 1830 
L 3974 1830 
L 3974 1408 
z
" transform="scale(0.015625)"/>
       <path id="STIXGeneral-Regular-1d7e3" d="M 1933 0 
L 1427 0 
L 1427 3648 
Q 1286 3584 1008 3440 
Q 730 3296 691 3277 
L 691 3744 
L 1843 4333 
L 1933 4301 
L 1933 0 
z
" transform="scale(0.015625)"/>
       <path id="FiraSans-Regular-5d" d="M 1645 5222 
L 1645 -742 
L 320 -742 
L 320 -256 
L 1088 -256 
L 1088 4730 
L 320 4730 
L 320 5222 
L 1645 5222 
z
" transform="scale(0.015625)"/>
      </defs>
      <use xlink:href="#FiraSans-Regular-45" transform="translate(0 0.370312)"/>
      <use xlink:href="#FiraSans-Regular-2f" transform="translate(53.499985 0.370312)"/>
      <use xlink:href="#FiraSans-Regular-68" transform="translate(105.499969 0.370312)"/>
      <use xlink:href="#FiraSans-Regular-63" transform="translate(164.09996 0.370312)"/>
      <use xlink:href="#FiraSans-Regular-20" transform="translate(211.899948 0.370312)"/>
      <use xlink:href="#FiraSans-Regular-5b" transform="translate(238.399933 0.370312)"/>
      <use xlink:href="#FiraSans-Regular-63" transform="translate(270.59993 0.370312)"/>
      <use xlink:href="#FiraSans-Regular-6d" transform="translate(318.399918 0.370312)"/>
      <use xlink:href="#STIXGeneral-Regular-2212" transform="translate(404.892595 36.607813) scale(0.7)"/>
      <use xlink:href="#STIXGeneral-Regular-1d7e3" transform="translate(452.842584 36.607813) scale(0.7)"/>
      <use xlink:href="#FiraSans-Regular-5d" transform="translate(490.107417 0.370312)"/>
     </g>
    </g>
   </g>
   <g id="matplotlib.axis_2">
    <g id="ytick_1">
     <g id="line2d_8">
      <defs>
       <path id="m00794d22bc" d="M 0 0 
L 10 0 
" style="stroke: #000000; stroke-width: 2"/>
      </defs>
      <g>
       <use xlink:href="#m00794d22bc" x="180.065803" y="273.119625" style="stroke: #000000; stroke-width: 2"/>
      </g>
     </g>
     <g id="text_6">
      <!-- 0.00 -->
      <g transform="translate(133.787678 280.619625) scale(0.2 -0.2)">
       <defs>
        <path id="FiraSans-Regular-2e" d="M 762 813 
Q 954 813 1082 685 
Q 1210 557 1210 371 
Q 1210 186 1082 54 
Q 954 -77 762 -77 
Q 576 -77 448 54 
Q 320 186 320 371 
Q 320 557 448 685 
Q 576 813 762 813 
z
" transform="scale(0.015625)"/>
       </defs>
       <use xlink:href="#FiraSans-Regular-30"/>
       <use xlink:href="#FiraSans-Regular-2e" transform="translate(55.799988 0)"/>
       <use xlink:href="#FiraSans-Regular-30" transform="translate(79.799973 0)"/>
       <use xlink:href="#FiraSans-Regular-30" transform="translate(135.59996 0)"/>
      </g>
     </g>
    </g>
    <g id="ytick_2">
     <g id="line2d_9">
      <g>
       <use xlink:href="#m00794d22bc" x="180.065803" y="212.579401" style="stroke: #000000; stroke-width: 2"/>
      </g>
     </g>
     <g id="text_7">
      <!-- 0.05 -->
      <g transform="translate(134.928303 220.079401) scale(0.2 -0.2)">
       <defs>
        <path id="FiraSans-Regular-35" d="M 2688 3821 
L 1018 3821 
L 1018 2560 
Q 1344 2726 1702 2726 
Q 2253 2726 2585 2364 
Q 2918 2003 2918 1370 
Q 2918 947 2732 617 
Q 2547 288 2211 105 
Q 1875 -77 1434 -77 
Q 1043 -77 736 60 
Q 429 198 166 467 
L 512 806 
Q 717 602 934 502 
Q 1152 403 1427 403 
Q 1837 403 2070 659 
Q 2304 915 2304 1382 
Q 2304 1850 2093 2061 
Q 1882 2272 1523 2272 
Q 1357 2272 1216 2237 
Q 1075 2202 915 2125 
L 454 2125 
L 454 4282 
L 2771 4282 
L 2688 3821 
z
" transform="scale(0.015625)"/>
       </defs>
       <use xlink:href="#FiraSans-Regular-30"/>
       <use xlink:href="#FiraSans-Regular-2e" transform="translate(55.799988 0)"/>
       <use xlink:href="#FiraSans-Regular-30" transform="translate(79.799973 0)"/>
       <use xlink:href="#FiraSans-Regular-35" transform="translate(135.59996 0)"/>
      </g>
     </g>
    </g>
    <g id="ytick_3">
     <g id="line2d_10">
      <g>
       <use xlink:href="#m00794d22bc" x="180.065803" y="152.039177" style="stroke: #000000; stroke-width: 2"/>
      </g>
     </g>
     <g id="text_8">
      <!-- 0.10 -->
      <g transform="translate(136.287678 159.539177) scale(0.2 -0.2)">
       <use xlink:href="#FiraSans-Regular-30"/>
       <use xlink:href="#FiraSans-Regular-2e" transform="translate(55.799988 0)"/>
       <use xlink:href="#FiraSans-Regular-31" transform="translate(79.799973 0)"/>
       <use xlink:href="#FiraSans-Regular-30" transform="translate(123.09996 0)"/>
      </g>
     </g>
    </g>
    <g id="ytick_4">
     <g id="line2d_11">
      <g>
       <use xlink:href="#m00794d22bc" x="180.065803" y="91.498952" style="stroke: #000000; stroke-width: 2"/>
      </g>
     </g>
     <g id="text_9">
      <!-- 0.15 -->
      <g transform="translate(137.428303 98.998952) scale(0.2 -0.2)">
       <use xlink:href="#FiraSans-Regular-30"/>
       <use xlink:href="#FiraSans-Regular-2e" transform="translate(55.799988 0)"/>
       <use xlink:href="#FiraSans-Regular-31" transform="translate(79.799973 0)"/>
       <use xlink:href="#FiraSans-Regular-35" transform="translate(123.09996 0)"/>
      </g>
     </g>
    </g>
    <g id="ytick_5">
     <g id="line2d_12">
      <g>
       <use xlink:href="#m00794d22bc" x="180.065803" y="30.958728" style="stroke: #000000; stroke-width: 2"/>
      </g>
     </g>
     <g id="text_10">
      <!-- 0.20 -->
      <g transform="translate(135.047053 38.458728) scale(0.2 -0.2)">
       <use xlink:href="#FiraSans-Regular-30"/>
       <use xlink:href="#FiraSans-Regular-2e" transform="translate(55.799988 0)"/>
       <use xlink:href="#FiraSans-Regular-32" transform="translate(79.799973 0)"/>
       <use xlink:href="#FiraSans-Regular-30" transform="translate(129.299957 0)"/>
      </g>
     </g>
    </g>
    <g id="text_11">
     <!-- $\Gamma/2\pi$ [MHz] -->
     <g transform="translate(34.745963 70.039975) scale(0.2 -0.2)">
      <defs>
       <path id="STIXNonUnicode-Regular-e17f" d="M 3347 3763 
L 1030 3763 
L 1030 0 
L 474 0 
L 474 4237 
L 3290 4237 
L 3347 3763 
z
" transform="scale(0.015625)"/>
       <path id="STIXGeneral-Regular-2f" d="M 1837 4326 
L 378 -90 
L -58 -90 
L 1408 4326 
L 1837 4326 
z
" transform="scale(0.015625)"/>
       <path id="STIXGeneral-Regular-1d7e4" d="M 3002 454 
L 2816 0 
L 224 0 
L 224 134 
L 1344 1504 
L 1344 1498 
L 1702 1933 
Q 1952 2234 2054 2365 
Q 2157 2496 2253 2685 
Q 2349 2874 2349 3040 
Q 2349 3437 2134 3654 
Q 1920 3872 1549 3872 
Q 1254 3872 1008 3629 
Q 762 3386 698 2938 
L 237 3046 
Q 339 3616 716 3971 
Q 1094 4326 1594 4326 
Q 2150 4326 2502 3980 
Q 2854 3635 2854 3142 
Q 2854 2784 2720 2525 
Q 2586 2266 2157 1728 
L 1133 454 
L 3002 454 
z
" transform="scale(0.015625)"/>
       <path id="STIXNonUnicode-Italic-e1e7" d="M 3770 2899 
L 3661 2445 
L 3008 2445 
Q 2925 2234 2637 1126 
Q 2566 832 2566 704 
Q 2566 493 2691 441 
Q 2816 390 3142 390 
L 3110 282 
L 2778 -64 
Q 2426 -58 2224 70 
Q 2022 198 2022 525 
Q 2022 685 2067 864 
Q 2131 1133 2297 1725 
Q 2464 2317 2509 2445 
L 1958 2445 
Q 1811 1869 1670 1449 
Q 1530 1030 1341 668 
Q 1152 307 909 121 
Q 666 -64 378 -64 
L 288 390 
Q 653 410 902 829 
Q 1152 1248 1453 2445 
Q 1120 2419 864 1939 
L 518 2157 
Q 774 2605 1062 2752 
Q 1350 2899 1818 2899 
L 3770 2899 
z
" transform="scale(0.015625)"/>
       <path id="FiraSans-Regular-4d" d="M 4582 0 
L 3994 0 
L 3840 1990 
Q 3744 3162 3731 3789 
L 2778 499 
L 2208 499 
L 1203 3795 
Q 1203 2995 1120 1946 
L 973 0 
L 397 0 
L 762 4410 
L 1581 4410 
L 2509 1203 
L 3392 4410 
L 4218 4410 
L 4582 0 
z
" transform="scale(0.015625)"/>
       <path id="FiraSans-Regular-48" d="M 3104 0 
L 3104 2067 
L 1248 2067 
L 1248 0 
L 640 0 
L 640 4410 
L 1248 4410 
L 1248 2566 
L 3104 2566 
L 3104 4410 
L 3712 4410 
L 3712 0 
L 3104 0 
z
" transform="scale(0.015625)"/>
       <path id="FiraSans-Regular-7a" d="M 2586 3373 
L 2586 2925 
L 826 493 
L 2605 493 
L 2534 0 
L 160 0 
L 160 442 
L 1914 2874 
L 307 2874 
L 307 3373 
L 2586 3373 
z
" transform="scale(0.015625)"/>
      </defs>
      <use xlink:href="#STIXNonUnicode-Regular-e17f" transform="translate(0 0.40625)"/>
      <use xlink:href="#STIXGeneral-Regular-2f" transform="translate(53.499985 0.40625)"/>
      <use xlink:href="#STIXGeneral-Regular-1d7e4" transform="translate(81.299973 0.40625)"/>
      <use xlink:href="#STIXNonUnicode-Italic-e1e7" transform="translate(131.299957 0.40625)"/>
      <use xlink:href="#FiraSans-Regular-20" transform="translate(187.799942 0.40625)"/>
      <use xlink:href="#FiraSans-Regular-5b" transform="translate(214.299927 0.40625)"/>
      <use xlink:href="#FiraSans-Regular-4d" transform="translate(246.499924 0.40625)"/>
      <use xlink:href="#FiraSans-Regular-48" transform="translate(324.299911 0.40625)"/>
      <use xlink:href="#FiraSans-Regular-7a" transform="translate(392.299896 0.40625)"/>
      <use xlink:href="#FiraSans-Regular-5d" transform="translate(435.999893 0.40625)"/>
     </g>
    </g>
   </g>
   <g id="line2d_13">
    <path d="M 229.931491 268.260774 
L 246.82156 272.720544 
L 263.588822 273.063388 
L 280.140713 273.090862 
L 287.512512 273.115164 
L 295.741475 273.061496 
L 298.987082 273.112914 
L 308.538391 272.965922 
L 314.209515 273.117785 
L 321.531232 272.534423 
L 330.634111 273.020032 
L 333.008121 269.1919 
L 342.059727 265.919939 
L 347.394067 273.118365 
L 354.143664 258.749323 
L 363.371864 251.036972 
L 364.540252 258.981419 
L 374.719934 234.919264 
L 380.515748 263.979914 
L 385.652086 186.407489 
L 394.517377 227.322544 
L 397.957584 220.371904 
L 406.902982 116.896889 
L 411.874532 256.709863 
L 417.724368 131.249252 
L 427.941009 50.232953 
L 428.238682 268.943467 
L 438.253004 91.056649 
L 444.435278 249.764219 
L 448.81462 33.577125 
L 458.204565 159.951963 
L 461.136254 171.613033 
L 469.505246 44.835831 
L 475.403165 267.511929 
L 480.442799 90.640423 
L 489.689583 109.256461 
L 491.740572 252.0067 
L 500.769487 128.506314 
L 506.619563 247.02561 
L 510.960544 164.555928 
L 521.035683 194.214849 
L 522.368712 240.886893 
L 531.147474 199.505658 
L 537.744107 269.73747 
L 541.451868 206.314207 
L 550.886561 242.701505 
L 553.590761 257.130874 
L 561.525319 236.643747 
L 567.800892 272.761736 
L 572.081715 248.220132 
L 581.085792 257.666494 
L 583.587831 270.321085 
L 591.871187 260.073271 
L 597.642252 271.993099 
L 602.028131 265.698224 
L 611.537428 266.9078 
L 612.873539 273.064337 
L 621.655367 269.512424 
L 627.520399 272.66959 
L 631.460246 270.817355 
L 641.183338 271.887717 
L 642.382589 272.637938 
L 650.959436 272.166832 
L 656.946095 273.071124 
L 660.794648 272.450536 
L 669.965604 272.892253 
L 671.938867 272.946988 
L 680.06388 272.876302 
L 685.681493 273.118839 
L 690.024072 272.96523 
L 698.597983 273.067174 
L 700.803201 273.084549 
L 709.01457 273.06432 
L 713.927206 273.119331 
L 718.86555 273.08936 
L 721 273.094264 
" clip-path="url(#p47f37b36ea)" style="fill: none; stroke: #808080; stroke-width: 3; stroke-linecap: square"/>
    <defs>
     <path id="m251b632feb" d="M 0 3 
C 0.795609 3 1.55874 2.683901 2.12132 2.12132 
C 2.683901 1.55874 3 0.795609 3 0 
C 3 -0.795609 2.683901 -1.55874 2.12132 -2.12132 
C 1.55874 -2.683901 0.795609 -3 0 -3 
C -0.795609 -3 -1.55874 -2.683901 -2.12132 -2.12132 
C -2.683901 -1.55874 -3 -0.795609 -3 0 
C -3 0.795609 -2.683901 1.55874 -2.12132 2.12132 
C -1.55874 2.683901 -0.795609 3 0 3 
z
" style="stroke: #000000"/>
    </defs>
    <g clip-path="url(#p47f37b36ea)">
     <use xlink:href="#m251b632feb" x="229.931491" y="268.260774" style="stroke: #000000"/>
     <use xlink:href="#m251b632feb" x="246.82156" y="272.720544" style="stroke: #000000"/>
     <use xlink:href="#m251b632feb" x="263.588822" y="273.063388" style="stroke: #000000"/>
     <use xlink:href="#m251b632feb" x="280.140713" y="273.090862" style="stroke: #000000"/>
     <use xlink:href="#m251b632feb" x="287.512512" y="273.115164" style="stroke: #000000"/>
     <use xlink:href="#m251b632feb" x="295.741475" y="273.061496" style="stroke: #000000"/>
     <use xlink:href="#m251b632feb" x="298.987082" y="273.112914" style="stroke: #000000"/>
     <use xlink:href="#m251b632feb" x="308.538391" y="272.965922" style="stroke: #000000"/>
     <use xlink:href="#m251b632feb" x="314.209515" y="273.117785" style="stroke: #000000"/>
     <use xlink:href="#m251b632feb" x="321.531232" y="272.534423" style="stroke: #000000"/>
     <use xlink:href="#m251b632feb" x="330.634111" y="273.020032" style="stroke: #000000"/>
     <use xlink:href="#m251b632feb" x="333.008121" y="269.1919" style="stroke: #000000"/>
     <use xlink:href="#m251b632feb" x="342.059727" y="265.919939" style="stroke: #000000"/>
     <use xlink:href="#m251b632feb" x="347.394067" y="273.118365" style="stroke: #000000"/>
     <use xlink:href="#m251b632feb" x="354.143664" y="258.749323" style="stroke: #000000"/>
     <use xlink:href="#m251b632feb" x="363.371864" y="251.036972" style="stroke: #000000"/>
     <use xlink:href="#m251b632feb" x="364.540252" y="258.981419" style="stroke: #000000"/>
     <use xlink:href="#m251b632feb" x="374.719934" y="234.919264" style="stroke: #000000"/>
     <use xlink:href="#m251b632feb" x="380.515748" y="263.979914" style="stroke: #000000"/>
     <use xlink:href="#m251b632feb" x="385.652086" y="186.407489" style="stroke: #000000"/>
     <use xlink:href="#m251b632feb" x="394.517377" y="227.322544" style="stroke: #000000"/>
     <use xlink:href="#m251b632feb" x="397.957584" y="220.371904" style="stroke: #000000"/>
     <use xlink:href="#m251b632feb" x="406.902982" y="116.896889" style="stroke: #000000"/>
     <use xlink:href="#m251b632feb" x="411.874532" y="256.709863" style="stroke: #000000"/>
     <use xlink:href="#m251b632feb" x="417.724368" y="131.249252" style="stroke: #000000"/>
     <use xlink:href="#m251b632feb" x="427.941009" y="50.232953" style="stroke: #000000"/>
     <use xlink:href="#m251b632feb" x="428.238682" y="268.943467" style="stroke: #000000"/>
     <use xlink:href="#m251b632feb" x="438.253004" y="91.056649" style="stroke: #000000"/>
     <use xlink:href="#m251b632feb" x="444.435278" y="249.764219" style="stroke: #000000"/>
     <use xlink:href="#m251b632feb" x="448.81462" y="33.577125" style="stroke: #000000"/>
     <use xlink:href="#m251b632feb" x="458.204565" y="159.951963" style="stroke: #000000"/>
     <use xlink:href="#m251b632feb" x="461.136254" y="171.613033" style="stroke: #000000"/>
     <use xlink:href="#m251b632feb" x="469.505246" y="44.835831" style="stroke: #000000"/>
     <use xlink:href="#m251b632feb" x="475.403165" y="267.511929" style="stroke: #000000"/>
     <use xlink:href="#m251b632feb" x="480.442799" y="90.640423" style="stroke: #000000"/>
     <use xlink:href="#m251b632feb" x="489.689583" y="109.256461" style="stroke: #000000"/>
     <use xlink:href="#m251b632feb" x="491.740572" y="252.0067" style="stroke: #000000"/>
     <use xlink:href="#m251b632feb" x="500.769487" y="128.506314" style="stroke: #000000"/>
     <use xlink:href="#m251b632feb" x="506.619563" y="247.02561" style="stroke: #000000"/>
     <use xlink:href="#m251b632feb" x="510.960544" y="164.555928" style="stroke: #000000"/>
     <use xlink:href="#m251b632feb" x="521.035683" y="194.214849" style="stroke: #000000"/>
     <use xlink:href="#m251b632feb" x="522.368712" y="240.886893" style="stroke: #000000"/>
     <use xlink:href="#m251b632feb" x="531.147474" y="199.505658" style="stroke: #000000"/>
     <use xlink:href="#m251b632feb" x="537.744107" y="269.73747" style="stroke: #000000"/>
     <use xlink:href="#m251b632feb" x="541.451868" y="206.314207" style="stroke: #000000"/>
     <use xlink:href="#m251b632feb" x="550.886561" y="242.701505" style="stroke: #000000"/>
     <use xlink:href="#m251b632feb" x="553.590761" y="257.130874" style="stroke: #000000"/>
     <use xlink:href="#m251b632feb" x="561.525319" y="236.643747" style="stroke: #000000"/>
     <use xlink:href="#m251b632feb" x="567.800892" y="272.761736" style="stroke: #000000"/>
     <use xlink:href="#m251b632feb" x="572.081715" y="248.220132" style="stroke: #000000"/>
     <use xlink:href="#m251b632feb" x="581.085792" y="257.666494" style="stroke: #000000"/>
     <use xlink:href="#m251b632feb" x="583.587831" y="270.321085" style="stroke: #000000"/>
     <use xlink:href="#m251b632feb" x="591.871187" y="260.073271" style="stroke: #000000"/>
     <use xlink:href="#m251b632feb" x="597.642252" y="271.993099" style="stroke: #000000"/>
     <use xlink:href="#m251b632feb" x="602.028131" y="265.698224" style="stroke: #000000"/>
     <use xlink:href="#m251b632feb" x="611.537428" y="266.9078" style="stroke: #000000"/>
     <use xlink:href="#m251b632feb" x="612.873539" y="273.064337" style="stroke: #000000"/>
     <use xlink:href="#m251b632feb" x="621.655367" y="269.512424" style="stroke: #000000"/>
     <use xlink:href="#m251b632feb" x="627.520399" y="272.66959" style="stroke: #000000"/>
     <use xlink:href="#m251b632feb" x="631.460246" y="270.817355" style="stroke: #000000"/>
     <use xlink:href="#m251b632feb" x="641.183338" y="271.887717" style="stroke: #000000"/>
     <use xlink:href="#m251b632feb" x="642.382589" y="272.637938" style="stroke: #000000"/>
     <use xlink:href="#m251b632feb" x="650.959436" y="272.166832" style="stroke: #000000"/>
     <use xlink:href="#m251b632feb" x="656.946095" y="273.071124" style="stroke: #000000"/>
     <use xlink:href="#m251b632feb" x="660.794648" y="272.450536" style="stroke: #000000"/>
     <use xlink:href="#m251b632feb" x="669.965604" y="272.892253" style="stroke: #000000"/>
     <use xlink:href="#m251b632feb" x="671.938867" y="272.946988" style="stroke: #000000"/>
     <use xlink:href="#m251b632feb" x="680.06388" y="272.876302" style="stroke: #000000"/>
     <use xlink:href="#m251b632feb" x="685.681493" y="273.118839" style="stroke: #000000"/>
     <use xlink:href="#m251b632feb" x="690.024072" y="272.96523" style="stroke: #000000"/>
     <use xlink:href="#m251b632feb" x="698.597983" y="273.067174" style="stroke: #000000"/>
     <use xlink:href="#m251b632feb" x="700.803201" y="273.084549" style="stroke: #000000"/>
     <use xlink:href="#m251b632feb" x="709.01457" y="273.06432" style="stroke: #000000"/>
     <use xlink:href="#m251b632feb" x="713.927206" y="273.119331" style="stroke: #000000"/>
     <use xlink:href="#m251b632feb" x="718.86555" y="273.08936" style="stroke: #000000"/>
     <use xlink:href="#m251b632feb" x="727.153237" y="273.108403" style="stroke: #000000"/>
     <use xlink:href="#m251b632feb" x="729.007541" y="273.112335" style="stroke: #000000"/>
     <use xlink:href="#m251b632feb" x="737.658192" y="273.108704" style="stroke: #000000"/>
     <use xlink:href="#m251b632feb" x="741.856763" y="273.119265" style="stroke: #000000"/>
     <use xlink:href="#m251b632feb" x="747.215263" y="273.114015" style="stroke: #000000"/>
     <use xlink:href="#m251b632feb" x="755.479937" y="273.117952" style="stroke: #000000"/>
     <use xlink:href="#m251b632feb" x="756.751142" y="273.117643" style="stroke: #000000"/>
     <use xlink:href="#m251b632feb" x="765.845286" y="273.117721" style="stroke: #000000"/>
     <use xlink:href="#m251b632feb" x="769.503122" y="273.11948" style="stroke: #000000"/>
     <use xlink:href="#m251b632feb" x="775.135964" y="273.118618" style="stroke: #000000"/>
     <use xlink:href="#m251b632feb" x="783.200373" y="273.119554" style="stroke: #000000"/>
     <use xlink:href="#m251b632feb" x="784.363624" y="273.119057" style="stroke: #000000"/>
     <use xlink:href="#m251b632feb" x="793.543043" y="273.119331" style="stroke: #000000"/>
     <use xlink:href="#m251b632feb" x="796.797447" y="273.11959" style="stroke: #000000"/>
     <use xlink:href="#m251b632feb" x="802.709319" y="273.119459" style="stroke: #000000"/>
     <use xlink:href="#m251b632feb" x="810.134473" y="273.119625" style="stroke: #000000"/>
     <use xlink:href="#m251b632feb" x="811.948951" y="273.119529" style="stroke: #000000"/>
     <use xlink:href="#m251b632feb" x="820.794861" y="273.119584" style="stroke: #000000"/>
     <use xlink:href="#m251b632feb" x="823.651614" y="273.119619" style="stroke: #000000"/>
     <use xlink:href="#m251b632feb" x="829.963858" y="273.1196" style="stroke: #000000"/>
     <use xlink:href="#m251b632feb" x="836.526642" y="273.119625" style="stroke: #000000"/>
     <use xlink:href="#m251b632feb" x="839.204206" y="273.119611" style="stroke: #000000"/>
     <use xlink:href="#m251b632feb" x="847.63476" y="273.119619" style="stroke: #000000"/>
     <use xlink:href="#m251b632feb" x="850.027365" y="273.119624" style="stroke: #000000"/>
     <use xlink:href="#m251b632feb" x="856.874184" y="273.119621" style="stroke: #000000"/>
    </g>
   </g>
   <g id="patch_3">
    <path d="M 180.065803 273.119625 
L 180.065803 30.958728 
" style="fill: none; stroke: #000000; stroke-width: 2; stroke-linejoin: miter; stroke-linecap: square"/>
   </g>
   <g id="patch_4">
    <path d="M 180.065803 285.09675 
L 672.165 285.09675 
" style="fill: none; stroke: #000000; stroke-width: 2; stroke-linejoin: miter; stroke-linecap: square"/>
   </g>
  </g>
 </g>
 <defs>
  <clipPath id="p47f37b36ea">
   <rect x="180.065803" y="21.6" width="492.099197" height="263.49675"/>
  </clipPath>
 </defs>
</svg>
