<?xml version="1.0" encoding="utf-8" standalone="no"?>
<!DOCTYPE svg PUBLIC "-//W3C//DTD SVG 1.1//EN"
  "http://www.w3.org/Graphics/SVG/1.1/DTD/svg11.dtd">
<svg xmlns:xlink="http://www.w3.org/1999/xlink" width="432pt" height="576pt" viewBox="0 0 432 576" xmlns="http://www.w3.org/2000/svg" version="1.1">
 <metadata>
  <rdf:RDF xmlns:dc="http://purl.org/dc/elements/1.1/" xmlns:cc="http://creativecommons.org/ns#" xmlns:rdf="http://www.w3.org/1999/02/22-rdf-syntax-ns#">
   <cc:Work>
    <dc:type rdf:resource="http://purl.org/dc/dcmitype/StillImage"/>
    <dc:date>2025-05-08T15:33:55.300555</dc:date>
    <dc:format>image/svg+xml</dc:format>
    <dc:creator>
     <cc:Agent>
      <dc:title>Matplotlib v3.10.0, https://matplotlib.org/</dc:title>
     </cc:Agent>
    </dc:creator>
   </cc:Work>
  </rdf:RDF>
 </metadata>
 <defs>
  <style type="text/css">*{stroke-linejoin: round; stroke-linecap: butt}</style>
 </defs>
 <g id="figure_1">
  <g id="patch_1">
   <path d="M 0 576 
L 432 576 
L 432 0 
L 0 0 
z
" style="fill: #ffffff"/>
  </g>
  <g id="axes_1">
   <g id="patch_2">
    <path d="M 115.986507 502.6475 
L 394.65 502.6475 
L 394.65 28.085625 
L 115.986507 28.085625 
z
" style="fill: #ffffff"/>
   </g>
   <g id="matplotlib.axis_1">
    <g id="xtick_1">
     <g id="line2d_1">
      <defs>
       <path id="md9dc953b9a" d="M 0 0 
L 0 4 
" style="stroke: #000000; stroke-width: 1.2"/>
      </defs>
      <g>
       <use xlink:href="#md9dc953b9a" x="135.891042" y="502.6475" style="stroke: #000000; stroke-width: 1.2"/>
      </g>
     </g>
     <g id="text_1">
      <!-- 2.0 -->
      <g transform="translate(124.641042 522.440938) scale(0.18 -0.18)">
       <defs>
        <path id="STIXGeneral-Regular-32" d="M 3034 877 
L 2688 0 
L 186 0 
L 186 77 
L 1325 1286 
Q 1773 1754 1965 2144 
Q 2157 2534 2157 2950 
Q 2157 3379 1920 3616 
Q 1683 3853 1267 3853 
Q 922 3853 720 3673 
Q 518 3494 326 3021 
L 192 3053 
Q 301 3648 630 3987 
Q 960 4326 1523 4326 
Q 2054 4326 2380 4006 
Q 2707 3686 2707 3200 
Q 2707 2477 1888 1613 
L 832 486 
L 2330 486 
Q 2541 486 2665 569 
Q 2790 653 2944 915 
L 3034 877 
z
" transform="scale(0.015625)"/>
        <path id="STIXGeneral-Regular-2e" d="M 1158 275 
Q 1158 134 1052 32 
Q 947 -70 800 -70 
Q 653 -70 550 32 
Q 448 134 448 281 
Q 448 429 553 534 
Q 659 640 806 640 
Q 947 640 1052 531 
Q 1158 422 1158 275 
z
" transform="scale(0.015625)"/>
        <path id="STIXGeneral-Regular-30" d="M 3046 2112 
Q 3046 1683 2963 1302 
Q 2880 922 2717 602 
Q 2554 282 2266 96 
Q 1978 -90 1600 -90 
Q 1210 -90 915 108 
Q 621 307 461 640 
Q 301 973 227 1350 
Q 154 1728 154 2150 
Q 154 2746 301 3222 
Q 448 3699 790 4012 
Q 1133 4326 1626 4326 
Q 2253 4326 2649 3712 
Q 3046 3098 3046 2112 
z
M 2432 2080 
Q 2432 3091 2217 3625 
Q 2003 4160 1587 4160 
Q 1190 4160 979 3622 
Q 768 3085 768 2106 
Q 768 1120 979 598 
Q 1190 77 1600 77 
Q 2003 77 2217 598 
Q 2432 1120 2432 2080 
z
" transform="scale(0.015625)"/>
       </defs>
       <use xlink:href="#STIXGeneral-Regular-32"/>
       <use xlink:href="#STIXGeneral-Regular-2e" transform="translate(49.999985 0)"/>
       <use xlink:href="#STIXGeneral-Regular-30" transform="translate(74.999969 0)"/>
      </g>
     </g>
    </g>
    <g id="xtick_2">
     <g id="line2d_2">
      <g>
       <use xlink:href="#md9dc953b9a" x="181.671473" y="502.6475" style="stroke: #000000; stroke-width: 1.2"/>
      </g>
     </g>
     <g id="text_2">
      <!-- 4.3 -->
      <g transform="translate(170.421473 522.440938) scale(0.18 -0.18)">
       <defs>
        <path id="STIXGeneral-Regular-34" d="M 3027 1069 
L 2368 1069 
L 2368 0 
L 1869 0 
L 1869 1069 
L 77 1069 
L 77 1478 
L 2086 4326 
L 2368 4326 
L 2368 1478 
L 3027 1478 
L 3027 1069 
z
M 1869 1478 
L 1869 3674 
L 333 1478 
L 1869 1478 
z
" transform="scale(0.015625)"/>
        <path id="STIXGeneral-Regular-33" d="M 390 3264 
L 288 3290 
Q 435 3770 748 4048 
Q 1062 4326 1542 4326 
Q 1990 4326 2265 4083 
Q 2541 3840 2541 3450 
Q 2541 2925 1946 2566 
Q 2298 2413 2477 2227 
Q 2758 1914 2758 1402 
Q 2758 890 2464 506 
Q 2246 211 1840 60 
Q 1434 -90 979 -90 
Q 262 -90 262 275 
Q 262 378 339 442 
Q 416 506 525 506 
Q 685 506 915 339 
Q 1197 141 1466 141 
Q 1818 141 2058 425 
Q 2298 710 2298 1120 
Q 2298 1856 1632 2048 
Q 1434 2112 979 2112 
L 979 2202 
Q 1338 2323 1517 2432 
Q 2035 2726 2035 3290 
Q 2035 3610 1852 3776 
Q 1670 3942 1344 3942 
Q 768 3942 390 3264 
z
" transform="scale(0.015625)"/>
       </defs>
       <use xlink:href="#STIXGeneral-Regular-34"/>
       <use xlink:href="#STIXGeneral-Regular-2e" transform="translate(49.999985 0)"/>
       <use xlink:href="#STIXGeneral-Regular-33" transform="translate(74.999969 0)"/>
      </g>
     </g>
    </g>
    <g id="xtick_3">
     <g id="line2d_3">
      <g>
       <use xlink:href="#md9dc953b9a" x="295.127324" y="502.6475" style="stroke: #000000; stroke-width: 1.2"/>
      </g>
     </g>
     <g id="text_3">
      <!-- 10.0 -->
      <g transform="translate(279.377324 522.440938) scale(0.18 -0.18)">
       <defs>
        <path id="STIXGeneral-Regular-31" d="M 2522 0 
L 755 0 
L 755 96 
Q 1107 115 1235 227 
Q 1363 339 1363 608 
L 1363 3482 
Q 1363 3795 1171 3795 
Q 1082 3795 883 3718 
L 710 3654 
L 710 3744 
L 1856 4326 
L 1914 4307 
L 1914 486 
Q 1914 275 2042 185 
Q 2170 96 2522 96 
L 2522 0 
z
" transform="scale(0.015625)"/>
       </defs>
       <use xlink:href="#STIXGeneral-Regular-31"/>
       <use xlink:href="#STIXGeneral-Regular-30" transform="translate(49.999985 0)"/>
       <use xlink:href="#STIXGeneral-Regular-2e" transform="translate(99.999969 0)"/>
       <use xlink:href="#STIXGeneral-Regular-30" transform="translate(124.999954 0)"/>
      </g>
     </g>
    </g>
    <g id="xtick_4">
     <g id="line2d_4">
      <g>
       <use xlink:href="#md9dc953b9a" x="394.65" y="502.6475" style="stroke: #000000; stroke-width: 1.2"/>
      </g>
     </g>
     <g id="text_4">
      <!-- 15.0 -->
      <g transform="translate(378.9 522.440938) scale(0.18 -0.18)">
       <defs>
        <path id="STIXGeneral-Regular-35" d="M 2803 4358 
L 2573 3814 
Q 2534 3731 2400 3731 
L 1158 3731 
L 902 3187 
Q 1606 3053 1920 2896 
Q 2234 2739 2502 2368 
Q 2726 2061 2726 1555 
Q 2726 1094 2576 780 
Q 2426 467 2099 224 
Q 1664 -90 1011 -90 
Q 646 -90 422 19 
Q 198 128 198 307 
Q 198 550 486 550 
Q 717 550 960 352 
Q 1210 147 1414 147 
Q 1747 147 2012 480 
Q 2278 813 2278 1229 
Q 2278 1843 1850 2189 
Q 1293 2637 486 2637 
Q 410 2637 410 2688 
L 416 2720 
L 1114 4237 
L 2438 4237 
Q 2547 4237 2608 4269 
Q 2669 4301 2746 4403 
L 2803 4358 
z
" transform="scale(0.015625)"/>
       </defs>
       <use xlink:href="#STIXGeneral-Regular-31"/>
       <use xlink:href="#STIXGeneral-Regular-35" transform="translate(49.999985 0)"/>
       <use xlink:href="#STIXGeneral-Regular-2e" transform="translate(99.999969 0)"/>
       <use xlink:href="#STIXGeneral-Regular-30" transform="translate(124.999954 0)"/>
      </g>
     </g>
    </g>
    <g id="text_5">
     <!-- R (Å) -->
     <g transform="translate(232.268254 548.76625) scale(0.2 -0.2)">
      <defs>
       <path id="STIXGeneral-Regular-52" d="M 4224 0 
L 3187 0 
L 1664 1971 
L 1306 1958 
L 1306 717 
Q 1306 352 1405 249 
Q 1504 147 1875 122 
L 1875 0 
L 109 0 
L 109 122 
Q 474 154 563 262 
Q 653 371 653 794 
L 653 3526 
Q 653 3885 563 3987 
Q 474 4090 109 4115 
L 109 4237 
L 1850 4237 
Q 2726 4237 3187 3859 
Q 3501 3603 3501 3091 
Q 3501 2221 2342 2042 
L 3622 422 
Q 3757 256 3878 198 
Q 4000 141 4224 122 
L 4224 0 
z
M 1306 3731 
L 1306 2195 
Q 1766 2202 1990 2246 
Q 2214 2291 2438 2413 
Q 2803 2618 2803 3142 
Q 2803 4000 1632 4000 
Q 1459 4000 1382 3945 
Q 1306 3891 1306 3731 
z
" transform="scale(0.015625)"/>
       <path id="STIXGeneral-Regular-20" transform="scale(0.015625)"/>
       <path id="STIXGeneral-Regular-28" d="M 1946 -1030 
L 1869 -1133 
Q 1126 -710 716 32 
Q 307 774 307 1613 
Q 307 3386 1888 4326 
L 1946 4224 
Q 1293 3667 1075 3126 
Q 858 2586 858 1632 
Q 858 685 1082 96 
Q 1306 -493 1946 -1030 
z
" transform="scale(0.015625)"/>
       <path id="STIXGeneral-Regular-c5" d="M 2752 5961 
Q 2938 5773 2938 5510 
Q 2938 5248 2749 5062 
Q 2560 4877 2291 4877 
Q 2029 4877 1846 5062 
Q 1664 5248 1664 5517 
Q 1664 5779 1853 5964 
Q 2042 6150 2310 6150 
Q 2566 6150 2752 5961 
z
M 2720 5517 
Q 2720 5690 2595 5811 
Q 2470 5933 2291 5933 
Q 2125 5933 2003 5808 
Q 1882 5683 1882 5517 
Q 1882 5338 2003 5216 
Q 2125 5094 2291 5094 
Q 2470 5094 2595 5216 
Q 2720 5338 2720 5517 
z
M 4525 0 
L 2893 0 
L 2893 122 
Q 3149 122 3245 179 
Q 3334 224 3334 333 
Q 3334 499 3213 781 
L 2950 1382 
L 1274 1382 
L 979 653 
Q 922 506 922 384 
Q 922 237 1027 179 
Q 1133 122 1370 122 
L 1370 0 
L 96 0 
L 96 122 
Q 365 147 486 316 
Q 608 486 902 1190 
L 2221 4314 
L 2349 4314 
L 3923 710 
Q 4064 378 4176 262 
Q 4288 147 4525 122 
L 4525 0 
z
M 2861 1645 
L 2118 3405 
L 1382 1645 
L 2861 1645 
z
" transform="scale(0.015625)"/>
       <path id="STIXGeneral-Regular-29" d="M 186 4224 
L 262 4326 
Q 992 3891 1408 3148 
Q 1824 2406 1824 1581 
Q 1824 -166 243 -1133 
L 186 -1030 
Q 845 -486 1059 54 
Q 1274 595 1274 1562 
Q 1274 2534 1059 3120 
Q 845 3706 186 4224 
z
" transform="scale(0.015625)"/>
      </defs>
      <use xlink:href="#STIXGeneral-Regular-52"/>
      <use xlink:href="#STIXGeneral-Regular-20" transform="translate(66.699997 0)"/>
      <use xlink:href="#STIXGeneral-Regular-28" transform="translate(91.699982 0)"/>
      <use xlink:href="#STIXGeneral-Regular-c5" transform="translate(124.999969 0)"/>
      <use xlink:href="#STIXGeneral-Regular-29" transform="translate(197.199951 0)"/>
     </g>
    </g>
   </g>
   <g id="matplotlib.axis_2">
    <g id="ytick_1">
     <g id="line2d_5">
      <defs>
       <path id="m162d702dce" d="M 0 0 
L -4 0 
" style="stroke: #000000; stroke-width: 1.2"/>
      </defs>
      <g>
       <use xlink:href="#m162d702dce" x="115.986507" y="487.339052" style="stroke: #000000; stroke-width: 1.2"/>
      </g>
     </g>
     <g id="text_6">
      <!-- 0 -->
      <g transform="translate(99.486507 493.485771) scale(0.18 -0.18)">
       <use xlink:href="#STIXGeneral-Regular-30"/>
      </g>
     </g>
    </g>
    <g id="ytick_2">
     <g id="line2d_6">
      <g>
       <use xlink:href="#m162d702dce" x="115.986507" y="410.796815" style="stroke: #000000; stroke-width: 1.2"/>
      </g>
     </g>
     <g id="text_7">
      <!-- 5 -->
      <g transform="translate(99.486507 416.943533) scale(0.18 -0.18)">
       <use xlink:href="#STIXGeneral-Regular-35"/>
      </g>
     </g>
    </g>
    <g id="ytick_3">
     <g id="line2d_7">
      <g>
       <use xlink:href="#m162d702dce" x="115.986507" y="334.254577" style="stroke: #000000; stroke-width: 1.2"/>
      </g>
     </g>
     <g id="text_8">
      <!-- 10 -->
      <g transform="translate(90.486507 340.401295) scale(0.18 -0.18)">
       <use xlink:href="#STIXGeneral-Regular-31"/>
       <use xlink:href="#STIXGeneral-Regular-30" transform="translate(49.999985 0)"/>
      </g>
     </g>
    </g>
    <g id="ytick_4">
     <g id="line2d_8">
      <g>
       <use xlink:href="#m162d702dce" x="115.986507" y="181.170101" style="stroke: #000000; stroke-width: 1.2"/>
      </g>
     </g>
     <g id="text_9">
      <!-- 20 -->
      <g transform="translate(90.486507 187.31682) scale(0.18 -0.18)">
       <use xlink:href="#STIXGeneral-Regular-32"/>
       <use xlink:href="#STIXGeneral-Regular-30" transform="translate(49.999985 0)"/>
      </g>
     </g>
    </g>
    <g id="ytick_5">
     <g id="line2d_9">
      <g>
       <use xlink:href="#m162d702dce" x="115.986507" y="28.085625" style="stroke: #000000; stroke-width: 1.2"/>
      </g>
     </g>
     <g id="text_10">
      <!-- 30 -->
      <g transform="translate(90.486507 34.232344) scale(0.18 -0.18)">
       <use xlink:href="#STIXGeneral-Regular-33"/>
       <use xlink:href="#STIXGeneral-Regular-30" transform="translate(49.999985 0)"/>
      </g>
     </g>
    </g>
    <g id="text_11">
     <!-- E / hc -->
     <g transform="translate(50.857296 72.037406) scale(0.2 -0.2)">
      <defs>
       <path id="STIXGeneral-Regular-45" d="M 3821 1082 
L 3526 0 
L 77 0 
L 77 122 
Q 442 147 538 252 
Q 634 358 634 730 
L 634 3520 
Q 634 3878 534 3987 
Q 435 4096 77 4115 
L 77 4237 
L 3469 4237 
L 3494 3322 
L 3334 3322 
Q 3264 3750 3085 3872 
Q 2906 3994 2349 3994 
L 1510 3994 
Q 1370 3994 1328 3952 
Q 1286 3910 1286 3763 
L 1286 2355 
L 2253 2355 
Q 2656 2355 2787 2470 
Q 2918 2586 2976 2970 
L 3123 2970 
L 3123 1472 
L 2976 1472 
Q 2918 1875 2790 1984 
Q 2662 2093 2253 2093 
L 1286 2093 
L 1286 538 
Q 1286 346 1420 291 
Q 1555 237 1933 237 
L 2163 237 
Q 2848 237 3136 403 
Q 3424 570 3642 1082 
L 3821 1082 
z
" transform="scale(0.015625)"/>
       <path id="STIXGeneral-Regular-2f" d="M 1837 4326 
L 378 -90 
L -58 -90 
L 1408 4326 
L 1837 4326 
z
" transform="scale(0.015625)"/>
       <path id="STIXGeneral-Regular-68" d="M 3117 0 
L 1760 0 
L 1760 96 
Q 2042 128 2118 224 
Q 2195 320 2195 653 
L 2195 1920 
Q 2195 2598 1722 2598 
Q 1530 2598 1370 2508 
Q 1210 2419 1005 2195 
L 1005 653 
Q 1005 320 1081 224 
Q 1158 128 1440 96 
L 1440 0 
L 58 0 
L 58 96 
Q 333 134 400 224 
Q 467 314 467 653 
L 467 3667 
Q 467 3872 406 3933 
Q 346 3994 141 3994 
Q 83 3994 64 3987 
L 64 4090 
L 237 4141 
Q 730 4288 973 4371 
L 1005 4352 
L 1005 2406 
Q 1229 2694 1446 2819 
Q 1664 2944 1946 2944 
Q 2733 2944 2733 1926 
L 2733 653 
Q 2733 320 2793 233 
Q 2854 147 3117 96 
L 3117 0 
z
" transform="scale(0.015625)"/>
       <path id="STIXGeneral-Regular-63" d="M 2547 998 
L 2637 941 
Q 2362 403 2112 205 
Q 1786 -64 1376 -64 
Q 845 -64 502 336 
Q 160 736 160 1357 
Q 160 2170 698 2618 
Q 1094 2944 1562 2944 
Q 1965 2944 2256 2749 
Q 2547 2554 2547 2285 
Q 2547 2176 2457 2096 
Q 2368 2016 2246 2016 
Q 2022 2016 1939 2310 
L 1901 2451 
Q 1850 2630 1773 2694 
Q 1696 2758 1523 2758 
Q 1133 2758 893 2451 
Q 653 2144 653 1645 
Q 653 1094 928 745 
Q 1203 397 1645 397 
Q 1920 397 2118 528 
Q 2317 659 2547 998 
z
" transform="scale(0.015625)"/>
      </defs>
      <use xlink:href="#STIXGeneral-Regular-45"/>
      <use xlink:href="#STIXGeneral-Regular-20" transform="translate(61.099991 0)"/>
      <use xlink:href="#STIXGeneral-Regular-2f" transform="translate(86.099976 0)"/>
      <use xlink:href="#STIXGeneral-Regular-20" transform="translate(113.899963 0)"/>
      <use xlink:href="#STIXGeneral-Regular-68" transform="translate(138.899948 0)"/>
      <use xlink:href="#STIXGeneral-Regular-63" transform="translate(188.899933 0)"/>
     </g>
     <!-- [$10^3$ cm$^{-1}$] -->
     <g transform="translate(29.786983 94.929281) scale(0.2 -0.2)">
      <defs>
       <path id="STIXGeneral-Regular-5b" d="M 1914 -998 
L 563 -998 
L 563 4237 
L 1914 4237 
L 1914 4077 
L 1382 4077 
Q 1216 4077 1133 4006 
Q 1050 3936 1050 3770 
L 1050 -493 
Q 1050 -838 1382 -838 
L 1914 -838 
L 1914 -998 
z
" transform="scale(0.015625)"/>
       <path id="STIXGeneral-Regular-6d" d="M 4960 0 
L 3565 0 
L 3565 96 
Q 3834 122 3907 208 
Q 3981 294 3981 576 
L 3981 1894 
Q 3981 2278 3869 2444 
Q 3757 2611 3488 2611 
Q 3264 2611 3107 2521 
Q 2950 2432 2803 2221 
L 2803 608 
Q 2803 301 2896 201 
Q 2989 102 3264 96 
L 3264 0 
L 1830 0 
L 1830 96 
Q 2112 115 2189 188 
Q 2266 262 2266 550 
L 2266 1901 
Q 2266 2611 1850 2611 
Q 1670 2611 1468 2531 
Q 1267 2451 1171 2336 
Q 1088 2240 1088 2227 
L 1088 448 
Q 1088 243 1177 176 
Q 1267 109 1523 96 
L 1523 0 
L 102 0 
L 102 96 
Q 371 102 460 195 
Q 550 288 550 563 
L 550 2150 
Q 550 2387 499 2480 
Q 448 2573 326 2573 
Q 230 2573 122 2547 
L 122 2656 
Q 557 2778 1011 2944 
L 1062 2925 
L 1062 2451 
L 1075 2451 
Q 1363 2752 1584 2848 
Q 1805 2944 2054 2944 
Q 2560 2944 2733 2406 
Q 3232 2944 3776 2944 
Q 4518 2944 4518 1792 
L 4518 493 
Q 4518 282 4582 202 
Q 4646 122 4794 109 
L 4960 96 
L 4960 0 
z
" transform="scale(0.015625)"/>
       <path id="STIXGeneral-Regular-2212" d="M 3974 1408 
L 410 1408 
L 410 1830 
L 3974 1830 
L 3974 1408 
z
" transform="scale(0.015625)"/>
       <path id="STIXGeneral-Regular-5d" d="M 1568 -998 
L 218 -998 
L 218 -838 
L 781 -838 
Q 947 -838 1014 -768 
Q 1082 -698 1082 -544 
L 1082 3731 
Q 1082 4077 755 4077 
L 218 4077 
L 218 4237 
L 1568 4237 
L 1568 -998 
z
" transform="scale(0.015625)"/>
      </defs>
      <use xlink:href="#STIXGeneral-Regular-5b" transform="translate(0 0.409375)"/>
      <use xlink:href="#STIXGeneral-Regular-31" transform="translate(33.299988 0.409375)"/>
      <use xlink:href="#STIXGeneral-Regular-30" transform="translate(83.299973 0.409375)"/>
      <use xlink:href="#STIXGeneral-Regular-33" transform="translate(134.843239 35.684375) scale(0.7)"/>
      <use xlink:href="#STIXGeneral-Regular-20" transform="translate(174.252603 0.409375)"/>
      <use xlink:href="#STIXGeneral-Regular-63" transform="translate(199.252588 0.409375)"/>
      <use xlink:href="#STIXGeneral-Regular-6d" transform="translate(243.652581 0.409375)"/>
      <use xlink:href="#STIXGeneral-Regular-2212" transform="translate(322.995851 35.684375) scale(0.7)"/>
      <use xlink:href="#STIXGeneral-Regular-31" transform="translate(370.94584 35.684375) scale(0.7)"/>
      <use xlink:href="#STIXGeneral-Regular-5d" transform="translate(410.355204 0.409375)"/>
     </g>
    </g>
   </g>
   <g id="line2d_10">
    <path d="M 145.587178 369.327099 
L 146.640487 371.8603 
L 147.693775 374.832258 
L 148.747083 378.221305 
L 150.853679 386.126649 
L 152.960296 395.266188 
L 156.120201 410.45101 
L 161.386702 436.393896 
L 163.493318 445.984826 
L 165.599915 454.742488 
L 167.706531 462.508232 
L 169.813127 469.190705 
L 171.919724 474.756576 
L 174.02634 479.218411 
L 175.079649 481.048805 
L 176.132937 482.622711 
L 177.186245 483.949704 
L 178.239553 485.039897 
L 179.292841 485.90431 
L 180.34615 486.554502 
L 181.399458 487.002332 
L 182.452746 487.259794 
L 183.506054 487.339052 
L 184.559363 487.251966 
L 185.612671 487.01053 
L 186.665959 486.626402 
L 188.772575 485.475497 
L 190.879172 483.886674 
L 192.985768 481.941172 
L 195.092385 479.713782 
L 198.252289 475.990602 
L 202.465502 470.615367 
L 210.891908 459.77519 
L 215.105121 454.7947 
L 218.265026 451.372224 
L 221.42493 448.251358 
L 224.584835 445.444568 
L 227.74476 442.950207 
L 230.904664 440.756684 
L 234.064569 438.845049 
L 237.224474 437.191885 
L 240.384378 435.771288 
L 243.544283 434.556883 
L 247.757496 433.214267 
L 251.970709 432.136438 
L 256.183902 431.274007 
L 261.450423 430.435497 
L 267.770232 429.694826 
L 275.14335 429.090193 
L 283.569775 428.626976 
L 295.156086 428.231996 
L 310.955629 427.937575 
L 335.181578 427.72977 
L 380.473572 427.595815 
L 433 427.549986 
L 433 427.549986 
" clip-path="url(#p79480b074c)" style="fill: none; stroke: #8b4513; stroke-width: 2; stroke-linecap: square"/>
   </g>
   <g id="line2d_11">
    <path d="M 147.247412 -1 
L 148.023093 37.233808 
L 148.957286 72.3704 
L 149.891479 99.230911 
L 150.825672 120.261566 
L 151.759864 137.148435 
L 153.005455 155.208915 
L 154.251045 169.863309 
L 155.808033 185.192591 
L 157.676419 200.996644 
L 159.856202 217.415078 
L 162.347383 234.521881 
L 164.838564 250.204686 
L 167.329745 264.487343 
L 169.509528 275.798297 
L 171.689311 285.979592 
L 173.869095 295.031924 
L 175.73748 301.908053 
L 177.605866 307.993667 
L 179.474252 313.320314 
L 181.342637 317.925827 
L 182.899625 321.243425 
L 184.456614 324.115904 
L 186.013601 326.570338 
L 187.57059 328.6341 
L 189.127578 330.334415 
L 190.684566 331.697995 
L 192.241554 332.750753 
L 193.798542 333.517585 
L 195.35553 334.022231 
L 196.912518 334.287161 
L 198.469506 334.333527 
L 200.026494 334.181133 
L 201.89488 333.761801 
L 203.763265 333.112188 
L 205.943049 332.098855 
L 208.122832 330.846717 
L 210.614013 329.166702 
L 213.416591 327.011873 
L 216.841965 324.072796 
L 220.890134 320.270601 
L 225.872495 315.253337 
L 233.03464 307.685279 
L 245.801943 294.176634 
L 251.718497 288.280337 
L 256.700859 283.628559 
L 261.060426 279.843229 
L 265.419992 276.354842 
L 269.468161 273.398204 
L 273.51633 270.720799 
L 277.564499 268.32158 
L 281.612668 266.192417 
L 285.660837 264.319325 
L 289.709006 262.683962 
L 294.068572 261.164392 
L 298.739536 259.783143 
L 303.721898 258.553333 
L 309.015657 257.478848 
L 314.932212 256.509823 
L 321.471562 255.664756 
L 329.256502 254.894054 
L 338.287033 254.232444 
L 349.497347 253.647609 
L 363.510239 253.150183 
L 382.194096 252.721332 
L 394.65 252.524107 
L 394.65 252.524107 
" clip-path="url(#p79480b074c)" style="fill: none; stroke: #00008b; stroke-width: 2; stroke-linecap: square"/>
   </g>
   <g id="line2d_12">
    <path d="M 147.348367 -1 
L 148.023093 39.542835 
L 148.957286 85.84877 
L 149.891479 123.33938 
L 150.825672 154.054001 
L 152.071262 187.054385 
L 153.316853 213.308565 
L 154.562443 234.618139 
L 155.808033 252.226295 
L 157.053624 266.997531 
L 158.299214 279.541009 
L 159.856202 292.743347 
L 161.41319 303.754739 
L 162.970178 313.012717 
L 164.527166 320.83968 
L 166.084154 327.477328 
L 167.641143 333.10761 
L 169.198131 337.867547 
L 170.755119 341.861015 
L 172.312107 345.168308 
L 173.557697 347.363573 
L 174.803288 349.188555 
L 176.048878 350.667714 
L 177.294469 351.823228 
L 178.540059 352.675621 
L 179.785649 353.244215 
L 181.03124 353.547424 
L 182.27683 353.602927 
L 183.522421 353.427753 
L 184.768011 353.038288 
L 186.324999 352.27401 
L 187.881987 351.22866 
L 189.438975 349.929799 
L 191.307361 348.072991 
L 193.487144 345.548532 
L 195.978325 342.266919 
L 198.780904 338.171181 
L 202.206277 332.737776 
L 206.877241 324.864153 
L 219.021748 304.162372 
L 223.381315 297.283973 
L 227.118086 291.804867 
L 230.54346 287.176822 
L 233.657436 283.325732 
L 236.771412 279.828358 
L 239.885388 276.688032 
L 242.687966 274.161754 
L 245.490545 271.908577 
L 248.293123 269.912998 
L 251.4071 267.974804 
L 254.521076 266.302567 
L 257.946449 264.73463 
L 261.371823 263.413303 
L 265.108594 262.210224 
L 269.156763 261.139733 
L 273.827727 260.146634 
L 279.121487 259.264729 
L 285.038041 258.508032 
L 292.200186 257.823048 
L 300.91932 257.220068 
L 312.129633 256.678325 
L 327.388116 256.181286 
L 348.874551 255.72142 
L 379.702915 255.299297 
L 394.65 255.155355 
L 394.65 255.155355 
" clip-path="url(#p79480b074c)" style="fill: none; stroke: #006400; stroke-width: 2; stroke-linecap: square"/>
   </g>
   <g id="patch_3">
    <path d="M 115.986507 502.6475 
L 115.986507 28.085625 
" style="fill: none; stroke: #000000; stroke-width: 1.2; stroke-linejoin: miter; stroke-linecap: square"/>
   </g>
   <g id="patch_4">
    <path d="M 135.891042 502.6475 
L 394.65 502.6475 
" style="fill: none; stroke: #000000; stroke-width: 1.2; stroke-linejoin: miter; stroke-linecap: square"/>
   </g>
   <g id="text_12">
    <!-- X${}^1\Sigma^+$ -->
    <g style="fill: #8b4513" transform="translate(215.509183 476.623139) scale(0.2 -0.2)">
     <defs>
      <path id="STIXGeneral-Regular-58" d="M 4506 0 
L 2611 0 
L 2611 122 
L 2778 134 
Q 3098 154 3098 320 
Q 3098 461 2771 947 
L 2163 1850 
L 1402 896 
Q 1062 474 1062 326 
Q 1062 230 1168 185 
Q 1274 141 1549 122 
L 1549 0 
L 64 0 
L 64 122 
Q 314 147 470 268 
Q 627 390 992 851 
L 1990 2099 
L 1312 3091 
Q 864 3744 665 3913 
Q 467 4083 141 4115 
L 141 4237 
L 2067 4237 
L 2067 4115 
L 1882 4109 
Q 1734 4102 1660 4064 
Q 1587 4026 1587 3923 
Q 1587 3885 1596 3843 
Q 1606 3802 1635 3744 
Q 1664 3686 1689 3638 
Q 1715 3590 1769 3507 
Q 1824 3424 1862 3366 
Q 1901 3309 1984 3190 
Q 2067 3072 2118 2995 
L 2400 2586 
L 3117 3482 
Q 3373 3795 3373 3910 
Q 3373 4019 3283 4064 
Q 3194 4109 2938 4115 
L 2938 4237 
L 4454 4237 
L 4454 4115 
Q 4147 4096 3968 3977 
Q 3789 3859 3482 3482 
L 2566 2349 
L 3795 595 
Q 3981 326 4115 240 
Q 4250 154 4506 122 
L 4506 0 
z
" transform="scale(0.015625)"/>
      <path id="STIXGeneral-Regular-3a3" d="M 3840 1306 
L 3661 0 
L 192 0 
L 192 96 
L 1901 2074 
L 192 4141 
L 192 4237 
L 3558 4237 
L 3558 3206 
L 3398 3206 
Q 3328 3674 3110 3834 
Q 2893 3994 2438 3994 
L 1107 3994 
L 2464 2349 
L 947 608 
L 2931 608 
Q 3290 608 3453 768 
Q 3616 928 3693 1306 
L 3840 1306 
z
" transform="scale(0.015625)"/>
      <path id="STIXGeneral-Regular-2b" d="M 4070 1408 
L 2400 1408 
L 2400 -262 
L 1978 -262 
L 1978 1408 
L 307 1408 
L 307 1830 
L 1978 1830 
L 1978 3501 
L 2400 3501 
L 2400 1830 
L 4070 1830 
L 4070 1408 
z
" transform="scale(0.015625)"/>
     </defs>
     <use xlink:href="#STIXGeneral-Regular-58" transform="translate(0 0.409375)"/>
     <use xlink:href="#STIXGeneral-Regular-31" transform="translate(73.743263 35.684375) scale(0.7)"/>
     <use xlink:href="#STIXGeneral-Regular-3a3" transform="translate(113.152627 0.409375)"/>
     <use xlink:href="#STIXGeneral-Regular-2b" transform="translate(187.2039 35.684375) scale(0.7)"/>
    </g>
   </g>
   <g id="text_13">
    <!-- A${}^1\Sigma^+$ -->
    <g style="fill: #00008b" transform="translate(235.413718 334.254577) scale(0.2 -0.2)">
     <defs>
      <path id="STIXGeneral-Regular-41" d="M 4525 0 
L 2893 0 
L 2893 122 
Q 3149 122 3245 179 
Q 3334 224 3334 333 
Q 3334 499 3213 781 
L 2950 1382 
L 1274 1382 
L 979 653 
Q 922 506 922 384 
Q 922 237 1027 179 
Q 1133 122 1370 122 
L 1370 0 
L 96 0 
L 96 122 
Q 365 147 486 316 
Q 608 486 902 1190 
L 2221 4314 
L 2349 4314 
L 3923 710 
Q 4064 378 4176 262 
Q 4288 147 4525 122 
L 4525 0 
z
M 2861 1645 
L 2118 3405 
L 1382 1645 
L 2861 1645 
z
" transform="scale(0.015625)"/>
     </defs>
     <use xlink:href="#STIXGeneral-Regular-41" transform="translate(0 0.409375)"/>
     <use xlink:href="#STIXGeneral-Regular-31" transform="translate(73.743263 35.684375) scale(0.7)"/>
     <use xlink:href="#STIXGeneral-Regular-3a3" transform="translate(113.152627 0.409375)"/>
     <use xlink:href="#STIXGeneral-Regular-2b" transform="translate(187.2039 35.684375) scale(0.7)"/>
    </g>
   </g>
   <g id="text_14">
    <!-- b${}^3\Pi_0$ -->
    <g style="fill: #006400" transform="translate(195.604648 273.020786) scale(0.2 -0.2)">
     <defs>
      <path id="STIXGeneral-Regular-62" d="M 979 4358 
L 979 2406 
Q 1082 2650 1315 2797 
Q 1549 2944 1843 2944 
Q 2349 2944 2672 2541 
Q 2995 2138 2995 1536 
Q 2995 832 2566 384 
Q 2138 -64 1498 -64 
Q 1107 -64 774 67 
Q 442 198 442 358 
L 442 3622 
Q 442 3859 384 3926 
Q 326 3994 128 3994 
Q 83 3994 19 3981 
L 19 4090 
L 211 4147 
Q 864 4346 947 4371 
L 979 4358 
z
M 979 2035 
L 979 474 
Q 979 326 1161 233 
Q 1344 141 1600 141 
Q 1978 141 2195 416 
Q 2432 710 2432 1261 
Q 2432 1888 2182 2240 
Q 1971 2541 1613 2541 
Q 1357 2541 1168 2390 
Q 979 2240 979 2035 
z
" transform="scale(0.015625)"/>
      <path id="STIXGeneral-Regular-3a0" d="M 4499 0 
L 2714 0 
L 2714 122 
Q 3085 147 3181 265 
Q 3277 384 3277 794 
L 3277 3763 
Q 3277 3898 3232 3946 
Q 3187 3994 3046 3994 
L 1568 3994 
Q 1440 3994 1389 3952 
Q 1338 3910 1338 3782 
L 1338 723 
Q 1338 371 1440 256 
Q 1542 141 1894 122 
L 1901 0 
L 115 0 
L 115 122 
Q 493 147 589 259 
Q 685 371 685 781 
L 685 3507 
Q 685 3878 585 3980 
Q 486 4083 115 4115 
L 115 4237 
L 4499 4237 
L 4499 4115 
Q 4141 4083 4035 3977 
Q 3930 3872 3930 3507 
L 3930 710 
Q 3930 371 4035 259 
Q 4141 147 4499 122 
L 4499 0 
z
" transform="scale(0.015625)"/>
     </defs>
     <use xlink:href="#STIXGeneral-Regular-62" transform="translate(0 0.409375)"/>
     <use xlink:href="#STIXGeneral-Regular-33" transform="translate(51.543266 35.684375) scale(0.7)"/>
     <use xlink:href="#STIXGeneral-Regular-3a0" transform="translate(90.95263 0.409375)"/>
     <use xlink:href="#STIXGeneral-Regular-30" transform="translate(164.695893 -12.81875) scale(0.7)"/>
    </g>
   </g>
   <g id="legend_1">
    <g id="line2d_13">
     <path d="M 271.05 53.085625 
L 291.05 53.085625 
L 311.05 53.085625 
" style="fill: none; stroke: #8b4513; stroke-width: 2; stroke-linecap: square"/>
    </g>
    <g id="text_15">
     <!-- $X^1\Sigma^+$ -->
     <g transform="translate(327.05 60.085625) scale(0.2 -0.2)">
      <defs>
       <path id="STIXGeneral-Italic-58" d="M 4192 4179 
L 4192 4077 
Q 3981 4006 3805 3875 
Q 3629 3744 3392 3469 
L 2310 2227 
L 2957 595 
Q 3072 307 3187 224 
Q 3302 141 3629 102 
L 3629 0 
L 1894 0 
L 1894 102 
Q 2170 109 2278 163 
Q 2387 218 2387 339 
Q 2387 442 2298 666 
L 1869 1722 
L 902 621 
Q 755 454 755 314 
Q 755 102 1178 102 
L 1178 0 
L -186 0 
L -186 102 
Q 70 147 300 361 
Q 531 576 1222 1382 
L 1754 2003 
L 1094 3635 
Q 998 3872 880 3961 
Q 762 4051 486 4077 
L 486 4179 
L 2170 4179 
L 2170 4077 
Q 1907 4045 1811 3990 
Q 1715 3936 1715 3814 
Q 1715 3706 1818 3456 
L 2195 2515 
L 3123 3584 
Q 3258 3738 3258 3859 
Q 3258 4058 2867 4077 
L 2867 4179 
L 4192 4179 
z
" transform="scale(0.015625)"/>
      </defs>
      <use xlink:href="#STIXGeneral-Italic-58" transform="translate(0 0.409375)"/>
      <use xlink:href="#STIXGeneral-Regular-31" transform="translate(71.725772 35.684375) scale(0.7)"/>
      <use xlink:href="#STIXGeneral-Regular-3a3" transform="translate(111.135136 0.409375)"/>
      <use xlink:href="#STIXGeneral-Regular-2b" transform="translate(185.186409 35.684375) scale(0.7)"/>
     </g>
    </g>
    <g id="line2d_14">
     <path d="M 271.05 81.42625 
L 291.05 81.42625 
L 311.05 81.42625 
" style="fill: none; stroke: #00008b; stroke-width: 2; stroke-linecap: square"/>
    </g>
    <g id="text_16">
     <!-- $A^1\Sigma^+$ -->
     <g transform="translate(327.05 88.42625) scale(0.2 -0.2)">
      <defs>
       <path id="STIXGeneral-Italic-41" d="M 3610 0 
L 2042 0 
L 2042 102 
Q 2330 115 2432 192 
Q 2534 269 2534 442 
Q 2534 493 2522 608 
L 2394 1446 
L 986 1446 
L 608 736 
Q 467 474 467 314 
Q 467 122 864 102 
L 864 0 
L -326 0 
L -326 102 
Q -109 147 28 307 
Q 166 467 531 1101 
L 2355 4275 
L 2522 4275 
L 3110 736 
Q 3174 339 3264 230 
Q 3354 122 3610 102 
L 3610 0 
z
M 2362 1677 
L 2074 3360 
L 1120 1677 
L 2362 1677 
z
" transform="scale(0.015625)"/>
      </defs>
      <use xlink:href="#STIXGeneral-Italic-41" transform="translate(0 0.409375)"/>
      <use xlink:href="#STIXGeneral-Regular-31" transform="translate(72.040772 35.684375) scale(0.7)"/>
      <use xlink:href="#STIXGeneral-Regular-3a3" transform="translate(111.450136 0.409375)"/>
      <use xlink:href="#STIXGeneral-Regular-2b" transform="translate(185.501409 35.684375) scale(0.7)"/>
     </g>
    </g>
    <g id="line2d_15">
     <path d="M 271.05 111.02625 
L 291.05 111.02625 
L 311.05 111.02625 
" style="fill: none; stroke: #006400; stroke-width: 2; stroke-linecap: square"/>
    </g>
    <g id="text_17">
     <!-- $b^3\Pi_0$ -->
     <g transform="translate(327.05 118.02625) scale(0.2 -0.2)">
      <defs>
       <path id="STIXGeneral-Italic-62" d="M 1043 1856 
L 1050 1856 
Q 1370 2387 1654 2604 
Q 1939 2822 2285 2822 
Q 2618 2822 2822 2617 
Q 3027 2413 3027 2054 
Q 3027 1562 2726 1062 
Q 2426 563 1942 246 
Q 1459 -70 979 -70 
Q 685 -70 416 32 
Q 147 134 147 269 
L 147 307 
L 1056 3654 
Q 1114 3885 1114 3955 
Q 1114 4058 1053 4080 
Q 992 4102 704 4115 
L 704 4224 
Q 1184 4282 1683 4371 
L 1715 4339 
L 1581 3814 
L 1043 1856 
z
M 2483 1958 
Q 2483 2509 2035 2509 
Q 1594 2509 1158 1773 
Q 954 1427 826 1008 
Q 698 589 698 294 
Q 698 77 992 77 
Q 1414 77 1779 454 
Q 2074 762 2278 1187 
Q 2483 1613 2483 1958 
z
" transform="scale(0.015625)"/>
      </defs>
      <use xlink:href="#STIXGeneral-Italic-62" transform="translate(0 0.409375)"/>
      <use xlink:href="#STIXGeneral-Regular-33" transform="translate(61.255766 35.684375) scale(0.7)"/>
      <use xlink:href="#STIXGeneral-Regular-3a0" transform="translate(100.66513 0.409375)"/>
      <use xlink:href="#STIXGeneral-Regular-30" transform="translate(174.408393 -12.81875) scale(0.7)"/>
     </g>
    </g>
   </g>
  </g>
 </g>
 <defs>
  <clipPath id="p79480b074c">
   <rect x="115.986507" y="28.085625" width="278.663493" height="474.561875"/>
  </clipPath>
 </defs>
</svg>
