<?xml version="1.0" encoding="utf-8" standalone="no"?>
<!DOCTYPE svg PUBLIC "-//W3C//DTD SVG 1.1//EN"
  "http://www.w3.org/Graphics/SVG/1.1/DTD/svg11.dtd">
<svg xmlns:xlink="http://www.w3.org/1999/xlink" width="1080pt" height="432pt" viewBox="0 0 1080 432" xmlns="http://www.w3.org/2000/svg" version="1.1">
 <metadata>
  <rdf:RDF xmlns:dc="http://purl.org/dc/elements/1.1/" xmlns:cc="http://creativecommons.org/ns#" xmlns:rdf="http://www.w3.org/1999/02/22-rdf-syntax-ns#">
   <cc:Work>
    <dc:type rdf:resource="http://purl.org/dc/dcmitype/StillImage"/>
    <dc:date>2025-05-09T14:18:12.672217</dc:date>
    <dc:format>image/svg+xml</dc:format>
    <dc:creator>
     <cc:Agent>
      <dc:title>Matplotlib v3.10.0, https://matplotlib.org/</dc:title>
     </cc:Agent>
    </dc:creator>
   </cc:Work>
  </rdf:RDF>
 </metadata>
 <defs>
  <style type="text/css">*{stroke-linejoin: round; stroke-linecap: butt}</style>
 </defs>
 <g id="figure_1">
  <g id="patch_1">
   <path d="M 0 432 
L 1080 432 
L 1080 0 
L 0 0 
z
" style="fill: #ffffff"/>
  </g>
  <g id="axes_1">
   <g id="patch_2">
    <path d="M 169.305882 331.64875 
L 380.061961 331.64875 
L 380.061961 30.6 
L 169.305882 30.6 
z
" style="fill: #ffffff"/>
   </g>
   <g id="matplotlib.axis_1">
    <g id="xtick_1">
     <g id="line2d_1">
      <defs>
       <path id="mf4aa88172d" d="M 0 0 
L 0 3.5 
" style="stroke: #000000; stroke-width: 1.2"/>
      </defs>
      <g>
       <use xlink:href="#mf4aa88172d" x="169.305882" y="341.64875" style="stroke: #000000; stroke-width: 1.2"/>
      </g>
     </g>
     <g id="text_1">
      <!-- 3.0 -->
      <g transform="translate(159.305882 359.57625) scale(0.16 -0.16)">
       <defs>
        <path id="STIXGeneral-Regular-33" d="M 390 3264 
L 288 3290 
Q 435 3770 748 4048 
Q 1062 4326 1542 4326 
Q 1990 4326 2265 4083 
Q 2541 3840 2541 3450 
Q 2541 2925 1946 2566 
Q 2298 2413 2477 2227 
Q 2758 1914 2758 1402 
Q 2758 890 2464 506 
Q 2246 211 1840 60 
Q 1434 -90 979 -90 
Q 262 -90 262 275 
Q 262 378 339 442 
Q 416 506 525 506 
Q 685 506 915 339 
Q 1197 141 1466 141 
Q 1818 141 2058 425 
Q 2298 710 2298 1120 
Q 2298 1856 1632 2048 
Q 1434 2112 979 2112 
L 979 2202 
Q 1338 2323 1517 2432 
Q 2035 2726 2035 3290 
Q 2035 3610 1852 3776 
Q 1670 3942 1344 3942 
Q 768 3942 390 3264 
z
" transform="scale(0.015625)"/>
        <path id="STIXGeneral-Regular-2e" d="M 1158 275 
Q 1158 134 1052 32 
Q 947 -70 800 -70 
Q 653 -70 550 32 
Q 448 134 448 281 
Q 448 429 553 534 
Q 659 640 806 640 
Q 947 640 1052 531 
Q 1158 422 1158 275 
z
" transform="scale(0.015625)"/>
        <path id="STIXGeneral-Regular-30" d="M 3046 2112 
Q 3046 1683 2963 1302 
Q 2880 922 2717 602 
Q 2554 282 2266 96 
Q 1978 -90 1600 -90 
Q 1210 -90 915 108 
Q 621 307 461 640 
Q 301 973 227 1350 
Q 154 1728 154 2150 
Q 154 2746 301 3222 
Q 448 3699 790 4012 
Q 1133 4326 1626 4326 
Q 2253 4326 2649 3712 
Q 3046 3098 3046 2112 
z
M 2432 2080 
Q 2432 3091 2217 3625 
Q 2003 4160 1587 4160 
Q 1190 4160 979 3622 
Q 768 3085 768 2106 
Q 768 1120 979 598 
Q 1190 77 1600 77 
Q 2003 77 2217 598 
Q 2432 1120 2432 2080 
z
" transform="scale(0.015625)"/>
       </defs>
       <use xlink:href="#STIXGeneral-Regular-33"/>
       <use xlink:href="#STIXGeneral-Regular-2e" transform="translate(49.999985 0)"/>
       <use xlink:href="#STIXGeneral-Regular-30" transform="translate(74.999969 0)"/>
      </g>
     </g>
    </g>
    <g id="xtick_2">
     <g id="line2d_2">
      <g>
       <use xlink:href="#mf4aa88172d" x="274.683922" y="341.64875" style="stroke: #000000; stroke-width: 1.2"/>
      </g>
     </g>
     <g id="text_2">
      <!-- 4.5 -->
      <g transform="translate(264.683922 359.57625) scale(0.16 -0.16)">
       <defs>
        <path id="STIXGeneral-Regular-34" d="M 3027 1069 
L 2368 1069 
L 2368 0 
L 1869 0 
L 1869 1069 
L 77 1069 
L 77 1478 
L 2086 4326 
L 2368 4326 
L 2368 1478 
L 3027 1478 
L 3027 1069 
z
M 1869 1478 
L 1869 3674 
L 333 1478 
L 1869 1478 
z
" transform="scale(0.015625)"/>
        <path id="STIXGeneral-Regular-35" d="M 2803 4358 
L 2573 3814 
Q 2534 3731 2400 3731 
L 1158 3731 
L 902 3187 
Q 1606 3053 1920 2896 
Q 2234 2739 2502 2368 
Q 2726 2061 2726 1555 
Q 2726 1094 2576 780 
Q 2426 467 2099 224 
Q 1664 -90 1011 -90 
Q 646 -90 422 19 
Q 198 128 198 307 
Q 198 550 486 550 
Q 717 550 960 352 
Q 1210 147 1414 147 
Q 1747 147 2012 480 
Q 2278 813 2278 1229 
Q 2278 1843 1850 2189 
Q 1293 2637 486 2637 
Q 410 2637 410 2688 
L 416 2720 
L 1114 4237 
L 2438 4237 
Q 2547 4237 2608 4269 
Q 2669 4301 2746 4403 
L 2803 4358 
z
" transform="scale(0.015625)"/>
       </defs>
       <use xlink:href="#STIXGeneral-Regular-34"/>
       <use xlink:href="#STIXGeneral-Regular-2e" transform="translate(49.999985 0)"/>
       <use xlink:href="#STIXGeneral-Regular-35" transform="translate(74.999969 0)"/>
      </g>
     </g>
    </g>
    <g id="xtick_3">
     <g id="line2d_3">
      <g>
       <use xlink:href="#mf4aa88172d" x="380.061961" y="341.64875" style="stroke: #000000; stroke-width: 1.2"/>
      </g>
     </g>
     <g id="text_3">
      <!-- 6.0 -->
      <g transform="translate(370.061961 359.57625) scale(0.16 -0.16)">
       <defs>
        <path id="STIXGeneral-Regular-36" d="M 2854 4378 
L 2867 4275 
Q 2112 4154 1606 3664 
Q 1101 3174 973 2451 
Q 1344 2739 1786 2739 
Q 2349 2739 2672 2380 
Q 2995 2022 2995 1402 
Q 2995 774 2669 378 
Q 2291 -90 1651 -90 
Q 870 -90 518 557 
Q 218 1107 218 1786 
Q 218 2835 915 3552 
Q 1312 3962 1731 4131 
Q 2150 4301 2854 4378 
z
M 2419 1203 
Q 2419 2445 1555 2445 
Q 1235 2445 1024 2275 
Q 813 2106 813 1702 
Q 813 954 1046 522 
Q 1280 90 1722 90 
Q 2061 90 2240 394 
Q 2419 698 2419 1203 
z
" transform="scale(0.015625)"/>
       </defs>
       <use xlink:href="#STIXGeneral-Regular-36"/>
       <use xlink:href="#STIXGeneral-Regular-2e" transform="translate(49.999985 0)"/>
       <use xlink:href="#STIXGeneral-Regular-30" transform="translate(74.999969 0)"/>
      </g>
     </g>
    </g>
   </g>
   <g id="matplotlib.axis_2">
    <g id="ytick_1">
     <g id="line2d_4">
      <defs>
       <path id="m89ab06152b" d="M 0 0 
L -3.5 0 
" style="stroke: #000000; stroke-width: 1.2"/>
      </defs>
      <g>
       <use xlink:href="#m89ab06152b" x="159.305882" y="331.64875" style="stroke: #000000; stroke-width: 1.2"/>
      </g>
     </g>
     <g id="text_4">
      <!-- −0.2 -->
      <g transform="translate(121.345882 337.1125) scale(0.16 -0.16)">
       <defs>
        <path id="STIXGeneral-Regular-2212" d="M 3974 1408 
L 410 1408 
L 410 1830 
L 3974 1830 
L 3974 1408 
z
" transform="scale(0.015625)"/>
        <path id="STIXGeneral-Regular-32" d="M 3034 877 
L 2688 0 
L 186 0 
L 186 77 
L 1325 1286 
Q 1773 1754 1965 2144 
Q 2157 2534 2157 2950 
Q 2157 3379 1920 3616 
Q 1683 3853 1267 3853 
Q 922 3853 720 3673 
Q 518 3494 326 3021 
L 192 3053 
Q 301 3648 630 3987 
Q 960 4326 1523 4326 
Q 2054 4326 2380 4006 
Q 2707 3686 2707 3200 
Q 2707 2477 1888 1613 
L 832 486 
L 2330 486 
Q 2541 486 2665 569 
Q 2790 653 2944 915 
L 3034 877 
z
" transform="scale(0.015625)"/>
       </defs>
       <use xlink:href="#STIXGeneral-Regular-2212"/>
       <use xlink:href="#STIXGeneral-Regular-30" transform="translate(68.499985 0)"/>
       <use xlink:href="#STIXGeneral-Regular-2e" transform="translate(118.499969 0)"/>
       <use xlink:href="#STIXGeneral-Regular-32" transform="translate(143.499954 0)"/>
      </g>
     </g>
    </g>
    <g id="ytick_2">
     <g id="line2d_5">
      <g>
       <use xlink:href="#m89ab06152b" x="159.305882" y="256.386562" style="stroke: #000000; stroke-width: 1.2"/>
      </g>
     </g>
     <g id="text_5">
      <!-- −0.1 -->
      <g transform="translate(121.345882 261.850312) scale(0.16 -0.16)">
       <defs>
        <path id="STIXGeneral-Regular-31" d="M 2522 0 
L 755 0 
L 755 96 
Q 1107 115 1235 227 
Q 1363 339 1363 608 
L 1363 3482 
Q 1363 3795 1171 3795 
Q 1082 3795 883 3718 
L 710 3654 
L 710 3744 
L 1856 4326 
L 1914 4307 
L 1914 486 
Q 1914 275 2042 185 
Q 2170 96 2522 96 
L 2522 0 
z
" transform="scale(0.015625)"/>
       </defs>
       <use xlink:href="#STIXGeneral-Regular-2212"/>
       <use xlink:href="#STIXGeneral-Regular-30" transform="translate(68.499985 0)"/>
       <use xlink:href="#STIXGeneral-Regular-2e" transform="translate(118.499969 0)"/>
       <use xlink:href="#STIXGeneral-Regular-31" transform="translate(143.499954 0)"/>
      </g>
     </g>
    </g>
    <g id="ytick_3">
     <g id="line2d_6">
      <g>
       <use xlink:href="#m89ab06152b" x="159.305882" y="181.124375" style="stroke: #000000; stroke-width: 1.2"/>
      </g>
     </g>
     <g id="text_6">
      <!-- 0.0 -->
      <g transform="translate(132.305882 186.588125) scale(0.16 -0.16)">
       <use xlink:href="#STIXGeneral-Regular-30"/>
       <use xlink:href="#STIXGeneral-Regular-2e" transform="translate(49.999985 0)"/>
       <use xlink:href="#STIXGeneral-Regular-30" transform="translate(74.999969 0)"/>
      </g>
     </g>
    </g>
    <g id="ytick_4">
     <g id="line2d_7">
      <g>
       <use xlink:href="#m89ab06152b" x="159.305882" y="105.862188" style="stroke: #000000; stroke-width: 1.2"/>
      </g>
     </g>
     <g id="text_7">
      <!-- 0.1 -->
      <g transform="translate(132.305882 111.325938) scale(0.16 -0.16)">
       <use xlink:href="#STIXGeneral-Regular-30"/>
       <use xlink:href="#STIXGeneral-Regular-2e" transform="translate(49.999985 0)"/>
       <use xlink:href="#STIXGeneral-Regular-31" transform="translate(74.999969 0)"/>
      </g>
     </g>
    </g>
    <g id="ytick_5">
     <g id="line2d_8">
      <g>
       <use xlink:href="#m89ab06152b" x="159.305882" y="30.6" style="stroke: #000000; stroke-width: 1.2"/>
      </g>
     </g>
     <g id="text_8">
      <!-- 0.2 -->
      <g transform="translate(132.305882 36.06375) scale(0.16 -0.16)">
       <use xlink:href="#STIXGeneral-Regular-30"/>
       <use xlink:href="#STIXGeneral-Regular-2e" transform="translate(49.999985 0)"/>
       <use xlink:href="#STIXGeneral-Regular-32" transform="translate(74.999969 0)"/>
      </g>
     </g>
    </g>
    <g id="text_9">
     <!-- Wavefunction -->
     <g transform="translate(42.852235 65.73725) scale(0.2 -0.2)">
      <defs>
       <path id="STIXGeneral-Regular-57" d="M 5965 4237 
L 5965 4115 
Q 5709 4064 5616 3990 
Q 5523 3917 5434 3667 
Q 4704 1709 4128 -70 
L 4032 -70 
Q 3642 1011 3008 2637 
L 2022 -70 
L 1926 -70 
Q 1709 576 1277 1753 
Q 845 2931 698 3347 
Q 538 3808 406 3958 
Q 275 4109 32 4115 
L 32 4237 
L 1594 4237 
L 1594 4115 
Q 1357 4109 1270 4064 
Q 1184 4019 1184 3917 
Q 1184 3808 1254 3616 
L 2176 1210 
L 2842 3021 
L 2662 3501 
Q 2509 3917 2400 4013 
Q 2291 4109 2010 4115 
L 2010 4237 
L 3706 4237 
L 3706 4115 
Q 3213 4102 3213 3891 
Q 3213 3808 3322 3520 
L 4237 1190 
L 5043 3360 
Q 5152 3667 5152 3853 
Q 5152 4109 4704 4115 
L 4704 4237 
L 5965 4237 
z
" transform="scale(0.015625)"/>
       <path id="STIXGeneral-Regular-61" d="M 2829 422 
L 2829 243 
Q 2586 -64 2253 -64 
Q 1888 -64 1843 403 
L 1837 403 
Q 1427 -64 909 -64 
Q 608 -64 422 112 
Q 237 288 237 602 
Q 237 1050 685 1350 
Q 992 1555 1837 1869 
L 1837 2214 
Q 1837 2502 1699 2646 
Q 1562 2790 1338 2790 
Q 1146 2790 1018 2697 
Q 890 2605 890 2477 
Q 890 2419 909 2348 
Q 928 2278 928 2208 
Q 928 2112 841 2029 
Q 755 1946 634 1946 
Q 525 1946 441 2029 
Q 358 2112 358 2240 
Q 358 2547 685 2752 
Q 986 2944 1421 2944 
Q 1939 2944 2176 2656 
Q 2291 2522 2323 2384 
Q 2355 2246 2355 1946 
L 2355 723 
Q 2355 301 2554 301 
Q 2682 301 2829 422 
z
M 1837 813 
L 1837 1715 
Q 1248 1510 1018 1293 
Q 800 1094 800 800 
Q 800 557 921 432 
Q 1043 307 1242 307 
Q 1453 307 1613 410 
Q 1747 506 1792 589 
Q 1837 672 1837 813 
z
" transform="scale(0.015625)"/>
       <path id="STIXGeneral-Regular-76" d="M 3053 2880 
L 3053 2784 
Q 2906 2771 2835 2688 
Q 2765 2605 2637 2285 
L 1818 230 
Q 1690 -90 1638 -90 
Q 1587 -90 1523 77 
Q 1510 96 1497 141 
Q 1485 186 1472 211 
L 704 2048 
Q 499 2534 403 2652 
Q 307 2771 122 2784 
L 122 2880 
L 1376 2880 
L 1376 2784 
Q 1210 2771 1146 2732 
Q 1082 2694 1082 2611 
Q 1082 2509 1139 2368 
L 1792 730 
L 2426 2387 
Q 2464 2483 2464 2579 
Q 2464 2758 2163 2784 
L 2163 2880 
L 3053 2880 
z
" transform="scale(0.015625)"/>
       <path id="STIXGeneral-Regular-65" d="M 2611 1050 
L 2714 1005 
Q 2330 -64 1376 -64 
Q 813 -64 486 329 
Q 160 723 160 1389 
Q 160 2074 525 2509 
Q 890 2944 1485 2944 
Q 2061 2944 2374 2502 
Q 2560 2246 2592 1773 
L 621 1773 
Q 646 1370 700 1158 
Q 755 947 915 730 
Q 1184 378 1626 378 
Q 1939 378 2153 531 
Q 2368 685 2611 1050 
z
M 634 1978 
L 1939 1978 
Q 1882 2381 1750 2547 
Q 1619 2714 1312 2714 
Q 1043 2714 864 2525 
Q 685 2336 634 1978 
z
" transform="scale(0.015625)"/>
       <path id="STIXGeneral-Regular-66" d="M 134 2880 
L 659 2880 
Q 666 3264 710 3478 
Q 755 3693 883 3910 
Q 1152 4371 1786 4371 
Q 2074 4371 2262 4259 
Q 2451 4147 2451 3974 
Q 2451 3866 2374 3789 
Q 2298 3712 2182 3712 
Q 2029 3712 1894 3942 
Q 1741 4192 1555 4192 
Q 1197 4192 1197 3622 
L 1197 2880 
L 1978 2880 
L 1978 2675 
L 1197 2675 
L 1197 666 
Q 1197 307 1299 208 
Q 1402 109 1792 96 
L 1792 0 
L 128 0 
L 128 96 
Q 474 115 566 214 
Q 659 314 659 666 
L 659 2675 
L 134 2675 
L 134 2880 
z
" transform="scale(0.015625)"/>
       <path id="STIXGeneral-Regular-75" d="M 3072 320 
L 3072 230 
Q 2573 96 2195 -58 
L 2163 -38 
L 2163 486 
L 2150 486 
Q 1747 -64 1235 -64 
Q 870 -64 662 160 
Q 454 384 454 755 
L 454 2362 
Q 454 2598 371 2688 
Q 288 2778 58 2790 
L 58 2880 
L 992 2880 
L 992 813 
Q 992 595 1123 451 
Q 1254 307 1446 307 
Q 1760 307 1984 506 
Q 2067 582 2099 649 
Q 2131 717 2131 877 
L 2131 2355 
Q 2131 2605 2041 2678 
Q 1952 2752 1658 2771 
L 1658 2880 
L 2669 2880 
L 2669 685 
Q 2669 461 2742 390 
Q 2816 320 3034 320 
L 3072 320 
z
" transform="scale(0.015625)"/>
       <path id="STIXGeneral-Regular-6e" d="M 3104 0 
L 1773 0 
L 1779 96 
Q 2016 115 2096 233 
Q 2176 352 2176 672 
L 2176 1946 
Q 2176 2592 1709 2592 
Q 1549 2592 1408 2515 
Q 1267 2438 1050 2227 
L 1050 461 
Q 1050 269 1136 192 
Q 1222 115 1466 96 
L 1466 0 
L 115 0 
L 115 96 
Q 358 115 435 214 
Q 512 314 512 602 
L 512 2157 
Q 512 2394 467 2483 
Q 422 2573 288 2573 
Q 160 2573 102 2547 
L 102 2656 
Q 550 2784 979 2944 
L 1030 2925 
L 1030 2426 
L 1037 2426 
Q 1491 2944 1958 2944 
Q 2323 2944 2518 2688 
Q 2714 2432 2714 1958 
L 2714 544 
Q 2714 288 2790 205 
Q 2867 122 3104 96 
L 3104 0 
z
" transform="scale(0.015625)"/>
       <path id="STIXGeneral-Regular-63" d="M 2547 998 
L 2637 941 
Q 2362 403 2112 205 
Q 1786 -64 1376 -64 
Q 845 -64 502 336 
Q 160 736 160 1357 
Q 160 2170 698 2618 
Q 1094 2944 1562 2944 
Q 1965 2944 2256 2749 
Q 2547 2554 2547 2285 
Q 2547 2176 2457 2096 
Q 2368 2016 2246 2016 
Q 2022 2016 1939 2310 
L 1901 2451 
Q 1850 2630 1773 2694 
Q 1696 2758 1523 2758 
Q 1133 2758 893 2451 
Q 653 2144 653 1645 
Q 653 1094 928 745 
Q 1203 397 1645 397 
Q 1920 397 2118 528 
Q 2317 659 2547 998 
z
" transform="scale(0.015625)"/>
       <path id="STIXGeneral-Regular-74" d="M 1702 493 
L 1786 422 
Q 1478 -64 1011 -64 
Q 448 -64 448 749 
L 448 2675 
L 109 2675 
Q 83 2694 83 2720 
Q 83 2771 192 2842 
Q 435 2982 813 3526 
Q 826 3546 874 3606 
Q 922 3667 941 3706 
Q 986 3706 986 3622 
L 986 2880 
L 1632 2880 
L 1632 2675 
L 986 2675 
L 986 845 
Q 986 538 1062 403 
Q 1139 269 1318 269 
Q 1510 269 1702 493 
z
" transform="scale(0.015625)"/>
       <path id="STIXGeneral-Regular-69" d="M 1152 4045 
Q 1152 3904 1056 3811 
Q 960 3718 819 3718 
Q 685 3718 592 3811 
Q 499 3904 499 4045 
Q 499 4179 595 4275 
Q 691 4371 826 4371 
Q 966 4371 1059 4275 
Q 1152 4179 1152 4045 
z
M 1619 0 
L 102 0 
L 102 96 
Q 435 115 521 211 
Q 608 307 608 666 
L 608 2118 
Q 608 2342 563 2432 
Q 518 2522 397 2522 
Q 243 2522 128 2490 
L 128 2592 
L 1120 2944 
L 1146 2918 
L 1146 672 
Q 1146 314 1226 218 
Q 1306 122 1619 96 
L 1619 0 
z
" transform="scale(0.015625)"/>
       <path id="STIXGeneral-Regular-6f" d="M 3008 1478 
Q 3008 806 2608 371 
Q 2208 -64 1568 -64 
Q 979 -64 582 368 
Q 186 800 186 1459 
Q 186 2125 582 2534 
Q 979 2944 1626 2944 
Q 2221 2944 2614 2537 
Q 3008 2131 3008 1478 
z
M 2432 1306 
Q 2432 2035 2112 2445 
Q 1856 2765 1504 2765 
Q 1171 2765 966 2493 
Q 762 2221 762 1747 
Q 762 928 1101 435 
Q 1318 115 1677 115 
Q 2029 115 2230 432 
Q 2432 749 2432 1306 
z
" transform="scale(0.015625)"/>
      </defs>
      <use xlink:href="#STIXGeneral-Regular-57"/>
      <use xlink:href="#STIXGeneral-Regular-61" transform="translate(94.399994 0)"/>
      <use xlink:href="#STIXGeneral-Regular-76" transform="translate(138.799988 0)"/>
      <use xlink:href="#STIXGeneral-Regular-65" transform="translate(188.799973 0)"/>
      <use xlink:href="#STIXGeneral-Regular-66" transform="translate(233.199966 0)"/>
      <use xlink:href="#STIXGeneral-Regular-75" transform="translate(266.499954 0)"/>
      <use xlink:href="#STIXGeneral-Regular-6e" transform="translate(316.499939 0)"/>
      <use xlink:href="#STIXGeneral-Regular-63" transform="translate(366.499924 0)"/>
      <use xlink:href="#STIXGeneral-Regular-74" transform="translate(410.899918 0)"/>
      <use xlink:href="#STIXGeneral-Regular-69" transform="translate(438.699905 0)"/>
      <use xlink:href="#STIXGeneral-Regular-6f" transform="translate(466.499893 0)"/>
      <use xlink:href="#STIXGeneral-Regular-6e" transform="translate(516.499878 0)"/>
     </g>
     <!-- amplitude -->
     <g transform="translate(42.852235 86.469125) scale(0.2 -0.2)">
      <defs>
       <path id="STIXGeneral-Regular-6d" d="M 4960 0 
L 3565 0 
L 3565 96 
Q 3834 122 3907 208 
Q 3981 294 3981 576 
L 3981 1894 
Q 3981 2278 3869 2444 
Q 3757 2611 3488 2611 
Q 3264 2611 3107 2521 
Q 2950 2432 2803 2221 
L 2803 608 
Q 2803 301 2896 201 
Q 2989 102 3264 96 
L 3264 0 
L 1830 0 
L 1830 96 
Q 2112 115 2189 188 
Q 2266 262 2266 550 
L 2266 1901 
Q 2266 2611 1850 2611 
Q 1670 2611 1468 2531 
Q 1267 2451 1171 2336 
Q 1088 2240 1088 2227 
L 1088 448 
Q 1088 243 1177 176 
Q 1267 109 1523 96 
L 1523 0 
L 102 0 
L 102 96 
Q 371 102 460 195 
Q 550 288 550 563 
L 550 2150 
Q 550 2387 499 2480 
Q 448 2573 326 2573 
Q 230 2573 122 2547 
L 122 2656 
Q 557 2778 1011 2944 
L 1062 2925 
L 1062 2451 
L 1075 2451 
Q 1363 2752 1584 2848 
Q 1805 2944 2054 2944 
Q 2560 2944 2733 2406 
Q 3232 2944 3776 2944 
Q 4518 2944 4518 1792 
L 4518 493 
Q 4518 282 4582 202 
Q 4646 122 4794 109 
L 4960 96 
L 4960 0 
z
" transform="scale(0.015625)"/>
       <path id="STIXGeneral-Regular-70" d="M 1018 2931 
L 1018 2438 
Q 1421 2944 1939 2944 
Q 2406 2944 2707 2560 
Q 3008 2176 3008 1581 
Q 3008 883 2621 409 
Q 2234 -64 1664 -64 
Q 1466 -64 1328 -6 
Q 1190 51 1018 211 
L 1018 -794 
Q 1018 -1094 1120 -1180 
Q 1222 -1267 1581 -1274 
L 1581 -1389 
L 32 -1389 
L 32 -1280 
Q 314 -1254 397 -1171 
Q 480 -1088 480 -838 
L 480 2157 
Q 480 2381 429 2451 
Q 378 2522 218 2522 
Q 115 2522 58 2515 
L 58 2618 
Q 506 2752 979 2944 
L 1018 2931 
z
M 1018 2138 
L 1018 563 
Q 1018 422 1238 281 
Q 1459 141 1683 141 
Q 2029 141 2243 467 
Q 2458 794 2458 1325 
Q 2458 1888 2243 2224 
Q 2029 2560 1670 2560 
Q 1446 2560 1232 2419 
Q 1018 2278 1018 2138 
z
" transform="scale(0.015625)"/>
       <path id="STIXGeneral-Regular-6c" d="M 1645 0 
L 134 0 
L 134 96 
Q 435 122 531 221 
Q 627 320 627 589 
L 627 3590 
Q 627 3821 569 3910 
Q 512 4000 358 4000 
Q 224 4000 122 3987 
L 122 4090 
Q 730 4237 1133 4371 
L 1165 4346 
L 1165 557 
Q 1165 288 1254 201 
Q 1344 115 1645 96 
L 1645 0 
z
" transform="scale(0.015625)"/>
       <path id="STIXGeneral-Regular-64" d="M 3142 269 
L 2202 -64 
L 2176 -45 
L 2176 365 
Q 1869 -64 1357 -64 
Q 826 -64 499 317 
Q 173 698 173 1312 
Q 173 1990 563 2467 
Q 954 2944 1504 2944 
Q 1850 2944 2176 2669 
L 2176 3667 
Q 2176 3866 2118 3930 
Q 2061 3994 1882 3994 
Q 1792 3994 1741 3987 
L 1741 4090 
Q 2323 4243 2682 4371 
L 2714 4358 
L 2714 730 
Q 2714 506 2768 435 
Q 2822 365 2995 365 
Q 3034 365 3142 371 
L 3142 269 
z
M 2176 653 
L 2176 2125 
Q 2176 2381 1981 2573 
Q 1786 2765 1523 2765 
Q 1158 2765 940 2438 
Q 723 2112 723 1568 
Q 723 979 963 624 
Q 1203 269 1606 269 
Q 1907 269 2080 474 
Q 2176 582 2176 653 
z
" transform="scale(0.015625)"/>
      </defs>
      <use xlink:href="#STIXGeneral-Regular-61"/>
      <use xlink:href="#STIXGeneral-Regular-6d" transform="translate(44.399994 0)"/>
      <use xlink:href="#STIXGeneral-Regular-70" transform="translate(122.199982 0)"/>
      <use xlink:href="#STIXGeneral-Regular-6c" transform="translate(172.199966 0)"/>
      <use xlink:href="#STIXGeneral-Regular-69" transform="translate(199.999954 0)"/>
      <use xlink:href="#STIXGeneral-Regular-74" transform="translate(227.799942 0)"/>
      <use xlink:href="#STIXGeneral-Regular-75" transform="translate(255.59993 0)"/>
      <use xlink:href="#STIXGeneral-Regular-64" transform="translate(305.599915 0)"/>
      <use xlink:href="#STIXGeneral-Regular-65" transform="translate(355.599899 0)"/>
     </g>
    </g>
   </g>
   <g id="line2d_9">
    <path d="M 134.179869 181.124375 
L 225.401993 181.210471 
L 227.600117 181.40805 
L 228.699179 181.619473 
L 229.798241 181.966013 
L 230.897302 182.517692 
L 231.996364 183.37019 
L 233.095425 184.647951 
L 234.194487 186.50383 
L 235.293549 189.112861 
L 236.392611 192.657564 
L 237.491673 197.302548 
L 238.590734 203.157572 
L 239.689796 210.230504 
L 241.88792 227.24067 
L 244.086043 244.546071 
L 245.185105 251.125796 
L 246.284166 254.837587 
L 247.383228 254.572082 
L 248.48229 249.438191 
L 249.581352 238.965078 
L 250.680413 223.284771 
L 251.779475 203.253517 
L 255.07666 136.021321 
L 256.175722 119.681046 
L 257.274784 110.493348 
L 258.373845 110.030702 
L 259.472907 118.789658 
L 260.571969 136.026283 
L 261.671031 159.785896 
L 263.869154 214.553698 
L 264.968216 238.450175 
L 266.067277 255.66365 
L 267.166339 263.91403 
L 268.265401 262.095448 
L 269.364463 250.380951 
L 270.463525 230.129337 
L 271.562586 203.624084 
L 274.859772 115.26876 
L 275.958833 91.67794 
L 277.057895 74.025674 
L 278.156957 62.984521 
L 279.256018 58.49466 
L 280.35508 59.90205 
L 281.454142 66.143397 
L 282.553204 75.943025 
L 284.751327 101.084087 
L 286.94945 126.635526 
L 288.048512 137.830393 
L 289.147574 147.525709 
L 290.246636 155.631962 
L 291.345697 162.198514 
L 292.444759 167.365835 
L 293.543821 171.324063 
L 294.642883 174.280402 
L 295.741945 176.436213 
L 296.841006 177.972796 
L 297.940068 179.044317 
L 299.039129 179.77597 
L 300.138191 180.265513 
L 302.336315 180.79338 
L 304.534438 181.005002 
L 308.930686 181.11153 
L 332.010982 181.124376 
L 1012.330196 181.124375 
L 1012.330196 181.124375 
" clip-path="url(#pd3c87b8f37)" style="fill: none; stroke: #1f77b4; stroke-width: 2; stroke-linecap: square"/>
   </g>
   <g id="line2d_10">
    <path d="M 134.179869 181.124375 
L 1012.330196 181.124375 
L 1012.330196 181.124375 
" clip-path="url(#pd3c87b8f37)" style="fill: none; stroke: #ff7f0e; stroke-width: 2; stroke-linecap: square"/>
   </g>
   <g id="patch_3">
    <path d="M 159.305882 331.64875 
L 159.305882 30.6 
" style="fill: none; stroke: #000000; stroke-width: 1.2; stroke-linejoin: miter; stroke-linecap: square"/>
   </g>
   <g id="patch_4">
    <path d="M 169.305882 341.64875 
L 380.061961 341.64875 
" style="fill: none; stroke: #000000; stroke-width: 1.2; stroke-linejoin: miter; stroke-linecap: square"/>
   </g>
   <g id="text_10">
    <!-- Parity: + -->
    <g transform="translate(234.694859 35.459375) scale(0.2 -0.2)">
     <defs>
      <path id="STIXGeneral-Bold-50" d="M 102 4326 
L 2118 4326 
Q 2938 4326 3389 4035 
Q 3840 3744 3840 3168 
Q 3840 2784 3625 2499 
Q 3411 2214 3014 2067 
Q 2810 1990 2563 1968 
Q 2317 1946 1677 1939 
L 1677 710 
Q 1677 384 1766 294 
Q 1856 205 2234 160 
L 2234 0 
L 102 0 
L 102 160 
Q 314 179 390 218 
Q 538 275 589 409 
Q 640 544 640 806 
L 640 3539 
Q 640 3910 541 4022 
Q 442 4134 102 4166 
L 102 4326 
z
M 1677 3878 
L 1677 2163 
Q 2278 2170 2508 2368 
Q 2739 2566 2739 3098 
Q 2739 3635 2566 3868 
Q 2394 4102 1997 4102 
Q 1677 4102 1677 3878 
z
" transform="scale(0.015625)"/>
      <path id="STIXGeneral-Bold-61" d="M 3027 410 
L 3123 275 
Q 2784 -90 2406 -90 
Q 2170 -90 2051 9 
Q 1933 109 1882 352 
Q 1395 -90 864 -90 
Q 544 -90 352 80 
Q 160 250 160 589 
Q 160 1018 589 1306 
Q 909 1517 1875 1792 
L 1875 2227 
Q 1875 2541 1756 2681 
Q 1638 2822 1357 2822 
Q 1178 2822 1059 2758 
Q 941 2694 941 2586 
Q 941 2515 1011 2438 
Q 1133 2291 1133 2170 
Q 1133 2003 1011 1894 
Q 890 1786 698 1786 
Q 499 1786 390 1901 
Q 282 2016 282 2221 
Q 282 2598 618 2812 
Q 954 3027 1504 3027 
Q 2093 3027 2425 2803 
Q 2758 2579 2758 2170 
L 2758 499 
Q 2758 320 2893 320 
Q 2938 320 2963 346 
L 3027 410 
z
M 1875 621 
L 1875 1568 
Q 1094 1350 1094 794 
Q 1094 589 1187 477 
Q 1280 365 1427 365 
Q 1696 365 1875 621 
z
" transform="scale(0.015625)"/>
      <path id="STIXGeneral-Bold-72" d="M 1395 2950 
L 1395 2426 
Q 1619 2752 1817 2889 
Q 2016 3027 2259 3027 
Q 2483 3027 2630 2883 
Q 2778 2739 2778 2522 
Q 2778 2330 2666 2208 
Q 2554 2086 2374 2086 
Q 2138 2086 1990 2330 
Q 1901 2477 1811 2477 
Q 1645 2477 1533 2285 
Q 1421 2093 1421 1811 
L 1421 678 
Q 1421 371 1507 272 
Q 1594 173 1882 154 
L 1882 0 
L 186 0 
L 186 154 
Q 397 192 464 265 
Q 531 339 531 538 
L 531 2387 
Q 531 2611 460 2688 
Q 390 2765 179 2797 
L 179 2950 
L 1395 2950 
z
" transform="scale(0.015625)"/>
      <path id="STIXGeneral-Bold-69" d="M 1376 3923 
Q 1376 3712 1232 3571 
Q 1088 3430 877 3430 
Q 666 3430 525 3571 
Q 384 3712 384 3923 
Q 384 4134 528 4278 
Q 672 4422 890 4422 
Q 1088 4422 1232 4275 
Q 1376 4128 1376 3923 
z
M 1638 0 
L 102 0 
L 102 154 
Q 326 205 384 275 
Q 442 346 442 563 
L 442 2387 
Q 442 2598 374 2675 
Q 307 2752 96 2797 
L 96 2950 
L 1331 2950 
L 1331 544 
Q 1331 339 1398 259 
Q 1466 179 1638 154 
L 1638 0 
z
" transform="scale(0.015625)"/>
      <path id="STIXGeneral-Bold-74" d="M 1965 717 
L 2125 646 
Q 1926 250 1712 86 
Q 1498 -77 1178 -77 
Q 845 -77 653 105 
Q 461 288 461 608 
L 461 2669 
L 122 2669 
L 122 2842 
Q 435 3053 646 3299 
Q 858 3546 1190 4032 
L 1350 4032 
L 1350 2950 
L 1958 2950 
L 1958 2669 
L 1350 2669 
L 1350 762 
Q 1350 378 1600 378 
Q 1786 378 1965 717 
z
" transform="scale(0.015625)"/>
      <path id="STIXGeneral-Bold-79" d="M 3085 2950 
L 3085 2797 
Q 2931 2778 2854 2710 
Q 2778 2643 2701 2445 
L 1754 -102 
Q 1466 -877 1261 -1101 
Q 1062 -1312 723 -1312 
Q 448 -1312 275 -1171 
Q 102 -1030 102 -806 
Q 102 -621 211 -499 
Q 320 -378 499 -378 
Q 659 -378 771 -474 
Q 883 -570 883 -710 
Q 883 -736 870 -800 
L 864 -838 
Q 864 -883 896 -915 
Q 928 -947 973 -947 
Q 1216 -947 1395 -422 
L 1510 -83 
L 749 1773 
Q 435 2547 320 2707 
Q 269 2771 102 2797 
L 102 2950 
L 1696 2950 
L 1696 2797 
L 1594 2790 
Q 1363 2771 1363 2630 
Q 1363 2586 1491 2259 
L 1952 1069 
L 2387 2272 
Q 2458 2477 2458 2586 
Q 2458 2701 2387 2745 
Q 2317 2790 2112 2797 
L 2112 2950 
L 3085 2950 
z
" transform="scale(0.015625)"/>
      <path id="STIXGeneral-Bold-3a" d="M 1449 2861 
Q 1606 2701 1606 2477 
Q 1606 2253 1446 2096 
Q 1286 1939 1062 1939 
Q 838 1939 681 2096 
Q 525 2253 525 2483 
Q 525 2707 681 2864 
Q 838 3021 1069 3021 
Q 1293 3021 1449 2861 
z
M 1446 838 
Q 1606 678 1606 454 
Q 1606 230 1446 73 
Q 1286 -83 1062 -83 
Q 832 -83 678 70 
Q 525 224 525 454 
Q 525 678 685 838 
Q 845 998 1069 998 
Q 1286 998 1446 838 
z
" transform="scale(0.015625)"/>
      <path id="STIXGeneral-Bold-20" transform="scale(0.015625)"/>
      <path id="STIXGeneral-Bold-2b" d="M 4384 1338 
L 2682 1338 
L 2682 -365 
L 2118 -365 
L 2118 1338 
L 416 1338 
L 416 1901 
L 2118 1901 
L 2118 3603 
L 2682 3603 
L 2682 1901 
L 4384 1901 
L 4384 1338 
z
" transform="scale(0.015625)"/>
     </defs>
     <use xlink:href="#STIXGeneral-Bold-50"/>
     <use xlink:href="#STIXGeneral-Bold-61" transform="translate(61.099991 0)"/>
     <use xlink:href="#STIXGeneral-Bold-72" transform="translate(111.099976 0)"/>
     <use xlink:href="#STIXGeneral-Bold-69" transform="translate(155.499969 0)"/>
     <use xlink:href="#STIXGeneral-Bold-74" transform="translate(183.299957 0)"/>
     <use xlink:href="#STIXGeneral-Bold-79" transform="translate(216.599945 0)"/>
     <use xlink:href="#STIXGeneral-Bold-3a" transform="translate(266.59993 0)"/>
     <use xlink:href="#STIXGeneral-Bold-20" transform="translate(299.899918 0)"/>
     <use xlink:href="#STIXGeneral-Bold-2b" transform="translate(324.899902 0)"/>
    </g>
   </g>
   <g id="legend_1">
    <g id="line2d_11">
     <path d="M 320.613176 266.64875 
L 340.613176 266.64875 
L 360.613176 266.64875 
" style="fill: none; stroke: #1f77b4; stroke-width: 2; stroke-linecap: square"/>
    </g>
    <g id="text_11">
     <!-- $f_{A, 4}^+$ -->
     <g transform="translate(376.613176 273.64875) scale(0.2 -0.2)">
      <defs>
       <path id="STIXGeneral-Italic-66" d="M 262 2739 
L 858 2739 
Q 1107 3546 1318 3846 
Q 1664 4339 2163 4339 
Q 2400 4339 2557 4227 
Q 2714 4115 2714 3942 
Q 2714 3834 2634 3750 
Q 2554 3667 2445 3667 
Q 2355 3667 2281 3737 
Q 2208 3808 2208 3917 
Q 2208 3981 2240 4038 
Q 2272 4096 2272 4115 
Q 2272 4198 2131 4198 
Q 1862 4198 1676 3849 
Q 1491 3501 1350 2739 
L 2035 2739 
L 1997 2534 
L 1306 2534 
L 845 486 
Q 435 -1325 -435 -1325 
Q -653 -1325 -797 -1213 
Q -941 -1101 -941 -934 
Q -941 -826 -870 -746 
Q -800 -666 -698 -666 
Q -589 -666 -521 -733 
Q -454 -800 -454 -902 
Q -454 -947 -483 -1001 
Q -512 -1056 -512 -1088 
Q -512 -1190 -384 -1190 
Q 13 -1190 237 -154 
L 800 2534 
L 218 2534 
L 262 2739 
z
" transform="scale(0.015625)"/>
       <path id="STIXGeneral-Regular-2b" d="M 4070 1408 
L 2400 1408 
L 2400 -262 
L 1978 -262 
L 1978 1408 
L 307 1408 
L 307 1830 
L 1978 1830 
L 1978 3501 
L 2400 3501 
L 2400 1830 
L 4070 1830 
L 4070 1408 
z
" transform="scale(0.015625)"/>
       <path id="STIXGeneral-Italic-41" d="M 3610 0 
L 2042 0 
L 2042 102 
Q 2330 115 2432 192 
Q 2534 269 2534 442 
Q 2534 493 2522 608 
L 2394 1446 
L 986 1446 
L 608 736 
Q 467 474 467 314 
Q 467 122 864 102 
L 864 0 
L -326 0 
L -326 102 
Q -109 147 28 307 
Q 166 467 531 1101 
L 2355 4275 
L 2522 4275 
L 3110 736 
Q 3174 339 3264 230 
Q 3354 122 3610 102 
L 3610 0 
z
M 2362 1677 
L 2074 3360 
L 1120 1677 
L 2362 1677 
z
" transform="scale(0.015625)"/>
       <path id="STIXGeneral-Regular-2c" d="M 531 -902 
L 467 -781 
Q 998 -422 998 -96 
Q 998 -13 909 -13 
Q 883 -13 822 -25 
Q 762 -38 723 -38 
Q 352 -38 352 288 
Q 352 454 457 553 
Q 563 653 736 653 
Q 954 653 1101 496 
Q 1248 339 1248 96 
Q 1248 -198 1053 -473 
Q 858 -749 531 -902 
z
" transform="scale(0.015625)"/>
      </defs>
      <use xlink:href="#STIXGeneral-Italic-66" transform="translate(0 0.482813)"/>
      <use xlink:href="#STIXGeneral-Regular-2b" transform="translate(49.058766 36.707813) scale(0.7)"/>
      <use xlink:href="#STIXGeneral-Italic-41" transform="translate(27.799988 -25.973437) scale(0.7)"/>
      <use xlink:href="#STIXGeneral-Regular-2c" transform="translate(70.569981 -25.973437) scale(0.7)"/>
      <use xlink:href="#STIXGeneral-Regular-34" transform="translate(98.177968 -25.973437) scale(0.7)"/>
     </g>
    </g>
    <g id="line2d_12">
     <path d="M 320.613176 299.24875 
L 340.613176 299.24875 
L 360.613176 299.24875 
" style="fill: none; stroke: #ff7f0e; stroke-width: 2; stroke-linecap: square"/>
    </g>
    <g id="text_12">
     <!-- $f_{b, 4}^+$ -->
     <g transform="translate(376.613176 306.24875) scale(0.2 -0.2)">
      <defs>
       <path id="STIXGeneral-Italic-62" d="M 1043 1856 
L 1050 1856 
Q 1370 2387 1654 2604 
Q 1939 2822 2285 2822 
Q 2618 2822 2822 2617 
Q 3027 2413 3027 2054 
Q 3027 1562 2726 1062 
Q 2426 563 1942 246 
Q 1459 -70 979 -70 
Q 685 -70 416 32 
Q 147 134 147 269 
L 147 307 
L 1056 3654 
Q 1114 3885 1114 3955 
Q 1114 4058 1053 4080 
Q 992 4102 704 4115 
L 704 4224 
Q 1184 4282 1683 4371 
L 1715 4339 
L 1581 3814 
L 1043 1856 
z
M 2483 1958 
Q 2483 2509 2035 2509 
Q 1594 2509 1158 1773 
Q 954 1427 826 1008 
Q 698 589 698 294 
Q 698 77 992 77 
Q 1414 77 1779 454 
Q 2074 762 2278 1187 
Q 2483 1613 2483 1958 
z
" transform="scale(0.015625)"/>
      </defs>
      <use xlink:href="#STIXGeneral-Italic-66" transform="translate(0 0.990625)"/>
      <use xlink:href="#STIXGeneral-Regular-2b" transform="translate(49.058766 37.707813) scale(0.7)"/>
      <use xlink:href="#STIXGeneral-Italic-62" transform="translate(27.799988 -25.465625) scale(0.7)"/>
      <use xlink:href="#STIXGeneral-Regular-2c" transform="translate(62.799977 -25.465625) scale(0.7)"/>
      <use xlink:href="#STIXGeneral-Regular-34" transform="translate(90.407964 -25.465625) scale(0.7)"/>
     </g>
    </g>
   </g>
  </g>
  <g id="axes_2">
   <g id="patch_5">
    <path d="M 488.857255 331.64875 
L 699.613333 331.64875 
L 699.613333 30.6 
L 488.857255 30.6 
z
" style="fill: #ffffff"/>
   </g>
   <g id="matplotlib.axis_3">
    <g id="xtick_4">
     <g id="line2d_13">
      <g>
       <use xlink:href="#mf4aa88172d" x="488.857255" y="341.64875" style="stroke: #000000; stroke-width: 1.2"/>
      </g>
     </g>
     <g id="text_13">
      <!-- 3.0 -->
      <g transform="translate(478.857255 359.57625) scale(0.16 -0.16)">
       <use xlink:href="#STIXGeneral-Regular-33"/>
       <use xlink:href="#STIXGeneral-Regular-2e" transform="translate(49.999985 0)"/>
       <use xlink:href="#STIXGeneral-Regular-30" transform="translate(74.999969 0)"/>
      </g>
     </g>
    </g>
    <g id="xtick_5">
     <g id="line2d_14">
      <g>
       <use xlink:href="#mf4aa88172d" x="594.235294" y="341.64875" style="stroke: #000000; stroke-width: 1.2"/>
      </g>
     </g>
     <g id="text_14">
      <!-- 4.5 -->
      <g transform="translate(584.235294 359.57625) scale(0.16 -0.16)">
       <use xlink:href="#STIXGeneral-Regular-34"/>
       <use xlink:href="#STIXGeneral-Regular-2e" transform="translate(49.999985 0)"/>
       <use xlink:href="#STIXGeneral-Regular-35" transform="translate(74.999969 0)"/>
      </g>
     </g>
    </g>
    <g id="xtick_6">
     <g id="line2d_15">
      <g>
       <use xlink:href="#mf4aa88172d" x="699.613333" y="341.64875" style="stroke: #000000; stroke-width: 1.2"/>
      </g>
     </g>
     <g id="text_15">
      <!-- 6.0 -->
      <g transform="translate(689.613333 359.57625) scale(0.16 -0.16)">
       <use xlink:href="#STIXGeneral-Regular-36"/>
       <use xlink:href="#STIXGeneral-Regular-2e" transform="translate(49.999985 0)"/>
       <use xlink:href="#STIXGeneral-Regular-30" transform="translate(74.999969 0)"/>
      </g>
     </g>
    </g>
   </g>
   <g id="matplotlib.axis_4">
    <g id="ytick_6">
     <g id="line2d_16">
      <g>
       <use xlink:href="#m89ab06152b" x="478.857255" y="331.64875" style="stroke: #000000; stroke-width: 1.2"/>
      </g>
     </g>
     <g id="text_16">
      <!-- −3.0 -->
      <g transform="translate(440.897255 337.1125) scale(0.16 -0.16)">
       <use xlink:href="#STIXGeneral-Regular-2212"/>
       <use xlink:href="#STIXGeneral-Regular-33" transform="translate(68.499985 0)"/>
       <use xlink:href="#STIXGeneral-Regular-2e" transform="translate(118.499969 0)"/>
       <use xlink:href="#STIXGeneral-Regular-30" transform="translate(143.499954 0)"/>
      </g>
     </g>
    </g>
    <g id="ytick_7">
     <g id="line2d_17">
      <g>
       <use xlink:href="#m89ab06152b" x="478.857255" y="256.386562" style="stroke: #000000; stroke-width: 1.2"/>
      </g>
     </g>
     <g id="text_17">
      <!-- −1.5 -->
      <g transform="translate(440.897255 261.850312) scale(0.16 -0.16)">
       <use xlink:href="#STIXGeneral-Regular-2212"/>
       <use xlink:href="#STIXGeneral-Regular-31" transform="translate(68.499985 0)"/>
       <use xlink:href="#STIXGeneral-Regular-2e" transform="translate(118.499969 0)"/>
       <use xlink:href="#STIXGeneral-Regular-35" transform="translate(143.499954 0)"/>
      </g>
     </g>
    </g>
    <g id="ytick_8">
     <g id="line2d_18">
      <g>
       <use xlink:href="#m89ab06152b" x="478.857255" y="181.124375" style="stroke: #000000; stroke-width: 1.2"/>
      </g>
     </g>
     <g id="text_18">
      <!-- 0.0 -->
      <g transform="translate(451.857255 186.588125) scale(0.16 -0.16)">
       <use xlink:href="#STIXGeneral-Regular-30"/>
       <use xlink:href="#STIXGeneral-Regular-2e" transform="translate(49.999985 0)"/>
       <use xlink:href="#STIXGeneral-Regular-30" transform="translate(74.999969 0)"/>
      </g>
     </g>
    </g>
    <g id="ytick_9">
     <g id="line2d_19">
      <g>
       <use xlink:href="#m89ab06152b" x="478.857255" y="105.862188" style="stroke: #000000; stroke-width: 1.2"/>
      </g>
     </g>
     <g id="text_19">
      <!-- 1.5 -->
      <g transform="translate(451.857255 111.325938) scale(0.16 -0.16)">
       <use xlink:href="#STIXGeneral-Regular-31"/>
       <use xlink:href="#STIXGeneral-Regular-2e" transform="translate(49.999985 0)"/>
       <use xlink:href="#STIXGeneral-Regular-35" transform="translate(74.999969 0)"/>
      </g>
     </g>
    </g>
    <g id="ytick_10">
     <g id="line2d_20">
      <g>
       <use xlink:href="#m89ab06152b" x="478.857255" y="30.6" style="stroke: #000000; stroke-width: 1.2"/>
      </g>
     </g>
     <g id="text_20">
      <!-- 3.0 -->
      <g transform="translate(451.857255 36.06375) scale(0.16 -0.16)">
       <use xlink:href="#STIXGeneral-Regular-33"/>
       <use xlink:href="#STIXGeneral-Regular-2e" transform="translate(49.999985 0)"/>
       <use xlink:href="#STIXGeneral-Regular-30" transform="translate(74.999969 0)"/>
      </g>
     </g>
    </g>
   </g>
   <g id="line2d_21">
    <path d="M 453.731242 181.124375 
L 1081 181.124375 
L 1081 181.124375 
" clip-path="url(#pee711671d2)" style="fill: none; stroke: #1f77b4; stroke-width: 2; stroke-linecap: square"/>
   </g>
   <g id="line2d_22">
    <path d="M 453.731242 181.124375 
L 543.854304 181.220627 
L 546.052428 181.452325 
L 547.151489 181.706272 
L 548.250551 182.129893 
L 549.349613 182.816295 
L 550.448674 183.896052 
L 551.547737 185.543984 
L 552.646798 187.982204 
L 553.74586 191.475952 
L 554.844921 196.318144 
L 555.943983 202.798642 
L 557.043045 211.155558 
L 558.142107 221.508744 
L 559.241169 233.780088 
L 561.439292 262.294088 
L 562.538353 276.738135 
L 563.637415 289.491877 
L 564.736477 298.841655 
L 565.835539 302.992569 
L 566.934601 300.324389 
L 568.033662 289.693571 
L 569.132724 270.734087 
L 570.231786 244.095846 
L 572.42991 175.965237 
L 573.528971 140.967939 
L 574.628033 110.575443 
L 575.727094 88.585748 
L 576.826156 77.980066 
L 577.925218 80.39426 
L 579.02428 95.773376 
L 580.123341 122.287368 
L 582.321465 194.031159 
L 583.420527 229.832378 
L 584.519589 259.293119 
L 585.61865 278.715105 
L 586.717712 285.841273 
L 587.816773 280.096872 
L 588.915835 262.555648 
L 590.014897 235.659212 
L 594.411144 104.038813 
L 595.510205 80.772209 
L 596.609267 65.005471 
L 597.708329 56.923187 
L 598.807391 55.923835 
L 599.906453 60.847456 
L 601.005514 70.225125 
L 602.104576 82.50942 
L 605.401762 123.591122 
L 606.500823 135.637186 
L 607.599885 146.056177 
L 608.698946 154.732786 
L 609.798008 161.717959 
L 610.89707 167.170463 
L 611.996132 171.306543 
L 613.095194 174.360963 
L 614.194255 176.560021 
L 615.293317 178.105367 
L 616.392379 179.166394 
L 617.491441 179.87876 
L 618.590502 180.346793 
L 620.788626 180.837692 
L 622.986749 181.026015 
L 627.382996 181.114968 
L 657.057663 181.124375 
L 1081 181.124375 
L 1081 181.124375 
" clip-path="url(#pee711671d2)" style="fill: none; stroke: #ff7f0e; stroke-width: 2; stroke-linecap: square"/>
   </g>
   <g id="patch_6">
    <path d="M 478.857255 331.64875 
L 478.857255 30.6 
" style="fill: none; stroke: #000000; stroke-width: 1.2; stroke-linejoin: miter; stroke-linecap: square"/>
   </g>
   <g id="patch_7">
    <path d="M 488.857255 341.64875 
L 699.613333 341.64875 
" style="fill: none; stroke: #000000; stroke-width: 1.2; stroke-linejoin: miter; stroke-linecap: square"/>
   </g>
   <g id="text_21">
    <!-- Parity: - -->
    <g transform="translate(558.416544 35.459375) scale(0.2 -0.2)">
     <defs>
      <path id="STIXGeneral-Bold-2d" d="M 1837 1094 
L 282 1094 
L 282 1837 
L 1837 1837 
L 1837 1094 
z
" transform="scale(0.015625)"/>
     </defs>
     <use xlink:href="#STIXGeneral-Bold-50"/>
     <use xlink:href="#STIXGeneral-Bold-61" transform="translate(61.099991 0)"/>
     <use xlink:href="#STIXGeneral-Bold-72" transform="translate(111.099976 0)"/>
     <use xlink:href="#STIXGeneral-Bold-69" transform="translate(155.499969 0)"/>
     <use xlink:href="#STIXGeneral-Bold-74" transform="translate(183.299957 0)"/>
     <use xlink:href="#STIXGeneral-Bold-79" transform="translate(216.599945 0)"/>
     <use xlink:href="#STIXGeneral-Bold-3a" transform="translate(266.59993 0)"/>
     <use xlink:href="#STIXGeneral-Bold-20" transform="translate(299.899918 0)"/>
     <use xlink:href="#STIXGeneral-Bold-2d" transform="translate(324.899902 0)"/>
    </g>
   </g>
   <g id="legend_2">
    <g id="line2d_23">
     <path d="M 640.164549 267.84875 
L 660.164549 267.84875 
L 680.164549 267.84875 
" style="fill: none; stroke: #1f77b4; stroke-width: 2; stroke-linecap: square"/>
    </g>
    <g id="text_22">
     <!-- $f_{A, 4}^-$ -->
     <g transform="translate(696.164549 274.84875) scale(0.2 -0.2)">
      <use xlink:href="#STIXGeneral-Italic-66" transform="translate(0 0.203125)"/>
      <use xlink:href="#STIXGeneral-Regular-2212" transform="translate(49.058766 35.478125) scale(0.7)"/>
      <use xlink:href="#STIXGeneral-Italic-41" transform="translate(27.799988 -26.253125) scale(0.7)"/>
      <use xlink:href="#STIXGeneral-Regular-2c" transform="translate(70.569981 -26.253125) scale(0.7)"/>
      <use xlink:href="#STIXGeneral-Regular-34" transform="translate(98.177968 -26.253125) scale(0.7)"/>
     </g>
    </g>
    <g id="line2d_24">
     <path d="M 640.164549 299.24875 
L 660.164549 299.24875 
L 680.164549 299.24875 
" style="fill: none; stroke: #ff7f0e; stroke-width: 2; stroke-linecap: square"/>
    </g>
    <g id="text_23">
     <!-- $f_{b, 4}^-$ -->
     <g transform="translate(696.164549 306.24875) scale(0.2 -0.2)">
      <use xlink:href="#STIXGeneral-Italic-66" transform="translate(0 0.203125)"/>
      <use xlink:href="#STIXGeneral-Regular-2212" transform="translate(49.058766 35.478125) scale(0.7)"/>
      <use xlink:href="#STIXGeneral-Italic-62" transform="translate(27.799988 -26.253125) scale(0.7)"/>
      <use xlink:href="#STIXGeneral-Regular-2c" transform="translate(62.799977 -26.253125) scale(0.7)"/>
      <use xlink:href="#STIXGeneral-Regular-34" transform="translate(90.407964 -26.253125) scale(0.7)"/>
     </g>
    </g>
   </g>
  </g>
  <g id="axes_3">
   <g id="patch_8">
    <path d="M 808.408627 331.64875 
L 1019.164706 331.64875 
L 1019.164706 30.6 
L 808.408627 30.6 
z
" style="fill: #ffffff"/>
   </g>
   <g id="matplotlib.axis_5">
    <g id="xtick_7">
     <g id="line2d_25">
      <g>
       <use xlink:href="#mf4aa88172d" x="808.408627" y="341.64875" style="stroke: #000000; stroke-width: 1.2"/>
      </g>
     </g>
     <g id="text_24">
      <!-- 3.0 -->
      <g transform="translate(798.408627 359.57625) scale(0.16 -0.16)">
       <use xlink:href="#STIXGeneral-Regular-33"/>
       <use xlink:href="#STIXGeneral-Regular-2e" transform="translate(49.999985 0)"/>
       <use xlink:href="#STIXGeneral-Regular-30" transform="translate(74.999969 0)"/>
      </g>
     </g>
    </g>
    <g id="xtick_8">
     <g id="line2d_26">
      <g>
       <use xlink:href="#mf4aa88172d" x="913.786667" y="341.64875" style="stroke: #000000; stroke-width: 1.2"/>
      </g>
     </g>
     <g id="text_25">
      <!-- 4.5 -->
      <g transform="translate(903.786667 359.57625) scale(0.16 -0.16)">
       <use xlink:href="#STIXGeneral-Regular-34"/>
       <use xlink:href="#STIXGeneral-Regular-2e" transform="translate(49.999985 0)"/>
       <use xlink:href="#STIXGeneral-Regular-35" transform="translate(74.999969 0)"/>
      </g>
     </g>
    </g>
    <g id="xtick_9">
     <g id="line2d_27">
      <g>
       <use xlink:href="#mf4aa88172d" x="1019.164706" y="341.64875" style="stroke: #000000; stroke-width: 1.2"/>
      </g>
     </g>
     <g id="text_26">
      <!-- 6.0 -->
      <g transform="translate(1009.164706 359.57625) scale(0.16 -0.16)">
       <use xlink:href="#STIXGeneral-Regular-36"/>
       <use xlink:href="#STIXGeneral-Regular-2e" transform="translate(49.999985 0)"/>
       <use xlink:href="#STIXGeneral-Regular-30" transform="translate(74.999969 0)"/>
      </g>
     </g>
    </g>
   </g>
   <g id="matplotlib.axis_6">
    <g id="ytick_11">
     <g id="line2d_28">
      <g>
       <use xlink:href="#m89ab06152b" x="798.408627" y="331.64875" style="stroke: #000000; stroke-width: 1.2"/>
      </g>
     </g>
     <g id="text_27">
      <!-- −3.0 -->
      <g transform="translate(760.448627 337.1125) scale(0.16 -0.16)">
       <use xlink:href="#STIXGeneral-Regular-2212"/>
       <use xlink:href="#STIXGeneral-Regular-33" transform="translate(68.499985 0)"/>
       <use xlink:href="#STIXGeneral-Regular-2e" transform="translate(118.499969 0)"/>
       <use xlink:href="#STIXGeneral-Regular-30" transform="translate(143.499954 0)"/>
      </g>
     </g>
    </g>
    <g id="ytick_12">
     <g id="line2d_29">
      <g>
       <use xlink:href="#m89ab06152b" x="798.408627" y="183.591988" style="stroke: #000000; stroke-width: 1.2"/>
      </g>
     </g>
     <g id="text_28">
      <!-- −1.5 -->
      <g transform="translate(760.448627 189.055738) scale(0.16 -0.16)">
       <use xlink:href="#STIXGeneral-Regular-2212"/>
       <use xlink:href="#STIXGeneral-Regular-31" transform="translate(68.499985 0)"/>
       <use xlink:href="#STIXGeneral-Regular-2e" transform="translate(118.499969 0)"/>
       <use xlink:href="#STIXGeneral-Regular-35" transform="translate(143.499954 0)"/>
      </g>
     </g>
    </g>
    <g id="ytick_13">
     <g id="line2d_30">
      <g>
       <use xlink:href="#m89ab06152b" x="798.408627" y="35.535225" style="stroke: #000000; stroke-width: 1.2"/>
      </g>
     </g>
     <g id="text_29">
      <!-- 0.0 -->
      <g transform="translate(771.408627 40.998975) scale(0.16 -0.16)">
       <use xlink:href="#STIXGeneral-Regular-30"/>
       <use xlink:href="#STIXGeneral-Regular-2e" transform="translate(49.999985 0)"/>
       <use xlink:href="#STIXGeneral-Regular-30" transform="translate(74.999969 0)"/>
      </g>
     </g>
    </g>
   </g>
   <g id="line2d_31">
    <path d="M 773.282614 35.535225 
L 877.693479 35.598954 
L 879.891603 35.734503 
L 882.089726 36.10456 
L 883.188788 36.465825 
L 884.28785 37.022978 
L 885.386911 37.861874 
L 886.485973 39.095001 
L 887.585035 40.864473 
L 888.684097 43.342874 
L 889.783158 46.730783 
L 890.88222 51.249796 
L 891.981282 57.130099 
L 893.080344 64.592207 
L 894.179406 73.823214 
L 895.278467 84.948945 
L 896.377529 98.004461 
L 897.47659 112.90645 
L 899.674714 147.204441 
L 902.971899 202.144619 
L 904.070961 218.539901 
L 905.170022 232.6628 
L 906.269084 243.80023 
L 907.368146 251.374408 
L 908.467208 254.992859 
L 909.56627 254.482089 
L 910.665331 249.901153 
L 911.764393 241.533234 
L 912.863455 229.857105 
L 913.962517 215.502292 
L 916.16064 181.69173 
L 919.457825 129.049275 
L 921.655949 99.122949 
L 922.75501 86.625774 
L 923.854072 75.887492 
L 924.953134 66.869214 
L 926.052196 59.459785 
L 927.151258 53.499632 
L 928.250319 48.802518 
L 929.349381 45.173782 
L 930.448442 42.424311 
L 931.547504 40.380189 
L 932.646566 38.888414 
L 933.745628 37.819369 
L 934.84469 37.066827 
L 935.943751 36.546302 
L 937.042813 36.192424 
L 939.240936 35.800428 
L 942.538122 35.595957 
L 949.132492 35.537375 
L 1075.524592 35.535225 
L 1081 35.535225 
L 1081 35.535225 
" clip-path="url(#p074818b378)" style="fill: none; stroke: #000000; stroke-width: 2; stroke-linecap: square"/>
   </g>
   <g id="patch_9">
    <path d="M 798.408627 331.64875 
L 798.408627 35.535225 
" style="fill: none; stroke: #000000; stroke-width: 1.2; stroke-linejoin: miter; stroke-linecap: square"/>
   </g>
   <g id="patch_10">
    <path d="M 808.408627 341.64875 
L 1019.164706 341.64875 
" style="fill: none; stroke: #000000; stroke-width: 1.2; stroke-linejoin: miter; stroke-linecap: square"/>
   </g>
   <g id="legend_3">
    <g id="line2d_32">
     <path d="M 902.115922 293.3125 
L 922.115922 293.3125 
L 942.115922 293.3125 
" style="fill: none; stroke: #000000; stroke-width: 2; stroke-linecap: square"/>
    </g>
    <g id="text_30">
     <!-- X$^1\Sigma^+$, -->
     <g transform="translate(958.115922 288.57625) scale(0.2 -0.2)">
      <defs>
       <path id="STIXGeneral-Regular-58" d="M 4506 0 
L 2611 0 
L 2611 122 
L 2778 134 
Q 3098 154 3098 320 
Q 3098 461 2771 947 
L 2163 1850 
L 1402 896 
Q 1062 474 1062 326 
Q 1062 230 1168 185 
Q 1274 141 1549 122 
L 1549 0 
L 64 0 
L 64 122 
Q 314 147 470 268 
Q 627 390 992 851 
L 1990 2099 
L 1312 3091 
Q 864 3744 665 3913 
Q 467 4083 141 4115 
L 141 4237 
L 2067 4237 
L 2067 4115 
L 1882 4109 
Q 1734 4102 1660 4064 
Q 1587 4026 1587 3923 
Q 1587 3885 1596 3843 
Q 1606 3802 1635 3744 
Q 1664 3686 1689 3638 
Q 1715 3590 1769 3507 
Q 1824 3424 1862 3366 
Q 1901 3309 1984 3190 
Q 2067 3072 2118 2995 
L 2400 2586 
L 3117 3482 
Q 3373 3795 3373 3910 
Q 3373 4019 3283 4064 
Q 3194 4109 2938 4115 
L 2938 4237 
L 4454 4237 
L 4454 4115 
Q 4147 4096 3968 3977 
Q 3789 3859 3482 3482 
L 2566 2349 
L 3795 595 
Q 3981 326 4115 240 
Q 4250 154 4506 122 
L 4506 0 
z
" transform="scale(0.015625)"/>
       <path id="STIXGeneral-Regular-3a3" d="M 3840 1306 
L 3661 0 
L 192 0 
L 192 96 
L 1901 2074 
L 192 4141 
L 192 4237 
L 3558 4237 
L 3558 3206 
L 3398 3206 
Q 3328 3674 3110 3834 
Q 2893 3994 2438 3994 
L 1107 3994 
L 2464 2349 
L 947 608 
L 2931 608 
Q 3290 608 3453 768 
Q 3616 928 3693 1306 
L 3840 1306 
z
" transform="scale(0.015625)"/>
      </defs>
      <use xlink:href="#STIXGeneral-Regular-58" transform="translate(0 0.409375)"/>
      <use xlink:href="#STIXGeneral-Regular-31" transform="translate(73.743263 35.684375) scale(0.7)"/>
      <use xlink:href="#STIXGeneral-Regular-3a3" transform="translate(113.152627 0.409375)"/>
      <use xlink:href="#STIXGeneral-Regular-2b" transform="translate(187.2039 35.684375) scale(0.7)"/>
      <use xlink:href="#STIXGeneral-Regular-2c" transform="translate(249.671262 0.409375)"/>
     </g>
     <!-- $\nu=0, J=1$ -->
     <g transform="translate(958.115922 309.308125) scale(0.2 -0.2)">
      <defs>
       <path id="STIXGeneral-Italic-3bd" d="M 2835 2778 
L 2938 2752 
Q 2867 2342 2752 1971 
Q 2637 1600 2422 1216 
Q 2208 832 1929 553 
Q 1651 275 1232 89 
Q 813 -96 307 -115 
Q 128 -115 128 26 
Q 128 64 147 109 
L 736 2240 
Q 749 2304 749 2349 
Q 749 2451 653 2483 
Q 557 2515 333 2522 
L 333 2624 
L 1376 2822 
L 1395 2810 
L 723 390 
Q 2208 531 2835 2778 
z
" transform="scale(0.015625)"/>
       <path id="STIXGeneral-Regular-3d" d="M 4077 2048 
L 307 2048 
L 307 2470 
L 4077 2470 
L 4077 2048 
z
M 4077 768 
L 307 768 
L 307 1190 
L 4077 1190 
L 4077 768 
z
" transform="scale(0.015625)"/>
       <path id="STIXGeneral-Italic-4a" d="M 3142 4179 
L 3142 4077 
Q 2867 4038 2784 3964 
Q 2701 3891 2618 3603 
L 1958 1254 
Q 1773 589 1504 237 
Q 1235 -115 710 -115 
Q 371 -115 166 38 
Q -38 192 -38 448 
Q -38 602 42 704 
Q 122 806 250 806 
Q 378 806 477 720 
Q 576 634 576 512 
Q 576 474 566 419 
Q 557 365 557 339 
Q 557 90 781 90 
Q 1005 90 1120 499 
L 1933 3405 
Q 2010 3686 2010 3814 
Q 2010 3942 1914 3996 
Q 1818 4051 1517 4077 
L 1517 4179 
L 3142 4179 
z
" transform="scale(0.015625)"/>
      </defs>
      <use xlink:href="#STIXGeneral-Italic-3bd" transform="translate(0 0.40625)"/>
      <use xlink:href="#STIXGeneral-Regular-3d" transform="translate(61.439981 0.40625)"/>
      <use xlink:href="#STIXGeneral-Regular-30" transform="translate(144.379962 0.40625)"/>
      <use xlink:href="#STIXGeneral-Regular-2c" transform="translate(194.379947 0.40625)"/>
      <use xlink:href="#STIXGeneral-Italic-4a" transform="translate(233.819928 0.40625)"/>
      <use xlink:href="#STIXGeneral-Regular-3d" transform="translate(292.659918 0.40625)"/>
      <use xlink:href="#STIXGeneral-Regular-31" transform="translate(375.599899 0.40625)"/>
     </g>
    </g>
   </g>
  </g>
  <g id="text_31">
   <!-- Internuclear separation [$\AA$] -->
   <g transform="translate(486.8 397.36) scale(0.2 -0.2)">
    <defs>
     <path id="STIXGeneral-Regular-49" d="M 2016 0 
L 115 0 
L 115 122 
Q 518 134 627 240 
Q 736 346 736 717 
L 736 3526 
Q 736 3898 633 3994 
Q 531 4090 115 4115 
L 115 4237 
L 2016 4237 
L 2016 4115 
Q 1613 4096 1501 3993 
Q 1389 3891 1389 3526 
L 1389 717 
Q 1389 358 1504 246 
Q 1619 134 2016 122 
L 2016 0 
z
" transform="scale(0.015625)"/>
     <path id="STIXGeneral-Regular-72" d="M 1024 2931 
L 1024 2342 
Q 1267 2688 1430 2816 
Q 1594 2944 1792 2944 
Q 1958 2944 2051 2854 
Q 2144 2765 2144 2605 
Q 2144 2470 2077 2393 
Q 2010 2317 1894 2317 
Q 1773 2317 1638 2445 
Q 1536 2541 1472 2541 
Q 1338 2541 1181 2355 
Q 1024 2170 1024 2016 
L 1024 576 
Q 1024 301 1133 205 
Q 1242 109 1568 96 
L 1568 0 
L 32 0 
L 32 96 
Q 339 154 412 224 
Q 486 294 486 538 
L 486 2138 
Q 486 2349 438 2435 
Q 390 2522 269 2522 
Q 166 2522 45 2496 
L 45 2598 
Q 448 2726 992 2944 
L 1024 2931 
z
" transform="scale(0.015625)"/>
     <path id="STIXGeneral-Regular-20" transform="scale(0.015625)"/>
     <path id="STIXGeneral-Regular-73" d="M 998 1926 
L 1664 1523 
Q 1984 1331 2105 1164 
Q 2227 998 2227 736 
Q 2227 416 1961 176 
Q 1696 -64 1331 -64 
Q 1030 -64 864 -6 
Q 691 51 570 51 
Q 461 51 416 -26 
L 333 -26 
L 333 979 
L 435 979 
Q 538 512 730 294 
Q 922 77 1248 77 
Q 1485 77 1632 211 
Q 1779 346 1779 550 
Q 1779 845 1440 1030 
L 1094 1222 
Q 326 1651 326 2150 
Q 326 2522 566 2730 
Q 806 2938 1210 2938 
Q 1491 2938 1638 2867 
Q 1754 2816 1818 2816 
Q 1862 2816 1920 2880 
L 1990 2880 
L 2022 2010 
L 1926 2010 
Q 1818 2445 1654 2621 
Q 1491 2797 1203 2797 
Q 986 2797 854 2688 
Q 723 2579 723 2362 
Q 723 2253 796 2128 
Q 870 2003 998 1926 
z
" transform="scale(0.015625)"/>
     <path id="STIXGeneral-Regular-5b" d="M 1914 -998 
L 563 -998 
L 563 4237 
L 1914 4237 
L 1914 4077 
L 1382 4077 
Q 1216 4077 1133 4006 
Q 1050 3936 1050 3770 
L 1050 -493 
Q 1050 -838 1382 -838 
L 1914 -838 
L 1914 -998 
z
" transform="scale(0.015625)"/>
     <path id="STIXGeneral-Italic-c5" d="M 3610 0 
L 2042 0 
L 2042 102 
Q 2330 115 2432 192 
Q 2534 269 2534 442 
Q 2534 493 2522 608 
L 2394 1446 
L 986 1446 
L 608 736 
Q 467 474 467 314 
Q 467 122 864 102 
L 864 0 
L -326 0 
L -326 102 
Q -109 147 28 307 
Q 166 467 531 1101 
L 2355 4275 
L 2522 4275 
L 3110 736 
Q 3174 339 3264 230 
Q 3354 122 3610 102 
L 3610 0 
z
M 2362 1677 
L 2074 3360 
L 1120 1677 
L 2362 1677 
z
M 3043 5936 
Q 3232 5747 3232 5484 
Q 3232 5222 3043 5036 
Q 2854 4851 2592 4851 
Q 2317 4851 2134 5036 
Q 1952 5222 1952 5491 
Q 1952 5747 2141 5936 
Q 2330 6125 2586 6125 
Q 2854 6125 3043 5936 
z
M 2892 5187 
Q 3014 5306 3014 5485 
Q 3014 5664 2889 5785 
Q 2765 5907 2586 5907 
Q 2419 5907 2294 5782 
Q 2170 5658 2170 5491 
Q 2170 5312 2288 5190 
Q 2406 5069 2586 5069 
Q 2771 5069 2892 5187 
z
" transform="scale(0.015625)"/>
     <path id="STIXGeneral-Regular-5d" d="M 1568 -998 
L 218 -998 
L 218 -838 
L 781 -838 
Q 947 -838 1014 -768 
Q 1082 -698 1082 -544 
L 1082 3731 
Q 1082 4077 755 4077 
L 218 4077 
L 218 4237 
L 1568 4237 
L 1568 -998 
z
" transform="scale(0.015625)"/>
    </defs>
    <use xlink:href="#STIXGeneral-Regular-49" transform="translate(0 0.296875)"/>
    <use xlink:href="#STIXGeneral-Regular-6e" transform="translate(33.299988 0.296875)"/>
    <use xlink:href="#STIXGeneral-Regular-74" transform="translate(83.299973 0.296875)"/>
    <use xlink:href="#STIXGeneral-Regular-65" transform="translate(111.09996 0.296875)"/>
    <use xlink:href="#STIXGeneral-Regular-72" transform="translate(155.499954 0.296875)"/>
    <use xlink:href="#STIXGeneral-Regular-6e" transform="translate(188.799942 0.296875)"/>
    <use xlink:href="#STIXGeneral-Regular-75" transform="translate(238.799927 0.296875)"/>
    <use xlink:href="#STIXGeneral-Regular-63" transform="translate(288.799911 0.296875)"/>
    <use xlink:href="#STIXGeneral-Regular-6c" transform="translate(333.199905 0.296875)"/>
    <use xlink:href="#STIXGeneral-Regular-65" transform="translate(360.999893 0.296875)"/>
    <use xlink:href="#STIXGeneral-Regular-61" transform="translate(405.399887 0.296875)"/>
    <use xlink:href="#STIXGeneral-Regular-72" transform="translate(449.799881 0.296875)"/>
    <use xlink:href="#STIXGeneral-Regular-20" transform="translate(483.099869 0.296875)"/>
    <use xlink:href="#STIXGeneral-Regular-73" transform="translate(508.099854 0.296875)"/>
    <use xlink:href="#STIXGeneral-Regular-65" transform="translate(546.999847 0.296875)"/>
    <use xlink:href="#STIXGeneral-Regular-70" transform="translate(591.399841 0.296875)"/>
    <use xlink:href="#STIXGeneral-Regular-61" transform="translate(641.399826 0.296875)"/>
    <use xlink:href="#STIXGeneral-Regular-72" transform="translate(685.79982 0.296875)"/>
    <use xlink:href="#STIXGeneral-Regular-61" transform="translate(719.099808 0.296875)"/>
    <use xlink:href="#STIXGeneral-Regular-74" transform="translate(763.499802 0.296875)"/>
    <use xlink:href="#STIXGeneral-Regular-69" transform="translate(791.299789 0.296875)"/>
    <use xlink:href="#STIXGeneral-Regular-6f" transform="translate(819.099777 0.296875)"/>
    <use xlink:href="#STIXGeneral-Regular-6e" transform="translate(869.099762 0.296875)"/>
    <use xlink:href="#STIXGeneral-Regular-20" transform="translate(919.099747 0.296875)"/>
    <use xlink:href="#STIXGeneral-Regular-5b" transform="translate(944.099731 0.296875)"/>
    <use xlink:href="#STIXGeneral-Italic-c5" transform="translate(977.399719 0.296875)"/>
    <use xlink:href="#STIXGeneral-Regular-5d" transform="translate(1038.49971 0.296875)"/>
   </g>
  </g>
 </g>
 <defs>
  <clipPath id="pd3c87b8f37">
   <rect x="169.305882" y="30.6" width="210.756078" height="301.04875"/>
  </clipPath>
  <clipPath id="pee711671d2">
   <rect x="488.857255" y="30.6" width="210.756078" height="301.04875"/>
  </clipPath>
  <clipPath id="p074818b378">
   <rect x="808.408627" y="30.6" width="210.756078" height="301.04875"/>
  </clipPath>
 </defs>
</svg>
